%TF.GenerationSoftware,KiCad,Pcbnew,9.0.7+1*%
%TF.CreationDate,Date%
%TF.ProjectId,DumbFCC,44756d62-4643-4432-9e6b-696361645f70,1.0.0+ (Unreleased)*%
%TF.SameCoordinates,Original*%
%TF.FileFunction,Copper,L4,Bot*%
%TF.FilePolarity,Positive*%
%FSLAX46Y46*%
G04 Gerber Fmt 4.6, Leading zero omitted, Abs format (unit mm)*
G04 Created by KiCad*
%MOMM*%
%LPD*%
G01*
G04 APERTURE LIST*
G04 Aperture macros list*
%AMRoundRect*
0 Rectangle with rounded corners*
0 $1 Rounding radius*
0 $2 $3 $4 $5 $6 $7 $8 $9 X,Y pos of 4 corners*
0 Add a 4 corners polygon primitive as box body*
4,1,4,$2,$3,$4,$5,$6,$7,$8,$9,$2,$3,0*
0 Add four circle primitives for the rounded corners*
1,1,$1+$1,$2,$3*
1,1,$1+$1,$4,$5*
1,1,$1+$1,$6,$7*
1,1,$1+$1,$8,$9*
0 Add four rect primitives between the rounded corners*
20,1,$1+$1,$2,$3,$4,$5,0*
20,1,$1+$1,$4,$5,$6,$7,0*
20,1,$1+$1,$6,$7,$8,$9,0*
20,1,$1+$1,$8,$9,$2,$3,0*%
G04 Aperture macros list end*
%TA.AperFunction,ComponentPad*%
%ADD10R,1.700000X1.700000*%
%TD*%
%TA.AperFunction,ComponentPad*%
%ADD11C,1.700000*%
%TD*%
%TA.AperFunction,ComponentPad*%
%ADD12C,1.308000*%
%TD*%
%TA.AperFunction,WasherPad*%
%ADD13O,1.803400X0.990600*%
%TD*%
%TA.AperFunction,WasherPad*%
%ADD14O,2.209800X0.990600*%
%TD*%
%TA.AperFunction,ComponentPad*%
%ADD15R,1.950000X1.950000*%
%TD*%
%TA.AperFunction,ComponentPad*%
%ADD16C,1.950000*%
%TD*%
%TA.AperFunction,ComponentPad*%
%ADD17C,3.600000*%
%TD*%
%TA.AperFunction,ConnectorPad*%
%ADD18C,6.400000*%
%TD*%
%TA.AperFunction,ComponentPad*%
%ADD19C,1.400000*%
%TD*%
%TA.AperFunction,SMDPad,CuDef*%
%ADD20RoundRect,0.250000X0.262500X0.450000X-0.262500X0.450000X-0.262500X-0.450000X0.262500X-0.450000X0*%
%TD*%
%TA.AperFunction,SMDPad,CuDef*%
%ADD21R,1.680000X0.800000*%
%TD*%
%TA.AperFunction,SMDPad,CuDef*%
%ADD22R,1.400000X1.290000*%
%TD*%
%TA.AperFunction,SMDPad,CuDef*%
%ADD23R,1.700000X1.500000*%
%TD*%
%TA.AperFunction,SMDPad,CuDef*%
%ADD24R,1.500000X1.600000*%
%TD*%
%TA.AperFunction,SMDPad,CuDef*%
%ADD25RoundRect,0.250000X-0.250000X-0.475000X0.250000X-0.475000X0.250000X0.475000X-0.250000X0.475000X0*%
%TD*%
%TA.AperFunction,SMDPad,CuDef*%
%ADD26RoundRect,0.250000X-0.475000X0.250000X-0.475000X-0.250000X0.475000X-0.250000X0.475000X0.250000X0*%
%TD*%
%TA.AperFunction,SMDPad,CuDef*%
%ADD27RoundRect,0.150000X-0.150000X0.825000X-0.150000X-0.825000X0.150000X-0.825000X0.150000X0.825000X0*%
%TD*%
%TA.AperFunction,SMDPad,CuDef*%
%ADD28RoundRect,0.162500X0.162500X-0.650000X0.162500X0.650000X-0.162500X0.650000X-0.162500X-0.650000X0*%
%TD*%
%TA.AperFunction,ViaPad*%
%ADD29C,0.700000*%
%TD*%
%TA.AperFunction,Conductor*%
%ADD30C,0.200000*%
%TD*%
%TA.AperFunction,Conductor*%
%ADD31C,0.350000*%
%TD*%
G04 APERTURE END LIST*
D10*
%TO.P,J100,1,Pin_1*%
%TO.N,GND*%
X183000000Y-92275000D03*
D11*
%TO.P,J100,2,Pin_2*%
%TO.N,+5V*%
X183000000Y-89735000D03*
%TD*%
D12*
%TO.P,BZ400,1,+*%
%TO.N,/Project Architecture/MCU/BUZZ*%
X162900000Y-71980750D03*
%TO.P,BZ400,2,-*%
%TO.N,GND*%
X167900000Y-71980750D03*
%TD*%
D10*
%TO.P,J300,1,Pin_1*%
%TO.N,GND*%
X149000000Y-108250000D03*
D11*
%TO.P,J300,2,Pin_2*%
%TO.N,/Project Architecture/MCU/ECHO*%
X146460000Y-108250000D03*
%TO.P,J300,3,Pin_3*%
%TO.N,/Project Architecture/MCU/TRIG*%
X143920000Y-108250000D03*
%TO.P,J300,4,Pin_4*%
%TO.N,+5V*%
X141380000Y-108250000D03*
%TD*%
D13*
%TO.P,J506,*%
%TO.N,*%
X179271800Y-82320000D03*
D14*
X183271801Y-82320000D03*
D13*
X179271800Y-73680000D03*
D14*
X183271801Y-73680000D03*
%TD*%
D10*
%TO.P,J501,1,Pin_1*%
%TO.N,GND*%
X136000000Y-108250000D03*
D11*
%TO.P,J501,2,Pin_2*%
%TO.N,/Project Architecture/Connections/UART_TX*%
X133460000Y-108250000D03*
%TO.P,J501,3,Pin_3*%
%TO.N,/Project Architecture/Connections/UART_RX*%
X130920000Y-108250000D03*
%TO.P,J501,4,Pin_4*%
%TO.N,+3V3*%
X128380000Y-108250000D03*
%TD*%
D15*
%TO.P,SW401,1,1*%
%TO.N,/Project Architecture/Connections/NRST*%
X149200000Y-97400000D03*
D16*
%TO.P,SW401,2,2*%
%TO.N,GND*%
X155700000Y-97400000D03*
%TD*%
D17*
%TO.P,H201,1,1*%
%TO.N,GND*%
X180000000Y-65000000D03*
D18*
X180000000Y-65000000D03*
%TD*%
D19*
%TO.P,JP200,1,A*%
%TO.N,/Project Architecture/MCU/BOOT*%
X151602500Y-74300000D03*
%TO.P,JP200,2,B*%
%TO.N,+3V3*%
X154142500Y-74300000D03*
%TD*%
D10*
%TO.P,J504,1,Pin_1*%
%TO.N,/Project Architecture/Connections/PWM_1*%
X152960000Y-64275000D03*
D11*
%TO.P,J504,2,Pin_2*%
%TO.N,/Project Architecture/Connections/PWM_2*%
X152960000Y-61735000D03*
%TO.P,J504,3,Pin_3*%
%TO.N,+5V*%
X155500000Y-64275000D03*
%TO.P,J504,4,Pin_4*%
X155500000Y-61735000D03*
%TO.P,J504,5,Pin_5*%
%TO.N,GND*%
X158040000Y-64275000D03*
%TO.P,J504,6,Pin_6*%
X158040000Y-61735000D03*
%TD*%
D17*
%TO.P,H202,1,1*%
%TO.N,GND*%
X119500000Y-105000000D03*
D18*
X119500000Y-105000000D03*
%TD*%
D17*
%TO.P,H203,1,1*%
%TO.N,GND*%
X180000000Y-105500000D03*
D18*
X180000000Y-105500000D03*
%TD*%
D17*
%TO.P,H200,1,1*%
%TO.N,GND*%
X120000000Y-65000000D03*
D18*
X120000000Y-65000000D03*
%TD*%
D10*
%TO.P,J500,1,Pin_1*%
%TO.N,GND*%
X139880000Y-61750000D03*
D11*
%TO.P,J500,2,Pin_2*%
%TO.N,/Project Architecture/Connections/SWCLK*%
X142420000Y-61750000D03*
%TO.P,J500,3,Pin_3*%
%TO.N,/Project Architecture/Connections/SWDIO*%
X144960000Y-61750000D03*
%TO.P,J500,4,Pin_4*%
%TO.N,/Project Architecture/Connections/NRST*%
X147500000Y-61750000D03*
%TD*%
D10*
%TO.P,J502,1,Pin_1*%
%TO.N,/Project Architecture/Connections/I2C_PERIPH_SCL*%
X163880000Y-61750000D03*
D11*
%TO.P,J502,2,Pin_2*%
%TO.N,/Project Architecture/Connections/I2C_PERIPH_SDA*%
X166420000Y-61750000D03*
%TO.P,J502,3,Pin_3*%
%TO.N,+3V3*%
X168960000Y-61750000D03*
%TO.P,J502,4,Pin_4*%
%TO.N,GND*%
X171500000Y-61750000D03*
%TD*%
D10*
%TO.P,J503,1,Pin_1*%
%TO.N,/Project Architecture/Connections/CANH*%
X183000000Y-95975000D03*
D11*
%TO.P,J503,2,Pin_2*%
%TO.N,/Project Architecture/Connections/CANL*%
X183000000Y-98515000D03*
%TD*%
D10*
%TO.P,J505,1,Pin_1*%
%TO.N,/Project Architecture/Connections/GIMB_PITCH*%
X128460000Y-64275000D03*
D11*
%TO.P,J505,2,Pin_2*%
%TO.N,/Project Architecture/Connections/GIMB_ROLL*%
X128460000Y-61735000D03*
%TO.P,J505,3,Pin_3*%
%TO.N,+5V*%
X131000000Y-64275000D03*
%TO.P,J505,4,Pin_4*%
X131000000Y-61735000D03*
%TO.P,J505,5,Pin_5*%
%TO.N,GND*%
X133540000Y-64275000D03*
%TO.P,J505,6,Pin_6*%
X133540000Y-61735000D03*
%TD*%
D20*
%TO.P,R502,1*%
%TO.N,/Project Architecture/Connections/CANL*%
X178812500Y-96300000D03*
%TO.P,R502,2*%
%TO.N,/Project Architecture/Connections/CANH*%
X176987500Y-96300000D03*
%TD*%
D21*
%TO.P,J402,1,DAT2*%
%TO.N,unconnected-(J402-DAT2-Pad1)*%
X131360000Y-91850000D03*
%TO.P,J402,2,CD/DAT3*%
%TO.N,/Project Architecture/MCU/CS_SD*%
X131360000Y-90750000D03*
%TO.P,J402,3,CMD*%
%TO.N,/Project Architecture/MCU/SPI_MOSI*%
X131360000Y-89650000D03*
%TO.P,J402,4,VDD*%
%TO.N,+3V3*%
X131360000Y-88550000D03*
%TO.P,J402,5,CLK*%
%TO.N,/Project Architecture/MCU/SPI_SCK*%
X131360000Y-87450000D03*
%TO.P,J402,6,VSS*%
%TO.N,GND*%
X131360000Y-86350000D03*
%TO.P,J402,7,DAT0*%
%TO.N,/Project Architecture/MCU/SPI_MISO*%
X131360000Y-85250000D03*
%TO.P,J402,8,DAT1*%
%TO.N,unconnected-(J402-DAT1-Pad8)*%
X131360000Y-84150000D03*
D22*
%TO.P,J402,DN,DET_NAIL*%
%TO.N,unconnected-(J402-DET_NAIL-PadDN)*%
X129800000Y-82095000D03*
D23*
%TO.P,J402,SH1,SHIELD*%
%TO.N,unconnected-(J402-SHIELD-PadSH1)*%
X116600000Y-95700000D03*
%TO.P,J402,SH2,SHIELD*%
%TO.N,unconnected-(J402-SHIELD-PadSH1)_1*%
X116600000Y-82200000D03*
D24*
%TO.P,J402,SH3,SHIELD*%
%TO.N,unconnected-(J402-SHIELD-PadSH1)_3*%
X131450000Y-82750000D03*
%TO.P,J402,SH4,SHIELD*%
%TO.N,unconnected-(J402-SHIELD-PadSH1)_2*%
X131450000Y-95400000D03*
D22*
%TO.P,J402,SN,SW_NAIL*%
%TO.N,unconnected-(J402-SW_NAIL-PadSN)*%
X122400000Y-82095000D03*
%TD*%
D25*
%TO.P,C400,1*%
%TO.N,GND*%
X134550000Y-95800000D03*
%TO.P,C400,2*%
%TO.N,+3V3*%
X136450000Y-95800000D03*
%TD*%
%TO.P,C500,1*%
%TO.N,GND*%
X177050000Y-84500000D03*
%TO.P,C500,2*%
%TO.N,+5V*%
X178950000Y-84500000D03*
%TD*%
D26*
%TO.P,C501,1*%
%TO.N,GND*%
X173500000Y-90150000D03*
%TO.P,C501,2*%
%TO.N,+3V3*%
X173500000Y-92050000D03*
%TD*%
D27*
%TO.P,U500,1,TXD*%
%TO.N,/Project Architecture/Connections/CAN_TX*%
X176095000Y-87325000D03*
%TO.P,U500,2,VSS*%
%TO.N,GND*%
X177365000Y-87325000D03*
%TO.P,U500,3,VDD*%
%TO.N,+5V*%
X178635000Y-87325000D03*
%TO.P,U500,4,RXD*%
%TO.N,/Project Architecture/Connections/CAN_RX*%
X179905000Y-87325000D03*
%TO.P,U500,5,VIO*%
%TO.N,+3V3*%
X179905000Y-92275000D03*
%TO.P,U500,6,CANL*%
%TO.N,/Project Architecture/Connections/CANL*%
X178635000Y-92275000D03*
%TO.P,U500,7,CANH*%
%TO.N,/Project Architecture/Connections/CANH*%
X177365000Y-92275000D03*
%TO.P,U500,8,STBY*%
%TO.N,unconnected-(U500-STBY-Pad8)*%
X176095000Y-92275000D03*
%TD*%
D28*
%TO.P,U400,1,~{CE}*%
%TO.N,/Project Architecture/MCU/CS_FLASH*%
X138905000Y-93487500D03*
%TO.P,U400,2,SO*%
%TO.N,/Project Architecture/MCU/SPI_MISO*%
X137635000Y-93487500D03*
%TO.P,U400,3,~{WP}*%
%TO.N,+3V3*%
X136365000Y-93487500D03*
%TO.P,U400,4,VSS*%
%TO.N,GND*%
X135095000Y-93487500D03*
%TO.P,U400,5,SI*%
%TO.N,/Project Architecture/MCU/SPI_MOSI*%
X135095000Y-86312500D03*
%TO.P,U400,6,SCK*%
%TO.N,/Project Architecture/MCU/SPI_SCK*%
X136365000Y-86312500D03*
%TO.P,U400,7,~{HOLD}*%
%TO.N,+3V3*%
X137635000Y-86312500D03*
%TO.P,U400,8,VDD*%
X138905000Y-86312500D03*
%TD*%
D29*
%TO.N,GND*%
X122000000Y-78000000D03*
X176000000Y-102500000D03*
X119000000Y-77000000D03*
X121000000Y-79000000D03*
X175000000Y-68500000D03*
X119500000Y-94000000D03*
X120000000Y-78000000D03*
X156000000Y-105000000D03*
X146000000Y-68500000D03*
X172025000Y-77400000D03*
X119500000Y-98000000D03*
X159000000Y-71500000D03*
X145000000Y-100000000D03*
X120000000Y-80000000D03*
X165000000Y-97000000D03*
X126900000Y-89600000D03*
X120500000Y-95000000D03*
X174000000Y-67500000D03*
X118500000Y-95000000D03*
X144000000Y-99000000D03*
X128900000Y-85300000D03*
X177000000Y-101500000D03*
X125000000Y-68000000D03*
X146000000Y-99000000D03*
X121000000Y-77000000D03*
X176000000Y-69500000D03*
X137500000Y-64500000D03*
X174000000Y-69500000D03*
X173000000Y-66500000D03*
X162000000Y-100000000D03*
X120000000Y-76000000D03*
X119000000Y-79000000D03*
X165000000Y-100000000D03*
X118500000Y-97000000D03*
X118000000Y-78000000D03*
X165500000Y-98500000D03*
X145000000Y-98000000D03*
X119500000Y-96000000D03*
X120500000Y-97000000D03*
%TO.N,/Project Architecture/MCU/BUZZ*%
X157100000Y-84300000D03*
%TO.N,+3V3*%
X170500000Y-68000000D03*
X138300000Y-87700000D03*
X129000000Y-87500000D03*
X172500000Y-98600000D03*
X132900000Y-92000000D03*
X169000000Y-80100000D03*
%TO.N,+5V*%
X170700000Y-88800000D03*
%TO.N,/Project Architecture/Connections/NRST*%
X154400000Y-82100000D03*
%TO.N,/Project Architecture/Connections/UART_RX*%
X154391986Y-90500000D03*
%TO.N,/Project Architecture/Connections/UART_TX*%
X155000000Y-91500000D03*
%TO.N,/Project Architecture/Connections/PWM_2*%
X158700000Y-83100000D03*
%TO.N,/Project Architecture/Connections/PWM_1*%
X159500000Y-83500000D03*
%TO.N,/Project Architecture/Connections/GIMB_PITCH*%
X150900000Y-77300000D03*
%TO.N,/Project Architecture/Connections/GIMB_ROLL*%
X149850000Y-77550000D03*
%TO.N,/Project Architecture/Connections/SWCLK*%
X153800000Y-77400000D03*
%TO.N,/Project Architecture/Connections/SWDIO*%
X155250000Y-80150000D03*
%TO.N,/Project Architecture/MCU/I2C_SENS_SDA*%
X129300000Y-79250000D03*
X126000000Y-80200000D03*
X140300000Y-72500000D03*
%TO.N,/Project Architecture/MCU/LED_ERR*%
X159900000Y-98400000D03*
X150000000Y-95000000D03*
%TO.N,/Project Architecture/MCU/I2C_SENS_SCL*%
X127200000Y-80200000D03*
X130300000Y-75400000D03*
X140400000Y-76000000D03*
%TO.N,/Project Architecture/MCU/MAG_INT*%
X156450000Y-81050000D03*
X133400000Y-81400000D03*
%TO.N,/Project Architecture/MCU/IMU_INT_2*%
X140400000Y-77600000D03*
X152096194Y-77500000D03*
%TO.N,/Project Architecture/MCU/IMU_INT_1*%
X157500000Y-82000000D03*
X128800000Y-86500000D03*
%TO.N,/Project Architecture/Connections/CAN_TX*%
X163600000Y-82100000D03*
%TO.N,/Project Architecture/Connections/CAN_RX*%
X165000000Y-82900000D03*
%TO.N,/Project Architecture/MCU/SPI_MISO*%
X156300000Y-88100000D03*
%TO.N,/Project Architecture/MCU/CS_SD*%
X154500000Y-87800000D03*
%TO.N,/Project Architecture/MCU/SPI_SCK*%
X155700000Y-88900000D03*
%TO.N,/Project Architecture/MCU/SPI_MOSI*%
X157100000Y-87600000D03*
%TO.N,/Project Architecture/MCU/CS_FLASH*%
X155825000Y-90325000D03*
%TO.N,/Project Architecture/Connections/I2C_PERIPH_SDA*%
X165900000Y-68200000D03*
X164750000Y-79750000D03*
%TO.N,/Project Architecture/Connections/I2C_PERIPH_SCL*%
X163662500Y-79562500D03*
X164400000Y-68300000D03*
%TD*%
D30*
%TO.N,GND*%
X177050000Y-85450000D02*
X177265000Y-85665000D01*
X177265000Y-85665000D02*
X177265000Y-87325000D01*
X135095000Y-94705000D02*
X135095000Y-93487500D01*
X134550000Y-95250000D02*
X135095000Y-94705000D01*
X134550000Y-95800000D02*
X134550000Y-95250000D01*
X177050000Y-84500000D02*
X177050000Y-85450000D01*
%TO.N,/Project Architecture/MCU/BUZZ*%
X161500000Y-83100000D02*
X161500000Y-73380750D01*
X161500000Y-73380750D02*
X162900000Y-71980750D01*
X160300000Y-84300000D02*
X161500000Y-83100000D01*
X157100000Y-84300000D02*
X160300000Y-84300000D01*
%TO.N,+3V3*%
X129100000Y-87500000D02*
X129000000Y-87500000D01*
X172500000Y-94100000D02*
X173500000Y-93100000D01*
X130200000Y-89100000D02*
X130200000Y-92700000D01*
X131360000Y-88550000D02*
X130750000Y-88550000D01*
X169000000Y-80100000D02*
X170500000Y-78600000D01*
X172500000Y-98600000D02*
X172500000Y-94100000D01*
D31*
X179805000Y-92275000D02*
X179805000Y-91705000D01*
D30*
X170500000Y-78600000D02*
X170500000Y-68000000D01*
X136450000Y-93572500D02*
X136365000Y-93487500D01*
X128700000Y-87500000D02*
X128300000Y-87900000D01*
X136450000Y-95800000D02*
X136450000Y-93572500D01*
X138900000Y-87500000D02*
X138900000Y-87600000D01*
X136447500Y-95330000D02*
X136362500Y-95245000D01*
X138900000Y-87600000D02*
X138800000Y-87700000D01*
X179600000Y-90500000D02*
X175050000Y-90500000D01*
X128300000Y-108170000D02*
X128380000Y-108250000D01*
X130750000Y-88550000D02*
X130200000Y-89100000D01*
X175050000Y-90500000D02*
X173500000Y-92050000D01*
X137635000Y-87535000D02*
X137635000Y-86312500D01*
X179600000Y-90500000D02*
X179905000Y-90805000D01*
X138900000Y-87500000D02*
X138905000Y-87495000D01*
X179905000Y-90805000D02*
X179905000Y-92275000D01*
X128300000Y-87900000D02*
X128300000Y-108170000D01*
X132300000Y-93400000D02*
X132900000Y-92800000D01*
X138800000Y-87700000D02*
X138300000Y-87700000D01*
X130900000Y-93400000D02*
X132300000Y-93400000D01*
X129000000Y-87500000D02*
X128700000Y-87500000D01*
X130200000Y-92700000D02*
X130900000Y-93400000D01*
X137800000Y-87700000D02*
X137635000Y-87535000D01*
X173500000Y-93100000D02*
X173500000Y-92050000D01*
X138300000Y-87700000D02*
X137800000Y-87700000D01*
X138905000Y-87495000D02*
X138905000Y-86312500D01*
X132900000Y-92800000D02*
X132900000Y-92000000D01*
D31*
%TO.N,+5V*%
X157825000Y-66600000D02*
X155500000Y-64275000D01*
X141380000Y-107220000D02*
X141380000Y-108250000D01*
X144900000Y-103700000D02*
X141380000Y-107220000D01*
X171500000Y-66600000D02*
X157825000Y-66600000D01*
X172800000Y-67900000D02*
X171500000Y-66600000D01*
X170700000Y-88800000D02*
X155800000Y-103700000D01*
X178535000Y-85865000D02*
X178535000Y-87325000D01*
X178635000Y-84815000D02*
X178950000Y-84500000D01*
X155800000Y-103700000D02*
X144900000Y-103700000D01*
X179450000Y-84500000D02*
X183000000Y-88050000D01*
X172800000Y-78350000D02*
X172800000Y-67900000D01*
X178950000Y-84500000D02*
X179450000Y-84500000D01*
X178950000Y-84500000D02*
X172800000Y-78350000D01*
X178950000Y-85450000D02*
X178535000Y-85865000D01*
X183000000Y-88050000D02*
X183000000Y-89735000D01*
X178950000Y-84500000D02*
X178950000Y-85450000D01*
D30*
%TO.N,/Project Architecture/Connections/NRST*%
X156600000Y-75300000D02*
X147500000Y-66200000D01*
X154400000Y-82100000D02*
X156600000Y-79900000D01*
X147500000Y-66200000D02*
X147500000Y-61750000D01*
X156600000Y-79900000D02*
X156600000Y-75300000D01*
%TO.N,/Project Architecture/Connections/UART_RX*%
X154416026Y-90524040D02*
X154391986Y-90500000D01*
X154391986Y-90500000D02*
X148670000Y-90500000D01*
X148670000Y-90500000D02*
X130920000Y-108250000D01*
%TO.N,/Project Architecture/Connections/UART_TX*%
X133600000Y-108110000D02*
X133460000Y-108250000D01*
X155024000Y-91376000D02*
X154300000Y-92100000D01*
X154300000Y-92100000D02*
X148200000Y-92100000D01*
X133600000Y-106700000D02*
X133600000Y-108110000D01*
X148200000Y-92100000D02*
X133600000Y-106700000D01*
%TO.N,/Project Architecture/Connections/CANL*%
X178635000Y-96122500D02*
X178635000Y-92275000D01*
X182300000Y-94100000D02*
X183900000Y-94100000D01*
X184400000Y-97115000D02*
X183000000Y-98515000D01*
X184400000Y-94600000D02*
X184400000Y-97115000D01*
X178812500Y-96300000D02*
X180100000Y-96300000D01*
X183900000Y-94100000D02*
X184400000Y-94600000D01*
X182797500Y-98312500D02*
X183000000Y-98515000D01*
X178812500Y-96300000D02*
X178635000Y-96122500D01*
X180100000Y-96300000D02*
X182300000Y-94100000D01*
%TO.N,/Project Architecture/Connections/CANH*%
X176987500Y-96300000D02*
X178587500Y-97900000D01*
X177365000Y-95922500D02*
X177365000Y-92275000D01*
X176987500Y-96300000D02*
X177365000Y-95922500D01*
X181075000Y-97900000D02*
X183000000Y-95975000D01*
X178587500Y-97900000D02*
X181075000Y-97900000D01*
%TO.N,/Project Architecture/Connections/PWM_2*%
X151300000Y-62500000D02*
X152065000Y-61735000D01*
X152065000Y-61735000D02*
X152960000Y-61735000D01*
X151300000Y-68600000D02*
X151300000Y-62500000D01*
X158700000Y-76000000D02*
X151300000Y-68600000D01*
X158700000Y-83100000D02*
X158700000Y-76000000D01*
%TO.N,/Project Architecture/Connections/PWM_1*%
X159500000Y-74900000D02*
X152960000Y-68360000D01*
X159500000Y-83500000D02*
X159500000Y-74900000D01*
X152960000Y-68360000D02*
X152960000Y-64275000D01*
%TO.N,/Project Architecture/Connections/GIMB_PITCH*%
X142200000Y-68600000D02*
X130900000Y-68600000D01*
X150900000Y-77300000D02*
X142200000Y-68600000D01*
X130900000Y-68600000D02*
X128460000Y-66160000D01*
X128460000Y-66160000D02*
X128460000Y-64275000D01*
%TO.N,/Project Architecture/Connections/GIMB_ROLL*%
X126300000Y-66200000D02*
X129500000Y-69400000D01*
X128460000Y-61735000D02*
X127865000Y-61735000D01*
X127865000Y-61735000D02*
X126300000Y-63300000D01*
X149850000Y-77550000D02*
X149900000Y-77600000D01*
X141700000Y-69400000D02*
X149850000Y-77550000D01*
X126300000Y-63300000D02*
X126300000Y-66200000D01*
X129500000Y-69400000D02*
X141700000Y-69400000D01*
%TO.N,/Project Architecture/Connections/SWCLK*%
X153200000Y-76800000D02*
X152100000Y-76800000D01*
X152100000Y-76800000D02*
X142420000Y-67120000D01*
X153800000Y-77400000D02*
X153200000Y-76800000D01*
X142420000Y-67120000D02*
X142420000Y-61750000D01*
%TO.N,/Project Architecture/Connections/SWDIO*%
X144960000Y-65660000D02*
X144960000Y-61750000D01*
X155200000Y-80100000D02*
X155200000Y-77000000D01*
X152700000Y-73400000D02*
X144960000Y-65660000D01*
X155250000Y-80150000D02*
X155200000Y-80100000D01*
X155200000Y-77000000D02*
X152700000Y-74500000D01*
X152700000Y-74500000D02*
X152700000Y-73400000D01*
X155306587Y-80206587D02*
X155250000Y-80150000D01*
%TO.N,/Project Architecture/MCU/I2C_SENS_SDA*%
X126000000Y-80200000D02*
X126950000Y-79250000D01*
X129300000Y-79250000D02*
X129450000Y-79250000D01*
X129450000Y-73350000D02*
X130300000Y-72500000D01*
X129450000Y-79250000D02*
X129450000Y-73350000D01*
X140300000Y-72500000D02*
X140400000Y-72500000D01*
X126950000Y-79250000D02*
X129300000Y-79250000D01*
X130300000Y-72500000D02*
X140300000Y-72500000D01*
%TO.N,/Project Architecture/MCU/LED_ERR*%
X159900000Y-98400000D02*
X156600000Y-95100000D01*
X156600000Y-95100000D02*
X150000000Y-95100000D01*
%TO.N,/Project Architecture/MCU/I2C_SENS_SCL*%
X129800000Y-80200000D02*
X127200000Y-80200000D01*
X130300000Y-75400000D02*
X139800000Y-75400000D01*
X130300000Y-75400000D02*
X130300000Y-79700000D01*
X127200000Y-80200000D02*
X127100000Y-80200000D01*
X130300000Y-79700000D02*
X129800000Y-80200000D01*
X139800000Y-75400000D02*
X140400000Y-76000000D01*
%TO.N,/Project Architecture/MCU/MAG_INT*%
X135300000Y-83300000D02*
X154200000Y-83300000D01*
X154200000Y-83300000D02*
X156450000Y-81050000D01*
X156450000Y-81050000D02*
X156500000Y-81000000D01*
X133400000Y-81400000D02*
X135300000Y-83300000D01*
%TO.N,/Project Architecture/MCU/IMU_INT_2*%
X149996194Y-79600000D02*
X142400000Y-79600000D01*
X152096194Y-77500000D02*
X149996194Y-79600000D01*
X142400000Y-79600000D02*
X140400000Y-77600000D01*
%TO.N,/Project Architecture/MCU/IMU_INT_1*%
X128800000Y-86500000D02*
X127500000Y-85200000D01*
X134700000Y-84000000D02*
X155500000Y-84000000D01*
X128875000Y-86500000D02*
X128800000Y-86500000D01*
X127500000Y-85200000D02*
X127500000Y-81500000D01*
X128000000Y-81000000D02*
X131700000Y-81000000D01*
X127500000Y-81500000D02*
X128000000Y-81000000D01*
X131700000Y-81000000D02*
X134700000Y-84000000D01*
X155500000Y-84000000D02*
X157500000Y-82000000D01*
%TO.N,/Project Architecture/Connections/CAN_TX*%
X173112500Y-86912500D02*
X168300000Y-82100000D01*
X168300000Y-82100000D02*
X163600000Y-82100000D01*
X176095000Y-86912500D02*
X173112500Y-86912500D01*
%TO.N,/Project Architecture/Connections/CAN_RX*%
X179905000Y-88299999D02*
X179905000Y-87325000D01*
X174500000Y-89300000D02*
X178904999Y-89300000D01*
X178904999Y-89300000D02*
X179905000Y-88299999D01*
X165000000Y-82900000D02*
X168100000Y-82900000D01*
X168100000Y-82900000D02*
X174500000Y-89300000D01*
%TO.N,/Project Architecture/MCU/SPI_MISO*%
X131060000Y-85355000D02*
X130020000Y-85355000D01*
X130300000Y-98000000D02*
X137000000Y-98000000D01*
X156400000Y-88200000D02*
X156300000Y-88100000D01*
X144000000Y-91400000D02*
X138100000Y-91400000D01*
X137632500Y-97367500D02*
X137632500Y-92805000D01*
X155000000Y-88200000D02*
X154600000Y-88600000D01*
X138100000Y-91400000D02*
X137632500Y-91867500D01*
X137632500Y-91867500D02*
X137632500Y-92805000D01*
X130020000Y-85355000D02*
X129700000Y-85675000D01*
X137000000Y-98000000D02*
X137632500Y-97367500D01*
X129700000Y-97400000D02*
X130300000Y-98000000D01*
X154600000Y-88600000D02*
X146800000Y-88600000D01*
X146800000Y-88600000D02*
X144000000Y-91400000D01*
X129700000Y-85675000D02*
X129700000Y-97400000D01*
X156400000Y-88200000D02*
X155000000Y-88200000D01*
%TO.N,/Project Architecture/MCU/CS_SD*%
X131060000Y-90855000D02*
X142945000Y-90855000D01*
X146000000Y-87800000D02*
X154500000Y-87800000D01*
X142945000Y-90855000D02*
X146000000Y-87800000D01*
%TO.N,/Project Architecture/MCU/SPI_SCK*%
X136400000Y-84800000D02*
X134700000Y-84800000D01*
X156100000Y-84800000D02*
X136400000Y-84800000D01*
X136365000Y-86312500D02*
X136365000Y-84835000D01*
X134700000Y-84800000D02*
X131945000Y-87555000D01*
X158400000Y-87800000D02*
X158400000Y-87100000D01*
X157300000Y-88900000D02*
X158400000Y-87800000D01*
X158400000Y-87100000D02*
X156100000Y-84800000D01*
X136365000Y-84835000D02*
X136400000Y-84800000D01*
X155700000Y-88900000D02*
X157300000Y-88900000D01*
X131945000Y-87555000D02*
X131060000Y-87555000D01*
%TO.N,/Project Architecture/MCU/SPI_MOSI*%
X157100000Y-87600000D02*
X156500000Y-87000000D01*
X135100000Y-89115000D02*
X135092500Y-89107500D01*
X135095000Y-86312500D02*
X135095000Y-89295000D01*
X131060000Y-89755000D02*
X135092500Y-89755000D01*
X156500000Y-87000000D02*
X145600000Y-87000000D01*
X135100000Y-89300000D02*
X135100000Y-89115000D01*
X145600000Y-87000000D02*
X142845000Y-89755000D01*
X135092500Y-89755000D02*
X135092500Y-89107500D01*
X135095000Y-89295000D02*
X135100000Y-89300000D01*
X142845000Y-89755000D02*
X135100000Y-89755000D01*
X135100000Y-89755000D02*
X135100000Y-89300000D01*
%TO.N,/Project Architecture/MCU/CS_FLASH*%
X154824000Y-89324000D02*
X148576000Y-89324000D01*
X148576000Y-89324000D02*
X144412500Y-93487500D01*
X155825000Y-90325000D02*
X154824000Y-89324000D01*
X144412500Y-93487500D02*
X138905000Y-93487500D01*
%TO.N,/Project Architecture/Connections/I2C_PERIPH_SDA*%
X165900000Y-78600000D02*
X165900000Y-68200000D01*
X164750000Y-79750000D02*
X165900000Y-78600000D01*
%TO.N,/Project Architecture/Connections/I2C_PERIPH_SCL*%
X163500000Y-79725000D02*
X163662500Y-79562500D01*
X164400000Y-78825000D02*
X164400000Y-68300000D01*
X163662500Y-79562500D02*
X164400000Y-78825000D01*
X164400000Y-68300000D02*
X164400000Y-68200000D01*
%TD*%
%TA.AperFunction,Conductor*%
%TO.N,GND*%
G36*
X128138906Y-60520185D02*
G01*
X128184661Y-60572989D01*
X128194605Y-60642147D01*
X128165580Y-60705703D01*
X128119320Y-60739061D01*
X127962403Y-60804057D01*
X127790342Y-60919024D01*
X127644024Y-61065342D01*
X127529058Y-61237403D01*
X127449870Y-61428579D01*
X127449868Y-61428587D01*
X127409500Y-61631530D01*
X127409500Y-61714167D01*
X127389815Y-61781206D01*
X127373181Y-61801848D01*
X126059543Y-63115486D01*
X126059535Y-63115495D01*
X126019982Y-63184004D01*
X126019979Y-63184009D01*
X126009130Y-63224500D01*
X125999500Y-63260438D01*
X125999500Y-66239562D01*
X126019979Y-66315989D01*
X126036446Y-66344511D01*
X126059540Y-66384511D01*
X129259540Y-69584511D01*
X129315489Y-69640460D01*
X129315491Y-69640461D01*
X129315495Y-69640464D01*
X129384004Y-69680017D01*
X129384011Y-69680021D01*
X129460438Y-69700500D01*
X141524167Y-69700500D01*
X141591206Y-69720185D01*
X141611848Y-69736819D01*
X149263181Y-77388152D01*
X149296666Y-77449475D01*
X149299500Y-77475833D01*
X149299500Y-77477525D01*
X149299500Y-77622475D01*
X149336977Y-77762340D01*
X149337017Y-77762488D01*
X149409488Y-77888011D01*
X149409490Y-77888013D01*
X149409491Y-77888015D01*
X149511985Y-77990509D01*
X149511986Y-77990510D01*
X149511988Y-77990511D01*
X149637511Y-78062982D01*
X149637512Y-78062982D01*
X149637515Y-78062984D01*
X149777525Y-78100500D01*
X149777528Y-78100500D01*
X149922472Y-78100500D01*
X149922475Y-78100500D01*
X150062485Y-78062984D01*
X150188015Y-77990509D01*
X150290509Y-77888015D01*
X150362984Y-77762485D01*
X150362984Y-77762482D01*
X150363067Y-77762340D01*
X150413634Y-77714125D01*
X150482241Y-77700901D01*
X150547105Y-77726869D01*
X150558135Y-77736659D01*
X150561985Y-77740509D01*
X150561986Y-77740510D01*
X150561988Y-77740511D01*
X150687511Y-77812982D01*
X150687512Y-77812982D01*
X150687515Y-77812984D01*
X150827525Y-77850500D01*
X150827528Y-77850500D01*
X150972473Y-77850500D01*
X150972475Y-77850500D01*
X151001185Y-77842807D01*
X151071032Y-77844468D01*
X151128895Y-77883630D01*
X151156401Y-77947857D01*
X151144816Y-78016760D01*
X151120959Y-78050262D01*
X149908042Y-79263181D01*
X149846719Y-79296666D01*
X149820361Y-79299500D01*
X142575833Y-79299500D01*
X142508794Y-79279815D01*
X142488152Y-79263181D01*
X140986819Y-77761848D01*
X140953334Y-77700525D01*
X140950500Y-77674167D01*
X140950500Y-77527527D01*
X140950500Y-77527525D01*
X140912984Y-77387515D01*
X140870632Y-77314160D01*
X140840511Y-77261988D01*
X140840506Y-77261982D01*
X140738017Y-77159493D01*
X140738011Y-77159488D01*
X140612488Y-77087017D01*
X140612489Y-77087017D01*
X140601006Y-77083940D01*
X140472475Y-77049500D01*
X140327525Y-77049500D01*
X140198993Y-77083940D01*
X140187511Y-77087017D01*
X140061988Y-77159488D01*
X140061982Y-77159493D01*
X139959493Y-77261982D01*
X139959488Y-77261988D01*
X139887017Y-77387511D01*
X139887016Y-77387515D01*
X139849500Y-77527525D01*
X139849500Y-77672475D01*
X139887016Y-77812485D01*
X139887017Y-77812488D01*
X139959488Y-77938011D01*
X139959490Y-77938013D01*
X139959491Y-77938015D01*
X140061985Y-78040509D01*
X140061986Y-78040510D01*
X140061988Y-78040511D01*
X140187511Y-78112982D01*
X140187512Y-78112982D01*
X140187515Y-78112984D01*
X140327525Y-78150500D01*
X140327528Y-78150500D01*
X140474167Y-78150500D01*
X140541206Y-78170185D01*
X140561848Y-78186819D01*
X142159540Y-79784511D01*
X142215489Y-79840460D01*
X142215491Y-79840461D01*
X142215495Y-79840464D01*
X142254843Y-79863181D01*
X142284011Y-79880021D01*
X142360438Y-79900500D01*
X142360440Y-79900500D01*
X150035754Y-79900500D01*
X150035756Y-79900500D01*
X150112183Y-79880021D01*
X150180705Y-79840460D01*
X150236654Y-79784511D01*
X151934345Y-78086818D01*
X151995668Y-78053334D01*
X152022026Y-78050500D01*
X152168666Y-78050500D01*
X152168669Y-78050500D01*
X152308679Y-78012984D01*
X152434209Y-77940509D01*
X152536703Y-77838015D01*
X152609178Y-77712485D01*
X152646694Y-77572475D01*
X152646694Y-77427525D01*
X152609178Y-77287515D01*
X152609176Y-77287512D01*
X152609176Y-77287510D01*
X152609175Y-77287507D01*
X152608591Y-77286496D01*
X152608357Y-77285534D01*
X152606066Y-77280001D01*
X152606928Y-77279643D01*
X152592121Y-77218595D01*
X152614975Y-77152569D01*
X152669898Y-77109381D01*
X152715980Y-77100500D01*
X153024167Y-77100500D01*
X153053607Y-77109144D01*
X153083594Y-77115668D01*
X153088609Y-77119422D01*
X153091206Y-77120185D01*
X153111848Y-77136819D01*
X153213181Y-77238152D01*
X153246666Y-77299475D01*
X153249500Y-77325833D01*
X153249500Y-77327525D01*
X153249500Y-77472475D01*
X153287016Y-77612485D01*
X153287017Y-77612488D01*
X153359488Y-77738011D01*
X153359490Y-77738013D01*
X153359491Y-77738015D01*
X153461985Y-77840509D01*
X153461986Y-77840510D01*
X153461988Y-77840511D01*
X153587511Y-77912982D01*
X153587512Y-77912982D01*
X153587515Y-77912984D01*
X153727525Y-77950500D01*
X153727528Y-77950500D01*
X153872472Y-77950500D01*
X153872475Y-77950500D01*
X154012485Y-77912984D01*
X154138015Y-77840509D01*
X154240509Y-77738015D01*
X154312984Y-77612485D01*
X154350500Y-77472475D01*
X154350500Y-77327525D01*
X154312984Y-77187515D01*
X154306239Y-77175833D01*
X154240511Y-77061988D01*
X154240506Y-77061982D01*
X154138017Y-76959493D01*
X154138011Y-76959488D01*
X154012488Y-76887017D01*
X154012489Y-76887017D01*
X153999882Y-76883639D01*
X153872475Y-76849500D01*
X153727525Y-76849500D01*
X153725833Y-76849500D01*
X153658794Y-76829815D01*
X153638152Y-76813181D01*
X153384512Y-76559541D01*
X153384507Y-76559537D01*
X153368853Y-76550499D01*
X153368851Y-76550499D01*
X153339297Y-76533436D01*
X153315990Y-76519979D01*
X153289876Y-76512982D01*
X153239562Y-76499500D01*
X153239560Y-76499500D01*
X152275833Y-76499500D01*
X152208794Y-76479815D01*
X152188152Y-76463181D01*
X151002463Y-75277492D01*
X150968978Y-75216169D01*
X150973962Y-75146477D01*
X151015834Y-75090544D01*
X151081298Y-75066127D01*
X151149571Y-75080979D01*
X151159036Y-75086710D01*
X151175944Y-75098008D01*
X151175959Y-75098016D01*
X151278425Y-75140458D01*
X151339834Y-75165894D01*
X151339836Y-75165894D01*
X151339841Y-75165896D01*
X151513804Y-75200499D01*
X151513807Y-75200500D01*
X151513809Y-75200500D01*
X151691193Y-75200500D01*
X151691194Y-75200499D01*
X151756471Y-75187515D01*
X151865158Y-75165896D01*
X151865161Y-75165894D01*
X151865166Y-75165894D01*
X152029047Y-75098013D01*
X152176535Y-74999464D01*
X152301964Y-74874035D01*
X152357050Y-74791593D01*
X152410660Y-74746789D01*
X152479985Y-74738082D01*
X152543013Y-74768236D01*
X152547832Y-74772804D01*
X154863181Y-77088152D01*
X154896666Y-77149475D01*
X154899500Y-77175833D01*
X154899500Y-79670614D01*
X154879815Y-79737653D01*
X154863181Y-79758295D01*
X154809493Y-79811982D01*
X154809488Y-79811988D01*
X154737017Y-79937511D01*
X154732998Y-79952510D01*
X154699500Y-80077525D01*
X154699500Y-80222475D01*
X154727543Y-80327132D01*
X154737017Y-80362488D01*
X154809488Y-80488011D01*
X154809490Y-80488013D01*
X154809491Y-80488015D01*
X154911985Y-80590509D01*
X154911986Y-80590510D01*
X154911988Y-80590511D01*
X154944866Y-80609493D01*
X155037515Y-80662984D01*
X155125442Y-80686544D01*
X155185101Y-80722908D01*
X155215630Y-80785755D01*
X155207335Y-80855131D01*
X155181028Y-80893999D01*
X154561847Y-81513181D01*
X154500524Y-81546666D01*
X154474166Y-81549500D01*
X154472475Y-81549500D01*
X154327525Y-81549500D01*
X154198993Y-81583940D01*
X154187511Y-81587017D01*
X154061988Y-81659488D01*
X154061982Y-81659493D01*
X153959493Y-81761982D01*
X153959488Y-81761988D01*
X153887017Y-81887511D01*
X153887016Y-81887515D01*
X153849500Y-82027525D01*
X153849500Y-82172475D01*
X153887016Y-82312485D01*
X153887017Y-82312488D01*
X153959488Y-82438011D01*
X153959490Y-82438013D01*
X153959491Y-82438015D01*
X154061985Y-82540509D01*
X154061986Y-82540510D01*
X154061988Y-82540511D01*
X154187511Y-82612982D01*
X154187512Y-82612982D01*
X154187515Y-82612984D01*
X154191429Y-82614032D01*
X154196575Y-82615412D01*
X154201757Y-82618570D01*
X154207813Y-82619004D01*
X154231244Y-82636544D01*
X154256235Y-82651777D01*
X154258887Y-82657237D01*
X154263747Y-82660875D01*
X154273976Y-82688301D01*
X154286763Y-82714625D01*
X154286042Y-82720651D01*
X154288164Y-82726340D01*
X154281943Y-82754936D01*
X154278468Y-82784000D01*
X154274271Y-82790199D01*
X154273312Y-82794612D01*
X154252162Y-82822867D01*
X154111846Y-82963182D01*
X154050526Y-82996666D01*
X154024167Y-82999500D01*
X135475833Y-82999500D01*
X135408794Y-82979815D01*
X135388152Y-82963181D01*
X133986819Y-81561848D01*
X133953334Y-81500525D01*
X133950500Y-81474167D01*
X133950500Y-81327527D01*
X133950500Y-81327525D01*
X133912984Y-81187515D01*
X133907004Y-81177158D01*
X133840511Y-81061988D01*
X133840506Y-81061982D01*
X133738017Y-80959493D01*
X133738011Y-80959488D01*
X133612488Y-80887017D01*
X133612489Y-80887017D01*
X133601006Y-80883940D01*
X133472475Y-80849500D01*
X133327525Y-80849500D01*
X133198993Y-80883940D01*
X133187511Y-80887017D01*
X133061988Y-80959488D01*
X133061982Y-80959493D01*
X132959493Y-81061982D01*
X132959488Y-81061988D01*
X132887017Y-81187511D01*
X132887016Y-81187515D01*
X132849500Y-81327525D01*
X132849500Y-81327527D01*
X132849500Y-81425167D01*
X132829815Y-81492206D01*
X132777011Y-81537961D01*
X132707853Y-81547905D01*
X132644297Y-81518880D01*
X132637819Y-81512848D01*
X131884512Y-80759541D01*
X131884507Y-80759537D01*
X131867124Y-80749502D01*
X131867120Y-80749498D01*
X131867120Y-80749499D01*
X131836613Y-80731886D01*
X131815990Y-80719979D01*
X131786167Y-80711988D01*
X131739562Y-80699500D01*
X129998615Y-80699500D01*
X129931576Y-80679815D01*
X129885821Y-80627011D01*
X129875877Y-80557853D01*
X129904902Y-80494297D01*
X129936615Y-80468113D01*
X129971851Y-80447769D01*
X129984511Y-80440460D01*
X130040460Y-80384511D01*
X130540460Y-79884511D01*
X130580022Y-79815988D01*
X130600500Y-79739562D01*
X130600500Y-79660438D01*
X130600500Y-75929386D01*
X130609144Y-75899945D01*
X130615668Y-75869959D01*
X130619422Y-75864943D01*
X130620185Y-75862347D01*
X130636819Y-75841705D01*
X130741705Y-75736819D01*
X130803028Y-75703334D01*
X130829386Y-75700500D01*
X139624167Y-75700500D01*
X139691206Y-75720185D01*
X139711848Y-75736819D01*
X139813181Y-75838152D01*
X139846666Y-75899475D01*
X139849500Y-75925833D01*
X139849500Y-75927525D01*
X139849500Y-76072475D01*
X139877195Y-76175833D01*
X139887017Y-76212488D01*
X139959488Y-76338011D01*
X139959490Y-76338013D01*
X139959491Y-76338015D01*
X140061985Y-76440509D01*
X140061986Y-76440510D01*
X140061988Y-76440511D01*
X140187511Y-76512982D01*
X140187512Y-76512982D01*
X140187515Y-76512984D01*
X140327525Y-76550500D01*
X140327528Y-76550500D01*
X140472472Y-76550500D01*
X140472475Y-76550500D01*
X140612485Y-76512984D01*
X140738015Y-76440509D01*
X140840509Y-76338015D01*
X140912984Y-76212485D01*
X140950500Y-76072475D01*
X140950500Y-75927525D01*
X140912984Y-75787515D01*
X140840509Y-75661985D01*
X140738015Y-75559491D01*
X140738013Y-75559490D01*
X140738011Y-75559488D01*
X140612488Y-75487017D01*
X140612489Y-75487017D01*
X140601006Y-75483940D01*
X140472475Y-75449500D01*
X140327525Y-75449500D01*
X140325833Y-75449500D01*
X140258794Y-75429815D01*
X140238152Y-75413181D01*
X139984512Y-75159541D01*
X139984507Y-75159537D01*
X139951462Y-75140459D01*
X139951462Y-75140458D01*
X139951460Y-75140458D01*
X139939083Y-75133312D01*
X139915990Y-75119979D01*
X139915991Y-75119979D01*
X139877775Y-75109739D01*
X139839562Y-75099500D01*
X139839560Y-75099500D01*
X130829386Y-75099500D01*
X130762347Y-75079815D01*
X130741705Y-75063181D01*
X130638017Y-74959493D01*
X130638011Y-74959488D01*
X130512488Y-74887017D01*
X130512489Y-74887017D01*
X130477053Y-74877522D01*
X130372475Y-74849500D01*
X130227525Y-74849500D01*
X130122947Y-74877522D01*
X130087511Y-74887017D01*
X129961988Y-74959488D01*
X129955539Y-74964438D01*
X129954719Y-74963369D01*
X129900858Y-74992780D01*
X129831166Y-74987796D01*
X129775233Y-74945924D01*
X129750816Y-74880460D01*
X129750500Y-74871614D01*
X129750500Y-73525833D01*
X129770185Y-73458794D01*
X129786819Y-73438152D01*
X130388152Y-72836819D01*
X130449475Y-72803334D01*
X130475833Y-72800500D01*
X139770614Y-72800500D01*
X139837653Y-72820185D01*
X139858295Y-72836819D01*
X139859491Y-72838015D01*
X139961985Y-72940509D01*
X139961986Y-72940510D01*
X139961988Y-72940511D01*
X140087511Y-73012982D01*
X140087512Y-73012982D01*
X140087515Y-73012984D01*
X140227525Y-73050500D01*
X140227528Y-73050500D01*
X140372472Y-73050500D01*
X140372475Y-73050500D01*
X140512485Y-73012984D01*
X140638015Y-72940509D01*
X140740509Y-72838015D01*
X140812984Y-72712485D01*
X140850500Y-72572475D01*
X140850500Y-72427525D01*
X140812984Y-72287515D01*
X140779772Y-72229991D01*
X140740511Y-72161988D01*
X140740506Y-72161982D01*
X140638017Y-72059493D01*
X140638011Y-72059488D01*
X140512488Y-71987017D01*
X140512489Y-71987017D01*
X140489100Y-71980750D01*
X140372475Y-71949500D01*
X140227525Y-71949500D01*
X140110900Y-71980750D01*
X140087511Y-71987017D01*
X139961988Y-72059488D01*
X139961982Y-72059493D01*
X139858295Y-72163181D01*
X139796972Y-72196666D01*
X139770614Y-72199500D01*
X130260438Y-72199500D01*
X130184010Y-72219978D01*
X130115489Y-72259540D01*
X130115486Y-72259542D01*
X129209541Y-73165487D01*
X129209535Y-73165495D01*
X129169982Y-73234004D01*
X129169979Y-73234009D01*
X129149500Y-73310439D01*
X129149500Y-78629637D01*
X129129815Y-78696676D01*
X129087501Y-78737024D01*
X128961985Y-78809491D01*
X128961982Y-78809493D01*
X128858295Y-78913181D01*
X128796972Y-78946666D01*
X128770614Y-78949500D01*
X126910438Y-78949500D01*
X126872224Y-78959739D01*
X126834009Y-78969979D01*
X126834004Y-78969982D01*
X126765648Y-79009446D01*
X126765649Y-79009447D01*
X126765489Y-79009539D01*
X126161847Y-79613181D01*
X126100524Y-79646666D01*
X126074166Y-79649500D01*
X126072475Y-79649500D01*
X125927525Y-79649500D01*
X125798993Y-79683940D01*
X125787511Y-79687017D01*
X125661988Y-79759488D01*
X125661982Y-79759493D01*
X125559493Y-79861982D01*
X125559488Y-79861988D01*
X125487017Y-79987511D01*
X125487016Y-79987515D01*
X125449500Y-80127525D01*
X125449500Y-80272475D01*
X125480008Y-80386331D01*
X125487017Y-80412488D01*
X125559488Y-80538011D01*
X125559490Y-80538013D01*
X125559491Y-80538015D01*
X125661985Y-80640509D01*
X125661986Y-80640510D01*
X125661988Y-80640511D01*
X125787511Y-80712982D01*
X125787512Y-80712982D01*
X125787515Y-80712984D01*
X125927525Y-80750500D01*
X125927528Y-80750500D01*
X126072472Y-80750500D01*
X126072475Y-80750500D01*
X126212485Y-80712984D01*
X126338015Y-80640509D01*
X126440509Y-80538015D01*
X126492613Y-80447769D01*
X126543180Y-80399553D01*
X126611787Y-80386331D01*
X126676652Y-80412299D01*
X126707387Y-80447769D01*
X126759491Y-80538015D01*
X126861985Y-80640509D01*
X126861986Y-80640510D01*
X126861988Y-80640511D01*
X126987511Y-80712982D01*
X126987512Y-80712982D01*
X126987515Y-80712984D01*
X127127525Y-80750500D01*
X127127528Y-80750500D01*
X127272472Y-80750500D01*
X127272475Y-80750500D01*
X127412485Y-80712984D01*
X127538015Y-80640509D01*
X127640509Y-80538015D01*
X127640509Y-80538014D01*
X127641705Y-80536819D01*
X127703028Y-80503334D01*
X127729386Y-80500500D01*
X127801384Y-80500500D01*
X127868423Y-80520185D01*
X127914178Y-80572989D01*
X127924122Y-80642147D01*
X127895097Y-80705703D01*
X127863385Y-80731886D01*
X127815495Y-80759536D01*
X127815486Y-80759542D01*
X127259541Y-81315487D01*
X127259535Y-81315495D01*
X127219982Y-81384004D01*
X127219979Y-81384009D01*
X127209130Y-81424500D01*
X127199500Y-81460438D01*
X127199500Y-85239562D01*
X127204363Y-85257710D01*
X127219979Y-85315991D01*
X127219981Y-85315994D01*
X127247112Y-85362985D01*
X127247112Y-85362988D01*
X127247114Y-85362988D01*
X127255661Y-85377793D01*
X127259539Y-85384509D01*
X127259541Y-85384512D01*
X128213181Y-86338152D01*
X128246666Y-86399475D01*
X128249500Y-86425833D01*
X128249500Y-86427525D01*
X128249500Y-86572475D01*
X128260091Y-86612000D01*
X128287017Y-86712488D01*
X128359488Y-86838011D01*
X128359490Y-86838013D01*
X128359491Y-86838015D01*
X128461985Y-86940509D01*
X128493396Y-86958644D01*
X128524874Y-86976818D01*
X128531535Y-86983804D01*
X128540463Y-86987479D01*
X128555252Y-87008677D01*
X128573090Y-87027385D01*
X128574917Y-87036864D01*
X128580440Y-87044781D01*
X128581420Y-87070608D01*
X128586313Y-87095992D01*
X128582795Y-87106815D01*
X128583091Y-87114601D01*
X128574501Y-87132336D01*
X128569658Y-87147238D01*
X128563059Y-87158416D01*
X128559491Y-87161985D01*
X128494244Y-87274995D01*
X128493895Y-87275587D01*
X128493225Y-87276212D01*
X128474792Y-87300235D01*
X128115489Y-87659540D01*
X128059541Y-87715487D01*
X128059535Y-87715495D01*
X128019982Y-87784004D01*
X128019979Y-87784009D01*
X127999500Y-87860439D01*
X127999500Y-107187700D01*
X127979815Y-107254739D01*
X127927011Y-107300494D01*
X127922955Y-107302260D01*
X127882405Y-107319057D01*
X127710342Y-107434024D01*
X127564024Y-107580342D01*
X127449058Y-107752403D01*
X127369870Y-107943579D01*
X127369868Y-107943587D01*
X127329500Y-108146530D01*
X127329500Y-108353469D01*
X127369868Y-108556412D01*
X127369870Y-108556420D01*
X127449058Y-108747596D01*
X127564024Y-108919657D01*
X127710342Y-109065975D01*
X127710345Y-109065977D01*
X127882402Y-109180941D01*
X128073580Y-109260130D01*
X128073581Y-109260130D01*
X128075534Y-109260939D01*
X128129937Y-109304780D01*
X128152002Y-109371074D01*
X128134723Y-109438773D01*
X128083586Y-109486384D01*
X128028081Y-109499500D01*
X120002706Y-109499500D01*
X119997297Y-109499382D01*
X119613249Y-109482614D01*
X119602473Y-109481671D01*
X119224042Y-109431849D01*
X119213389Y-109429971D01*
X118840727Y-109347354D01*
X118830278Y-109344554D01*
X118466244Y-109229775D01*
X118456078Y-109226075D01*
X118103427Y-109080002D01*
X118093623Y-109075430D01*
X117755057Y-108899183D01*
X117745689Y-108893775D01*
X117423755Y-108688681D01*
X117414894Y-108682476D01*
X117112069Y-108450110D01*
X117103782Y-108443156D01*
X116822364Y-108185284D01*
X116814715Y-108177635D01*
X116556843Y-107896217D01*
X116549889Y-107887930D01*
X116317523Y-107585105D01*
X116311318Y-107576244D01*
X116220713Y-107434023D01*
X116106223Y-107254309D01*
X116100816Y-107244942D01*
X116096962Y-107237539D01*
X115924566Y-106906369D01*
X115919997Y-106896572D01*
X115822187Y-106660437D01*
X115773920Y-106543911D01*
X115770224Y-106533755D01*
X115764465Y-106515489D01*
X115655442Y-106169710D01*
X115652648Y-106159284D01*
X115570025Y-105786597D01*
X115568152Y-105775971D01*
X115518326Y-105397506D01*
X115517386Y-105386771D01*
X115500618Y-105002702D01*
X115500500Y-104997293D01*
X115500500Y-96753504D01*
X115520185Y-96686465D01*
X115572989Y-96640710D01*
X115642147Y-96630766D01*
X115671432Y-96638800D01*
X115730247Y-96650499D01*
X115730250Y-96650500D01*
X115730252Y-96650500D01*
X117469750Y-96650500D01*
X117469751Y-96650499D01*
X117484568Y-96647552D01*
X117528229Y-96638868D01*
X117528229Y-96638867D01*
X117528231Y-96638867D01*
X117594552Y-96594552D01*
X117638867Y-96528231D01*
X117638867Y-96528229D01*
X117638868Y-96528229D01*
X117650499Y-96469752D01*
X117650500Y-96469750D01*
X117650500Y-94930249D01*
X117650499Y-94930247D01*
X117638868Y-94871770D01*
X117638867Y-94871769D01*
X117594552Y-94805447D01*
X117528230Y-94761132D01*
X117528229Y-94761131D01*
X117469752Y-94749500D01*
X117469748Y-94749500D01*
X115730252Y-94749500D01*
X115730247Y-94749500D01*
X115659790Y-94763515D01*
X115659565Y-94762388D01*
X115602480Y-94768524D01*
X115540002Y-94737248D01*
X115504351Y-94677158D01*
X115500500Y-94646495D01*
X115500500Y-83253504D01*
X115520185Y-83186465D01*
X115572989Y-83140710D01*
X115642147Y-83130766D01*
X115671432Y-83138800D01*
X115730247Y-83150499D01*
X115730250Y-83150500D01*
X115730252Y-83150500D01*
X117469750Y-83150500D01*
X117469751Y-83150499D01*
X117484568Y-83147552D01*
X117528229Y-83138868D01*
X117528229Y-83138867D01*
X117528231Y-83138867D01*
X117594552Y-83094552D01*
X117638867Y-83028231D01*
X117638867Y-83028229D01*
X117638868Y-83028229D01*
X117647552Y-82984568D01*
X117650500Y-82969748D01*
X117650500Y-81430252D01*
X117650500Y-81430249D01*
X117650499Y-81430247D01*
X121499500Y-81430247D01*
X121499500Y-82759752D01*
X121511131Y-82818229D01*
X121511132Y-82818230D01*
X121555447Y-82884552D01*
X121621769Y-82928867D01*
X121621770Y-82928868D01*
X121680247Y-82940499D01*
X121680250Y-82940500D01*
X121680252Y-82940500D01*
X123119750Y-82940500D01*
X123119751Y-82940499D01*
X123134568Y-82937552D01*
X123178229Y-82928868D01*
X123178229Y-82928867D01*
X123178231Y-82928867D01*
X123244552Y-82884552D01*
X123288867Y-82818231D01*
X123288867Y-82818229D01*
X123288868Y-82818229D01*
X123299744Y-82763547D01*
X123300500Y-82759748D01*
X123300500Y-81430252D01*
X123300500Y-81430249D01*
X123300499Y-81430247D01*
X123288868Y-81371770D01*
X123288867Y-81371769D01*
X123244552Y-81305447D01*
X123178230Y-81261132D01*
X123178229Y-81261131D01*
X123119752Y-81249500D01*
X123119748Y-81249500D01*
X121680252Y-81249500D01*
X121680247Y-81249500D01*
X121621770Y-81261131D01*
X121621769Y-81261132D01*
X121555447Y-81305447D01*
X121511132Y-81371769D01*
X121511131Y-81371770D01*
X121499500Y-81430247D01*
X117650499Y-81430247D01*
X117638868Y-81371770D01*
X117638867Y-81371769D01*
X117594552Y-81305447D01*
X117528230Y-81261132D01*
X117528229Y-81261131D01*
X117469752Y-81249500D01*
X117469748Y-81249500D01*
X115730252Y-81249500D01*
X115730247Y-81249500D01*
X115659790Y-81263515D01*
X115659565Y-81262388D01*
X115602480Y-81268524D01*
X115540002Y-81237248D01*
X115504351Y-81177158D01*
X115500500Y-81146495D01*
X115500500Y-65002706D01*
X115500618Y-64997297D01*
X115509528Y-64793216D01*
X115517386Y-64613226D01*
X115518326Y-64602495D01*
X115568152Y-64224025D01*
X115570025Y-64213405D01*
X115652649Y-63840709D01*
X115655440Y-63830295D01*
X115770230Y-63466227D01*
X115773917Y-63456095D01*
X115920003Y-63103412D01*
X115924561Y-63093638D01*
X116100822Y-62755045D01*
X116106217Y-62745700D01*
X116311325Y-62423744D01*
X116317515Y-62414905D01*
X116549896Y-62112060D01*
X116556834Y-62103791D01*
X116814726Y-61822352D01*
X116822352Y-61814726D01*
X117103791Y-61556834D01*
X117112060Y-61549896D01*
X117414905Y-61317515D01*
X117423744Y-61311325D01*
X117745700Y-61106217D01*
X117755045Y-61100822D01*
X118093638Y-60924561D01*
X118103412Y-60920003D01*
X118456095Y-60773917D01*
X118466227Y-60770230D01*
X118830295Y-60655440D01*
X118840709Y-60652649D01*
X119213405Y-60570025D01*
X119224025Y-60568152D01*
X119602495Y-60518326D01*
X119613226Y-60517386D01*
X119997297Y-60500617D01*
X120002706Y-60500500D01*
X120065892Y-60500500D01*
X128071867Y-60500500D01*
X128138906Y-60520185D01*
G37*
%TD.AperFunction*%
%TA.AperFunction,Conductor*%
G36*
X155178906Y-60520185D02*
G01*
X155224661Y-60572989D01*
X155234605Y-60642147D01*
X155205580Y-60705703D01*
X155159320Y-60739061D01*
X155002403Y-60804057D01*
X154830342Y-60919024D01*
X154684024Y-61065342D01*
X154569058Y-61237403D01*
X154489870Y-61428579D01*
X154489868Y-61428587D01*
X154449500Y-61631530D01*
X154449500Y-61838469D01*
X154489868Y-62041412D01*
X154489870Y-62041420D01*
X154555939Y-62200925D01*
X154569059Y-62232598D01*
X154606709Y-62288945D01*
X154684024Y-62404657D01*
X154830342Y-62550975D01*
X154830345Y-62550977D01*
X155002402Y-62665941D01*
X155193580Y-62745130D01*
X155342310Y-62774714D01*
X155396530Y-62785499D01*
X155396534Y-62785500D01*
X155396535Y-62785500D01*
X155603466Y-62785500D01*
X155603467Y-62785499D01*
X155806420Y-62745130D01*
X155997598Y-62665941D01*
X156169655Y-62550977D01*
X156315977Y-62404655D01*
X156430941Y-62232598D01*
X156499165Y-62067889D01*
X156543004Y-62013488D01*
X156609298Y-61991423D01*
X156676998Y-62008702D01*
X156724609Y-62059839D01*
X156731656Y-62077026D01*
X156788904Y-62253216D01*
X156885375Y-62442550D01*
X156924728Y-62496716D01*
X157557037Y-61864408D01*
X157574075Y-61927993D01*
X157639901Y-62042007D01*
X157732993Y-62135099D01*
X157847007Y-62200925D01*
X157910591Y-62217962D01*
X157309971Y-62818581D01*
X157388711Y-62935895D01*
X157389920Y-62939729D01*
X157392844Y-62942491D01*
X157400343Y-62972778D01*
X157409727Y-63002529D01*
X157408671Y-63006408D01*
X157409638Y-63010312D01*
X157399573Y-63039844D01*
X157391383Y-63069947D01*
X157388397Y-63072640D01*
X157387100Y-63076447D01*
X157342051Y-63115483D01*
X157332440Y-63120380D01*
X157278282Y-63159727D01*
X157278282Y-63159728D01*
X157910591Y-63792037D01*
X157847007Y-63809075D01*
X157732993Y-63874901D01*
X157639901Y-63967993D01*
X157574075Y-64082007D01*
X157557037Y-64145591D01*
X156924728Y-63513282D01*
X156924727Y-63513282D01*
X156885380Y-63567439D01*
X156788905Y-63756781D01*
X156731656Y-63932974D01*
X156692218Y-63990649D01*
X156627859Y-64017847D01*
X156559013Y-64005932D01*
X156507537Y-63958688D01*
X156499164Y-63942107D01*
X156430943Y-63777405D01*
X156315975Y-63605342D01*
X156169657Y-63459024D01*
X156001655Y-63346770D01*
X155997598Y-63344059D01*
X155806420Y-63264870D01*
X155806412Y-63264868D01*
X155603469Y-63224500D01*
X155603465Y-63224500D01*
X155396535Y-63224500D01*
X155396530Y-63224500D01*
X155193587Y-63264868D01*
X155193579Y-63264870D01*
X155002403Y-63344058D01*
X154830342Y-63459024D01*
X154684024Y-63605342D01*
X154569058Y-63777403D01*
X154489870Y-63968579D01*
X154489868Y-63968587D01*
X154449500Y-64171530D01*
X154449500Y-64378469D01*
X154489868Y-64581412D01*
X154489870Y-64581420D01*
X154569017Y-64772498D01*
X154569059Y-64772598D01*
X154582836Y-64793217D01*
X154684024Y-64944657D01*
X154830342Y-65090975D01*
X154830345Y-65090977D01*
X155002402Y-65205941D01*
X155193580Y-65285130D01*
X155338052Y-65313867D01*
X155396530Y-65325499D01*
X155396534Y-65325500D01*
X155396535Y-65325500D01*
X155603466Y-65325500D01*
X155603467Y-65325499D01*
X155806420Y-65285130D01*
X155851972Y-65266261D01*
X155921437Y-65258792D01*
X155983917Y-65290065D01*
X155987104Y-65293141D01*
X157594438Y-66900475D01*
X157680063Y-66949911D01*
X157775564Y-66975500D01*
X157775565Y-66975500D01*
X171293101Y-66975500D01*
X171360140Y-66995185D01*
X171380782Y-67011819D01*
X172388181Y-68019218D01*
X172421666Y-68080541D01*
X172424500Y-68106899D01*
X172424500Y-78399436D01*
X172437277Y-78447123D01*
X172437291Y-78447173D01*
X172437295Y-78447186D01*
X172450090Y-78494938D01*
X172487906Y-78560438D01*
X172499526Y-78580563D01*
X176982282Y-83063319D01*
X177015767Y-83124642D01*
X177010783Y-83194334D01*
X176968911Y-83250267D01*
X176903447Y-83274684D01*
X176894602Y-83275000D01*
X176750029Y-83275000D01*
X176750012Y-83275001D01*
X176647302Y-83285494D01*
X176480880Y-83340641D01*
X176480875Y-83340643D01*
X176331654Y-83432684D01*
X176207684Y-83556654D01*
X176115643Y-83705875D01*
X176115641Y-83705880D01*
X176060494Y-83872302D01*
X176060493Y-83872309D01*
X176050000Y-83975013D01*
X176050000Y-84250000D01*
X176926000Y-84250000D01*
X176993039Y-84269685D01*
X177038794Y-84322489D01*
X177050000Y-84374000D01*
X177050000Y-84626000D01*
X177030315Y-84693039D01*
X176977511Y-84738794D01*
X176926000Y-84750000D01*
X176050001Y-84750000D01*
X176050001Y-85024986D01*
X176060494Y-85127697D01*
X176115641Y-85294119D01*
X176115643Y-85294124D01*
X176207684Y-85443345D01*
X176331654Y-85567315D01*
X176480875Y-85659356D01*
X176480880Y-85659358D01*
X176647302Y-85714505D01*
X176647309Y-85714506D01*
X176750019Y-85724999D01*
X176795272Y-85724999D01*
X176862312Y-85744682D01*
X176908068Y-85797485D01*
X176918013Y-85866644D01*
X176888990Y-85930200D01*
X176858398Y-85955730D01*
X176813446Y-85982315D01*
X176813438Y-85982321D01*
X176697321Y-86098438D01*
X176697317Y-86098444D01*
X176645580Y-86185926D01*
X176594510Y-86233609D01*
X176525768Y-86246112D01*
X176461179Y-86219466D01*
X176451663Y-86210930D01*
X176451486Y-86210804D01*
X176451484Y-86210803D01*
X176451483Y-86210802D01*
X176346393Y-86159427D01*
X176346391Y-86159426D01*
X176278261Y-86149500D01*
X176278260Y-86149500D01*
X175911740Y-86149500D01*
X175911739Y-86149500D01*
X175843608Y-86159426D01*
X175738514Y-86210803D01*
X175655803Y-86293514D01*
X175604426Y-86398608D01*
X175594500Y-86466739D01*
X175594500Y-86488000D01*
X175574815Y-86555039D01*
X175522011Y-86600794D01*
X175470500Y-86612000D01*
X173288333Y-86612000D01*
X173221294Y-86592315D01*
X173200652Y-86575681D01*
X168484512Y-81859541D01*
X168484507Y-81859537D01*
X168468853Y-81850499D01*
X168468851Y-81850499D01*
X168439297Y-81833436D01*
X168415990Y-81819979D01*
X168390513Y-81813152D01*
X168339562Y-81799500D01*
X168339560Y-81799500D01*
X164129386Y-81799500D01*
X164062347Y-81779815D01*
X164041705Y-81763181D01*
X163938017Y-81659493D01*
X163938011Y-81659488D01*
X163812488Y-81587017D01*
X163812489Y-81587017D01*
X163801006Y-81583940D01*
X163672475Y-81549500D01*
X163527525Y-81549500D01*
X163398993Y-81583940D01*
X163387511Y-81587017D01*
X163261988Y-81659488D01*
X163261982Y-81659493D01*
X163159493Y-81761982D01*
X163159488Y-81761988D01*
X163087017Y-81887511D01*
X163087016Y-81887515D01*
X163049500Y-82027525D01*
X163049500Y-82172475D01*
X163087016Y-82312485D01*
X163087017Y-82312488D01*
X163159488Y-82438011D01*
X163159490Y-82438013D01*
X163159491Y-82438015D01*
X163261985Y-82540509D01*
X163261986Y-82540510D01*
X163261988Y-82540511D01*
X163387511Y-82612982D01*
X163387512Y-82612982D01*
X163387515Y-82612984D01*
X163527525Y-82650500D01*
X163527528Y-82650500D01*
X163672472Y-82650500D01*
X163672475Y-82650500D01*
X163812485Y-82612984D01*
X163938015Y-82540509D01*
X164040509Y-82438015D01*
X164040509Y-82438014D01*
X164041705Y-82436819D01*
X164103028Y-82403334D01*
X164129386Y-82400500D01*
X164437950Y-82400500D01*
X164504989Y-82420185D01*
X164550744Y-82472989D01*
X164560688Y-82542147D01*
X164545337Y-82586500D01*
X164487017Y-82687511D01*
X164487016Y-82687515D01*
X164449500Y-82827525D01*
X164449500Y-82972475D01*
X164482211Y-83094552D01*
X164487017Y-83112488D01*
X164559488Y-83238011D01*
X164559490Y-83238014D01*
X164559491Y-83238015D01*
X164661985Y-83340509D01*
X164661986Y-83340510D01*
X164661988Y-83340511D01*
X164787511Y-83412982D01*
X164787512Y-83412982D01*
X164787515Y-83412984D01*
X164927525Y-83450500D01*
X164927528Y-83450500D01*
X165072472Y-83450500D01*
X165072475Y-83450500D01*
X165212485Y-83412984D01*
X165338015Y-83340509D01*
X165440509Y-83238015D01*
X165440509Y-83238014D01*
X165441705Y-83236819D01*
X165503028Y-83203334D01*
X165529386Y-83200500D01*
X167924167Y-83200500D01*
X167991206Y-83220185D01*
X168011848Y-83236819D01*
X173749833Y-88974804D01*
X173783318Y-89036127D01*
X173778334Y-89105819D01*
X173750000Y-89149906D01*
X173750000Y-89900000D01*
X174724999Y-89900000D01*
X174724999Y-89850028D01*
X174724998Y-89850013D01*
X174713818Y-89740569D01*
X174715936Y-89740352D01*
X174720399Y-89680776D01*
X174762458Y-89624984D01*
X174828004Y-89600787D01*
X174836434Y-89600500D01*
X178944559Y-89600500D01*
X178944561Y-89600500D01*
X179020988Y-89580021D01*
X179089510Y-89540460D01*
X179145459Y-89484511D01*
X180110073Y-88519895D01*
X180148641Y-88496646D01*
X180147741Y-88494804D01*
X180261482Y-88439199D01*
X180344196Y-88356485D01*
X180344198Y-88356483D01*
X180395573Y-88251393D01*
X180405500Y-88183260D01*
X180405500Y-86466740D01*
X180395573Y-86398607D01*
X180344198Y-86293517D01*
X180344196Y-86293515D01*
X180344196Y-86293514D01*
X180261485Y-86210803D01*
X180156391Y-86159426D01*
X180088261Y-86149500D01*
X180088260Y-86149500D01*
X179721740Y-86149500D01*
X179721739Y-86149500D01*
X179653608Y-86159426D01*
X179548514Y-86210803D01*
X179465803Y-86293514D01*
X179414426Y-86398608D01*
X179404500Y-86466739D01*
X179404500Y-88183260D01*
X179414425Y-88251388D01*
X179417270Y-88260592D01*
X179415207Y-88261229D01*
X179417037Y-88271953D01*
X179425326Y-88294176D01*
X179422805Y-88305760D01*
X179424800Y-88317447D01*
X179415515Y-88339273D01*
X179410474Y-88362449D01*
X179399318Y-88377350D01*
X179397451Y-88381741D01*
X179389323Y-88390703D01*
X179260267Y-88519759D01*
X179198944Y-88553244D01*
X179189202Y-88552547D01*
X179164650Y-88614109D01*
X179154761Y-88625266D01*
X179054833Y-88725194D01*
X178816845Y-88963182D01*
X178755524Y-88996666D01*
X178729166Y-88999500D01*
X177792096Y-88999500D01*
X177725057Y-88979815D01*
X177679302Y-88927011D01*
X177669358Y-88857853D01*
X177698383Y-88794297D01*
X177757161Y-88756523D01*
X177757501Y-88756423D01*
X177775198Y-88751281D01*
X177916552Y-88667685D01*
X177916561Y-88667678D01*
X178032678Y-88551561D01*
X178032687Y-88551550D01*
X178084419Y-88464075D01*
X178102233Y-88447441D01*
X178116841Y-88427928D01*
X178127315Y-88424021D01*
X178135487Y-88416391D01*
X178159467Y-88412028D01*
X178182305Y-88403511D01*
X178193230Y-88405887D01*
X178204229Y-88403887D01*
X178226759Y-88413181D01*
X178250578Y-88418363D01*
X178264397Y-88428708D01*
X178268818Y-88430532D01*
X178278337Y-88439070D01*
X178278513Y-88439195D01*
X178278514Y-88439195D01*
X178278517Y-88439198D01*
X178383607Y-88490573D01*
X178412646Y-88494804D01*
X178451739Y-88500500D01*
X178451740Y-88500500D01*
X178818261Y-88500500D01*
X178840971Y-88497191D01*
X178886393Y-88490573D01*
X178991483Y-88439198D01*
X178991488Y-88439192D01*
X178995020Y-88436672D01*
X179000658Y-88434712D01*
X179000714Y-88434685D01*
X179000717Y-88434691D01*
X179054309Y-88416064D01*
X179063754Y-88372651D01*
X179071672Y-88360021D01*
X179074196Y-88356485D01*
X179074198Y-88356483D01*
X179125573Y-88251393D01*
X179135500Y-88183260D01*
X179135500Y-86466740D01*
X179125573Y-86398607D01*
X179074198Y-86293517D01*
X179074196Y-86293515D01*
X179074196Y-86293514D01*
X178991484Y-86210802D01*
X178980039Y-86205207D01*
X178968059Y-86194261D01*
X178953297Y-86187520D01*
X178942795Y-86171179D01*
X178928457Y-86158079D01*
X178923904Y-86141783D01*
X178915523Y-86128742D01*
X178910500Y-86093807D01*
X178910500Y-86071899D01*
X178930185Y-86004860D01*
X178946819Y-85984218D01*
X179064393Y-85866644D01*
X179250475Y-85680563D01*
X179299911Y-85594937D01*
X179325500Y-85499436D01*
X179325500Y-85496352D01*
X179326235Y-85493846D01*
X179326561Y-85491376D01*
X179326946Y-85491426D01*
X179345185Y-85429313D01*
X179377284Y-85395551D01*
X179391749Y-85385187D01*
X179412882Y-85377793D01*
X179522150Y-85297150D01*
X179530582Y-85285724D01*
X179546504Y-85274318D01*
X179561740Y-85268995D01*
X179574594Y-85259236D01*
X179594046Y-85257710D01*
X179612465Y-85251277D01*
X179628157Y-85255036D01*
X179644249Y-85253775D01*
X179661438Y-85263009D01*
X179680412Y-85267555D01*
X179691582Y-85279203D01*
X179705800Y-85286841D01*
X179706401Y-85287438D01*
X182588181Y-88169218D01*
X182621666Y-88230541D01*
X182624500Y-88256899D01*
X182624500Y-88670629D01*
X182604815Y-88737668D01*
X182552011Y-88783423D01*
X182547955Y-88785189D01*
X182502405Y-88804057D01*
X182330342Y-88919024D01*
X182184024Y-89065342D01*
X182069058Y-89237403D01*
X181989870Y-89428579D01*
X181989868Y-89428587D01*
X181949500Y-89631530D01*
X181949500Y-89838469D01*
X181989868Y-90041412D01*
X181989870Y-90041420D01*
X182063831Y-90219978D01*
X182069059Y-90232598D01*
X182105753Y-90287515D01*
X182184024Y-90404657D01*
X182330342Y-90550975D01*
X182330345Y-90550977D01*
X182502402Y-90665941D01*
X182541993Y-90682340D01*
X182551888Y-90686439D01*
X182606291Y-90730280D01*
X182628356Y-90796574D01*
X182611077Y-90864274D01*
X182559939Y-90911884D01*
X182504435Y-90925000D01*
X182102155Y-90925000D01*
X182042627Y-90931401D01*
X182042620Y-90931403D01*
X181907913Y-90981645D01*
X181907906Y-90981649D01*
X181792812Y-91067809D01*
X181792809Y-91067812D01*
X181706649Y-91182906D01*
X181706645Y-91182913D01*
X181656403Y-91317620D01*
X181656401Y-91317627D01*
X181650000Y-91377155D01*
X181650000Y-92025000D01*
X182566988Y-92025000D01*
X182534075Y-92082007D01*
X182500000Y-92209174D01*
X182500000Y-92340826D01*
X182534075Y-92467993D01*
X182566988Y-92525000D01*
X181650000Y-92525000D01*
X181650000Y-93172844D01*
X181656401Y-93232372D01*
X181656403Y-93232379D01*
X181706645Y-93367086D01*
X181706649Y-93367093D01*
X181792809Y-93482187D01*
X181792812Y-93482190D01*
X181907906Y-93568350D01*
X181907913Y-93568354D01*
X182042620Y-93618596D01*
X182042627Y-93618598D01*
X182077947Y-93622396D01*
X182142498Y-93649134D01*
X182182346Y-93706527D01*
X182184839Y-93776352D01*
X182149186Y-93836441D01*
X182126692Y-93853072D01*
X182115489Y-93859539D01*
X182115487Y-93859541D01*
X180011848Y-95963181D01*
X179950525Y-95996666D01*
X179924167Y-95999500D01*
X179649500Y-95999500D01*
X179582461Y-95979815D01*
X179536706Y-95927011D01*
X179525500Y-95875500D01*
X179525500Y-95795730D01*
X179522646Y-95765300D01*
X179522646Y-95765298D01*
X179477793Y-95637119D01*
X179477792Y-95637117D01*
X179413497Y-95550000D01*
X179397150Y-95527850D01*
X179287882Y-95447207D01*
X179287880Y-95447206D01*
X179159700Y-95402353D01*
X179129270Y-95399500D01*
X179129266Y-95399500D01*
X179059500Y-95399500D01*
X178992461Y-95379815D01*
X178946706Y-95327011D01*
X178935500Y-95275500D01*
X178935500Y-93492997D01*
X178955185Y-93425958D01*
X178987450Y-93392077D01*
X178991477Y-93389200D01*
X178991483Y-93389198D01*
X179074198Y-93306483D01*
X179125573Y-93201393D01*
X179135500Y-93133260D01*
X179135500Y-91416740D01*
X179125573Y-91348607D01*
X179074198Y-91243517D01*
X179074196Y-91243515D01*
X179074196Y-91243514D01*
X178991485Y-91160803D01*
X178988901Y-91159540D01*
X178886393Y-91109427D01*
X178886391Y-91109426D01*
X178818261Y-91099500D01*
X178818260Y-91099500D01*
X178451740Y-91099500D01*
X178451739Y-91099500D01*
X178383608Y-91109426D01*
X178278514Y-91160803D01*
X178195803Y-91243514D01*
X178144426Y-91348608D01*
X178134500Y-91416739D01*
X178134500Y-93133260D01*
X178144426Y-93201391D01*
X178195803Y-93306485D01*
X178278512Y-93389194D01*
X178278515Y-93389196D01*
X178278517Y-93389198D01*
X178278518Y-93389198D01*
X178282550Y-93392077D01*
X178325674Y-93447051D01*
X178334500Y-93492997D01*
X178334500Y-95386540D01*
X178314815Y-95453579D01*
X178284135Y-95486309D01*
X178227850Y-95527849D01*
X178147207Y-95637117D01*
X178147206Y-95637119D01*
X178102353Y-95765298D01*
X178102353Y-95765300D01*
X178099500Y-95795730D01*
X178099500Y-96687667D01*
X178093261Y-96708912D01*
X178091682Y-96731001D01*
X178083609Y-96741784D01*
X178079815Y-96754706D01*
X178063081Y-96769205D01*
X178049810Y-96786934D01*
X178037189Y-96791641D01*
X178027011Y-96800461D01*
X178005093Y-96803612D01*
X177984346Y-96811351D01*
X177971185Y-96808488D01*
X177957853Y-96810405D01*
X177937709Y-96801205D01*
X177916073Y-96796499D01*
X177898347Y-96783230D01*
X177894297Y-96781380D01*
X177887819Y-96775348D01*
X177736819Y-96624348D01*
X177703334Y-96563025D01*
X177700500Y-96536667D01*
X177700500Y-95795730D01*
X177697646Y-95765301D01*
X177672458Y-95693316D01*
X177665500Y-95652362D01*
X177665500Y-93492997D01*
X177685185Y-93425958D01*
X177717450Y-93392077D01*
X177721477Y-93389200D01*
X177721483Y-93389198D01*
X177804198Y-93306483D01*
X177855573Y-93201393D01*
X177865500Y-93133260D01*
X177865500Y-91416740D01*
X177855573Y-91348607D01*
X177804198Y-91243517D01*
X177804196Y-91243515D01*
X177804196Y-91243514D01*
X177721485Y-91160803D01*
X177718901Y-91159540D01*
X177616393Y-91109427D01*
X177616391Y-91109426D01*
X177548261Y-91099500D01*
X177548260Y-91099500D01*
X177181740Y-91099500D01*
X177181739Y-91099500D01*
X177113608Y-91109426D01*
X177008514Y-91160803D01*
X176925803Y-91243514D01*
X176874426Y-91348608D01*
X176864500Y-91416739D01*
X176864500Y-93133260D01*
X176874426Y-93201391D01*
X176925803Y-93306485D01*
X177008512Y-93389194D01*
X177008515Y-93389196D01*
X177008517Y-93389198D01*
X177008518Y-93389198D01*
X177012550Y-93392077D01*
X177055674Y-93447051D01*
X177064500Y-93492997D01*
X177064500Y-95275500D01*
X177044815Y-95342539D01*
X176992011Y-95388294D01*
X176940500Y-95399500D01*
X176670730Y-95399500D01*
X176640300Y-95402353D01*
X176640298Y-95402353D01*
X176512119Y-95447206D01*
X176512117Y-95447207D01*
X176402850Y-95527850D01*
X176322207Y-95637117D01*
X176322206Y-95637119D01*
X176277353Y-95765298D01*
X176277353Y-95765300D01*
X176274500Y-95795730D01*
X176274500Y-96804269D01*
X176277353Y-96834699D01*
X176277353Y-96834701D01*
X176320973Y-96959356D01*
X176322207Y-96962882D01*
X176402850Y-97072150D01*
X176512118Y-97152793D01*
X176547350Y-97165121D01*
X176640299Y-97197646D01*
X176670730Y-97200500D01*
X176670734Y-97200500D01*
X177304270Y-97200500D01*
X177328612Y-97198216D01*
X177334699Y-97197646D01*
X177354107Y-97190855D01*
X177423886Y-97187292D01*
X177482744Y-97220215D01*
X178402989Y-98140460D01*
X178459473Y-98173071D01*
X178471508Y-98180020D01*
X178471512Y-98180022D01*
X178547938Y-98200500D01*
X178547940Y-98200500D01*
X181114560Y-98200500D01*
X181114562Y-98200500D01*
X181190989Y-98180021D01*
X181259511Y-98140460D01*
X181315460Y-98084511D01*
X182338152Y-97061819D01*
X182399475Y-97028334D01*
X182425833Y-97025500D01*
X183765167Y-97025500D01*
X183832206Y-97045185D01*
X183877961Y-97097989D01*
X183887905Y-97167147D01*
X183858880Y-97230703D01*
X183852867Y-97237161D01*
X183626009Y-97464019D01*
X183562104Y-97527924D01*
X183500781Y-97561408D01*
X183431089Y-97556424D01*
X183426971Y-97554803D01*
X183306424Y-97504871D01*
X183306412Y-97504868D01*
X183103469Y-97464500D01*
X183103465Y-97464500D01*
X182896535Y-97464500D01*
X182896530Y-97464500D01*
X182693587Y-97504868D01*
X182693579Y-97504870D01*
X182502403Y-97584058D01*
X182330342Y-97699024D01*
X182184024Y-97845342D01*
X182069058Y-98017403D01*
X181989870Y-98208579D01*
X181989868Y-98208587D01*
X181949500Y-98411530D01*
X181949500Y-98618469D01*
X181989868Y-98821412D01*
X181989870Y-98821420D01*
X182038165Y-98938015D01*
X182069059Y-99012598D01*
X182087710Y-99040511D01*
X182184024Y-99184657D01*
X182330342Y-99330975D01*
X182330345Y-99330977D01*
X182502402Y-99445941D01*
X182693580Y-99525130D01*
X182896530Y-99565499D01*
X182896534Y-99565500D01*
X182896535Y-99565500D01*
X183103466Y-99565500D01*
X183103467Y-99565499D01*
X183306420Y-99525130D01*
X183497598Y-99445941D01*
X183669655Y-99330977D01*
X183815977Y-99184655D01*
X183930941Y-99012598D01*
X184010130Y-98821420D01*
X184050500Y-98618465D01*
X184050500Y-98411535D01*
X184010130Y-98208580D01*
X183960194Y-98088026D01*
X183952726Y-98018559D01*
X183984001Y-97956080D01*
X183987044Y-97952925D01*
X184287820Y-97652150D01*
X184349142Y-97618666D01*
X184418834Y-97623650D01*
X184474767Y-97665522D01*
X184499184Y-97730986D01*
X184499500Y-97739832D01*
X184499500Y-104997293D01*
X184499382Y-105002702D01*
X184482614Y-105386750D01*
X184481671Y-105397526D01*
X184431849Y-105775957D01*
X184429971Y-105786610D01*
X184347354Y-106159272D01*
X184344554Y-106169721D01*
X184229775Y-106533755D01*
X184226075Y-106543921D01*
X184080002Y-106896572D01*
X184075430Y-106906376D01*
X183899183Y-107244942D01*
X183893775Y-107254310D01*
X183688681Y-107576244D01*
X183682476Y-107585105D01*
X183450110Y-107887930D01*
X183443156Y-107896217D01*
X183185284Y-108177635D01*
X183177635Y-108185284D01*
X182896217Y-108443156D01*
X182887930Y-108450110D01*
X182585105Y-108682476D01*
X182576244Y-108688681D01*
X182254310Y-108893775D01*
X182244942Y-108899183D01*
X181906376Y-109075430D01*
X181896572Y-109080002D01*
X181543921Y-109226075D01*
X181533755Y-109229775D01*
X181169721Y-109344554D01*
X181159272Y-109347354D01*
X180786610Y-109429971D01*
X180775957Y-109431849D01*
X180397526Y-109481671D01*
X180386750Y-109482614D01*
X180002703Y-109499382D01*
X179997294Y-109499500D01*
X150413236Y-109499500D01*
X150346197Y-109479815D01*
X150300442Y-109427011D01*
X150290498Y-109357853D01*
X150297054Y-109332167D01*
X150343596Y-109207379D01*
X150343598Y-109207372D01*
X150349999Y-109147844D01*
X150350000Y-109147827D01*
X150350000Y-108500000D01*
X149433012Y-108500000D01*
X149465925Y-108442993D01*
X149500000Y-108315826D01*
X149500000Y-108184174D01*
X149465925Y-108057007D01*
X149433012Y-108000000D01*
X150350000Y-108000000D01*
X150350000Y-107352172D01*
X150349999Y-107352155D01*
X150343598Y-107292627D01*
X150343596Y-107292620D01*
X150293354Y-107157913D01*
X150293350Y-107157906D01*
X150207190Y-107042812D01*
X150207187Y-107042809D01*
X150092093Y-106956649D01*
X150092086Y-106956645D01*
X149957379Y-106906403D01*
X149957372Y-106906401D01*
X149897844Y-106900000D01*
X149250000Y-106900000D01*
X149250000Y-107816988D01*
X149192993Y-107784075D01*
X149065826Y-107750000D01*
X148934174Y-107750000D01*
X148807007Y-107784075D01*
X148750000Y-107816988D01*
X148750000Y-106900000D01*
X148102155Y-106900000D01*
X148042627Y-106906401D01*
X148042620Y-106906403D01*
X147907913Y-106956645D01*
X147907906Y-106956649D01*
X147792812Y-107042809D01*
X147792809Y-107042812D01*
X147706649Y-107157906D01*
X147706645Y-107157913D01*
X147656403Y-107292620D01*
X147656401Y-107292627D01*
X147650000Y-107352155D01*
X147650000Y-107754435D01*
X147630315Y-107821474D01*
X147577511Y-107867229D01*
X147508353Y-107877173D01*
X147444797Y-107848148D01*
X147411439Y-107801888D01*
X147390941Y-107752403D01*
X147390941Y-107752402D01*
X147275977Y-107580345D01*
X147275975Y-107580342D01*
X147129657Y-107434024D01*
X146962616Y-107322412D01*
X146957598Y-107319059D01*
X146957593Y-107319057D01*
X146766420Y-107239870D01*
X146766412Y-107239868D01*
X146563469Y-107199500D01*
X146563465Y-107199500D01*
X146356535Y-107199500D01*
X146356530Y-107199500D01*
X146153587Y-107239868D01*
X146153579Y-107239870D01*
X145962403Y-107319058D01*
X145790342Y-107434024D01*
X145644024Y-107580342D01*
X145529058Y-107752403D01*
X145449870Y-107943579D01*
X145449868Y-107943587D01*
X145409500Y-108146530D01*
X145409500Y-108353469D01*
X145449868Y-108556412D01*
X145449870Y-108556420D01*
X145529058Y-108747596D01*
X145644024Y-108919657D01*
X145790342Y-109065975D01*
X145790345Y-109065977D01*
X145962402Y-109180941D01*
X146153580Y-109260130D01*
X146153581Y-109260130D01*
X146155534Y-109260939D01*
X146209937Y-109304780D01*
X146232002Y-109371074D01*
X146214723Y-109438773D01*
X146163586Y-109486384D01*
X146108081Y-109499500D01*
X144271919Y-109499500D01*
X144204880Y-109479815D01*
X144159125Y-109427011D01*
X144149181Y-109357853D01*
X144178206Y-109294297D01*
X144224466Y-109260939D01*
X144226418Y-109260130D01*
X144226420Y-109260130D01*
X144417598Y-109180941D01*
X144589655Y-109065977D01*
X144735977Y-108919655D01*
X144850941Y-108747598D01*
X144930130Y-108556420D01*
X144970500Y-108353465D01*
X144970500Y-108146535D01*
X144930130Y-107943580D01*
X144850941Y-107752402D01*
X144735977Y-107580345D01*
X144735975Y-107580342D01*
X144589657Y-107434024D01*
X144422616Y-107322412D01*
X144417598Y-107319059D01*
X144417593Y-107319057D01*
X144226420Y-107239870D01*
X144226412Y-107239868D01*
X144023469Y-107199500D01*
X144023465Y-107199500D01*
X143816535Y-107199500D01*
X143816530Y-107199500D01*
X143613587Y-107239868D01*
X143613579Y-107239870D01*
X143422403Y-107319058D01*
X143250342Y-107434024D01*
X143104024Y-107580342D01*
X142989058Y-107752403D01*
X142909870Y-107943579D01*
X142909868Y-107943587D01*
X142869500Y-108146530D01*
X142869500Y-108353469D01*
X142909868Y-108556412D01*
X142909870Y-108556420D01*
X142989058Y-108747596D01*
X143104024Y-108919657D01*
X143250342Y-109065975D01*
X143250345Y-109065977D01*
X143422402Y-109180941D01*
X143613580Y-109260130D01*
X143613581Y-109260130D01*
X143615534Y-109260939D01*
X143669937Y-109304780D01*
X143692002Y-109371074D01*
X143674723Y-109438773D01*
X143623586Y-109486384D01*
X143568081Y-109499500D01*
X141731919Y-109499500D01*
X141664880Y-109479815D01*
X141619125Y-109427011D01*
X141609181Y-109357853D01*
X141638206Y-109294297D01*
X141684466Y-109260939D01*
X141686418Y-109260130D01*
X141686420Y-109260130D01*
X141877598Y-109180941D01*
X142049655Y-109065977D01*
X142195977Y-108919655D01*
X142310941Y-108747598D01*
X142390130Y-108556420D01*
X142430500Y-108353465D01*
X142430500Y-108146535D01*
X142390130Y-107943580D01*
X142310941Y-107752402D01*
X142195977Y-107580345D01*
X142195975Y-107580342D01*
X142049658Y-107434025D01*
X142049654Y-107434022D01*
X141963891Y-107376717D01*
X141919086Y-107323105D01*
X141910379Y-107253780D01*
X141940533Y-107190753D01*
X141945081Y-107185954D01*
X145019219Y-104111819D01*
X145080542Y-104078334D01*
X145106900Y-104075500D01*
X155849435Y-104075500D01*
X155849436Y-104075500D01*
X155897186Y-104062705D01*
X155944938Y-104049910D01*
X156030562Y-104000475D01*
X156100475Y-103930562D01*
X161503512Y-98527525D01*
X171949500Y-98527525D01*
X171949500Y-98672475D01*
X171974811Y-98766934D01*
X171987017Y-98812488D01*
X172059488Y-98938011D01*
X172059490Y-98938013D01*
X172059491Y-98938015D01*
X172161985Y-99040509D01*
X172161986Y-99040510D01*
X172161988Y-99040511D01*
X172287511Y-99112982D01*
X172287512Y-99112982D01*
X172287515Y-99112984D01*
X172427525Y-99150500D01*
X172427528Y-99150500D01*
X172572472Y-99150500D01*
X172572475Y-99150500D01*
X172712485Y-99112984D01*
X172838015Y-99040509D01*
X172940509Y-98938015D01*
X173012984Y-98812485D01*
X173050500Y-98672475D01*
X173050500Y-98527525D01*
X173012984Y-98387515D01*
X172969889Y-98312873D01*
X172940511Y-98261988D01*
X172940510Y-98261987D01*
X172940509Y-98261985D01*
X172838015Y-98159491D01*
X172838014Y-98159490D01*
X172836818Y-98158294D01*
X172803334Y-98096971D01*
X172800500Y-98070613D01*
X172800500Y-94275833D01*
X172820185Y-94208794D01*
X172836819Y-94188152D01*
X173287471Y-93737500D01*
X173740460Y-93284511D01*
X173780022Y-93215988D01*
X173800500Y-93139562D01*
X173800500Y-93060438D01*
X173800500Y-92874500D01*
X173820185Y-92807461D01*
X173872989Y-92761706D01*
X173924500Y-92750500D01*
X174029270Y-92750500D01*
X174059699Y-92747646D01*
X174059701Y-92747646D01*
X174123790Y-92725219D01*
X174187882Y-92702793D01*
X174297150Y-92622150D01*
X174377793Y-92512882D01*
X174403692Y-92438867D01*
X174422646Y-92384701D01*
X174422646Y-92384699D01*
X174425500Y-92354269D01*
X174425500Y-91745730D01*
X174422647Y-91715310D01*
X174422646Y-91715308D01*
X174422646Y-91715301D01*
X174406132Y-91668109D01*
X174402570Y-91598334D01*
X174435491Y-91539478D01*
X174558230Y-91416739D01*
X175594500Y-91416739D01*
X175594500Y-93133260D01*
X175604426Y-93201391D01*
X175655803Y-93306485D01*
X175738514Y-93389196D01*
X175738515Y-93389196D01*
X175738517Y-93389198D01*
X175843607Y-93440573D01*
X175877673Y-93445536D01*
X175911739Y-93450500D01*
X175911740Y-93450500D01*
X176278261Y-93450500D01*
X176301932Y-93447051D01*
X176346393Y-93440573D01*
X176451483Y-93389198D01*
X176534198Y-93306483D01*
X176585573Y-93201393D01*
X176595500Y-93133260D01*
X176595500Y-91416740D01*
X176585573Y-91348607D01*
X176534198Y-91243517D01*
X176534196Y-91243515D01*
X176534196Y-91243514D01*
X176451485Y-91160803D01*
X176448901Y-91159540D01*
X176346393Y-91109427D01*
X176346391Y-91109426D01*
X176278261Y-91099500D01*
X176278260Y-91099500D01*
X175911740Y-91099500D01*
X175911739Y-91099500D01*
X175843608Y-91109426D01*
X175738514Y-91160803D01*
X175655803Y-91243514D01*
X175604426Y-91348608D01*
X175594500Y-91416739D01*
X174558230Y-91416739D01*
X175138152Y-90836819D01*
X175199475Y-90803334D01*
X175225833Y-90800500D01*
X179424167Y-90800500D01*
X179453607Y-90809144D01*
X179483594Y-90815668D01*
X179488609Y-90819422D01*
X179491206Y-90820185D01*
X179511848Y-90836819D01*
X179568181Y-90893152D01*
X179601666Y-90954475D01*
X179604500Y-90980833D01*
X179604500Y-91057002D01*
X179584815Y-91124041D01*
X179552555Y-91157918D01*
X179548516Y-91160801D01*
X179465803Y-91243514D01*
X179414426Y-91348608D01*
X179404500Y-91416739D01*
X179404500Y-93133260D01*
X179414426Y-93201391D01*
X179465803Y-93306485D01*
X179548514Y-93389196D01*
X179548515Y-93389196D01*
X179548517Y-93389198D01*
X179653607Y-93440573D01*
X179687673Y-93445536D01*
X179721739Y-93450500D01*
X179721740Y-93450500D01*
X180088261Y-93450500D01*
X180111932Y-93447051D01*
X180156393Y-93440573D01*
X180261483Y-93389198D01*
X180344198Y-93306483D01*
X180395573Y-93201393D01*
X180405500Y-93133260D01*
X180405500Y-91416740D01*
X180395573Y-91348607D01*
X180344198Y-91243517D01*
X180344196Y-91243515D01*
X180344196Y-91243514D01*
X180261483Y-91160801D01*
X180257445Y-91157918D01*
X180214324Y-91102942D01*
X180205500Y-91057002D01*
X180205500Y-90765439D01*
X180205500Y-90765438D01*
X180185021Y-90689011D01*
X180171702Y-90665941D01*
X180145464Y-90620495D01*
X180145458Y-90620487D01*
X179784512Y-90259541D01*
X179784504Y-90259535D01*
X179715995Y-90219982D01*
X179715990Y-90219979D01*
X179679199Y-90210121D01*
X179639562Y-90199500D01*
X175010438Y-90199500D01*
X174972224Y-90209739D01*
X174934009Y-90219979D01*
X174934004Y-90219982D01*
X174865495Y-90259535D01*
X174865487Y-90259541D01*
X174761345Y-90363682D01*
X174700022Y-90397166D01*
X174673665Y-90400000D01*
X172275001Y-90400000D01*
X172275001Y-90449986D01*
X172285494Y-90552697D01*
X172340641Y-90719119D01*
X172340643Y-90719124D01*
X172432684Y-90868345D01*
X172556654Y-90992315D01*
X172705875Y-91084356D01*
X172705882Y-91084359D01*
X172874081Y-91140094D01*
X172931526Y-91179866D01*
X172958350Y-91244382D01*
X172946035Y-91313158D01*
X172898493Y-91364358D01*
X172876035Y-91374841D01*
X172834422Y-91389402D01*
X172812118Y-91397207D01*
X172812117Y-91397207D01*
X172812116Y-91397208D01*
X172702850Y-91477850D01*
X172622207Y-91587117D01*
X172622206Y-91587119D01*
X172577353Y-91715298D01*
X172577353Y-91715300D01*
X172574500Y-91745730D01*
X172574500Y-92354269D01*
X172577353Y-92384699D01*
X172577353Y-92384701D01*
X172618759Y-92503028D01*
X172622207Y-92512882D01*
X172702850Y-92622150D01*
X172812118Y-92702793D01*
X172837996Y-92711848D01*
X172940299Y-92747646D01*
X172970730Y-92750500D01*
X172970734Y-92750500D01*
X173075500Y-92750500D01*
X173084185Y-92753050D01*
X173093147Y-92751762D01*
X173117187Y-92762740D01*
X173142539Y-92770185D01*
X173148466Y-92777025D01*
X173156703Y-92780787D01*
X173170992Y-92803021D01*
X173188294Y-92822989D01*
X173190581Y-92833503D01*
X173194477Y-92839565D01*
X173199500Y-92874500D01*
X173199500Y-92924167D01*
X173179815Y-92991206D01*
X173163181Y-93011848D01*
X172259541Y-93915487D01*
X172259535Y-93915495D01*
X172219982Y-93984004D01*
X172219979Y-93984009D01*
X172199500Y-94060439D01*
X172199500Y-98070613D01*
X172179815Y-98137652D01*
X172163182Y-98158294D01*
X172059488Y-98261988D01*
X171987017Y-98387511D01*
X171987016Y-98387515D01*
X171949500Y-98527525D01*
X161503512Y-98527525D01*
X170181024Y-89850013D01*
X172275000Y-89850013D01*
X172275000Y-89900000D01*
X173250000Y-89900000D01*
X173250000Y-89150000D01*
X172975029Y-89150000D01*
X172975012Y-89150001D01*
X172872302Y-89160494D01*
X172705880Y-89215641D01*
X172705875Y-89215643D01*
X172556654Y-89307684D01*
X172432684Y-89431654D01*
X172340643Y-89580875D01*
X172340641Y-89580880D01*
X172285494Y-89747302D01*
X172285493Y-89747309D01*
X172275000Y-89850013D01*
X170181024Y-89850013D01*
X170644218Y-89386819D01*
X170705541Y-89353334D01*
X170731899Y-89350500D01*
X170772472Y-89350500D01*
X170772475Y-89350500D01*
X170912485Y-89312984D01*
X171038015Y-89240509D01*
X171140509Y-89138015D01*
X171212984Y-89012485D01*
X171250500Y-88872475D01*
X171250500Y-88727525D01*
X171212984Y-88587515D01*
X171208538Y-88579815D01*
X171140511Y-88461988D01*
X171140506Y-88461982D01*
X171038017Y-88359493D01*
X171038011Y-88359488D01*
X170912488Y-88287017D01*
X170912489Y-88287017D01*
X170901006Y-88283940D01*
X170772475Y-88249500D01*
X170627525Y-88249500D01*
X170498993Y-88283940D01*
X170487511Y-88287017D01*
X170361988Y-88359488D01*
X170361982Y-88359493D01*
X170259493Y-88461982D01*
X170259488Y-88461988D01*
X170187017Y-88587511D01*
X170187016Y-88587515D01*
X170149500Y-88727525D01*
X170149500Y-88727527D01*
X170149500Y-88768100D01*
X170129815Y-88835139D01*
X170113181Y-88855781D01*
X160642717Y-98326244D01*
X160581394Y-98359729D01*
X160511702Y-98354745D01*
X160455769Y-98312873D01*
X160435262Y-98270659D01*
X160412984Y-98187515D01*
X160408657Y-98180021D01*
X160340511Y-98061988D01*
X160340506Y-98061982D01*
X160238017Y-97959493D01*
X160238011Y-97959488D01*
X160112488Y-97887017D01*
X160112489Y-97887017D01*
X160101006Y-97883940D01*
X159972475Y-97849500D01*
X159827525Y-97849500D01*
X159825833Y-97849500D01*
X159758794Y-97829815D01*
X159738152Y-97813181D01*
X156784512Y-94859541D01*
X156784507Y-94859537D01*
X156751462Y-94840459D01*
X156751462Y-94840458D01*
X156751460Y-94840458D01*
X156739083Y-94833312D01*
X156715990Y-94819979D01*
X156715991Y-94819979D01*
X156677775Y-94809739D01*
X156639562Y-94799500D01*
X156639560Y-94799500D01*
X150591495Y-94799500D01*
X150524456Y-94779815D01*
X150484108Y-94737500D01*
X150469858Y-94712819D01*
X150440509Y-94661985D01*
X150338015Y-94559491D01*
X150338013Y-94559490D01*
X150338011Y-94559488D01*
X150212488Y-94487017D01*
X150212489Y-94487017D01*
X150168809Y-94475313D01*
X150072475Y-94449500D01*
X149927525Y-94449500D01*
X149831191Y-94475313D01*
X149787511Y-94487017D01*
X149661988Y-94559488D01*
X149661982Y-94559493D01*
X149559493Y-94661982D01*
X149559488Y-94661988D01*
X149487017Y-94787511D01*
X149487016Y-94787515D01*
X149449500Y-94927525D01*
X149449500Y-95072475D01*
X149487016Y-95212485D01*
X149487017Y-95212488D01*
X149559488Y-95338011D01*
X149559490Y-95338013D01*
X149559491Y-95338015D01*
X149661985Y-95440509D01*
X149661986Y-95440510D01*
X149661988Y-95440511D01*
X149787511Y-95512982D01*
X149787512Y-95512982D01*
X149787515Y-95512984D01*
X149927525Y-95550500D01*
X149927528Y-95550500D01*
X150072472Y-95550500D01*
X150072475Y-95550500D01*
X150212485Y-95512984D01*
X150338015Y-95440509D01*
X150341705Y-95436819D01*
X150403028Y-95403334D01*
X150429386Y-95400500D01*
X156424167Y-95400500D01*
X156491206Y-95420185D01*
X156511848Y-95436819D01*
X159313181Y-98238152D01*
X159346666Y-98299475D01*
X159349500Y-98325833D01*
X159349500Y-98327525D01*
X159349500Y-98472475D01*
X159373989Y-98563867D01*
X159387017Y-98612488D01*
X159459488Y-98738011D01*
X159459490Y-98738013D01*
X159459491Y-98738015D01*
X159561985Y-98840509D01*
X159687515Y-98912984D01*
X159770658Y-98935262D01*
X159830317Y-98971626D01*
X159860846Y-99034473D01*
X159852551Y-99103848D01*
X159826244Y-99142717D01*
X155680782Y-103288181D01*
X155619459Y-103321666D01*
X155593101Y-103324500D01*
X144850564Y-103324500D01*
X144755063Y-103350089D01*
X144755060Y-103350090D01*
X144669440Y-103399522D01*
X144669435Y-103399526D01*
X141149438Y-106919525D01*
X141079526Y-106989436D01*
X141030091Y-107075059D01*
X141030091Y-107075060D01*
X141030090Y-107075062D01*
X141004500Y-107170565D01*
X141004500Y-107170567D01*
X141004500Y-107185629D01*
X140984815Y-107252668D01*
X140932011Y-107298423D01*
X140927955Y-107300189D01*
X140882405Y-107319057D01*
X140710342Y-107434024D01*
X140564024Y-107580342D01*
X140449058Y-107752403D01*
X140369870Y-107943579D01*
X140369868Y-107943587D01*
X140329500Y-108146530D01*
X140329500Y-108353469D01*
X140369868Y-108556412D01*
X140369870Y-108556420D01*
X140449058Y-108747596D01*
X140564024Y-108919657D01*
X140710342Y-109065975D01*
X140710345Y-109065977D01*
X140882402Y-109180941D01*
X141073580Y-109260130D01*
X141073581Y-109260130D01*
X141075534Y-109260939D01*
X141129937Y-109304780D01*
X141152002Y-109371074D01*
X141134723Y-109438773D01*
X141083586Y-109486384D01*
X141028081Y-109499500D01*
X137413236Y-109499500D01*
X137346197Y-109479815D01*
X137300442Y-109427011D01*
X137290498Y-109357853D01*
X137297054Y-109332167D01*
X137343596Y-109207379D01*
X137343598Y-109207372D01*
X137349999Y-109147844D01*
X137350000Y-109147827D01*
X137350000Y-108500000D01*
X136433012Y-108500000D01*
X136465925Y-108442993D01*
X136500000Y-108315826D01*
X136500000Y-108184174D01*
X136465925Y-108057007D01*
X136433012Y-108000000D01*
X137350000Y-108000000D01*
X137350000Y-107352172D01*
X137349999Y-107352155D01*
X137343598Y-107292627D01*
X137343596Y-107292620D01*
X137293354Y-107157913D01*
X137293350Y-107157906D01*
X137207190Y-107042812D01*
X137207187Y-107042809D01*
X137092093Y-106956649D01*
X137092086Y-106956645D01*
X136957379Y-106906403D01*
X136957372Y-106906401D01*
X136897844Y-106900000D01*
X136250000Y-106900000D01*
X136250000Y-107816988D01*
X136192993Y-107784075D01*
X136065826Y-107750000D01*
X135934174Y-107750000D01*
X135807007Y-107784075D01*
X135750000Y-107816988D01*
X135750000Y-106900000D01*
X135102155Y-106900000D01*
X135042627Y-106906401D01*
X135042620Y-106906403D01*
X134907913Y-106956645D01*
X134907906Y-106956649D01*
X134792812Y-107042809D01*
X134792809Y-107042812D01*
X134706649Y-107157906D01*
X134706645Y-107157913D01*
X134656403Y-107292620D01*
X134656401Y-107292627D01*
X134650000Y-107352155D01*
X134650000Y-107754435D01*
X134630315Y-107821474D01*
X134577511Y-107867229D01*
X134508353Y-107877173D01*
X134444797Y-107848148D01*
X134411439Y-107801888D01*
X134390941Y-107752403D01*
X134390941Y-107752402D01*
X134275977Y-107580345D01*
X134275975Y-107580342D01*
X134129658Y-107434025D01*
X134129654Y-107434022D01*
X133955609Y-107317729D01*
X133910804Y-107264117D01*
X133900500Y-107214627D01*
X133900500Y-106875833D01*
X133920185Y-106808794D01*
X133936819Y-106788152D01*
X144319724Y-96405247D01*
X148024500Y-96405247D01*
X148024500Y-98394752D01*
X148036131Y-98453229D01*
X148036132Y-98453230D01*
X148080447Y-98519552D01*
X148146769Y-98563867D01*
X148146770Y-98563868D01*
X148205247Y-98575499D01*
X148205250Y-98575500D01*
X148205252Y-98575500D01*
X150194750Y-98575500D01*
X150194751Y-98575499D01*
X150209568Y-98572552D01*
X150253229Y-98563868D01*
X150253229Y-98563867D01*
X150253231Y-98563867D01*
X150319552Y-98519552D01*
X150319553Y-98519551D01*
X150340227Y-98488611D01*
X150340227Y-98488610D01*
X150340228Y-98488609D01*
X150363867Y-98453231D01*
X150363868Y-98453229D01*
X150375499Y-98394752D01*
X150375500Y-98394750D01*
X150375500Y-97283909D01*
X154225000Y-97283909D01*
X154225000Y-97516090D01*
X154261318Y-97745393D01*
X154333065Y-97966205D01*
X154438465Y-98173064D01*
X154495238Y-98251207D01*
X155098958Y-97647487D01*
X155123978Y-97707890D01*
X155195112Y-97814351D01*
X155285649Y-97904888D01*
X155392110Y-97976022D01*
X155452510Y-98001041D01*
X154848791Y-98604759D01*
X154848791Y-98604760D01*
X154926935Y-98661534D01*
X155133794Y-98766934D01*
X155354606Y-98838681D01*
X155583910Y-98875000D01*
X155816090Y-98875000D01*
X156045393Y-98838681D01*
X156266205Y-98766934D01*
X156473071Y-98661530D01*
X156551207Y-98604762D01*
X156551208Y-98604760D01*
X155947488Y-98001041D01*
X156007890Y-97976022D01*
X156114351Y-97904888D01*
X156204888Y-97814351D01*
X156276022Y-97707890D01*
X156301041Y-97647489D01*
X156904760Y-98251208D01*
X156904762Y-98251207D01*
X156961530Y-98173071D01*
X157066934Y-97966205D01*
X157138681Y-97745393D01*
X157175000Y-97516090D01*
X157175000Y-97283909D01*
X157138681Y-97054606D01*
X157066934Y-96833794D01*
X156961534Y-96626935D01*
X156904760Y-96548791D01*
X156904759Y-96548791D01*
X156301041Y-97152510D01*
X156276022Y-97092110D01*
X156204888Y-96985649D01*
X156114351Y-96895112D01*
X156007890Y-96823978D01*
X155947487Y-96798957D01*
X156551207Y-96195238D01*
X156473064Y-96138465D01*
X156266205Y-96033065D01*
X156045393Y-95961318D01*
X155816090Y-95925000D01*
X155583910Y-95925000D01*
X155354606Y-95961318D01*
X155133794Y-96033065D01*
X154926925Y-96138470D01*
X154848791Y-96195237D01*
X154848791Y-96195238D01*
X155452511Y-96798958D01*
X155392110Y-96823978D01*
X155285649Y-96895112D01*
X155195112Y-96985649D01*
X155123978Y-97092110D01*
X155098958Y-97152511D01*
X154495238Y-96548791D01*
X154495237Y-96548791D01*
X154438470Y-96626925D01*
X154333065Y-96833794D01*
X154261318Y-97054606D01*
X154225000Y-97283909D01*
X150375500Y-97283909D01*
X150375500Y-96405249D01*
X150375499Y-96405247D01*
X150363868Y-96346770D01*
X150363867Y-96346769D01*
X150340226Y-96311388D01*
X150319552Y-96280447D01*
X150253230Y-96236132D01*
X150253229Y-96236131D01*
X150194752Y-96224500D01*
X150194748Y-96224500D01*
X148205252Y-96224500D01*
X148205247Y-96224500D01*
X148146770Y-96236131D01*
X148146769Y-96236132D01*
X148080447Y-96280447D01*
X148036132Y-96346769D01*
X148036131Y-96346770D01*
X148024500Y-96405247D01*
X144319724Y-96405247D01*
X148288152Y-92436819D01*
X148349475Y-92403334D01*
X148375833Y-92400500D01*
X154339560Y-92400500D01*
X154339562Y-92400500D01*
X154415989Y-92380021D01*
X154484511Y-92340460D01*
X154540460Y-92284511D01*
X154756194Y-92068775D01*
X154817513Y-92035293D01*
X154875964Y-92036683D01*
X154927525Y-92050500D01*
X154927527Y-92050500D01*
X155072472Y-92050500D01*
X155072475Y-92050500D01*
X155212485Y-92012984D01*
X155338015Y-91940509D01*
X155440509Y-91838015D01*
X155512984Y-91712485D01*
X155550500Y-91572475D01*
X155550500Y-91427525D01*
X155512984Y-91287515D01*
X155497234Y-91260236D01*
X155440511Y-91161988D01*
X155440506Y-91161982D01*
X155338017Y-91059493D01*
X155338011Y-91059488D01*
X155212488Y-90987017D01*
X155212489Y-90987017D01*
X155189410Y-90980833D01*
X155072475Y-90949500D01*
X154982904Y-90949500D01*
X154915865Y-90929815D01*
X154870110Y-90877011D01*
X154860166Y-90807853D01*
X154875517Y-90763500D01*
X154904968Y-90712488D01*
X154904967Y-90712488D01*
X154904970Y-90712485D01*
X154942486Y-90572475D01*
X154942486Y-90427525D01*
X154904970Y-90287515D01*
X154884768Y-90252525D01*
X154832497Y-90161988D01*
X154832492Y-90161982D01*
X154730003Y-90059493D01*
X154729997Y-90059488D01*
X154604474Y-89987017D01*
X154604475Y-89987017D01*
X154592992Y-89983940D01*
X154464461Y-89949500D01*
X154319511Y-89949500D01*
X154190979Y-89983940D01*
X154179497Y-89987017D01*
X154053974Y-90059488D01*
X154053968Y-90059493D01*
X153950281Y-90163181D01*
X153888958Y-90196666D01*
X153862600Y-90199500D01*
X148630438Y-90199500D01*
X148554010Y-90219978D01*
X148485489Y-90259540D01*
X148485486Y-90259542D01*
X131482104Y-107262923D01*
X131420781Y-107296408D01*
X131351089Y-107291424D01*
X131346971Y-107289803D01*
X131226424Y-107239871D01*
X131226412Y-107239868D01*
X131023469Y-107199500D01*
X131023465Y-107199500D01*
X130816535Y-107199500D01*
X130816530Y-107199500D01*
X130613587Y-107239868D01*
X130613579Y-107239870D01*
X130422403Y-107319058D01*
X130250342Y-107434024D01*
X130104024Y-107580342D01*
X129989058Y-107752403D01*
X129909870Y-107943579D01*
X129909868Y-107943587D01*
X129869500Y-108146530D01*
X129869500Y-108353469D01*
X129909868Y-108556412D01*
X129909870Y-108556420D01*
X129989058Y-108747596D01*
X130104024Y-108919657D01*
X130250342Y-109065975D01*
X130250345Y-109065977D01*
X130422402Y-109180941D01*
X130613580Y-109260130D01*
X130613581Y-109260130D01*
X130615534Y-109260939D01*
X130669937Y-109304780D01*
X130692002Y-109371074D01*
X130674723Y-109438773D01*
X130623586Y-109486384D01*
X130568081Y-109499500D01*
X128731919Y-109499500D01*
X128664880Y-109479815D01*
X128619125Y-109427011D01*
X128609181Y-109357853D01*
X128638206Y-109294297D01*
X128684466Y-109260939D01*
X128686418Y-109260130D01*
X128686420Y-109260130D01*
X128877598Y-109180941D01*
X129049655Y-109065977D01*
X129195977Y-108919655D01*
X129310941Y-108747598D01*
X129390130Y-108556420D01*
X129430500Y-108353465D01*
X129430500Y-108146535D01*
X129390130Y-107943580D01*
X129310941Y-107752402D01*
X129195977Y-107580345D01*
X129195975Y-107580342D01*
X129049657Y-107434024D01*
X128882616Y-107322412D01*
X128877598Y-107319059D01*
X128877593Y-107319057D01*
X128744957Y-107264117D01*
X128686420Y-107239870D01*
X128686419Y-107239869D01*
X128680792Y-107237539D01*
X128681471Y-107235899D01*
X128630047Y-107202182D01*
X128601606Y-107138363D01*
X128600500Y-107121841D01*
X128600500Y-88119785D01*
X128620185Y-88052746D01*
X128672989Y-88006991D01*
X128742147Y-87997047D01*
X128779904Y-88010115D01*
X128780005Y-88009873D01*
X128784073Y-88011558D01*
X128786500Y-88012398D01*
X128787515Y-88012984D01*
X128927525Y-88050500D01*
X128927528Y-88050500D01*
X129072472Y-88050500D01*
X129072475Y-88050500D01*
X129212485Y-88012984D01*
X129213495Y-88012400D01*
X129214457Y-88012167D01*
X129219999Y-88009872D01*
X129220356Y-88010735D01*
X129281393Y-87995925D01*
X129347421Y-88018774D01*
X129390615Y-88073692D01*
X129399500Y-88119785D01*
X129399500Y-97439562D01*
X129413152Y-97490513D01*
X129419979Y-97515990D01*
X129419982Y-97515995D01*
X129440775Y-97552011D01*
X129440776Y-97552011D01*
X129459540Y-97584511D01*
X130059540Y-98184511D01*
X130115489Y-98240460D01*
X130115491Y-98240461D01*
X130115495Y-98240464D01*
X130167790Y-98270656D01*
X130184011Y-98280021D01*
X130260438Y-98300500D01*
X130260440Y-98300500D01*
X137039560Y-98300500D01*
X137039562Y-98300500D01*
X137115989Y-98280021D01*
X137184511Y-98240460D01*
X137240460Y-98184511D01*
X137872960Y-97552011D01*
X137873968Y-97550263D01*
X137893748Y-97516006D01*
X137893751Y-97515997D01*
X137893757Y-97515989D01*
X137912521Y-97483489D01*
X137933000Y-97407062D01*
X137933000Y-94552718D01*
X137952685Y-94485679D01*
X138002541Y-94441317D01*
X138007546Y-94438870D01*
X138011347Y-94437012D01*
X138097012Y-94351347D01*
X138150220Y-94242509D01*
X138150221Y-94242501D01*
X138151523Y-94238288D01*
X138154424Y-94233909D01*
X138154450Y-94233857D01*
X138154456Y-94233860D01*
X138190117Y-94180045D01*
X138254074Y-94151914D01*
X138323086Y-94162826D01*
X138375244Y-94209316D01*
X138388469Y-94238270D01*
X138389776Y-94242500D01*
X138389779Y-94242507D01*
X138389780Y-94242509D01*
X138442988Y-94351347D01*
X138442989Y-94351349D01*
X138528651Y-94437011D01*
X138637488Y-94490219D01*
X138637489Y-94490219D01*
X138637491Y-94490220D01*
X138708051Y-94500500D01*
X139101948Y-94500499D01*
X139101950Y-94500499D01*
X139130172Y-94496387D01*
X139172509Y-94490220D01*
X139281347Y-94437012D01*
X139367012Y-94351347D01*
X139420220Y-94242509D01*
X139430500Y-94171949D01*
X139430500Y-93912000D01*
X139450185Y-93844961D01*
X139502989Y-93799206D01*
X139554500Y-93788000D01*
X144452060Y-93788000D01*
X144452062Y-93788000D01*
X144528489Y-93767521D01*
X144597011Y-93727960D01*
X144652960Y-93672011D01*
X148664152Y-89660819D01*
X148725475Y-89627334D01*
X148751833Y-89624500D01*
X154648167Y-89624500D01*
X154715206Y-89644185D01*
X154735848Y-89660819D01*
X155238181Y-90163152D01*
X155271666Y-90224475D01*
X155274500Y-90250833D01*
X155274500Y-90252525D01*
X155274500Y-90397475D01*
X155311301Y-90534815D01*
X155312017Y-90537488D01*
X155384488Y-90663011D01*
X155384490Y-90663013D01*
X155384491Y-90663015D01*
X155486985Y-90765509D01*
X155486986Y-90765510D01*
X155486988Y-90765511D01*
X155612511Y-90837982D01*
X155612512Y-90837982D01*
X155612515Y-90837984D01*
X155752525Y-90875500D01*
X155752528Y-90875500D01*
X155897472Y-90875500D01*
X155897475Y-90875500D01*
X156037485Y-90837984D01*
X156163015Y-90765509D01*
X156265509Y-90663015D01*
X156337984Y-90537485D01*
X156375500Y-90397475D01*
X156375500Y-90252525D01*
X156337984Y-90112515D01*
X156313292Y-90069748D01*
X156265511Y-89986988D01*
X156265506Y-89986982D01*
X156163017Y-89884493D01*
X156163011Y-89884488D01*
X156037488Y-89812017D01*
X156037489Y-89812017D01*
X156026006Y-89808940D01*
X155897475Y-89774500D01*
X155752525Y-89774500D01*
X155750833Y-89774500D01*
X155721392Y-89765855D01*
X155691406Y-89759332D01*
X155686390Y-89755577D01*
X155683794Y-89754815D01*
X155663152Y-89738181D01*
X155587152Y-89662181D01*
X155553667Y-89600858D01*
X155558651Y-89531166D01*
X155600523Y-89475233D01*
X155665987Y-89450816D01*
X155674833Y-89450500D01*
X155772472Y-89450500D01*
X155772475Y-89450500D01*
X155912485Y-89412984D01*
X156038015Y-89340509D01*
X156140509Y-89238015D01*
X156140509Y-89238014D01*
X156141705Y-89236819D01*
X156203028Y-89203334D01*
X156229386Y-89200500D01*
X157339560Y-89200500D01*
X157339562Y-89200500D01*
X157415989Y-89180021D01*
X157484511Y-89140460D01*
X157540460Y-89084511D01*
X158640460Y-87984511D01*
X158660096Y-87950500D01*
X158680021Y-87915989D01*
X158700500Y-87839562D01*
X158700500Y-87060438D01*
X158680021Y-86984011D01*
X158680017Y-86984004D01*
X158640464Y-86915495D01*
X158640458Y-86915487D01*
X156726452Y-85001481D01*
X156692967Y-84940158D01*
X156697951Y-84870466D01*
X156739823Y-84814533D01*
X156805287Y-84790116D01*
X156873560Y-84804968D01*
X156876124Y-84806407D01*
X156887515Y-84812984D01*
X157027525Y-84850500D01*
X157027528Y-84850500D01*
X157172472Y-84850500D01*
X157172475Y-84850500D01*
X157312485Y-84812984D01*
X157438015Y-84740509D01*
X157540509Y-84638015D01*
X157540509Y-84638014D01*
X157541705Y-84636819D01*
X157603028Y-84603334D01*
X157629386Y-84600500D01*
X160339560Y-84600500D01*
X160339562Y-84600500D01*
X160415989Y-84580021D01*
X160484511Y-84540460D01*
X160540460Y-84484511D01*
X161740460Y-83284511D01*
X161758362Y-83253504D01*
X161767304Y-83238016D01*
X161770974Y-83231657D01*
X161780021Y-83215989D01*
X161800500Y-83139562D01*
X161800500Y-79490025D01*
X163112000Y-79490025D01*
X163112000Y-79634975D01*
X163149516Y-79774985D01*
X163149517Y-79774988D01*
X163221988Y-79900511D01*
X163221990Y-79900513D01*
X163221991Y-79900515D01*
X163324485Y-80003009D01*
X163324486Y-80003010D01*
X163324488Y-80003011D01*
X163450011Y-80075482D01*
X163450012Y-80075482D01*
X163450015Y-80075484D01*
X163590025Y-80113000D01*
X163590028Y-80113000D01*
X163734972Y-80113000D01*
X163734975Y-80113000D01*
X163874985Y-80075484D01*
X164000515Y-80003009D01*
X164051015Y-79952508D01*
X164112336Y-79919024D01*
X164182028Y-79924008D01*
X164237961Y-79965879D01*
X164246082Y-79978189D01*
X164274567Y-80027525D01*
X164309491Y-80088015D01*
X164411985Y-80190509D01*
X164411986Y-80190510D01*
X164411988Y-80190511D01*
X164537511Y-80262982D01*
X164537512Y-80262982D01*
X164537515Y-80262984D01*
X164677525Y-80300500D01*
X164677528Y-80300500D01*
X164822472Y-80300500D01*
X164822475Y-80300500D01*
X164962485Y-80262984D01*
X165088015Y-80190509D01*
X165190509Y-80088015D01*
X165225433Y-80027525D01*
X168449500Y-80027525D01*
X168449500Y-80172475D01*
X168481951Y-80293582D01*
X168487017Y-80312488D01*
X168559488Y-80438011D01*
X168559490Y-80438013D01*
X168559491Y-80438015D01*
X168661985Y-80540509D01*
X168661986Y-80540510D01*
X168661988Y-80540511D01*
X168787511Y-80612982D01*
X168787512Y-80612982D01*
X168787515Y-80612984D01*
X168927525Y-80650500D01*
X168927528Y-80650500D01*
X169072472Y-80650500D01*
X169072475Y-80650500D01*
X169212485Y-80612984D01*
X169338015Y-80540509D01*
X169440509Y-80438015D01*
X169512984Y-80312485D01*
X169550500Y-80172475D01*
X169550500Y-80027525D01*
X169550500Y-80025832D01*
X169570185Y-79958793D01*
X169586819Y-79938151D01*
X170112985Y-79411985D01*
X170740460Y-78784511D01*
X170767881Y-78737016D01*
X170780021Y-78715989D01*
X170800500Y-78639562D01*
X170800500Y-68529386D01*
X170820185Y-68462347D01*
X170836819Y-68441705D01*
X170878964Y-68399560D01*
X170940509Y-68338015D01*
X171012984Y-68212485D01*
X171050500Y-68072475D01*
X171050500Y-67927525D01*
X171012984Y-67787515D01*
X171012696Y-67787017D01*
X170940511Y-67661988D01*
X170940506Y-67661982D01*
X170838017Y-67559493D01*
X170838011Y-67559488D01*
X170712488Y-67487017D01*
X170712489Y-67487017D01*
X170701006Y-67483940D01*
X170572475Y-67449500D01*
X170427525Y-67449500D01*
X170298993Y-67483940D01*
X170287511Y-67487017D01*
X170161988Y-67559488D01*
X170161982Y-67559493D01*
X170059493Y-67661982D01*
X170059488Y-67661988D01*
X169987017Y-67787511D01*
X169987016Y-67787515D01*
X169949500Y-67927525D01*
X169949500Y-68072475D01*
X169979428Y-68184167D01*
X169987017Y-68212488D01*
X170059488Y-68338011D01*
X170059493Y-68338017D01*
X170163181Y-68441705D01*
X170196666Y-68503028D01*
X170199500Y-68529386D01*
X170199500Y-78424166D01*
X170179815Y-78491205D01*
X170163181Y-78511847D01*
X169161847Y-79513181D01*
X169100524Y-79546666D01*
X169074166Y-79549500D01*
X169072475Y-79549500D01*
X168927525Y-79549500D01*
X168830385Y-79575529D01*
X168787511Y-79587017D01*
X168661988Y-79659488D01*
X168661982Y-79659493D01*
X168559493Y-79761982D01*
X168559488Y-79761988D01*
X168487017Y-79887511D01*
X168487016Y-79887515D01*
X168449500Y-80027525D01*
X165225433Y-80027525D01*
X165262984Y-79962485D01*
X165300500Y-79822475D01*
X165300500Y-79677525D01*
X165300500Y-79675832D01*
X165320185Y-79608793D01*
X165336819Y-79588151D01*
X165714259Y-79210711D01*
X166140460Y-78784511D01*
X166180022Y-78715988D01*
X166200500Y-78639562D01*
X166200500Y-78560438D01*
X166200500Y-71889928D01*
X166746000Y-71889928D01*
X166746000Y-72071571D01*
X166774415Y-72250975D01*
X166830548Y-72423734D01*
X166913012Y-72585580D01*
X166913014Y-72585584D01*
X166925048Y-72602145D01*
X166925049Y-72602146D01*
X167500000Y-72027195D01*
X167500000Y-72033411D01*
X167527259Y-72135144D01*
X167579920Y-72226356D01*
X167654394Y-72300830D01*
X167745606Y-72353491D01*
X167847339Y-72380750D01*
X167853554Y-72380750D01*
X167278602Y-72955699D01*
X167278603Y-72955700D01*
X167295165Y-72967735D01*
X167295179Y-72967743D01*
X167457012Y-73050200D01*
X167629774Y-73106334D01*
X167809179Y-73134750D01*
X167990821Y-73134750D01*
X168170225Y-73106334D01*
X168342984Y-73050201D01*
X168504831Y-72967736D01*
X168521396Y-72955699D01*
X167946447Y-72380750D01*
X167952661Y-72380750D01*
X168054394Y-72353491D01*
X168145606Y-72300830D01*
X168220080Y-72226356D01*
X168272741Y-72135144D01*
X168300000Y-72033411D01*
X168300000Y-72027196D01*
X168874949Y-72602145D01*
X168886986Y-72585581D01*
X168969451Y-72423734D01*
X169025584Y-72250975D01*
X169054000Y-72071571D01*
X169054000Y-71889928D01*
X169025584Y-71710524D01*
X168969450Y-71537762D01*
X168886993Y-71375929D01*
X168886985Y-71375915D01*
X168874950Y-71359353D01*
X168874949Y-71359352D01*
X168300000Y-71934302D01*
X168300000Y-71928089D01*
X168272741Y-71826356D01*
X168220080Y-71735144D01*
X168145606Y-71660670D01*
X168054394Y-71608009D01*
X167952661Y-71580750D01*
X167946447Y-71580750D01*
X168521396Y-71005799D01*
X168521395Y-71005798D01*
X168504834Y-70993764D01*
X168504830Y-70993762D01*
X168342984Y-70911298D01*
X168170225Y-70855165D01*
X167990821Y-70826750D01*
X167809179Y-70826750D01*
X167629774Y-70855165D01*
X167457015Y-70911298D01*
X167295170Y-70993762D01*
X167295161Y-70993768D01*
X167278603Y-71005798D01*
X167278602Y-71005799D01*
X167853554Y-71580750D01*
X167847339Y-71580750D01*
X167745606Y-71608009D01*
X167654394Y-71660670D01*
X167579920Y-71735144D01*
X167527259Y-71826356D01*
X167500000Y-71928089D01*
X167500000Y-71934303D01*
X166925049Y-71359352D01*
X166925048Y-71359353D01*
X166913018Y-71375911D01*
X166913012Y-71375920D01*
X166830548Y-71537765D01*
X166774415Y-71710524D01*
X166746000Y-71889928D01*
X166200500Y-71889928D01*
X166200500Y-68729386D01*
X166220185Y-68662347D01*
X166236819Y-68641705D01*
X166240513Y-68638011D01*
X166340509Y-68538015D01*
X166412984Y-68412485D01*
X166450500Y-68272475D01*
X166450500Y-68127525D01*
X166412984Y-67987515D01*
X166398244Y-67961985D01*
X166340511Y-67861988D01*
X166340506Y-67861982D01*
X166238017Y-67759493D01*
X166238011Y-67759488D01*
X166112488Y-67687017D01*
X166112489Y-67687017D01*
X166101006Y-67683940D01*
X165972475Y-67649500D01*
X165827525Y-67649500D01*
X165698993Y-67683940D01*
X165687511Y-67687017D01*
X165561988Y-67759488D01*
X165561982Y-67759493D01*
X165459493Y-67861982D01*
X165459488Y-67861988D01*
X165387017Y-67987511D01*
X165387016Y-67987515D01*
X165349500Y-68127525D01*
X165349500Y-68272475D01*
X165387016Y-68412485D01*
X165387017Y-68412488D01*
X165459488Y-68538011D01*
X165459493Y-68538017D01*
X165563181Y-68641705D01*
X165596666Y-68703028D01*
X165599500Y-68729386D01*
X165599500Y-78424166D01*
X165579815Y-78491205D01*
X165563181Y-78511847D01*
X164911847Y-79163181D01*
X164884919Y-79177884D01*
X164859101Y-79194477D01*
X164852900Y-79195368D01*
X164850524Y-79196666D01*
X164824166Y-79199500D01*
X164745544Y-79199500D01*
X164678505Y-79179815D01*
X164632750Y-79127011D01*
X164622806Y-79057853D01*
X164638157Y-79013499D01*
X164640458Y-79009512D01*
X164640460Y-79009511D01*
X164680022Y-78940988D01*
X164700500Y-78864562D01*
X164700500Y-78785438D01*
X164700500Y-68829386D01*
X164720185Y-68762347D01*
X164736819Y-68741705D01*
X164775496Y-68703028D01*
X164840509Y-68638015D01*
X164912984Y-68512485D01*
X164950500Y-68372475D01*
X164950500Y-68227525D01*
X164912984Y-68087515D01*
X164894521Y-68055537D01*
X164840511Y-67961988D01*
X164840506Y-67961982D01*
X164738017Y-67859493D01*
X164738011Y-67859488D01*
X164612488Y-67787017D01*
X164612489Y-67787017D01*
X164601006Y-67783940D01*
X164472475Y-67749500D01*
X164327525Y-67749500D01*
X164198993Y-67783940D01*
X164187511Y-67787017D01*
X164061988Y-67859488D01*
X164061982Y-67859493D01*
X163959493Y-67961982D01*
X163959488Y-67961988D01*
X163887017Y-68087511D01*
X163887016Y-68087515D01*
X163849500Y-68227525D01*
X163849500Y-68372475D01*
X163887014Y-68512478D01*
X163887017Y-68512488D01*
X163959488Y-68638011D01*
X163959493Y-68638017D01*
X164063181Y-68741705D01*
X164096666Y-68803028D01*
X164099500Y-68829386D01*
X164099500Y-78649166D01*
X164079815Y-78716205D01*
X164063181Y-78736847D01*
X163824347Y-78975681D01*
X163763024Y-79009166D01*
X163736666Y-79012000D01*
X163734975Y-79012000D01*
X163590025Y-79012000D01*
X163461493Y-79046440D01*
X163450011Y-79049517D01*
X163324488Y-79121988D01*
X163324482Y-79121993D01*
X163221993Y-79224482D01*
X163221988Y-79224488D01*
X163149517Y-79350011D01*
X163149516Y-79350015D01*
X163112000Y-79490025D01*
X161800500Y-79490025D01*
X161800500Y-73556582D01*
X161820185Y-73489543D01*
X161836815Y-73468905D01*
X162487908Y-72817811D01*
X162549229Y-72784328D01*
X162618920Y-72789312D01*
X162623041Y-72790934D01*
X162650745Y-72802410D01*
X162650747Y-72802410D01*
X162650751Y-72802412D01*
X162815834Y-72835249D01*
X162815838Y-72835250D01*
X162815839Y-72835250D01*
X162984162Y-72835250D01*
X162984163Y-72835249D01*
X163149249Y-72802412D01*
X163304758Y-72737998D01*
X163444712Y-72644484D01*
X163563734Y-72525462D01*
X163657248Y-72385508D01*
X163721662Y-72229999D01*
X163754500Y-72064911D01*
X163754500Y-71896589D01*
X163721662Y-71731501D01*
X163657248Y-71575992D01*
X163657247Y-71575991D01*
X163657244Y-71575985D01*
X163563734Y-71436038D01*
X163563731Y-71436034D01*
X163444715Y-71317018D01*
X163444711Y-71317015D01*
X163304764Y-71223505D01*
X163304755Y-71223500D01*
X163149249Y-71159088D01*
X163149241Y-71159086D01*
X162984165Y-71126250D01*
X162984161Y-71126250D01*
X162815839Y-71126250D01*
X162815834Y-71126250D01*
X162650758Y-71159086D01*
X162650750Y-71159088D01*
X162495244Y-71223500D01*
X162495235Y-71223505D01*
X162355288Y-71317015D01*
X162355284Y-71317018D01*
X162236268Y-71436034D01*
X162236265Y-71436038D01*
X162142755Y-71575985D01*
X162142750Y-71575994D01*
X162078338Y-71731500D01*
X162078336Y-71731508D01*
X162045500Y-71896584D01*
X162045500Y-72064915D01*
X162078335Y-72229991D01*
X162078338Y-72230000D01*
X162089816Y-72257711D01*
X162097283Y-72327181D01*
X162066007Y-72389659D01*
X162062935Y-72392842D01*
X161315489Y-73140290D01*
X161259541Y-73196237D01*
X161259535Y-73196245D01*
X161219982Y-73264754D01*
X161219979Y-73264759D01*
X161199500Y-73341189D01*
X161199500Y-82924167D01*
X161179815Y-82991206D01*
X161163181Y-83011848D01*
X160211848Y-83963181D01*
X160184920Y-83977884D01*
X160159102Y-83994477D01*
X160152901Y-83995368D01*
X160150525Y-83996666D01*
X160124167Y-83999500D01*
X160062050Y-83999500D01*
X159995011Y-83979815D01*
X159949256Y-83927011D01*
X159939312Y-83857853D01*
X159954663Y-83813500D01*
X160012982Y-83712488D01*
X160012981Y-83712488D01*
X160012984Y-83712485D01*
X160050500Y-83572475D01*
X160050500Y-83427525D01*
X160012984Y-83287515D01*
X160011250Y-83284512D01*
X159940511Y-83161988D01*
X159940510Y-83161987D01*
X159940509Y-83161985D01*
X159838015Y-83059491D01*
X159838014Y-83059490D01*
X159836818Y-83058294D01*
X159803334Y-82996971D01*
X159800500Y-82970613D01*
X159800500Y-74860440D01*
X159800500Y-74860438D01*
X159796126Y-74844114D01*
X159780022Y-74784012D01*
X159740460Y-74715489D01*
X153296819Y-68271848D01*
X153263334Y-68210525D01*
X153260500Y-68184167D01*
X153260500Y-65449500D01*
X153280185Y-65382461D01*
X153332989Y-65336706D01*
X153384500Y-65325500D01*
X153829750Y-65325500D01*
X153829751Y-65325499D01*
X153844568Y-65322552D01*
X153888229Y-65313868D01*
X153888229Y-65313867D01*
X153888231Y-65313867D01*
X153954552Y-65269552D01*
X153998867Y-65203231D01*
X153998867Y-65203229D01*
X153998868Y-65203229D01*
X154010499Y-65144752D01*
X154010500Y-65144750D01*
X154010500Y-63405249D01*
X154010499Y-63405247D01*
X153998868Y-63346770D01*
X153998867Y-63346769D01*
X153954552Y-63280447D01*
X153888230Y-63236132D01*
X153888229Y-63236131D01*
X153829752Y-63224500D01*
X153829748Y-63224500D01*
X152090252Y-63224500D01*
X152090247Y-63224500D01*
X152031770Y-63236131D01*
X152031769Y-63236132D01*
X151965447Y-63280447D01*
X151921132Y-63346769D01*
X151921131Y-63346770D01*
X151909500Y-63405247D01*
X151909500Y-65144752D01*
X151921131Y-65203229D01*
X151921132Y-65203230D01*
X151965447Y-65269552D01*
X152031769Y-65313867D01*
X152031770Y-65313868D01*
X152090247Y-65325499D01*
X152090250Y-65325500D01*
X152090252Y-65325500D01*
X152535500Y-65325500D01*
X152602539Y-65345185D01*
X152648294Y-65397989D01*
X152659500Y-65449500D01*
X152659500Y-68399562D01*
X152662963Y-68412485D01*
X152679979Y-68475991D01*
X152679981Y-68475994D01*
X152701045Y-68512478D01*
X152701047Y-68512481D01*
X152701050Y-68512485D01*
X152715790Y-68538015D01*
X152719541Y-68544512D01*
X159163181Y-74988152D01*
X159196666Y-75049475D01*
X159199500Y-75075833D01*
X159199500Y-75801385D01*
X159179815Y-75868424D01*
X159127011Y-75914179D01*
X159057853Y-75924123D01*
X158994297Y-75895098D01*
X158968113Y-75863385D01*
X158940462Y-75815492D01*
X158940458Y-75815487D01*
X151636819Y-68511848D01*
X151603334Y-68450525D01*
X151600500Y-68424167D01*
X151600500Y-62675832D01*
X151620185Y-62608793D01*
X151636815Y-62588155D01*
X151907524Y-62317445D01*
X151968847Y-62283961D01*
X152038539Y-62288945D01*
X152094472Y-62330817D01*
X152098308Y-62336237D01*
X152144024Y-62404657D01*
X152290342Y-62550975D01*
X152290345Y-62550977D01*
X152462402Y-62665941D01*
X152653580Y-62745130D01*
X152802310Y-62774714D01*
X152856530Y-62785499D01*
X152856534Y-62785500D01*
X152856535Y-62785500D01*
X153063466Y-62785500D01*
X153063467Y-62785499D01*
X153266420Y-62745130D01*
X153457598Y-62665941D01*
X153629655Y-62550977D01*
X153775977Y-62404655D01*
X153890941Y-62232598D01*
X153970130Y-62041420D01*
X154010500Y-61838465D01*
X154010500Y-61631535D01*
X153970130Y-61428580D01*
X153890941Y-61237402D01*
X153775977Y-61065345D01*
X153775975Y-61065342D01*
X153629657Y-60919024D01*
X153457596Y-60804057D01*
X153300680Y-60739061D01*
X153246277Y-60695220D01*
X153224212Y-60628926D01*
X153241491Y-60561226D01*
X153292629Y-60513616D01*
X153348133Y-60500500D01*
X155111867Y-60500500D01*
X155178906Y-60520185D01*
G37*
%TD.AperFunction*%
%TA.AperFunction,Conductor*%
G36*
X137687205Y-91175185D02*
G01*
X137732960Y-91227989D01*
X137742904Y-91297147D01*
X137713879Y-91360703D01*
X137707847Y-91367181D01*
X137447989Y-91627040D01*
X137392041Y-91682987D01*
X137392035Y-91682995D01*
X137352482Y-91751504D01*
X137352479Y-91751509D01*
X137340379Y-91796666D01*
X137336365Y-91811650D01*
X137332000Y-91827939D01*
X137332000Y-92424726D01*
X137312315Y-92491765D01*
X137262465Y-92536124D01*
X137258653Y-92537987D01*
X137258650Y-92537990D01*
X137172988Y-92623651D01*
X137119780Y-92732488D01*
X137118473Y-92736721D01*
X137115571Y-92741098D01*
X137115550Y-92741143D01*
X137115544Y-92741140D01*
X137079873Y-92794961D01*
X137015914Y-92823087D01*
X136946903Y-92812169D01*
X136894750Y-92765674D01*
X136881528Y-92736724D01*
X136880220Y-92732494D01*
X136880220Y-92732493D01*
X136880220Y-92732491D01*
X136827012Y-92623653D01*
X136827010Y-92623651D01*
X136827010Y-92623650D01*
X136741348Y-92537988D01*
X136632511Y-92484780D01*
X136614869Y-92482210D01*
X136561949Y-92474500D01*
X136561943Y-92474500D01*
X136168049Y-92474500D01*
X136097493Y-92484779D01*
X135983978Y-92540273D01*
X135915105Y-92552031D01*
X135850808Y-92524688D01*
X135823401Y-92493022D01*
X135782836Y-92425919D01*
X135669080Y-92312163D01*
X135531396Y-92228929D01*
X135377794Y-92181066D01*
X135345000Y-92178085D01*
X135345000Y-93363500D01*
X135325315Y-93430539D01*
X135272511Y-93476294D01*
X135221000Y-93487500D01*
X135095000Y-93487500D01*
X135095000Y-93613500D01*
X135075315Y-93680539D01*
X135022511Y-93726294D01*
X134971000Y-93737500D01*
X134270000Y-93737500D01*
X134270000Y-94191043D01*
X134276066Y-94257794D01*
X134325926Y-94417806D01*
X134327076Y-94487666D01*
X134290275Y-94547058D01*
X134227206Y-94577126D01*
X134220142Y-94578053D01*
X134147302Y-94585494D01*
X133980880Y-94640641D01*
X133980875Y-94640643D01*
X133831654Y-94732684D01*
X133707684Y-94856654D01*
X133615643Y-95005875D01*
X133615641Y-95005880D01*
X133560494Y-95172302D01*
X133560493Y-95172309D01*
X133550000Y-95275013D01*
X133550000Y-95550000D01*
X134426000Y-95550000D01*
X134493039Y-95569685D01*
X134538794Y-95622489D01*
X134550000Y-95674000D01*
X134550000Y-95800000D01*
X134676000Y-95800000D01*
X134743039Y-95819685D01*
X134788794Y-95872489D01*
X134800000Y-95924000D01*
X134800000Y-97024999D01*
X134849972Y-97024999D01*
X134849986Y-97024998D01*
X134952697Y-97014505D01*
X135119119Y-96959358D01*
X135119124Y-96959356D01*
X135268345Y-96867315D01*
X135392315Y-96743345D01*
X135484356Y-96594124D01*
X135484359Y-96594117D01*
X135540094Y-96425918D01*
X135579866Y-96368473D01*
X135644382Y-96341649D01*
X135713158Y-96353964D01*
X135764358Y-96401506D01*
X135774841Y-96423965D01*
X135779845Y-96438264D01*
X135797207Y-96487882D01*
X135877850Y-96597150D01*
X135987118Y-96677793D01*
X136029845Y-96692744D01*
X136115299Y-96722646D01*
X136145730Y-96725500D01*
X136145734Y-96725500D01*
X136754270Y-96725500D01*
X136784699Y-96722646D01*
X136784701Y-96722646D01*
X136848790Y-96700219D01*
X136912882Y-96677793D01*
X137022150Y-96597150D01*
X137102793Y-96487882D01*
X137102793Y-96487881D01*
X137108230Y-96480515D01*
X137163877Y-96438264D01*
X137233533Y-96432805D01*
X137295083Y-96465872D01*
X137328984Y-96526966D01*
X137332000Y-96554148D01*
X137332000Y-97191667D01*
X137312315Y-97258706D01*
X137295681Y-97279348D01*
X136911848Y-97663181D01*
X136850525Y-97696666D01*
X136824167Y-97699500D01*
X130475833Y-97699500D01*
X130408794Y-97679815D01*
X130388152Y-97663181D01*
X130036819Y-97311848D01*
X130003334Y-97250525D01*
X130000500Y-97224167D01*
X130000500Y-94580247D01*
X130499500Y-94580247D01*
X130499500Y-96219752D01*
X130511131Y-96278229D01*
X130511132Y-96278230D01*
X130555447Y-96344552D01*
X130621769Y-96388867D01*
X130621770Y-96388868D01*
X130680247Y-96400499D01*
X130680250Y-96400500D01*
X130680252Y-96400500D01*
X132219750Y-96400500D01*
X132219751Y-96400499D01*
X132234568Y-96397552D01*
X132278229Y-96388868D01*
X132278229Y-96388867D01*
X132278231Y-96388867D01*
X132344552Y-96344552D01*
X132357626Y-96324986D01*
X133550001Y-96324986D01*
X133560494Y-96427697D01*
X133615641Y-96594119D01*
X133615643Y-96594124D01*
X133707684Y-96743345D01*
X133831654Y-96867315D01*
X133980875Y-96959356D01*
X133980880Y-96959358D01*
X134147302Y-97014505D01*
X134147309Y-97014506D01*
X134250019Y-97024999D01*
X134299999Y-97024998D01*
X134300000Y-97024998D01*
X134300000Y-96050000D01*
X133550001Y-96050000D01*
X133550001Y-96324986D01*
X132357626Y-96324986D01*
X132388867Y-96278231D01*
X132388867Y-96278229D01*
X132388868Y-96278229D01*
X132400499Y-96219752D01*
X132400500Y-96219750D01*
X132400500Y-94580249D01*
X132400499Y-94580247D01*
X132388868Y-94521770D01*
X132388867Y-94521769D01*
X132344552Y-94455447D01*
X132278230Y-94411132D01*
X132278229Y-94411131D01*
X132219752Y-94399500D01*
X132219748Y-94399500D01*
X130680252Y-94399500D01*
X130680247Y-94399500D01*
X130621770Y-94411131D01*
X130621769Y-94411132D01*
X130555447Y-94455447D01*
X130511132Y-94521769D01*
X130511131Y-94521770D01*
X130499500Y-94580247D01*
X130000500Y-94580247D01*
X130000500Y-93224833D01*
X130020185Y-93157794D01*
X130072989Y-93112039D01*
X130142147Y-93102095D01*
X130205703Y-93131120D01*
X130212181Y-93137152D01*
X130659540Y-93584511D01*
X130715489Y-93640460D01*
X130715491Y-93640461D01*
X130715495Y-93640464D01*
X130770137Y-93672011D01*
X130784011Y-93680021D01*
X130860438Y-93700500D01*
X130860440Y-93700500D01*
X132339560Y-93700500D01*
X132339562Y-93700500D01*
X132415989Y-93680021D01*
X132484511Y-93640460D01*
X132540460Y-93584511D01*
X133140460Y-92984511D01*
X133143052Y-92980021D01*
X133180021Y-92915989D01*
X133200500Y-92839562D01*
X133200500Y-92783956D01*
X134270000Y-92783956D01*
X134270000Y-93237500D01*
X134845000Y-93237500D01*
X134845000Y-92178085D01*
X134844999Y-92178085D01*
X134812205Y-92181066D01*
X134658603Y-92228929D01*
X134520919Y-92312163D01*
X134407163Y-92425919D01*
X134323929Y-92563603D01*
X134276065Y-92717207D01*
X134270000Y-92783956D01*
X133200500Y-92783956D01*
X133200500Y-92529386D01*
X133220185Y-92462347D01*
X133236819Y-92441705D01*
X133283972Y-92394552D01*
X133340509Y-92338015D01*
X133412984Y-92212485D01*
X133450500Y-92072475D01*
X133450500Y-91927525D01*
X133412984Y-91787515D01*
X133405758Y-91775000D01*
X133340511Y-91661988D01*
X133340506Y-91661982D01*
X133238017Y-91559493D01*
X133238011Y-91559488D01*
X133112488Y-91487017D01*
X133112489Y-91487017D01*
X133064532Y-91474167D01*
X132972475Y-91449500D01*
X132827525Y-91449500D01*
X132735468Y-91474167D01*
X132687511Y-91487017D01*
X132586500Y-91545337D01*
X132518600Y-91561810D01*
X132452573Y-91538958D01*
X132409383Y-91484037D01*
X132404195Y-91467997D01*
X132400500Y-91453202D01*
X132400500Y-91430252D01*
X132388867Y-91371769D01*
X132374965Y-91350963D01*
X132369741Y-91330047D01*
X132370323Y-91315809D01*
X132366066Y-91302215D01*
X132371721Y-91281598D01*
X132372595Y-91260236D01*
X132380780Y-91248574D01*
X132384550Y-91234835D01*
X132386945Y-91231108D01*
X132395653Y-91218076D01*
X132397533Y-91219332D01*
X132431123Y-91177647D01*
X132497416Y-91155579D01*
X132501847Y-91155500D01*
X137620166Y-91155500D01*
X137687205Y-91175185D01*
G37*
%TD.AperFunction*%
%TA.AperFunction,Conductor*%
G36*
X162925269Y-60520185D02*
G01*
X162971024Y-60572989D01*
X162980968Y-60642147D01*
X162951943Y-60705703D01*
X162927122Y-60727602D01*
X162885446Y-60755448D01*
X162841132Y-60821769D01*
X162841131Y-60821770D01*
X162829500Y-60880247D01*
X162829500Y-62619752D01*
X162841131Y-62678229D01*
X162841132Y-62678230D01*
X162885447Y-62744552D01*
X162951769Y-62788867D01*
X162951770Y-62788868D01*
X163010247Y-62800499D01*
X163010250Y-62800500D01*
X163010252Y-62800500D01*
X164749750Y-62800500D01*
X164749751Y-62800499D01*
X164764568Y-62797552D01*
X164808229Y-62788868D01*
X164808229Y-62788867D01*
X164808231Y-62788867D01*
X164874552Y-62744552D01*
X164918867Y-62678231D01*
X164918867Y-62678229D01*
X164918868Y-62678229D01*
X164927552Y-62634568D01*
X164930500Y-62619748D01*
X164930500Y-60880252D01*
X164930500Y-60880249D01*
X164930499Y-60880247D01*
X164918868Y-60821770D01*
X164918867Y-60821769D01*
X164874553Y-60755448D01*
X164832878Y-60727602D01*
X164788074Y-60673989D01*
X164779367Y-60604664D01*
X164809522Y-60541637D01*
X164868965Y-60504918D01*
X164901770Y-60500500D01*
X166068081Y-60500500D01*
X166135120Y-60520185D01*
X166180875Y-60572989D01*
X166190819Y-60642147D01*
X166161794Y-60705703D01*
X166115534Y-60739061D01*
X166113581Y-60739869D01*
X166113580Y-60739870D01*
X166075972Y-60755448D01*
X165922403Y-60819058D01*
X165750342Y-60934024D01*
X165604024Y-61080342D01*
X165489058Y-61252403D01*
X165409870Y-61443579D01*
X165409868Y-61443587D01*
X165369500Y-61646530D01*
X165369500Y-61853469D01*
X165409868Y-62056412D01*
X165409870Y-62056420D01*
X165475939Y-62215925D01*
X165489059Y-62247598D01*
X165502836Y-62268217D01*
X165604024Y-62419657D01*
X165750342Y-62565975D01*
X165750345Y-62565977D01*
X165922402Y-62680941D01*
X166113580Y-62760130D01*
X166258052Y-62788867D01*
X166316530Y-62800499D01*
X166316534Y-62800500D01*
X166316535Y-62800500D01*
X166523466Y-62800500D01*
X166523467Y-62800499D01*
X166726420Y-62760130D01*
X166917598Y-62680941D01*
X167089655Y-62565977D01*
X167235977Y-62419655D01*
X167350941Y-62247598D01*
X167430130Y-62056420D01*
X167470500Y-61853465D01*
X167470500Y-61646535D01*
X167430130Y-61443580D01*
X167350941Y-61252402D01*
X167235977Y-61080345D01*
X167235975Y-61080342D01*
X167089657Y-60934024D01*
X166921655Y-60821770D01*
X166917598Y-60819059D01*
X166726420Y-60739870D01*
X166726418Y-60739869D01*
X166724466Y-60739061D01*
X166670063Y-60695220D01*
X166647998Y-60628926D01*
X166665277Y-60561227D01*
X166716414Y-60513616D01*
X166771919Y-60500500D01*
X168608081Y-60500500D01*
X168675120Y-60520185D01*
X168720875Y-60572989D01*
X168730819Y-60642147D01*
X168701794Y-60705703D01*
X168655534Y-60739061D01*
X168653581Y-60739869D01*
X168653580Y-60739870D01*
X168615972Y-60755448D01*
X168462403Y-60819058D01*
X168290342Y-60934024D01*
X168144024Y-61080342D01*
X168029058Y-61252403D01*
X167949870Y-61443579D01*
X167949868Y-61443587D01*
X167909500Y-61646530D01*
X167909500Y-61853469D01*
X167949868Y-62056412D01*
X167949870Y-62056420D01*
X168015939Y-62215925D01*
X168029059Y-62247598D01*
X168042836Y-62268217D01*
X168144024Y-62419657D01*
X168290342Y-62565975D01*
X168290345Y-62565977D01*
X168462402Y-62680941D01*
X168653580Y-62760130D01*
X168798052Y-62788867D01*
X168856530Y-62800499D01*
X168856534Y-62800500D01*
X168856535Y-62800500D01*
X169063466Y-62800500D01*
X169063467Y-62800499D01*
X169266420Y-62760130D01*
X169457598Y-62680941D01*
X169629655Y-62565977D01*
X169775977Y-62419655D01*
X169890941Y-62247598D01*
X169959165Y-62082889D01*
X170003004Y-62028488D01*
X170069298Y-62006423D01*
X170136998Y-62023702D01*
X170184609Y-62074839D01*
X170191656Y-62092026D01*
X170248904Y-62268216D01*
X170345375Y-62457550D01*
X170384728Y-62511716D01*
X171017037Y-61879408D01*
X171034075Y-61942993D01*
X171099901Y-62057007D01*
X171192993Y-62150099D01*
X171307007Y-62215925D01*
X171370590Y-62232962D01*
X170738282Y-62865269D01*
X170738282Y-62865270D01*
X170792449Y-62904624D01*
X170981782Y-63001095D01*
X171183870Y-63066757D01*
X171393754Y-63100000D01*
X171606246Y-63100000D01*
X171816127Y-63066757D01*
X171816130Y-63066757D01*
X172018217Y-63001095D01*
X172207554Y-62904622D01*
X172261716Y-62865270D01*
X172261717Y-62865270D01*
X171629408Y-62232962D01*
X171692993Y-62215925D01*
X171807007Y-62150099D01*
X171900099Y-62057007D01*
X171965925Y-61942993D01*
X171982962Y-61879409D01*
X172615270Y-62511717D01*
X172615270Y-62511716D01*
X172654622Y-62457554D01*
X172751095Y-62268217D01*
X172816757Y-62066130D01*
X172816757Y-62066127D01*
X172850000Y-61856246D01*
X172850000Y-61643753D01*
X172816757Y-61433872D01*
X172816757Y-61433869D01*
X172751095Y-61231782D01*
X172654624Y-61042449D01*
X172615270Y-60988282D01*
X172615269Y-60988282D01*
X171982962Y-61620590D01*
X171965925Y-61557007D01*
X171900099Y-61442993D01*
X171807007Y-61349901D01*
X171692993Y-61284075D01*
X171629409Y-61267037D01*
X172261716Y-60634728D01*
X172261677Y-60634230D01*
X172276041Y-60565853D01*
X172325091Y-60516096D01*
X172385295Y-60500500D01*
X179934108Y-60500500D01*
X179997294Y-60500500D01*
X180002702Y-60500617D01*
X180386771Y-60517386D01*
X180397506Y-60518326D01*
X180775971Y-60568152D01*
X180786597Y-60570025D01*
X181159284Y-60652648D01*
X181169710Y-60655442D01*
X181533765Y-60770227D01*
X181543911Y-60773920D01*
X181896578Y-60920000D01*
X181906369Y-60924566D01*
X182244942Y-61100816D01*
X182254309Y-61106223D01*
X182460223Y-61237405D01*
X182576244Y-61311318D01*
X182585105Y-61317523D01*
X182887930Y-61549889D01*
X182896217Y-61556843D01*
X183177635Y-61814715D01*
X183185284Y-61822364D01*
X183443156Y-62103782D01*
X183450110Y-62112069D01*
X183682476Y-62414894D01*
X183688681Y-62423755D01*
X183893775Y-62745689D01*
X183899183Y-62755057D01*
X184075430Y-63093623D01*
X184080002Y-63103427D01*
X184226075Y-63456078D01*
X184229775Y-63466244D01*
X184344554Y-63830278D01*
X184347354Y-63840727D01*
X184429971Y-64213389D01*
X184431849Y-64224042D01*
X184481671Y-64602473D01*
X184482614Y-64613249D01*
X184499382Y-64997297D01*
X184499500Y-65002706D01*
X184499500Y-73024180D01*
X184479815Y-73091219D01*
X184427011Y-73136974D01*
X184357853Y-73146918D01*
X184306610Y-73127283D01*
X184210990Y-73063392D01*
X184210979Y-73063386D01*
X184084362Y-73010940D01*
X184084350Y-73010937D01*
X183949935Y-72984200D01*
X183949931Y-72984200D01*
X182593671Y-72984200D01*
X182593666Y-72984200D01*
X182459251Y-73010937D01*
X182459239Y-73010940D01*
X182332622Y-73063386D01*
X182332609Y-73063393D01*
X182218654Y-73139536D01*
X182218650Y-73139539D01*
X182121740Y-73236449D01*
X182121737Y-73236453D01*
X182045594Y-73350408D01*
X182045587Y-73350421D01*
X181993141Y-73477038D01*
X181993138Y-73477050D01*
X181966401Y-73611465D01*
X181966401Y-73748534D01*
X181993138Y-73882949D01*
X181993141Y-73882961D01*
X182045587Y-74009578D01*
X182045594Y-74009591D01*
X182121737Y-74123546D01*
X182121740Y-74123550D01*
X182218650Y-74220460D01*
X182218654Y-74220463D01*
X182332609Y-74296606D01*
X182332622Y-74296613D01*
X182427275Y-74335819D01*
X182459244Y-74349061D01*
X182557625Y-74368630D01*
X182593666Y-74375799D01*
X182593670Y-74375800D01*
X182593671Y-74375800D01*
X183949932Y-74375800D01*
X183949933Y-74375799D01*
X184084358Y-74349061D01*
X184210986Y-74296610D01*
X184230825Y-74283354D01*
X184306609Y-74232717D01*
X184373286Y-74211839D01*
X184440667Y-74230323D01*
X184487357Y-74282302D01*
X184499500Y-74335819D01*
X184499500Y-81664180D01*
X184479815Y-81731219D01*
X184427011Y-81776974D01*
X184357853Y-81786918D01*
X184306610Y-81767283D01*
X184210990Y-81703392D01*
X184210979Y-81703386D01*
X184084362Y-81650940D01*
X184084350Y-81650937D01*
X183949935Y-81624200D01*
X183949931Y-81624200D01*
X182593671Y-81624200D01*
X182593666Y-81624200D01*
X182459251Y-81650937D01*
X182459239Y-81650940D01*
X182332622Y-81703386D01*
X182332609Y-81703393D01*
X182218654Y-81779536D01*
X182218650Y-81779539D01*
X182121740Y-81876449D01*
X182121737Y-81876453D01*
X182045594Y-81990408D01*
X182045587Y-81990421D01*
X181993141Y-82117038D01*
X181993138Y-82117050D01*
X181966401Y-82251465D01*
X181966401Y-82388534D01*
X181993138Y-82522949D01*
X181993141Y-82522961D01*
X182045587Y-82649578D01*
X182045594Y-82649591D01*
X182121737Y-82763546D01*
X182121740Y-82763550D01*
X182218650Y-82860460D01*
X182218654Y-82860463D01*
X182332609Y-82936606D01*
X182332622Y-82936613D01*
X182427275Y-82975819D01*
X182459244Y-82989061D01*
X182573803Y-83011848D01*
X182593666Y-83015799D01*
X182593670Y-83015800D01*
X182593671Y-83015800D01*
X183949932Y-83015800D01*
X183949933Y-83015799D01*
X184084358Y-82989061D01*
X184210986Y-82936610D01*
X184229608Y-82924167D01*
X184306609Y-82872717D01*
X184373286Y-82851839D01*
X184440667Y-82870323D01*
X184487357Y-82922302D01*
X184499500Y-82975819D01*
X184499500Y-91085730D01*
X184479815Y-91152769D01*
X184427011Y-91198524D01*
X184357853Y-91208468D01*
X184294297Y-91179443D01*
X184276234Y-91160042D01*
X184207187Y-91067809D01*
X184092093Y-90981649D01*
X184092086Y-90981645D01*
X183957379Y-90931403D01*
X183957372Y-90931401D01*
X183897844Y-90925000D01*
X183495565Y-90925000D01*
X183428526Y-90905315D01*
X183382771Y-90852511D01*
X183372827Y-90783353D01*
X183401852Y-90719797D01*
X183448112Y-90686439D01*
X183453608Y-90684162D01*
X183497598Y-90665941D01*
X183669655Y-90550977D01*
X183815977Y-90404655D01*
X183930941Y-90232598D01*
X184010130Y-90041420D01*
X184050500Y-89838465D01*
X184050500Y-89631535D01*
X184010130Y-89428580D01*
X183930941Y-89237402D01*
X183815977Y-89065345D01*
X183815975Y-89065342D01*
X183669657Y-88919024D01*
X183611284Y-88880021D01*
X183497598Y-88804059D01*
X183497595Y-88804057D01*
X183497594Y-88804057D01*
X183452045Y-88785189D01*
X183397643Y-88741347D01*
X183375579Y-88675053D01*
X183375500Y-88670629D01*
X183375500Y-88000568D01*
X183375500Y-88000565D01*
X183375483Y-88000500D01*
X183375213Y-87999493D01*
X183375204Y-87999460D01*
X183352838Y-87915988D01*
X183352838Y-87915987D01*
X183349910Y-87905063D01*
X183349910Y-87905062D01*
X183339779Y-87887515D01*
X183300475Y-87819438D01*
X183230562Y-87749525D01*
X179686819Y-84205782D01*
X179653334Y-84144459D01*
X179650500Y-84118101D01*
X179650500Y-83970730D01*
X179647646Y-83940300D01*
X179647646Y-83940298D01*
X179603830Y-83815082D01*
X179602793Y-83812118D01*
X179522150Y-83702850D01*
X179412882Y-83622207D01*
X179412880Y-83622206D01*
X179284700Y-83577353D01*
X179254270Y-83574500D01*
X179254266Y-83574500D01*
X178645734Y-83574500D01*
X178645729Y-83574500D01*
X178621307Y-83576790D01*
X178552723Y-83563451D01*
X178522050Y-83541013D01*
X177232502Y-82251465D01*
X178169600Y-82251465D01*
X178169600Y-82388534D01*
X178196337Y-82522949D01*
X178196340Y-82522961D01*
X178248786Y-82649578D01*
X178248793Y-82649591D01*
X178324936Y-82763546D01*
X178324939Y-82763550D01*
X178421849Y-82860460D01*
X178421853Y-82860463D01*
X178535808Y-82936606D01*
X178535821Y-82936613D01*
X178630474Y-82975819D01*
X178662443Y-82989061D01*
X178777002Y-83011848D01*
X178796865Y-83015799D01*
X178796869Y-83015800D01*
X178796870Y-83015800D01*
X179746731Y-83015800D01*
X179746732Y-83015799D01*
X179881157Y-82989061D01*
X180007785Y-82936610D01*
X180121747Y-82860463D01*
X180218663Y-82763547D01*
X180294810Y-82649585D01*
X180347261Y-82522957D01*
X180374000Y-82388530D01*
X180374000Y-82251470D01*
X180347261Y-82117043D01*
X180329501Y-82074166D01*
X180294813Y-81990421D01*
X180294806Y-81990408D01*
X180218663Y-81876453D01*
X180218660Y-81876449D01*
X180121750Y-81779539D01*
X180121746Y-81779536D01*
X180007791Y-81703393D01*
X180007778Y-81703386D01*
X179881161Y-81650940D01*
X179881149Y-81650937D01*
X179746734Y-81624200D01*
X179746730Y-81624200D01*
X178796870Y-81624200D01*
X178796865Y-81624200D01*
X178662450Y-81650937D01*
X178662438Y-81650940D01*
X178535821Y-81703386D01*
X178535808Y-81703393D01*
X178421853Y-81779536D01*
X178421849Y-81779539D01*
X178324939Y-81876449D01*
X178324936Y-81876453D01*
X178248793Y-81990408D01*
X178248786Y-81990421D01*
X178196340Y-82117038D01*
X178196337Y-82117050D01*
X178169600Y-82251465D01*
X177232502Y-82251465D01*
X173211819Y-78230782D01*
X173178334Y-78169459D01*
X173175500Y-78143101D01*
X173175500Y-73611465D01*
X178169600Y-73611465D01*
X178169600Y-73748534D01*
X178196337Y-73882949D01*
X178196340Y-73882961D01*
X178248786Y-74009578D01*
X178248793Y-74009591D01*
X178324936Y-74123546D01*
X178324939Y-74123550D01*
X178421849Y-74220460D01*
X178421853Y-74220463D01*
X178535808Y-74296606D01*
X178535821Y-74296613D01*
X178630474Y-74335819D01*
X178662443Y-74349061D01*
X178760824Y-74368630D01*
X178796865Y-74375799D01*
X178796869Y-74375800D01*
X178796870Y-74375800D01*
X179746731Y-74375800D01*
X179746732Y-74375799D01*
X179881157Y-74349061D01*
X180007785Y-74296610D01*
X180121747Y-74220463D01*
X180218663Y-74123547D01*
X180294810Y-74009585D01*
X180347261Y-73882957D01*
X180374000Y-73748530D01*
X180374000Y-73611470D01*
X180347261Y-73477043D01*
X180346196Y-73474471D01*
X180294813Y-73350421D01*
X180294806Y-73350408D01*
X180218663Y-73236453D01*
X180218660Y-73236449D01*
X180121750Y-73139539D01*
X180121746Y-73139536D01*
X180007791Y-73063393D01*
X180007778Y-73063386D01*
X179881161Y-73010940D01*
X179881149Y-73010937D01*
X179746734Y-72984200D01*
X179746730Y-72984200D01*
X178796870Y-72984200D01*
X178796865Y-72984200D01*
X178662450Y-73010937D01*
X178662438Y-73010940D01*
X178535821Y-73063386D01*
X178535808Y-73063393D01*
X178421853Y-73139536D01*
X178421849Y-73139539D01*
X178324939Y-73236449D01*
X178324936Y-73236453D01*
X178248793Y-73350408D01*
X178248786Y-73350421D01*
X178196340Y-73477038D01*
X178196337Y-73477050D01*
X178169600Y-73611465D01*
X173175500Y-73611465D01*
X173175500Y-67850566D01*
X173175499Y-67850562D01*
X173172538Y-67839509D01*
X173149912Y-67755065D01*
X173149911Y-67755064D01*
X173149911Y-67755063D01*
X173100475Y-67669437D01*
X171730563Y-66299526D01*
X171730562Y-66299525D01*
X171644938Y-66250090D01*
X171597186Y-66237295D01*
X171585099Y-66234056D01*
X171585095Y-66234054D01*
X171549436Y-66224500D01*
X171549435Y-66224500D01*
X158031899Y-66224500D01*
X157964860Y-66204815D01*
X157944218Y-66188181D01*
X157532005Y-65775968D01*
X157498520Y-65714645D01*
X157503504Y-65644953D01*
X157545376Y-65589020D01*
X157610840Y-65564603D01*
X157658004Y-65570356D01*
X157723871Y-65591757D01*
X157933754Y-65625000D01*
X158146246Y-65625000D01*
X158356127Y-65591757D01*
X158356130Y-65591757D01*
X158558217Y-65526095D01*
X158747554Y-65429622D01*
X158801716Y-65390270D01*
X158801717Y-65390270D01*
X158169408Y-64757962D01*
X158232993Y-64740925D01*
X158347007Y-64675099D01*
X158440099Y-64582007D01*
X158505925Y-64467993D01*
X158522962Y-64404408D01*
X159155270Y-65036717D01*
X159155270Y-65036716D01*
X159194622Y-64982554D01*
X159291095Y-64793217D01*
X159356757Y-64591130D01*
X159356757Y-64591127D01*
X159390000Y-64381246D01*
X159390000Y-64168753D01*
X159356757Y-63958872D01*
X159356757Y-63958869D01*
X159291095Y-63756782D01*
X159194624Y-63567449D01*
X159155270Y-63513282D01*
X159155269Y-63513282D01*
X158522962Y-64145590D01*
X158505925Y-64082007D01*
X158440099Y-63967993D01*
X158347007Y-63874901D01*
X158232993Y-63809075D01*
X158169409Y-63792037D01*
X158801716Y-63159728D01*
X158747550Y-63120375D01*
X158737954Y-63115486D01*
X158687157Y-63067512D01*
X158670361Y-62999692D01*
X158692897Y-62933556D01*
X158737954Y-62894514D01*
X158747554Y-62889622D01*
X158801716Y-62850270D01*
X158801717Y-62850270D01*
X158169408Y-62217962D01*
X158232993Y-62200925D01*
X158347007Y-62135099D01*
X158440099Y-62042007D01*
X158505925Y-61927993D01*
X158522962Y-61864408D01*
X159155270Y-62496717D01*
X159155270Y-62496716D01*
X159194622Y-62442554D01*
X159291095Y-62253217D01*
X159356757Y-62051130D01*
X159356757Y-62051127D01*
X159390000Y-61841246D01*
X159390000Y-61628753D01*
X159356757Y-61418872D01*
X159356757Y-61418869D01*
X159291095Y-61216782D01*
X159194624Y-61027449D01*
X159155270Y-60973282D01*
X159155269Y-60973282D01*
X158522962Y-61605590D01*
X158505925Y-61542007D01*
X158440099Y-61427993D01*
X158347007Y-61334901D01*
X158232993Y-61269075D01*
X158169409Y-61252037D01*
X158807017Y-60614427D01*
X158817222Y-60565852D01*
X158866273Y-60516095D01*
X158926476Y-60500500D01*
X162858230Y-60500500D01*
X162925269Y-60520185D01*
G37*
%TD.AperFunction*%
%TA.AperFunction,Conductor*%
G36*
X128842539Y-81320185D02*
G01*
X128888294Y-81372989D01*
X128899500Y-81424500D01*
X128899500Y-82759752D01*
X128911131Y-82818229D01*
X128911132Y-82818230D01*
X128955447Y-82884552D01*
X129021769Y-82928867D01*
X129021770Y-82928868D01*
X129080247Y-82940499D01*
X129080250Y-82940500D01*
X129080252Y-82940500D01*
X130375500Y-82940500D01*
X130442539Y-82960185D01*
X130488294Y-83012989D01*
X130499500Y-83064500D01*
X130499500Y-83456278D01*
X130479815Y-83523317D01*
X130444392Y-83559379D01*
X130375448Y-83605446D01*
X130331132Y-83671769D01*
X130331131Y-83671770D01*
X130319500Y-83730247D01*
X130319500Y-84569752D01*
X130331131Y-84628229D01*
X130331132Y-84628231D01*
X130333058Y-84631113D01*
X130335322Y-84638344D01*
X130335806Y-84639513D01*
X130335701Y-84639556D01*
X130353933Y-84697791D01*
X130352591Y-84718331D01*
X130348485Y-84745800D01*
X130331133Y-84771769D01*
X130319500Y-84830252D01*
X130319500Y-84939718D01*
X130318138Y-84948831D01*
X130307164Y-84972508D01*
X130299815Y-84997539D01*
X130292712Y-85003693D01*
X130288759Y-85012224D01*
X130266726Y-85026210D01*
X130247011Y-85043294D01*
X130236063Y-85045675D01*
X130229771Y-85049670D01*
X130218003Y-85049604D01*
X130195500Y-85054500D01*
X129980438Y-85054500D01*
X129942224Y-85064739D01*
X129904009Y-85074979D01*
X129904008Y-85074980D01*
X129860519Y-85100089D01*
X129858065Y-85101506D01*
X129835489Y-85114539D01*
X129459541Y-85490487D01*
X129459535Y-85490495D01*
X129419982Y-85559004D01*
X129419979Y-85559009D01*
X129417753Y-85567317D01*
X129399769Y-85634436D01*
X129399500Y-85635439D01*
X129399500Y-86021614D01*
X129379815Y-86088653D01*
X129327011Y-86134408D01*
X129257853Y-86144352D01*
X129194297Y-86115327D01*
X129187819Y-86109295D01*
X129138017Y-86059493D01*
X129138011Y-86059488D01*
X129012488Y-85987017D01*
X129012489Y-85987017D01*
X128994937Y-85982314D01*
X128872475Y-85949500D01*
X128727525Y-85949500D01*
X128725833Y-85949500D01*
X128658794Y-85929815D01*
X128638152Y-85913181D01*
X127836819Y-85111848D01*
X127803334Y-85050525D01*
X127800500Y-85024167D01*
X127800500Y-81675833D01*
X127820185Y-81608794D01*
X127836819Y-81588152D01*
X128088152Y-81336819D01*
X128149475Y-81303334D01*
X128175833Y-81300500D01*
X128775500Y-81300500D01*
X128842539Y-81320185D01*
G37*
%TD.AperFunction*%
%TA.AperFunction,Conductor*%
G36*
X130678906Y-60520185D02*
G01*
X130724661Y-60572989D01*
X130734605Y-60642147D01*
X130705580Y-60705703D01*
X130659320Y-60739061D01*
X130502403Y-60804057D01*
X130330342Y-60919024D01*
X130184024Y-61065342D01*
X130069058Y-61237403D01*
X129989870Y-61428579D01*
X129989868Y-61428587D01*
X129949500Y-61631530D01*
X129949500Y-61838469D01*
X129989868Y-62041412D01*
X129989870Y-62041420D01*
X130055939Y-62200925D01*
X130069059Y-62232598D01*
X130106709Y-62288945D01*
X130184024Y-62404657D01*
X130330342Y-62550975D01*
X130330345Y-62550977D01*
X130502402Y-62665941D01*
X130693580Y-62745130D01*
X130842310Y-62774714D01*
X130896530Y-62785499D01*
X130896534Y-62785500D01*
X130896535Y-62785500D01*
X131103466Y-62785500D01*
X131103467Y-62785499D01*
X131306420Y-62745130D01*
X131497598Y-62665941D01*
X131669655Y-62550977D01*
X131815977Y-62404655D01*
X131930941Y-62232598D01*
X131999165Y-62067889D01*
X132043004Y-62013488D01*
X132109298Y-61991423D01*
X132176998Y-62008702D01*
X132224609Y-62059839D01*
X132231656Y-62077026D01*
X132288904Y-62253216D01*
X132385375Y-62442550D01*
X132424728Y-62496716D01*
X133057037Y-61864408D01*
X133074075Y-61927993D01*
X133139901Y-62042007D01*
X133232993Y-62135099D01*
X133347007Y-62200925D01*
X133410591Y-62217962D01*
X132809971Y-62818581D01*
X132888711Y-62935895D01*
X132889920Y-62939729D01*
X132892844Y-62942491D01*
X132900343Y-62972778D01*
X132909727Y-63002529D01*
X132908671Y-63006408D01*
X132909638Y-63010312D01*
X132899573Y-63039844D01*
X132891383Y-63069947D01*
X132888397Y-63072640D01*
X132887100Y-63076447D01*
X132842051Y-63115483D01*
X132832440Y-63120380D01*
X132778282Y-63159727D01*
X132778282Y-63159728D01*
X133410591Y-63792037D01*
X133347007Y-63809075D01*
X133232993Y-63874901D01*
X133139901Y-63967993D01*
X133074075Y-64082007D01*
X133057037Y-64145591D01*
X132424728Y-63513282D01*
X132424727Y-63513282D01*
X132385380Y-63567439D01*
X132288905Y-63756781D01*
X132231656Y-63932974D01*
X132192218Y-63990649D01*
X132127859Y-64017847D01*
X132059013Y-64005932D01*
X132007537Y-63958688D01*
X131999164Y-63942107D01*
X131930943Y-63777405D01*
X131815975Y-63605342D01*
X131669657Y-63459024D01*
X131501655Y-63346770D01*
X131497598Y-63344059D01*
X131306420Y-63264870D01*
X131306412Y-63264868D01*
X131103469Y-63224500D01*
X131103465Y-63224500D01*
X130896535Y-63224500D01*
X130896530Y-63224500D01*
X130693587Y-63264868D01*
X130693579Y-63264870D01*
X130502403Y-63344058D01*
X130330342Y-63459024D01*
X130184024Y-63605342D01*
X130069058Y-63777403D01*
X129989870Y-63968579D01*
X129989868Y-63968587D01*
X129949500Y-64171530D01*
X129949500Y-64378469D01*
X129989868Y-64581412D01*
X129989870Y-64581420D01*
X130069017Y-64772498D01*
X130069059Y-64772598D01*
X130082836Y-64793217D01*
X130184024Y-64944657D01*
X130330342Y-65090975D01*
X130330345Y-65090977D01*
X130502402Y-65205941D01*
X130693580Y-65285130D01*
X130838052Y-65313867D01*
X130896530Y-65325499D01*
X130896534Y-65325500D01*
X130896535Y-65325500D01*
X131103466Y-65325500D01*
X131103467Y-65325499D01*
X131306420Y-65285130D01*
X131497598Y-65205941D01*
X131669655Y-65090977D01*
X131815977Y-64944655D01*
X131930941Y-64772598D01*
X131999165Y-64607889D01*
X132043004Y-64553488D01*
X132109298Y-64531423D01*
X132176998Y-64548702D01*
X132224609Y-64599839D01*
X132231656Y-64617026D01*
X132288904Y-64793216D01*
X132385375Y-64982550D01*
X132424728Y-65036716D01*
X133057037Y-64404408D01*
X133074075Y-64467993D01*
X133139901Y-64582007D01*
X133232993Y-64675099D01*
X133347007Y-64740925D01*
X133410590Y-64757962D01*
X132778282Y-65390269D01*
X132778282Y-65390270D01*
X132832449Y-65429624D01*
X133021782Y-65526095D01*
X133223870Y-65591757D01*
X133433754Y-65625000D01*
X133646246Y-65625000D01*
X133856127Y-65591757D01*
X133856130Y-65591757D01*
X134058217Y-65526095D01*
X134247554Y-65429622D01*
X134301716Y-65390270D01*
X134301717Y-65390270D01*
X133669408Y-64757962D01*
X133732993Y-64740925D01*
X133847007Y-64675099D01*
X133940099Y-64582007D01*
X134005925Y-64467993D01*
X134022962Y-64404409D01*
X134655270Y-65036717D01*
X134655270Y-65036716D01*
X134694622Y-64982554D01*
X134791095Y-64793217D01*
X134856757Y-64591130D01*
X134856757Y-64591127D01*
X134890000Y-64381246D01*
X134890000Y-64168753D01*
X134856757Y-63958872D01*
X134856757Y-63958869D01*
X134791095Y-63756782D01*
X134694624Y-63567449D01*
X134655270Y-63513282D01*
X134655269Y-63513282D01*
X134022962Y-64145590D01*
X134005925Y-64082007D01*
X133940099Y-63967993D01*
X133847007Y-63874901D01*
X133732993Y-63809075D01*
X133669409Y-63792037D01*
X134301716Y-63159728D01*
X134247550Y-63120375D01*
X134237954Y-63115486D01*
X134187157Y-63067512D01*
X134170361Y-62999692D01*
X134192897Y-62933556D01*
X134237954Y-62894514D01*
X134247554Y-62889622D01*
X134301716Y-62850270D01*
X134301717Y-62850270D01*
X133669408Y-62217962D01*
X133732993Y-62200925D01*
X133847007Y-62135099D01*
X133940099Y-62042007D01*
X134005925Y-61927993D01*
X134022962Y-61864409D01*
X134655270Y-62496717D01*
X134655270Y-62496716D01*
X134694622Y-62442554D01*
X134791095Y-62253217D01*
X134856757Y-62051130D01*
X134856757Y-62051127D01*
X134876063Y-61929240D01*
X134890000Y-61841246D01*
X134890000Y-61628753D01*
X134856757Y-61418872D01*
X134856757Y-61418869D01*
X134791095Y-61216782D01*
X134694624Y-61027449D01*
X134655270Y-60973282D01*
X134655269Y-60973282D01*
X134022962Y-61605590D01*
X134005925Y-61542007D01*
X133940099Y-61427993D01*
X133847007Y-61334901D01*
X133732993Y-61269075D01*
X133669409Y-61252037D01*
X134307017Y-60614427D01*
X134317222Y-60565852D01*
X134366273Y-60516095D01*
X134426476Y-60500500D01*
X138466764Y-60500500D01*
X138533803Y-60520185D01*
X138579558Y-60572989D01*
X138589502Y-60642147D01*
X138582946Y-60667833D01*
X138536403Y-60792620D01*
X138536401Y-60792627D01*
X138530000Y-60852155D01*
X138530000Y-61500000D01*
X139446988Y-61500000D01*
X139414075Y-61557007D01*
X139380000Y-61684174D01*
X139380000Y-61815826D01*
X139414075Y-61942993D01*
X139446988Y-62000000D01*
X138530000Y-62000000D01*
X138530000Y-62647844D01*
X138536401Y-62707372D01*
X138536403Y-62707379D01*
X138586645Y-62842086D01*
X138586649Y-62842093D01*
X138672809Y-62957187D01*
X138672812Y-62957190D01*
X138787906Y-63043350D01*
X138787913Y-63043354D01*
X138922620Y-63093596D01*
X138922627Y-63093598D01*
X138982155Y-63099999D01*
X138982172Y-63100000D01*
X139630000Y-63100000D01*
X139630000Y-62183012D01*
X139687007Y-62215925D01*
X139814174Y-62250000D01*
X139945826Y-62250000D01*
X140072993Y-62215925D01*
X140130000Y-62183012D01*
X140130000Y-63100000D01*
X140777828Y-63100000D01*
X140777844Y-63099999D01*
X140837372Y-63093598D01*
X140837379Y-63093596D01*
X140972086Y-63043354D01*
X140972093Y-63043350D01*
X141087187Y-62957190D01*
X141087190Y-62957187D01*
X141173350Y-62842093D01*
X141173354Y-62842086D01*
X141223596Y-62707379D01*
X141223598Y-62707372D01*
X141229999Y-62647844D01*
X141230000Y-62647827D01*
X141230000Y-62245564D01*
X141249685Y-62178525D01*
X141302489Y-62132770D01*
X141371647Y-62122826D01*
X141435203Y-62151851D01*
X141468561Y-62198112D01*
X141483840Y-62235000D01*
X141489059Y-62247598D01*
X141513356Y-62283961D01*
X141604024Y-62419657D01*
X141750342Y-62565975D01*
X141750345Y-62565977D01*
X141922402Y-62680941D01*
X142042953Y-62730875D01*
X142097356Y-62774714D01*
X142119421Y-62841008D01*
X142119500Y-62845435D01*
X142119500Y-67159562D01*
X142133152Y-67210513D01*
X142139979Y-67235990D01*
X142139982Y-67235995D01*
X142179535Y-67304504D01*
X142179541Y-67304512D01*
X151758668Y-76883639D01*
X151792153Y-76944962D01*
X151787169Y-77014654D01*
X151758669Y-77059001D01*
X151655684Y-77161986D01*
X151655683Y-77161988D01*
X151653226Y-77166244D01*
X151602658Y-77214459D01*
X151534051Y-77227680D01*
X151469187Y-77201711D01*
X151428659Y-77144796D01*
X151426070Y-77136354D01*
X151412984Y-77087515D01*
X151412696Y-77087017D01*
X151340511Y-76961988D01*
X151340506Y-76961982D01*
X151238017Y-76859493D01*
X151238011Y-76859488D01*
X151112488Y-76787017D01*
X151112489Y-76787017D01*
X151101006Y-76783940D01*
X150972475Y-76749500D01*
X150827525Y-76749500D01*
X150825833Y-76749500D01*
X150758794Y-76729815D01*
X150738152Y-76713181D01*
X142384513Y-68359541D01*
X142384511Y-68359539D01*
X142384118Y-68359312D01*
X142384118Y-68359313D01*
X142315989Y-68319979D01*
X142315990Y-68319979D01*
X142290513Y-68313152D01*
X142239562Y-68299500D01*
X142239560Y-68299500D01*
X131075833Y-68299500D01*
X131008794Y-68279815D01*
X130988152Y-68263181D01*
X128796819Y-66071848D01*
X128763334Y-66010525D01*
X128760500Y-65984167D01*
X128760500Y-65449500D01*
X128780185Y-65382461D01*
X128832989Y-65336706D01*
X128884500Y-65325500D01*
X129329750Y-65325500D01*
X129329751Y-65325499D01*
X129344568Y-65322552D01*
X129388229Y-65313868D01*
X129388229Y-65313867D01*
X129388231Y-65313867D01*
X129454552Y-65269552D01*
X129498867Y-65203231D01*
X129498867Y-65203229D01*
X129498868Y-65203229D01*
X129510499Y-65144752D01*
X129510500Y-65144750D01*
X129510500Y-63405249D01*
X129510499Y-63405247D01*
X129498868Y-63346770D01*
X129498867Y-63346769D01*
X129454552Y-63280447D01*
X129388230Y-63236132D01*
X129388229Y-63236131D01*
X129329752Y-63224500D01*
X129329748Y-63224500D01*
X127590252Y-63224500D01*
X127590247Y-63224500D01*
X127531770Y-63236131D01*
X127531769Y-63236132D01*
X127465447Y-63280447D01*
X127421132Y-63346769D01*
X127421131Y-63346770D01*
X127409500Y-63405247D01*
X127409500Y-65144752D01*
X127421131Y-65203229D01*
X127421132Y-65203230D01*
X127465447Y-65269552D01*
X127531769Y-65313867D01*
X127531770Y-65313868D01*
X127590247Y-65325499D01*
X127590250Y-65325500D01*
X127590252Y-65325500D01*
X128035500Y-65325500D01*
X128102539Y-65345185D01*
X128148294Y-65397989D01*
X128159500Y-65449500D01*
X128159500Y-66199562D01*
X128168742Y-66234054D01*
X128179979Y-66275990D01*
X128191526Y-66295989D01*
X128203073Y-66315989D01*
X128219540Y-66344511D01*
X130659540Y-68784511D01*
X130715489Y-68840460D01*
X130715490Y-68840461D01*
X130715492Y-68840462D01*
X130763385Y-68868113D01*
X130811600Y-68918680D01*
X130824824Y-68987287D01*
X130798856Y-69052152D01*
X130741942Y-69092680D01*
X130701385Y-69099500D01*
X129675833Y-69099500D01*
X129608794Y-69079815D01*
X129588152Y-69063181D01*
X126636819Y-66111848D01*
X126603334Y-66050525D01*
X126600500Y-66024167D01*
X126600500Y-63475832D01*
X126620185Y-63408793D01*
X126636814Y-63388155D01*
X127544489Y-62480480D01*
X127605810Y-62446997D01*
X127675501Y-62451981D01*
X127719849Y-62480482D01*
X127790342Y-62550975D01*
X127790345Y-62550977D01*
X127962402Y-62665941D01*
X128153580Y-62745130D01*
X128302310Y-62774714D01*
X128356530Y-62785499D01*
X128356534Y-62785500D01*
X128356535Y-62785500D01*
X128563466Y-62785500D01*
X128563467Y-62785499D01*
X128766420Y-62745130D01*
X128957598Y-62665941D01*
X129129655Y-62550977D01*
X129275977Y-62404655D01*
X129390941Y-62232598D01*
X129470130Y-62041420D01*
X129510500Y-61838465D01*
X129510500Y-61631535D01*
X129470130Y-61428580D01*
X129390941Y-61237402D01*
X129275977Y-61065345D01*
X129275975Y-61065342D01*
X129129657Y-60919024D01*
X128957596Y-60804057D01*
X128800680Y-60739061D01*
X128746277Y-60695220D01*
X128724212Y-60628926D01*
X128741491Y-60561226D01*
X128792629Y-60513616D01*
X128848133Y-60500500D01*
X130611867Y-60500500D01*
X130678906Y-60520185D01*
G37*
%TD.AperFunction*%
%TA.AperFunction,Conductor*%
G36*
X144675120Y-60520185D02*
G01*
X144720875Y-60572989D01*
X144730819Y-60642147D01*
X144701794Y-60705703D01*
X144655534Y-60739061D01*
X144653581Y-60739869D01*
X144653580Y-60739870D01*
X144615972Y-60755448D01*
X144462403Y-60819058D01*
X144290342Y-60934024D01*
X144144024Y-61080342D01*
X144029058Y-61252403D01*
X143949870Y-61443579D01*
X143949868Y-61443587D01*
X143909500Y-61646530D01*
X143909500Y-61853469D01*
X143949868Y-62056412D01*
X143949870Y-62056420D01*
X144015939Y-62215925D01*
X144029059Y-62247598D01*
X144042836Y-62268217D01*
X144144024Y-62419657D01*
X144290342Y-62565975D01*
X144290345Y-62565977D01*
X144462402Y-62680941D01*
X144582953Y-62730875D01*
X144637356Y-62774714D01*
X144659421Y-62841008D01*
X144659500Y-62845435D01*
X144659500Y-65699562D01*
X144663542Y-65714645D01*
X144679979Y-65775990D01*
X144679982Y-65775995D01*
X144719535Y-65844504D01*
X144719541Y-65844512D01*
X152187467Y-73312438D01*
X152220952Y-73373761D01*
X152215968Y-73443453D01*
X152174096Y-73499386D01*
X152108632Y-73523803D01*
X152040359Y-73508951D01*
X152030897Y-73503222D01*
X152029056Y-73501992D01*
X152029040Y-73501983D01*
X151865167Y-73434106D01*
X151865158Y-73434103D01*
X151691194Y-73399500D01*
X151691191Y-73399500D01*
X151513809Y-73399500D01*
X151513806Y-73399500D01*
X151339841Y-73434103D01*
X151339832Y-73434106D01*
X151175959Y-73501983D01*
X151175946Y-73501990D01*
X151028465Y-73600535D01*
X151028461Y-73600538D01*
X150903038Y-73725961D01*
X150903035Y-73725965D01*
X150804490Y-73873446D01*
X150804483Y-73873459D01*
X150736606Y-74037332D01*
X150736603Y-74037341D01*
X150702000Y-74211304D01*
X150702000Y-74388695D01*
X150736603Y-74562658D01*
X150736606Y-74562667D01*
X150804483Y-74726540D01*
X150804490Y-74726553D01*
X150815790Y-74743464D01*
X150836668Y-74810141D01*
X150818184Y-74877522D01*
X150766205Y-74924212D01*
X150697235Y-74935388D01*
X150633171Y-74907503D01*
X150625007Y-74900036D01*
X142756819Y-67031848D01*
X142723334Y-66970525D01*
X142720500Y-66944167D01*
X142720500Y-62845435D01*
X142740185Y-62778396D01*
X142792989Y-62732641D01*
X142797012Y-62730889D01*
X142917598Y-62680941D01*
X143089655Y-62565977D01*
X143235977Y-62419655D01*
X143350941Y-62247598D01*
X143430130Y-62056420D01*
X143470500Y-61853465D01*
X143470500Y-61646535D01*
X143430130Y-61443580D01*
X143350941Y-61252402D01*
X143235977Y-61080345D01*
X143235975Y-61080342D01*
X143089657Y-60934024D01*
X142921655Y-60821770D01*
X142917598Y-60819059D01*
X142726420Y-60739870D01*
X142726418Y-60739869D01*
X142724466Y-60739061D01*
X142670063Y-60695220D01*
X142647998Y-60628926D01*
X142665277Y-60561227D01*
X142716414Y-60513616D01*
X142771919Y-60500500D01*
X144608081Y-60500500D01*
X144675120Y-60520185D01*
G37*
%TD.AperFunction*%
%TA.AperFunction,Conductor*%
G36*
X170681743Y-60520185D02*
G01*
X170727498Y-60572989D01*
X170738322Y-60634230D01*
X170738282Y-60634728D01*
X171370591Y-61267037D01*
X171307007Y-61284075D01*
X171192993Y-61349901D01*
X171099901Y-61442993D01*
X171034075Y-61557007D01*
X171017037Y-61620591D01*
X170384728Y-60988282D01*
X170384727Y-60988282D01*
X170345380Y-61042439D01*
X170248905Y-61231781D01*
X170191656Y-61407974D01*
X170152218Y-61465649D01*
X170087859Y-61492847D01*
X170019013Y-61480932D01*
X169967537Y-61433688D01*
X169959164Y-61417107D01*
X169890943Y-61252405D01*
X169775975Y-61080342D01*
X169629657Y-60934024D01*
X169461655Y-60821770D01*
X169457598Y-60819059D01*
X169266420Y-60739870D01*
X169266418Y-60739869D01*
X169264466Y-60739061D01*
X169210063Y-60695220D01*
X169187998Y-60628926D01*
X169205277Y-60561227D01*
X169256414Y-60513616D01*
X169311919Y-60500500D01*
X170614704Y-60500500D01*
X170681743Y-60520185D01*
G37*
%TD.AperFunction*%
%TA.AperFunction,Conductor*%
G36*
X132720562Y-60520185D02*
G01*
X132766317Y-60572989D01*
X132773782Y-60615228D01*
X133410591Y-61252037D01*
X133347007Y-61269075D01*
X133232993Y-61334901D01*
X133139901Y-61427993D01*
X133074075Y-61542007D01*
X133057037Y-61605591D01*
X132424728Y-60973282D01*
X132424727Y-60973282D01*
X132385380Y-61027439D01*
X132288905Y-61216781D01*
X132231656Y-61392974D01*
X132192218Y-61450649D01*
X132127859Y-61477847D01*
X132059013Y-61465932D01*
X132007537Y-61418688D01*
X131999164Y-61402107D01*
X131996819Y-61396446D01*
X131971327Y-61334901D01*
X131930943Y-61237405D01*
X131815975Y-61065342D01*
X131669657Y-60919024D01*
X131497596Y-60804057D01*
X131340680Y-60739061D01*
X131286277Y-60695220D01*
X131264212Y-60628926D01*
X131281491Y-60561226D01*
X131332629Y-60513616D01*
X131388133Y-60500500D01*
X132653523Y-60500500D01*
X132720562Y-60520185D01*
G37*
%TD.AperFunction*%
%TA.AperFunction,Conductor*%
G36*
X157220562Y-60520185D02*
G01*
X157266317Y-60572989D01*
X157273782Y-60615228D01*
X157910591Y-61252037D01*
X157847007Y-61269075D01*
X157732993Y-61334901D01*
X157639901Y-61427993D01*
X157574075Y-61542007D01*
X157557037Y-61605591D01*
X156924728Y-60973282D01*
X156924727Y-60973282D01*
X156885380Y-61027439D01*
X156788905Y-61216781D01*
X156731656Y-61392974D01*
X156692218Y-61450649D01*
X156627859Y-61477847D01*
X156559013Y-61465932D01*
X156507537Y-61418688D01*
X156499164Y-61402107D01*
X156496819Y-61396446D01*
X156471327Y-61334901D01*
X156430943Y-61237405D01*
X156315975Y-61065342D01*
X156169657Y-60919024D01*
X155997596Y-60804057D01*
X155840680Y-60739061D01*
X155786277Y-60695220D01*
X155764212Y-60628926D01*
X155781491Y-60561226D01*
X155832629Y-60513616D01*
X155888133Y-60500500D01*
X157153523Y-60500500D01*
X157220562Y-60520185D01*
G37*
%TD.AperFunction*%
%TD*%
%TA.AperFunction,NonConductor*%
G36*
X142135120Y-60520185D02*
G01*
X142180875Y-60572989D01*
X142190819Y-60642147D01*
X142161794Y-60705703D01*
X142115534Y-60739061D01*
X142113581Y-60739869D01*
X142113580Y-60739870D01*
X142075972Y-60755448D01*
X141922403Y-60819058D01*
X141750342Y-60934024D01*
X141604024Y-61080342D01*
X141489058Y-61252403D01*
X141468561Y-61301888D01*
X141424720Y-61356291D01*
X141358426Y-61378356D01*
X141290726Y-61361077D01*
X141243116Y-61309939D01*
X141230000Y-61254435D01*
X141230000Y-60852172D01*
X141229999Y-60852155D01*
X141223598Y-60792627D01*
X141223596Y-60792620D01*
X141177054Y-60667833D01*
X141172070Y-60598142D01*
X141205555Y-60536818D01*
X141266878Y-60503334D01*
X141293236Y-60500500D01*
X142068081Y-60500500D01*
X142135120Y-60520185D01*
G37*
%TD.AperFunction*%
%TA.AperFunction,NonConductor*%
G36*
X147158892Y-60503674D02*
G01*
X147170098Y-60502470D01*
X147191819Y-60513343D01*
X147215120Y-60520185D01*
X147222498Y-60528699D01*
X147232577Y-60533745D01*
X147244972Y-60554636D01*
X147260875Y-60572989D01*
X147262478Y-60584142D01*
X147268229Y-60593834D01*
X147267362Y-60618105D01*
X147270819Y-60642147D01*
X147266137Y-60652398D01*
X147265735Y-60663659D01*
X147251884Y-60683607D01*
X147241794Y-60705703D01*
X147231279Y-60713284D01*
X147225887Y-60721052D01*
X147195534Y-60739061D01*
X147193581Y-60739869D01*
X147193580Y-60739870D01*
X147155972Y-60755448D01*
X147002403Y-60819058D01*
X146830342Y-60934024D01*
X146684024Y-61080342D01*
X146569058Y-61252403D01*
X146489870Y-61443579D01*
X146489868Y-61443587D01*
X146449500Y-61646530D01*
X146449500Y-61853469D01*
X146489868Y-62056412D01*
X146489870Y-62056420D01*
X146555939Y-62215925D01*
X146569059Y-62247598D01*
X146582836Y-62268217D01*
X146684024Y-62419657D01*
X146830342Y-62565975D01*
X146830345Y-62565977D01*
X147002402Y-62680941D01*
X147122953Y-62730875D01*
X147177356Y-62774714D01*
X147199421Y-62841008D01*
X147199500Y-62845435D01*
X147199500Y-66239562D01*
X147219979Y-66315989D01*
X147236446Y-66344511D01*
X147259540Y-66384511D01*
X147259542Y-66384513D01*
X154073869Y-73198840D01*
X154107354Y-73260163D01*
X154102370Y-73329855D01*
X154060498Y-73385788D01*
X154010380Y-73408138D01*
X153879840Y-73434104D01*
X153879832Y-73434106D01*
X153715959Y-73501983D01*
X153715946Y-73501990D01*
X153568465Y-73600535D01*
X153568461Y-73600538D01*
X153443038Y-73725961D01*
X153443035Y-73725965D01*
X153344490Y-73873446D01*
X153344483Y-73873459D01*
X153276606Y-74037332D01*
X153276603Y-74037342D01*
X153246117Y-74190608D01*
X153213732Y-74252519D01*
X153153016Y-74287094D01*
X153083247Y-74283354D01*
X153026575Y-74242487D01*
X153000994Y-74177469D01*
X153000500Y-74166417D01*
X153000500Y-73360439D01*
X152987638Y-73312438D01*
X152980021Y-73284011D01*
X152968903Y-73264754D01*
X152940464Y-73215495D01*
X152940458Y-73215487D01*
X145296819Y-65571848D01*
X145263334Y-65510525D01*
X145260500Y-65484167D01*
X145260500Y-62845435D01*
X145280185Y-62778396D01*
X145332989Y-62732641D01*
X145337012Y-62730889D01*
X145457598Y-62680941D01*
X145629655Y-62565977D01*
X145775977Y-62419655D01*
X145890941Y-62247598D01*
X145970130Y-62056420D01*
X146010500Y-61853465D01*
X146010500Y-61646535D01*
X145970130Y-61443580D01*
X145890941Y-61252402D01*
X145775977Y-61080345D01*
X145775975Y-61080342D01*
X145629657Y-60934024D01*
X145461655Y-60821770D01*
X145457598Y-60819059D01*
X145266420Y-60739870D01*
X145266418Y-60739869D01*
X145264466Y-60739061D01*
X145210063Y-60695220D01*
X145187998Y-60628926D01*
X145205277Y-60561227D01*
X145256414Y-60513616D01*
X145311919Y-60500500D01*
X147148081Y-60500500D01*
X147158892Y-60503674D01*
G37*
%TD.AperFunction*%
%TA.AperFunction,NonConductor*%
G36*
X142091206Y-68920185D02*
G01*
X142111848Y-68936819D01*
X149962848Y-76787819D01*
X149973460Y-76807255D01*
X149987961Y-76823989D01*
X149989877Y-76837320D01*
X149996333Y-76849142D01*
X149994753Y-76871228D01*
X149997905Y-76893147D01*
X149992309Y-76905398D01*
X149991349Y-76918834D01*
X149978078Y-76936560D01*
X149968880Y-76956703D01*
X149957548Y-76963985D01*
X149949477Y-76974767D01*
X149928731Y-76982504D01*
X149910102Y-76994477D01*
X149888183Y-76997628D01*
X149884013Y-76999184D01*
X149875167Y-76999500D01*
X149775833Y-76999500D01*
X149708794Y-76979815D01*
X149688152Y-76963181D01*
X141884512Y-69159541D01*
X141884507Y-69159537D01*
X141836615Y-69131887D01*
X141788400Y-69081320D01*
X141775176Y-69012713D01*
X141801144Y-68947848D01*
X141858058Y-68907320D01*
X141898615Y-68900500D01*
X142024167Y-68900500D01*
X142091206Y-68920185D01*
G37*
%TD.AperFunction*%
%TA.AperFunction,NonConductor*%
G36*
X129955703Y-75834673D02*
G01*
X129962181Y-75840705D01*
X129963181Y-75841705D01*
X129996666Y-75903028D01*
X129999500Y-75929386D01*
X129999500Y-78897795D01*
X129998639Y-78900724D01*
X129999360Y-78903694D01*
X129988857Y-78934040D01*
X129979815Y-78964834D01*
X129977507Y-78966833D01*
X129976508Y-78969721D01*
X129951262Y-78989575D01*
X129927011Y-79010589D01*
X129923989Y-79011023D01*
X129921588Y-79012912D01*
X129889631Y-79015963D01*
X129857853Y-79020533D01*
X129855073Y-79019263D01*
X129852034Y-79019554D01*
X129823503Y-79004846D01*
X129794297Y-78991508D01*
X129791826Y-78988516D01*
X129789931Y-78987539D01*
X129768114Y-78959796D01*
X129767114Y-78958064D01*
X129750500Y-78896063D01*
X129750500Y-75928386D01*
X129770185Y-75861347D01*
X129822989Y-75815592D01*
X129892147Y-75805648D01*
X129955703Y-75834673D01*
G37*
%TD.AperFunction*%
%TA.AperFunction,NonConductor*%
G36*
X128837653Y-79570185D02*
G01*
X128858295Y-79586819D01*
X128959295Y-79687819D01*
X128992780Y-79749142D01*
X128987796Y-79818834D01*
X128945924Y-79874767D01*
X128880460Y-79899184D01*
X128871614Y-79899500D01*
X127729386Y-79899500D01*
X127699945Y-79890855D01*
X127669959Y-79884332D01*
X127664943Y-79880577D01*
X127662347Y-79879815D01*
X127641705Y-79863181D01*
X127540705Y-79762181D01*
X127507220Y-79700858D01*
X127512204Y-79631166D01*
X127554076Y-79575233D01*
X127619540Y-79550816D01*
X127628386Y-79550500D01*
X128770614Y-79550500D01*
X128837653Y-79570185D01*
G37*
%TD.AperFunction*%
%TA.AperFunction,NonConductor*%
G36*
X155197230Y-74339374D02*
G01*
X155243659Y-74368630D01*
X156263181Y-75388152D01*
X156296666Y-75449475D01*
X156299500Y-75475833D01*
X156299500Y-79724166D01*
X156279815Y-79791205D01*
X156263181Y-79811847D01*
X155993999Y-80081028D01*
X155932676Y-80114513D01*
X155862984Y-80109529D01*
X155807051Y-80067657D01*
X155786544Y-80025443D01*
X155762984Y-79937515D01*
X155741613Y-79900500D01*
X155690511Y-79811988D01*
X155690506Y-79811982D01*
X155588017Y-79709493D01*
X155588011Y-79709488D01*
X155562498Y-79694758D01*
X155514283Y-79644190D01*
X155500500Y-79587372D01*
X155500500Y-76960439D01*
X155496353Y-76944962D01*
X155480021Y-76884011D01*
X155465866Y-76859493D01*
X155440464Y-76815495D01*
X155440458Y-76815487D01*
X154037152Y-75412181D01*
X154003667Y-75350858D01*
X154008651Y-75281166D01*
X154050523Y-75225233D01*
X154115987Y-75200816D01*
X154124833Y-75200500D01*
X154231193Y-75200500D01*
X154231194Y-75200499D01*
X154296471Y-75187515D01*
X154405158Y-75165896D01*
X154405161Y-75165894D01*
X154405166Y-75165894D01*
X154569047Y-75098013D01*
X154716535Y-74999464D01*
X154841964Y-74874035D01*
X154940513Y-74726547D01*
X155008394Y-74562666D01*
X155034361Y-74432118D01*
X155066745Y-74370209D01*
X155127461Y-74335635D01*
X155197230Y-74339374D01*
G37*
%TD.AperFunction*%
%TA.AperFunction,NonConductor*%
G36*
X131591206Y-81320185D02*
G01*
X131611848Y-81336819D01*
X131812848Y-81537819D01*
X131846333Y-81599142D01*
X131841349Y-81668834D01*
X131799477Y-81724767D01*
X131734013Y-81749184D01*
X131725167Y-81749500D01*
X130824500Y-81749500D01*
X130815814Y-81746949D01*
X130806853Y-81748238D01*
X130782812Y-81737259D01*
X130757461Y-81729815D01*
X130751533Y-81722974D01*
X130743297Y-81719213D01*
X130729007Y-81696978D01*
X130711706Y-81677011D01*
X130709418Y-81666496D01*
X130705523Y-81660435D01*
X130700500Y-81625500D01*
X130700500Y-81424500D01*
X130720185Y-81357461D01*
X130772989Y-81311706D01*
X130824500Y-81300500D01*
X131524167Y-81300500D01*
X131591206Y-81320185D01*
G37*
%TD.AperFunction*%
%TA.AperFunction,NonConductor*%
G36*
X133541206Y-81970185D02*
G01*
X133561848Y-81986819D01*
X135062848Y-83487819D01*
X135073460Y-83507255D01*
X135087961Y-83523989D01*
X135089877Y-83537320D01*
X135096333Y-83549142D01*
X135094753Y-83571228D01*
X135097905Y-83593147D01*
X135092309Y-83605398D01*
X135091349Y-83618834D01*
X135078078Y-83636560D01*
X135068880Y-83656703D01*
X135057548Y-83663985D01*
X135049477Y-83674767D01*
X135028731Y-83682504D01*
X135010102Y-83694477D01*
X134988183Y-83697628D01*
X134984013Y-83699184D01*
X134975167Y-83699500D01*
X134875833Y-83699500D01*
X134808794Y-83679815D01*
X134788152Y-83663181D01*
X133287152Y-82162181D01*
X133253667Y-82100858D01*
X133258651Y-82031166D01*
X133300523Y-81975233D01*
X133365987Y-81950816D01*
X133374833Y-81950500D01*
X133474167Y-81950500D01*
X133541206Y-81970185D01*
G37*
%TD.AperFunction*%
%TA.AperFunction,NonConductor*%
G36*
X152638906Y-60520185D02*
G01*
X152684661Y-60572989D01*
X152694605Y-60642147D01*
X152665580Y-60705703D01*
X152619320Y-60739061D01*
X152462403Y-60804057D01*
X152290342Y-60919024D01*
X152144024Y-61065342D01*
X152029057Y-61237404D01*
X151951876Y-61423736D01*
X151908035Y-61478139D01*
X151899318Y-61483669D01*
X151880489Y-61494540D01*
X151880486Y-61494542D01*
X151059541Y-62315487D01*
X151059535Y-62315495D01*
X151019982Y-62384004D01*
X151019979Y-62384009D01*
X151011704Y-62414894D01*
X150999500Y-62460438D01*
X150999500Y-68639562D01*
X151016506Y-68703028D01*
X151019979Y-68715989D01*
X151022181Y-68719803D01*
X151022182Y-68719805D01*
X151059537Y-68784507D01*
X151059541Y-68784512D01*
X158363181Y-76088152D01*
X158396666Y-76149475D01*
X158399500Y-76175833D01*
X158399500Y-82570613D01*
X158379815Y-82637652D01*
X158363182Y-82658294D01*
X158259488Y-82761988D01*
X158187017Y-82887511D01*
X158187016Y-82887515D01*
X158149500Y-83027525D01*
X158149500Y-83172475D01*
X158187016Y-83312485D01*
X158187017Y-83312488D01*
X158259488Y-83438011D01*
X158259490Y-83438013D01*
X158259491Y-83438015D01*
X158361985Y-83540509D01*
X158361986Y-83540510D01*
X158361988Y-83540511D01*
X158487511Y-83612982D01*
X158487512Y-83612982D01*
X158487515Y-83612984D01*
X158627525Y-83650500D01*
X158627528Y-83650500D01*
X158772473Y-83650500D01*
X158772475Y-83650500D01*
X158837434Y-83633094D01*
X158866142Y-83633777D01*
X158894778Y-83631466D01*
X158900640Y-83634597D01*
X158907282Y-83634756D01*
X158931068Y-83650854D01*
X158956404Y-83664390D01*
X158960888Y-83671036D01*
X158965145Y-83673917D01*
X158977812Y-83692450D01*
X158985191Y-83705676D01*
X158987016Y-83712485D01*
X159045786Y-83814278D01*
X159046235Y-83815082D01*
X159053778Y-83848297D01*
X159061810Y-83881400D01*
X159061500Y-83882293D01*
X159061710Y-83883216D01*
X159050111Y-83915201D01*
X159038958Y-83947427D01*
X159038213Y-83948012D01*
X159037891Y-83948901D01*
X159010825Y-83969550D01*
X158984037Y-83990617D01*
X158982934Y-83990829D01*
X158982343Y-83991281D01*
X158979330Y-83991524D01*
X158937950Y-83999500D01*
X157629386Y-83999500D01*
X157562347Y-83979815D01*
X157541705Y-83963181D01*
X157438017Y-83859493D01*
X157438011Y-83859488D01*
X157312488Y-83787017D01*
X157312489Y-83787017D01*
X157301006Y-83783940D01*
X157172475Y-83749500D01*
X157027525Y-83749500D01*
X156898993Y-83783940D01*
X156887511Y-83787017D01*
X156761988Y-83859488D01*
X156761982Y-83859493D01*
X156659493Y-83961982D01*
X156659488Y-83961988D01*
X156587017Y-84087511D01*
X156587016Y-84087515D01*
X156549500Y-84227525D01*
X156549500Y-84372475D01*
X156587016Y-84512485D01*
X156587017Y-84512487D01*
X156593587Y-84523867D01*
X156597494Y-84539975D01*
X156606076Y-84554156D01*
X156605560Y-84573228D01*
X156610058Y-84591767D01*
X156604637Y-84607428D01*
X156604190Y-84624000D01*
X156593445Y-84639765D01*
X156587206Y-84657794D01*
X156574176Y-84668040D01*
X156564842Y-84681737D01*
X156547280Y-84689191D01*
X156532284Y-84700984D01*
X156515784Y-84702559D01*
X156500526Y-84709036D01*
X156481720Y-84705811D01*
X156462731Y-84707625D01*
X156447422Y-84699931D01*
X156431661Y-84697229D01*
X156407037Y-84679634D01*
X156402496Y-84677352D01*
X156400462Y-84675491D01*
X156284511Y-84559540D01*
X156267010Y-84549436D01*
X156215989Y-84519979D01*
X156139562Y-84499500D01*
X155698615Y-84499500D01*
X155631576Y-84479815D01*
X155585821Y-84427011D01*
X155575877Y-84357853D01*
X155604902Y-84294297D01*
X155636615Y-84268113D01*
X155667987Y-84250000D01*
X155684511Y-84240460D01*
X155740460Y-84184511D01*
X157338151Y-82586818D01*
X157399474Y-82553334D01*
X157425832Y-82550500D01*
X157572472Y-82550500D01*
X157572475Y-82550500D01*
X157712485Y-82512984D01*
X157838015Y-82440509D01*
X157940509Y-82338015D01*
X158012984Y-82212485D01*
X158050500Y-82072475D01*
X158050500Y-81927525D01*
X158012984Y-81787515D01*
X158012639Y-81786918D01*
X157940511Y-81661988D01*
X157940506Y-81661982D01*
X157838017Y-81559493D01*
X157838011Y-81559488D01*
X157712488Y-81487017D01*
X157712489Y-81487017D01*
X157664532Y-81474167D01*
X157572475Y-81449500D01*
X157427525Y-81449500D01*
X157335468Y-81474167D01*
X157287511Y-81487017D01*
X157161988Y-81559488D01*
X157161982Y-81559493D01*
X157059493Y-81661982D01*
X157059488Y-81661988D01*
X156987017Y-81787511D01*
X156987016Y-81787515D01*
X156949500Y-81927525D01*
X156949500Y-81927527D01*
X156949500Y-82074166D01*
X156929815Y-82141205D01*
X156913181Y-82161847D01*
X155411848Y-83663181D01*
X155350525Y-83696666D01*
X155324167Y-83699500D01*
X154524833Y-83699500D01*
X154457794Y-83679815D01*
X154412039Y-83627011D01*
X154402095Y-83557853D01*
X154431120Y-83494297D01*
X154437152Y-83487819D01*
X154440460Y-83484511D01*
X155362986Y-82561985D01*
X156288151Y-81636818D01*
X156349474Y-81603334D01*
X156375832Y-81600500D01*
X156522472Y-81600500D01*
X156522475Y-81600500D01*
X156662485Y-81562984D01*
X156788015Y-81490509D01*
X156890509Y-81388015D01*
X156962984Y-81262485D01*
X157000500Y-81122475D01*
X157000500Y-80977525D01*
X156962984Y-80837515D01*
X156933100Y-80785755D01*
X156890511Y-80711988D01*
X156890506Y-80711982D01*
X156788017Y-80609493D01*
X156788011Y-80609488D01*
X156662488Y-80537017D01*
X156662483Y-80537015D01*
X156653419Y-80534586D01*
X156593761Y-80498218D01*
X156563235Y-80435369D01*
X156571533Y-80365994D01*
X156597835Y-80327135D01*
X156840460Y-80084511D01*
X156869615Y-80034012D01*
X156880021Y-80015989D01*
X156900500Y-79939562D01*
X156900500Y-75260438D01*
X156880021Y-75184011D01*
X156880017Y-75184004D01*
X156840464Y-75115495D01*
X156840458Y-75115487D01*
X147836819Y-66111848D01*
X147803334Y-66050525D01*
X147800500Y-66024167D01*
X147800500Y-62845435D01*
X147820185Y-62778396D01*
X147872989Y-62732641D01*
X147877012Y-62730889D01*
X147997598Y-62680941D01*
X148169655Y-62565977D01*
X148315977Y-62419655D01*
X148430941Y-62247598D01*
X148510130Y-62056420D01*
X148550500Y-61853465D01*
X148550500Y-61646535D01*
X148510130Y-61443580D01*
X148430941Y-61252402D01*
X148315977Y-61080345D01*
X148315975Y-61080342D01*
X148169657Y-60934024D01*
X148001655Y-60821770D01*
X147997598Y-60819059D01*
X147806420Y-60739870D01*
X147806418Y-60739869D01*
X147804466Y-60739061D01*
X147750063Y-60695220D01*
X147727998Y-60628926D01*
X147745277Y-60561227D01*
X147796414Y-60513616D01*
X147851919Y-60500500D01*
X152571867Y-60500500D01*
X152638906Y-60520185D01*
G37*
%TD.AperFunction*%
%TA.AperFunction,NonConductor*%
G36*
X138596640Y-85120185D02*
G01*
X138642395Y-85172989D01*
X138652339Y-85242147D01*
X138623314Y-85305703D01*
X138584062Y-85335899D01*
X138557352Y-85348958D01*
X138528650Y-85362989D01*
X138442988Y-85448651D01*
X138389780Y-85557488D01*
X138388473Y-85561721D01*
X138385571Y-85566098D01*
X138385550Y-85566143D01*
X138385544Y-85566140D01*
X138349873Y-85619961D01*
X138285914Y-85648087D01*
X138216903Y-85637169D01*
X138164750Y-85590674D01*
X138151528Y-85561724D01*
X138150220Y-85557494D01*
X138150220Y-85557493D01*
X138150220Y-85557491D01*
X138097012Y-85448653D01*
X138097010Y-85448651D01*
X138097010Y-85448650D01*
X138011348Y-85362988D01*
X137955939Y-85335900D01*
X137904357Y-85288772D01*
X137886443Y-85221238D01*
X137907884Y-85154739D01*
X137961874Y-85110390D01*
X138010400Y-85100500D01*
X138529601Y-85100500D01*
X138596640Y-85120185D01*
G37*
%TD.AperFunction*%
%TA.AperFunction,NonConductor*%
G36*
X137326640Y-85120185D02*
G01*
X137372395Y-85172989D01*
X137382339Y-85242147D01*
X137353314Y-85305703D01*
X137314062Y-85335899D01*
X137287352Y-85348958D01*
X137258650Y-85362989D01*
X137172988Y-85448651D01*
X137119780Y-85557488D01*
X137118473Y-85561721D01*
X137115571Y-85566098D01*
X137115550Y-85566143D01*
X137115544Y-85566140D01*
X137079873Y-85619961D01*
X137015914Y-85648087D01*
X136946903Y-85637169D01*
X136894750Y-85590674D01*
X136881528Y-85561724D01*
X136880220Y-85557494D01*
X136880220Y-85557493D01*
X136880220Y-85557491D01*
X136827012Y-85448653D01*
X136827010Y-85448651D01*
X136827010Y-85448650D01*
X136741350Y-85362990D01*
X136741347Y-85362988D01*
X136735037Y-85359903D01*
X136723058Y-85348958D01*
X136708297Y-85342217D01*
X136697794Y-85325875D01*
X136683456Y-85312774D01*
X136678903Y-85296479D01*
X136670523Y-85283439D01*
X136665500Y-85248504D01*
X136665500Y-85224500D01*
X136685185Y-85157461D01*
X136737989Y-85111706D01*
X136789500Y-85100500D01*
X137259601Y-85100500D01*
X137326640Y-85120185D01*
G37*
%TD.AperFunction*%
%TA.AperFunction,NonConductor*%
G36*
X136007539Y-85120185D02*
G01*
X136053294Y-85172989D01*
X136064500Y-85224500D01*
X136064500Y-85248504D01*
X136044815Y-85315543D01*
X135994963Y-85359903D01*
X135988652Y-85362988D01*
X135988650Y-85362990D01*
X135902988Y-85448651D01*
X135849780Y-85557488D01*
X135848473Y-85561721D01*
X135845571Y-85566098D01*
X135845550Y-85566143D01*
X135845544Y-85566140D01*
X135809873Y-85619961D01*
X135745914Y-85648087D01*
X135676903Y-85637169D01*
X135624750Y-85590674D01*
X135611528Y-85561724D01*
X135610220Y-85557494D01*
X135610220Y-85557493D01*
X135610220Y-85557491D01*
X135557012Y-85448653D01*
X135557010Y-85448651D01*
X135557010Y-85448650D01*
X135471348Y-85362988D01*
X135415939Y-85335900D01*
X135364357Y-85288772D01*
X135346443Y-85221238D01*
X135367884Y-85154739D01*
X135421874Y-85110390D01*
X135470400Y-85100500D01*
X135940500Y-85100500D01*
X136007539Y-85120185D01*
G37*
%TD.AperFunction*%
%TA.AperFunction,NonConductor*%
G36*
X178213158Y-85053964D02*
G01*
X178264358Y-85101506D01*
X178274841Y-85123965D01*
X178276147Y-85127697D01*
X178297207Y-85187882D01*
X178360999Y-85274318D01*
X178377851Y-85297151D01*
X178384421Y-85303721D01*
X178382437Y-85305704D01*
X178384540Y-85308473D01*
X178399146Y-85319407D01*
X178405230Y-85335718D01*
X178415761Y-85349586D01*
X178417187Y-85367776D01*
X178423564Y-85384871D01*
X178419863Y-85401883D01*
X178421225Y-85419242D01*
X178412591Y-85435315D01*
X178408713Y-85453145D01*
X178388539Y-85480093D01*
X178388163Y-85480794D01*
X178387562Y-85481399D01*
X178304439Y-85564524D01*
X178304438Y-85564525D01*
X178234526Y-85634436D01*
X178185091Y-85720059D01*
X178185091Y-85720060D01*
X178185090Y-85720062D01*
X178159500Y-85815565D01*
X178159500Y-85815567D01*
X178159500Y-85925898D01*
X178139815Y-85992937D01*
X178087011Y-86038692D01*
X178017853Y-86048636D01*
X177954297Y-86019611D01*
X177947819Y-86013579D01*
X177916561Y-85982321D01*
X177916552Y-85982314D01*
X177775196Y-85898717D01*
X177775193Y-85898716D01*
X177673581Y-85869195D01*
X177614695Y-85831589D01*
X177585489Y-85768117D01*
X177595235Y-85698930D01*
X177640839Y-85645996D01*
X177643080Y-85644580D01*
X177768343Y-85567317D01*
X177892315Y-85443345D01*
X177984356Y-85294124D01*
X177984359Y-85294117D01*
X178040094Y-85125918D01*
X178079866Y-85068473D01*
X178144382Y-85041649D01*
X178213158Y-85053964D01*
G37*
%TD.AperFunction*%
%TA.AperFunction,NonConductor*%
G36*
X132605703Y-82331120D02*
G01*
X132612181Y-82337152D01*
X134515489Y-84240460D01*
X134584012Y-84280022D01*
X134584772Y-84280225D01*
X134585341Y-84280572D01*
X134591516Y-84283130D01*
X134591117Y-84284093D01*
X134644432Y-84316590D01*
X134674961Y-84379437D01*
X134666667Y-84448812D01*
X134622181Y-84502690D01*
X134609429Y-84510251D01*
X134597608Y-84516335D01*
X134584011Y-84519979D01*
X134532990Y-84549436D01*
X134530422Y-84550918D01*
X134530392Y-84550934D01*
X134515495Y-84559535D01*
X134515487Y-84559541D01*
X132911681Y-86163347D01*
X132850358Y-86196832D01*
X132780666Y-86191848D01*
X132724733Y-86149976D01*
X132700316Y-86084512D01*
X132700000Y-86075666D01*
X132700000Y-85902172D01*
X132699999Y-85902155D01*
X132693598Y-85842627D01*
X132693596Y-85842620D01*
X132643354Y-85707913D01*
X132643350Y-85707906D01*
X132557190Y-85592812D01*
X132450188Y-85512709D01*
X132408318Y-85456775D01*
X132400500Y-85413443D01*
X132400500Y-84830249D01*
X132400499Y-84830247D01*
X132388868Y-84771770D01*
X132388867Y-84771768D01*
X132386945Y-84768892D01*
X132384681Y-84761664D01*
X132384194Y-84760487D01*
X132384299Y-84760443D01*
X132366066Y-84702215D01*
X132384550Y-84634835D01*
X132386945Y-84631108D01*
X132388867Y-84628231D01*
X132388868Y-84628229D01*
X132400499Y-84569752D01*
X132400500Y-84569750D01*
X132400500Y-83730249D01*
X132389349Y-83674192D01*
X132389349Y-83625808D01*
X132400500Y-83569750D01*
X132400500Y-82424833D01*
X132420185Y-82357794D01*
X132472989Y-82312039D01*
X132542147Y-82302095D01*
X132605703Y-82331120D01*
G37*
%TD.AperFunction*%
%TA.AperFunction,NonConductor*%
G36*
X156391206Y-87320185D02*
G01*
X156411848Y-87336819D01*
X156412848Y-87337819D01*
X156446333Y-87399142D01*
X156441349Y-87468834D01*
X156399477Y-87524767D01*
X156334013Y-87549184D01*
X156325167Y-87549500D01*
X156227525Y-87549500D01*
X156098993Y-87583940D01*
X156087511Y-87587017D01*
X155961988Y-87659488D01*
X155961982Y-87659493D01*
X155859493Y-87761982D01*
X155859489Y-87761988D01*
X155815892Y-87837500D01*
X155765325Y-87885716D01*
X155708505Y-87899500D01*
X155174500Y-87899500D01*
X155107461Y-87879815D01*
X155061706Y-87827011D01*
X155050500Y-87775500D01*
X155050500Y-87727527D01*
X155050500Y-87727525D01*
X155012984Y-87587515D01*
X155012696Y-87587017D01*
X154954663Y-87486500D01*
X154938190Y-87418600D01*
X154961042Y-87352573D01*
X155015963Y-87309383D01*
X155062050Y-87300500D01*
X156324167Y-87300500D01*
X156391206Y-87320185D01*
G37*
%TD.AperFunction*%
%TA.AperFunction,NonConductor*%
G36*
X157457790Y-88112790D02*
G01*
X157500982Y-88167710D01*
X157507626Y-88237263D01*
X157475612Y-88299367D01*
X157473547Y-88301481D01*
X157211848Y-88563181D01*
X157150525Y-88596666D01*
X157124167Y-88599500D01*
X156862050Y-88599500D01*
X156829685Y-88589996D01*
X156797090Y-88581123D01*
X156796234Y-88580174D01*
X156795011Y-88579815D01*
X156772920Y-88554321D01*
X156750298Y-88529235D01*
X156750091Y-88527974D01*
X156749256Y-88527011D01*
X156744451Y-88493595D01*
X156738987Y-88460287D01*
X156739459Y-88458877D01*
X156739312Y-88457853D01*
X156748258Y-88426233D01*
X156751096Y-88419677D01*
X156812984Y-88312485D01*
X156838118Y-88218682D01*
X156841741Y-88210316D01*
X156858490Y-88190193D01*
X156872123Y-88167829D01*
X156880490Y-88163764D01*
X156886441Y-88156616D01*
X156911415Y-88148742D01*
X156934970Y-88137300D01*
X156946034Y-88137827D01*
X156953077Y-88135607D01*
X156964456Y-88138704D01*
X156987625Y-88139808D01*
X157027525Y-88150500D01*
X157027527Y-88150500D01*
X157172472Y-88150500D01*
X157172475Y-88150500D01*
X157312485Y-88112984D01*
X157323863Y-88106415D01*
X157391762Y-88089940D01*
X157457790Y-88112790D01*
G37*
%TD.AperFunction*%
%TA.AperFunction,NonConductor*%
G36*
X130198811Y-87134139D02*
G01*
X130269811Y-87187290D01*
X130311682Y-87243224D01*
X130319500Y-87286556D01*
X130319500Y-87869752D01*
X130331131Y-87928229D01*
X130331132Y-87928231D01*
X130333058Y-87931113D01*
X130335322Y-87938344D01*
X130335806Y-87939513D01*
X130335701Y-87939556D01*
X130353933Y-87997791D01*
X130335446Y-88065171D01*
X130333058Y-88068887D01*
X130331132Y-88071768D01*
X130331131Y-88071770D01*
X130319500Y-88130247D01*
X130319500Y-88504167D01*
X130310855Y-88533607D01*
X130304332Y-88563594D01*
X130300577Y-88568609D01*
X130299815Y-88571206D01*
X130283181Y-88591848D01*
X130212181Y-88662848D01*
X130150858Y-88696333D01*
X130081166Y-88691349D01*
X130025233Y-88649477D01*
X130000816Y-88584013D01*
X130000500Y-88575167D01*
X130000500Y-87233405D01*
X130020185Y-87166366D01*
X130072989Y-87120611D01*
X130142147Y-87110667D01*
X130198811Y-87134139D01*
G37*
%TD.AperFunction*%
%TA.AperFunction,NonConductor*%
G36*
X175537539Y-87232685D02*
G01*
X175583294Y-87285489D01*
X175594500Y-87337000D01*
X175594500Y-88183260D01*
X175604426Y-88251391D01*
X175655803Y-88356485D01*
X175738514Y-88439196D01*
X175738515Y-88439196D01*
X175738517Y-88439198D01*
X175843607Y-88490573D01*
X175872646Y-88494804D01*
X175911739Y-88500500D01*
X175911740Y-88500500D01*
X176278261Y-88500500D01*
X176300971Y-88497191D01*
X176346393Y-88490573D01*
X176451483Y-88439198D01*
X176451486Y-88439195D01*
X176459847Y-88433227D01*
X176460642Y-88434341D01*
X176512481Y-88406031D01*
X176582173Y-88411010D01*
X176638110Y-88452877D01*
X176645580Y-88464074D01*
X176697314Y-88551552D01*
X176697321Y-88551561D01*
X176813438Y-88667678D01*
X176813447Y-88667685D01*
X176954801Y-88751281D01*
X176972499Y-88756423D01*
X177031384Y-88794030D01*
X177060591Y-88857502D01*
X177050845Y-88926689D01*
X177005241Y-88979623D01*
X176938259Y-88999499D01*
X176937904Y-88999500D01*
X174675833Y-88999500D01*
X174608794Y-88979815D01*
X174588152Y-88963181D01*
X173049652Y-87424681D01*
X173016167Y-87363358D01*
X173021151Y-87293666D01*
X173063023Y-87237733D01*
X173128487Y-87213316D01*
X173137333Y-87213000D01*
X175470500Y-87213000D01*
X175537539Y-87232685D01*
G37*
%TD.AperFunction*%
%TA.AperFunction,NonConductor*%
G36*
X155991206Y-85120185D02*
G01*
X156011848Y-85136819D01*
X158063181Y-87188152D01*
X158096666Y-87249475D01*
X158099500Y-87275833D01*
X158099500Y-87624167D01*
X158079815Y-87691206D01*
X158063181Y-87711848D01*
X157801481Y-87973547D01*
X157740158Y-88007032D01*
X157670466Y-88002048D01*
X157614533Y-87960176D01*
X157590116Y-87894712D01*
X157604968Y-87826439D01*
X157606415Y-87823863D01*
X157612982Y-87812488D01*
X157612981Y-87812488D01*
X157612984Y-87812485D01*
X157650500Y-87672475D01*
X157650500Y-87527525D01*
X157612984Y-87387515D01*
X157604768Y-87373285D01*
X157540511Y-87261988D01*
X157540506Y-87261982D01*
X157438017Y-87159493D01*
X157438011Y-87159488D01*
X157312488Y-87087017D01*
X157312489Y-87087017D01*
X157301006Y-87083940D01*
X157172475Y-87049500D01*
X157027525Y-87049500D01*
X157025833Y-87049500D01*
X156958794Y-87029815D01*
X156938152Y-87013181D01*
X156684512Y-86759541D01*
X156684507Y-86759537D01*
X156651462Y-86740459D01*
X156651462Y-86740458D01*
X156651460Y-86740458D01*
X156639083Y-86733312D01*
X156615990Y-86719979D01*
X156615991Y-86719979D01*
X156577775Y-86709739D01*
X156539562Y-86699500D01*
X145560438Y-86699500D01*
X145529867Y-86707691D01*
X145484008Y-86719979D01*
X145484007Y-86719980D01*
X145448538Y-86740459D01*
X145415492Y-86759537D01*
X145415487Y-86759541D01*
X142756848Y-89418181D01*
X142695525Y-89451666D01*
X142669167Y-89454500D01*
X135524500Y-89454500D01*
X135457461Y-89434815D01*
X135411706Y-89382011D01*
X135400500Y-89330500D01*
X135400500Y-89075440D01*
X135400500Y-89075438D01*
X135399723Y-89072540D01*
X135395500Y-89040453D01*
X135395500Y-87376496D01*
X135415185Y-87309457D01*
X135465039Y-87265095D01*
X135471347Y-87262012D01*
X135557012Y-87176347D01*
X135610220Y-87067509D01*
X135610221Y-87067501D01*
X135611523Y-87063288D01*
X135614424Y-87058909D01*
X135614450Y-87058857D01*
X135614456Y-87058860D01*
X135650117Y-87005045D01*
X135714074Y-86976914D01*
X135783086Y-86987826D01*
X135835244Y-87034316D01*
X135848469Y-87063270D01*
X135849776Y-87067500D01*
X135849779Y-87067507D01*
X135849780Y-87067509D01*
X135889863Y-87149500D01*
X135902989Y-87176349D01*
X135988651Y-87262011D01*
X136097488Y-87315219D01*
X136097489Y-87315219D01*
X136097491Y-87315220D01*
X136168051Y-87325500D01*
X136561948Y-87325499D01*
X136561950Y-87325499D01*
X136598426Y-87320185D01*
X136632509Y-87315220D01*
X136741347Y-87262012D01*
X136827012Y-87176347D01*
X136880220Y-87067509D01*
X136880221Y-87067501D01*
X136881523Y-87063288D01*
X136884424Y-87058909D01*
X136884450Y-87058857D01*
X136884456Y-87058860D01*
X136920117Y-87005045D01*
X136984074Y-86976914D01*
X137053086Y-86987826D01*
X137105244Y-87034316D01*
X137118469Y-87063270D01*
X137119776Y-87067500D01*
X137119779Y-87067507D01*
X137119780Y-87067509D01*
X137159863Y-87149500D01*
X137172989Y-87176349D01*
X137258650Y-87262010D01*
X137258651Y-87262010D01*
X137258653Y-87262012D01*
X137264960Y-87265095D01*
X137316542Y-87312223D01*
X137334500Y-87376496D01*
X137334500Y-87574562D01*
X137337970Y-87587511D01*
X137354979Y-87650990D01*
X137354980Y-87650991D01*
X137359889Y-87659493D01*
X137374044Y-87684011D01*
X137394540Y-87719511D01*
X137559540Y-87884511D01*
X137615489Y-87940460D01*
X137615491Y-87940461D01*
X137615495Y-87940464D01*
X137684004Y-87980017D01*
X137684011Y-87980021D01*
X137760438Y-88000500D01*
X137770614Y-88000500D01*
X137837653Y-88020185D01*
X137858295Y-88036819D01*
X137859491Y-88038015D01*
X137961985Y-88140509D01*
X137961986Y-88140510D01*
X137961988Y-88140511D01*
X138087511Y-88212982D01*
X138087512Y-88212982D01*
X138087515Y-88212984D01*
X138227525Y-88250500D01*
X138227528Y-88250500D01*
X138372472Y-88250500D01*
X138372475Y-88250500D01*
X138512485Y-88212984D01*
X138638015Y-88140509D01*
X138740509Y-88038015D01*
X138740509Y-88038014D01*
X138741705Y-88036819D01*
X138803028Y-88003334D01*
X138829386Y-88000500D01*
X138839560Y-88000500D01*
X138839562Y-88000500D01*
X138915989Y-87980021D01*
X138984511Y-87940460D01*
X139040460Y-87884511D01*
X139140460Y-87784511D01*
X139145020Y-87776613D01*
X139180021Y-87715989D01*
X139200500Y-87639562D01*
X139200500Y-87569546D01*
X139200542Y-87566335D01*
X139200922Y-87551644D01*
X139205500Y-87534562D01*
X139205500Y-87374906D01*
X139205542Y-87373285D01*
X139215779Y-87341487D01*
X139225185Y-87309457D01*
X139226456Y-87308325D01*
X139226955Y-87306778D01*
X139243268Y-87293365D01*
X139275039Y-87265095D01*
X139281347Y-87262012D01*
X139367012Y-87176347D01*
X139420220Y-87067509D01*
X139430500Y-86996949D01*
X139430499Y-85628052D01*
X139429320Y-85619961D01*
X139421474Y-85566098D01*
X139420220Y-85557491D01*
X139367012Y-85448653D01*
X139367010Y-85448651D01*
X139367010Y-85448650D01*
X139281348Y-85362988D01*
X139225939Y-85335900D01*
X139174357Y-85288772D01*
X139156443Y-85221238D01*
X139177884Y-85154739D01*
X139231874Y-85110390D01*
X139280400Y-85100500D01*
X155924167Y-85100500D01*
X155991206Y-85120185D01*
G37*
%TD.AperFunction*%
%TA.AperFunction,NonConductor*%
G36*
X134488834Y-85538650D02*
G01*
X134544767Y-85580522D01*
X134569184Y-85645986D01*
X134569500Y-85654832D01*
X134569500Y-86996950D01*
X134579779Y-87067506D01*
X134579779Y-87067507D01*
X134579780Y-87067509D01*
X134619863Y-87149500D01*
X134632989Y-87176349D01*
X134718650Y-87262010D01*
X134718651Y-87262010D01*
X134718653Y-87262012D01*
X134724960Y-87265095D01*
X134776542Y-87312223D01*
X134794500Y-87376496D01*
X134794500Y-89042284D01*
X134792198Y-89059768D01*
X134793061Y-89059882D01*
X134792000Y-89067940D01*
X134792000Y-89330500D01*
X134772315Y-89397539D01*
X134719511Y-89443294D01*
X134668000Y-89454500D01*
X132524500Y-89454500D01*
X132457461Y-89434815D01*
X132411706Y-89382011D01*
X132401862Y-89348831D01*
X132400500Y-89339719D01*
X132400500Y-89230252D01*
X132388867Y-89171769D01*
X132371513Y-89145798D01*
X132367408Y-89118331D01*
X132368541Y-89110121D01*
X132366066Y-89102215D01*
X132373249Y-89076027D01*
X132376966Y-89049118D01*
X132382358Y-89042824D01*
X132384550Y-89034835D01*
X132386945Y-89031108D01*
X132388867Y-89028231D01*
X132388868Y-89028229D01*
X132397552Y-88984568D01*
X132400500Y-88969748D01*
X132400500Y-88130252D01*
X132400500Y-88130249D01*
X132400499Y-88130247D01*
X132388868Y-88071770D01*
X132388867Y-88071768D01*
X132386945Y-88068892D01*
X132384681Y-88061664D01*
X132384194Y-88060487D01*
X132384299Y-88060443D01*
X132366066Y-88002215D01*
X132384550Y-87934835D01*
X132386945Y-87931108D01*
X132388867Y-87928231D01*
X132388868Y-87928229D01*
X132397563Y-87884511D01*
X132400500Y-87869748D01*
X132400500Y-87575833D01*
X132420185Y-87508794D01*
X132436819Y-87488152D01*
X133369932Y-86555039D01*
X134357821Y-85567149D01*
X134419142Y-85533666D01*
X134488834Y-85538650D01*
G37*
%TD.AperFunction*%
%TA.AperFunction,NonConductor*%
G36*
X143166700Y-89981547D02*
G01*
X143216694Y-90030357D01*
X143232363Y-90098447D01*
X143208733Y-90164199D01*
X143196263Y-90178765D01*
X142856848Y-90518181D01*
X142795525Y-90551666D01*
X142769167Y-90554500D01*
X132524500Y-90554500D01*
X132457461Y-90534815D01*
X132411706Y-90482011D01*
X132401862Y-90448831D01*
X132400500Y-90439719D01*
X132400500Y-90330252D01*
X132388867Y-90271769D01*
X132371513Y-90245798D01*
X132367408Y-90218331D01*
X132368541Y-90210121D01*
X132366066Y-90202215D01*
X132373249Y-90176027D01*
X132376966Y-90149118D01*
X132382358Y-90142824D01*
X132384550Y-90134835D01*
X132386945Y-90131108D01*
X132395653Y-90118076D01*
X132397533Y-90119332D01*
X132431123Y-90077647D01*
X132497416Y-90055579D01*
X132501847Y-90055500D01*
X142884560Y-90055500D01*
X142884562Y-90055500D01*
X142960989Y-90035021D01*
X143001026Y-90011905D01*
X143029503Y-89995465D01*
X143029505Y-89995463D01*
X143029511Y-89995460D01*
X143029515Y-89995455D01*
X143033087Y-89992715D01*
X143098254Y-89967515D01*
X143166700Y-89981547D01*
G37*
%TD.AperFunction*%
%TA.AperFunction,NonConductor*%
G36*
X146668424Y-88120185D02*
G01*
X146714179Y-88172989D01*
X146724123Y-88242147D01*
X146695098Y-88305703D01*
X146663389Y-88331885D01*
X146650094Y-88339561D01*
X146639812Y-88345496D01*
X146615489Y-88359539D01*
X146615487Y-88359541D01*
X143911848Y-91063181D01*
X143850525Y-91096666D01*
X143824167Y-91099500D01*
X143424833Y-91099500D01*
X143357794Y-91079815D01*
X143312039Y-91027011D01*
X143302095Y-90957853D01*
X143331120Y-90894297D01*
X143337152Y-90887819D01*
X146088152Y-88136819D01*
X146149475Y-88103334D01*
X146175833Y-88100500D01*
X146601385Y-88100500D01*
X146668424Y-88120185D01*
G37*
%TD.AperFunction*%
%TA.AperFunction,NonConductor*%
G36*
X153892040Y-90809144D02*
G01*
X153922027Y-90815668D01*
X153927042Y-90819422D01*
X153929639Y-90820185D01*
X153950281Y-90836819D01*
X153951477Y-90838015D01*
X154053971Y-90940509D01*
X154053972Y-90940510D01*
X154053974Y-90940511D01*
X154179497Y-91012982D01*
X154179498Y-91012982D01*
X154179501Y-91012984D01*
X154319511Y-91050500D01*
X154319514Y-91050500D01*
X154409082Y-91050500D01*
X154476121Y-91070185D01*
X154521876Y-91122989D01*
X154531820Y-91192147D01*
X154516469Y-91236500D01*
X154487017Y-91287511D01*
X154487016Y-91287515D01*
X154449500Y-91427525D01*
X154449500Y-91427527D01*
X154449500Y-91474167D01*
X154429815Y-91541206D01*
X154413181Y-91561848D01*
X154211848Y-91763181D01*
X154150525Y-91796666D01*
X154124167Y-91799500D01*
X148160437Y-91799500D01*
X148108887Y-91813313D01*
X148039037Y-91811650D01*
X147981175Y-91772487D01*
X147953671Y-91708259D01*
X147965258Y-91639357D01*
X147989110Y-91605860D01*
X148758152Y-90836819D01*
X148819475Y-90803334D01*
X148845833Y-90800500D01*
X153862600Y-90800500D01*
X153892040Y-90809144D01*
G37*
%TD.AperFunction*%
%TA.AperFunction,NonConductor*%
G36*
X132473615Y-92367991D02*
G01*
X132517971Y-92396495D01*
X132563181Y-92441705D01*
X132577884Y-92468632D01*
X132594477Y-92494451D01*
X132595368Y-92500651D01*
X132596666Y-92503028D01*
X132599500Y-92529386D01*
X132599500Y-92624167D01*
X132579815Y-92691206D01*
X132563181Y-92711848D01*
X132211848Y-93063181D01*
X132150525Y-93096666D01*
X132124167Y-93099500D01*
X131075833Y-93099500D01*
X131008794Y-93079815D01*
X130988152Y-93063181D01*
X130587152Y-92662181D01*
X130553667Y-92600858D01*
X130558651Y-92531166D01*
X130600523Y-92475233D01*
X130665987Y-92450816D01*
X130674833Y-92450500D01*
X132219750Y-92450500D01*
X132219751Y-92450499D01*
X132234568Y-92447552D01*
X132278229Y-92438868D01*
X132278229Y-92438867D01*
X132278231Y-92438867D01*
X132334902Y-92401000D01*
X132354707Y-92387767D01*
X132355746Y-92389322D01*
X132403923Y-92363012D01*
X132473615Y-92367991D01*
G37*
%TD.AperFunction*%
%TA.AperFunction,NonConductor*%
G36*
X148342206Y-88920185D02*
G01*
X148387961Y-88972989D01*
X148397905Y-89042147D01*
X148368880Y-89105703D01*
X148362848Y-89112181D01*
X144324348Y-93150681D01*
X144263025Y-93184166D01*
X144236667Y-93187000D01*
X139554499Y-93187000D01*
X139487460Y-93167315D01*
X139441705Y-93114511D01*
X139430499Y-93063000D01*
X139430499Y-92803049D01*
X139421474Y-92741098D01*
X139420220Y-92732491D01*
X139367012Y-92623653D01*
X139367010Y-92623651D01*
X139367010Y-92623650D01*
X139281348Y-92537988D01*
X139172511Y-92484780D01*
X139154869Y-92482210D01*
X139101949Y-92474500D01*
X139101943Y-92474500D01*
X138708049Y-92474500D01*
X138637493Y-92484779D01*
X138528650Y-92537989D01*
X138442988Y-92623651D01*
X138389780Y-92732488D01*
X138388473Y-92736721D01*
X138385571Y-92741098D01*
X138385550Y-92741143D01*
X138385544Y-92741140D01*
X138349873Y-92794961D01*
X138285914Y-92823087D01*
X138216903Y-92812169D01*
X138164750Y-92765674D01*
X138151528Y-92736724D01*
X138150220Y-92732494D01*
X138150220Y-92732493D01*
X138150220Y-92732491D01*
X138097012Y-92623653D01*
X138097010Y-92623651D01*
X138097010Y-92623650D01*
X138011348Y-92537988D01*
X138002538Y-92533681D01*
X137950957Y-92486552D01*
X137933000Y-92422281D01*
X137933000Y-92043333D01*
X137952685Y-91976294D01*
X137969319Y-91955652D01*
X138188152Y-91736819D01*
X138249475Y-91703334D01*
X138275833Y-91700500D01*
X144039560Y-91700500D01*
X144039562Y-91700500D01*
X144115989Y-91680021D01*
X144184511Y-91640460D01*
X144240460Y-91584511D01*
X146888152Y-88936819D01*
X146949475Y-88903334D01*
X146975833Y-88900500D01*
X148275167Y-88900500D01*
X148342206Y-88920185D01*
G37*
%TD.AperFunction*%
%TA.AperFunction,NonConductor*%
G36*
X184463182Y-93376589D02*
G01*
X184496666Y-93437912D01*
X184499500Y-93464269D01*
X184499500Y-93975167D01*
X184479815Y-94042206D01*
X184427011Y-94087961D01*
X184357853Y-94097905D01*
X184294297Y-94068880D01*
X184287819Y-94062848D01*
X184084512Y-93859541D01*
X184084507Y-93859537D01*
X184009006Y-93815947D01*
X183960791Y-93765380D01*
X183947567Y-93696773D01*
X183973535Y-93631908D01*
X184027674Y-93592378D01*
X184092084Y-93568355D01*
X184092093Y-93568350D01*
X184207187Y-93482190D01*
X184207190Y-93482187D01*
X184276234Y-93389958D01*
X184332168Y-93348087D01*
X184401859Y-93343103D01*
X184463182Y-93376589D01*
G37*
%TD.AperFunction*%
%TA.AperFunction,NonConductor*%
G36*
X183791206Y-94420185D02*
G01*
X183811848Y-94436819D01*
X184063181Y-94688152D01*
X184096666Y-94749475D01*
X184099500Y-94775833D01*
X184099500Y-94821495D01*
X184079815Y-94888534D01*
X184027011Y-94934289D01*
X183957853Y-94944233D01*
X183928570Y-94936199D01*
X183869752Y-94924500D01*
X183869748Y-94924500D01*
X182199833Y-94924500D01*
X182132794Y-94904815D01*
X182087039Y-94852011D01*
X182077095Y-94782853D01*
X182106120Y-94719297D01*
X182112152Y-94712819D01*
X182388152Y-94436819D01*
X182449475Y-94403334D01*
X182475833Y-94400500D01*
X183724167Y-94400500D01*
X183791206Y-94420185D01*
G37*
%TD.AperFunction*%
%TA.AperFunction,NonConductor*%
G36*
X137033419Y-94159716D02*
G01*
X137053086Y-94162826D01*
X137064829Y-94173293D01*
X137079272Y-94179536D01*
X137090377Y-94196065D01*
X137105244Y-94209316D01*
X137117905Y-94237035D01*
X137118238Y-94237531D01*
X137118242Y-94237775D01*
X137118469Y-94238270D01*
X137119776Y-94242500D01*
X137119779Y-94242507D01*
X137119780Y-94242509D01*
X137172988Y-94351347D01*
X137172989Y-94351349D01*
X137258651Y-94437011D01*
X137262454Y-94438870D01*
X137266744Y-94442789D01*
X137267014Y-94442982D01*
X137266990Y-94443014D01*
X137314039Y-94485995D01*
X137332000Y-94550273D01*
X137332000Y-95045851D01*
X137312315Y-95112890D01*
X137259511Y-95158645D01*
X137190353Y-95168589D01*
X137126797Y-95139564D01*
X137108230Y-95119485D01*
X137097726Y-95105252D01*
X137022150Y-95002850D01*
X136912882Y-94922207D01*
X136833544Y-94894445D01*
X136776769Y-94853723D01*
X136751022Y-94788770D01*
X136750500Y-94777404D01*
X136750500Y-94479221D01*
X136768838Y-94414325D01*
X136776485Y-94401873D01*
X136827012Y-94351347D01*
X136880220Y-94242509D01*
X136882040Y-94230011D01*
X136894337Y-94209991D01*
X136909115Y-94196647D01*
X136920117Y-94180045D01*
X136934520Y-94173709D01*
X136946196Y-94163168D01*
X136965844Y-94159932D01*
X136984074Y-94151914D01*
X136999612Y-94154370D01*
X137015137Y-94151814D01*
X137033419Y-94159716D01*
G37*
%TD.AperFunction*%
%TA.AperFunction,NonConductor*%
G36*
X135983979Y-94434727D02*
G01*
X135988652Y-94437011D01*
X135988653Y-94437012D01*
X136066998Y-94475313D01*
X136079961Y-94481650D01*
X136091940Y-94492595D01*
X136106703Y-94499337D01*
X136117204Y-94515677D01*
X136131543Y-94528778D01*
X136136095Y-94545073D01*
X136144477Y-94558115D01*
X136149500Y-94593050D01*
X136149500Y-94777404D01*
X136129815Y-94844443D01*
X136077011Y-94890198D01*
X136066456Y-94894445D01*
X135987117Y-94922207D01*
X135877850Y-95002850D01*
X135797207Y-95112117D01*
X135774842Y-95176033D01*
X135734120Y-95232808D01*
X135669167Y-95258555D01*
X135600605Y-95245098D01*
X135550203Y-95196711D01*
X135540095Y-95174081D01*
X135484358Y-95005880D01*
X135484353Y-95005869D01*
X135441386Y-94936209D01*
X135422945Y-94868817D01*
X135443867Y-94802153D01*
X135497509Y-94757383D01*
X135510038Y-94752725D01*
X135531396Y-94746070D01*
X135669080Y-94662836D01*
X135782835Y-94549081D01*
X135782838Y-94549077D01*
X135823401Y-94481978D01*
X135874928Y-94434790D01*
X135943787Y-94422951D01*
X135983979Y-94434727D01*
G37*
%TD.AperFunction*%
%TA.AperFunction,NonConductor*%
G36*
X181868834Y-95058651D02*
G01*
X181924767Y-95100523D01*
X181949184Y-95165987D01*
X181949500Y-95174833D01*
X181949500Y-96549167D01*
X181929815Y-96616206D01*
X181913181Y-96636848D01*
X180986848Y-97563181D01*
X180925525Y-97596666D01*
X180899167Y-97599500D01*
X178763333Y-97599500D01*
X178733892Y-97590855D01*
X178703906Y-97584332D01*
X178698890Y-97580577D01*
X178696294Y-97579815D01*
X178675652Y-97563181D01*
X178524652Y-97412181D01*
X178491167Y-97350858D01*
X178496151Y-97281166D01*
X178538023Y-97225233D01*
X178603487Y-97200816D01*
X178612333Y-97200500D01*
X179129270Y-97200500D01*
X179159699Y-97197646D01*
X179159701Y-97197646D01*
X179252650Y-97165121D01*
X179287882Y-97152793D01*
X179397150Y-97072150D01*
X179477793Y-96962882D01*
X179501507Y-96895112D01*
X179522646Y-96834701D01*
X179522646Y-96834699D01*
X179525500Y-96804269D01*
X179525500Y-96724500D01*
X179545185Y-96657461D01*
X179597989Y-96611706D01*
X179649500Y-96600500D01*
X180139560Y-96600500D01*
X180139562Y-96600500D01*
X180215989Y-96580021D01*
X180284511Y-96540460D01*
X180340460Y-96484511D01*
X181737819Y-95087152D01*
X181799142Y-95053667D01*
X181868834Y-95058651D01*
G37*
%TD.AperFunction*%
%TA.AperFunction,NonConductor*%
G36*
X147589273Y-108638922D02*
G01*
X147636884Y-108690059D01*
X147650000Y-108745564D01*
X147650000Y-109134652D01*
X147706452Y-109343083D01*
X147705831Y-109372508D01*
X147707930Y-109401858D01*
X147705102Y-109407036D01*
X147704978Y-109412937D01*
X147688549Y-109437351D01*
X147674445Y-109463182D01*
X147669264Y-109466010D01*
X147665971Y-109470905D01*
X147638954Y-109482560D01*
X147613122Y-109496666D01*
X147603982Y-109497648D01*
X147601817Y-109498583D01*
X147599246Y-109498157D01*
X147586764Y-109499500D01*
X146811919Y-109499500D01*
X146744880Y-109479815D01*
X146699125Y-109427011D01*
X146689181Y-109357853D01*
X146718206Y-109294297D01*
X146764466Y-109260939D01*
X146766418Y-109260130D01*
X146766420Y-109260130D01*
X146957598Y-109180941D01*
X147129655Y-109065977D01*
X147275977Y-108919655D01*
X147390941Y-108747598D01*
X147411439Y-108698112D01*
X147455279Y-108643708D01*
X147521573Y-108621643D01*
X147589273Y-108638922D01*
G37*
%TD.AperFunction*%
%TA.AperFunction,NonConductor*%
G36*
X134589273Y-108638922D02*
G01*
X134636884Y-108690059D01*
X134650000Y-108745564D01*
X134650000Y-109134652D01*
X134706452Y-109343083D01*
X134705831Y-109372508D01*
X134707930Y-109401858D01*
X134705102Y-109407036D01*
X134704978Y-109412937D01*
X134688549Y-109437351D01*
X134674445Y-109463182D01*
X134669264Y-109466010D01*
X134665971Y-109470905D01*
X134638954Y-109482560D01*
X134613122Y-109496666D01*
X134603982Y-109497648D01*
X134601817Y-109498583D01*
X134599246Y-109498157D01*
X134586764Y-109499500D01*
X133811919Y-109499500D01*
X133744880Y-109479815D01*
X133699125Y-109427011D01*
X133689181Y-109357853D01*
X133718206Y-109294297D01*
X133764466Y-109260939D01*
X133766418Y-109260130D01*
X133766420Y-109260130D01*
X133957598Y-109180941D01*
X134129655Y-109065977D01*
X134275977Y-108919655D01*
X134390941Y-108747598D01*
X134411439Y-108698112D01*
X134455279Y-108643708D01*
X134521573Y-108621643D01*
X134589273Y-108638922D01*
G37*
%TD.AperFunction*%
%TA.AperFunction,NonConductor*%
G36*
X133236872Y-106460611D02*
G01*
X133292805Y-106502483D01*
X133317222Y-106567947D01*
X133313313Y-106608886D01*
X133299500Y-106660437D01*
X133299500Y-107109080D01*
X133279815Y-107176119D01*
X133227011Y-107221874D01*
X133199692Y-107230697D01*
X133153585Y-107239868D01*
X133153579Y-107239870D01*
X132962403Y-107319058D01*
X132790342Y-107434024D01*
X132644024Y-107580342D01*
X132529058Y-107752403D01*
X132449870Y-107943579D01*
X132449868Y-107943587D01*
X132409500Y-108146530D01*
X132409500Y-108353469D01*
X132449868Y-108556412D01*
X132449870Y-108556420D01*
X132529058Y-108747596D01*
X132644024Y-108919657D01*
X132790342Y-109065975D01*
X132790345Y-109065977D01*
X132962402Y-109180941D01*
X133153580Y-109260130D01*
X133153581Y-109260130D01*
X133155534Y-109260939D01*
X133209937Y-109304780D01*
X133232002Y-109371074D01*
X133214723Y-109438773D01*
X133163586Y-109486384D01*
X133108081Y-109499500D01*
X131271919Y-109499500D01*
X131204880Y-109479815D01*
X131159125Y-109427011D01*
X131149181Y-109357853D01*
X131178206Y-109294297D01*
X131224466Y-109260939D01*
X131226418Y-109260130D01*
X131226420Y-109260130D01*
X131417598Y-109180941D01*
X131589655Y-109065977D01*
X131735977Y-108919655D01*
X131850941Y-108747598D01*
X131930130Y-108556420D01*
X131970500Y-108353465D01*
X131970500Y-108146535D01*
X131930130Y-107943580D01*
X131880194Y-107823026D01*
X131872726Y-107753559D01*
X131904001Y-107691080D01*
X131907047Y-107687922D01*
X133105859Y-106489110D01*
X133167180Y-106455627D01*
X133236872Y-106460611D01*
G37*
%TD.AperFunction*%
M02*
