%TF.GenerationSoftware,KiCad,Pcbnew,9.0.7+1*%
%TF.CreationDate,Date%
%TF.ProjectId,DumbFCC,44756d62-4643-4432-9e6b-696361645f70,1.0.0*%
%TF.SameCoordinates,Original*%
%TF.FileFunction,Paste,Top*%
%TF.FilePolarity,Positive*%
%FSLAX46Y46*%
G04 Gerber Fmt 4.6, Leading zero omitted, Abs format (unit mm)*
G04 Created by KiCad*
%MOMM*%
%LPD*%
G01*
G04 APERTURE LIST*
G04 Aperture macros list*
%AMRoundRect*
0 Rectangle with rounded corners*
0 $1 Rounding radius*
0 $2 $3 $4 $5 $6 $7 $8 $9 X,Y pos of 4 corners*
0 Add a 4 corners polygon primitive as box body*
4,1,4,$2,$3,$4,$5,$6,$7,$8,$9,$2,$3,0*
0 Add four circle primitives for the rounded corners*
1,1,$1+$1,$2,$3*
1,1,$1+$1,$4,$5*
1,1,$1+$1,$6,$7*
1,1,$1+$1,$8,$9*
0 Add four rect primitives between the rounded corners*
20,1,$1+$1,$2,$3,$4,$5,0*
20,1,$1+$1,$4,$5,$6,$7,0*
20,1,$1+$1,$6,$7,$8,$9,0*
20,1,$1+$1,$8,$9,$2,$3,0*%
G04 Aperture macros list end*
%ADD10RoundRect,0.250000X0.070711X0.565685X-0.565685X-0.070711X-0.070711X-0.565685X0.565685X0.070711X0*%
%ADD11RoundRect,0.125000X-0.125000X0.125000X-0.125000X-0.125000X0.125000X-0.125000X0.125000X0.125000X0*%
%ADD12RoundRect,0.250000X-0.262500X-0.450000X0.262500X-0.450000X0.262500X0.450000X-0.262500X0.450000X0*%
%ADD13RoundRect,0.250000X-0.159099X0.512652X-0.512652X0.159099X0.159099X-0.512652X0.512652X-0.159099X0*%
%ADD14RoundRect,0.250000X-0.475000X0.250000X-0.475000X-0.250000X0.475000X-0.250000X0.475000X0.250000X0*%
%ADD15R,1.143000X0.609600*%
%ADD16R,1.143000X0.304800*%
%ADD17RoundRect,0.243750X0.456250X-0.243750X0.456250X0.243750X-0.456250X0.243750X-0.456250X-0.243750X0*%
%ADD18RoundRect,0.075000X-0.441942X-0.548008X0.548008X0.441942X0.441942X0.548008X-0.548008X-0.441942X0*%
%ADD19RoundRect,0.075000X0.441942X-0.548008X0.548008X-0.441942X-0.441942X0.548008X-0.548008X0.441942X0*%
%ADD20RoundRect,0.250000X-1.050000X-0.550000X1.050000X-0.550000X1.050000X0.550000X-1.050000X0.550000X0*%
%ADD21RoundRect,0.250000X0.450000X-0.262500X0.450000X0.262500X-0.450000X0.262500X-0.450000X-0.262500X0*%
%ADD22RoundRect,0.250000X0.512652X0.159099X0.159099X0.512652X-0.512652X-0.159099X-0.159099X-0.512652X0*%
%ADD23R,0.950000X0.550000*%
%ADD24RoundRect,0.150000X0.150000X-0.512500X0.150000X0.512500X-0.150000X0.512500X-0.150000X-0.512500X0*%
%ADD25R,0.375000X0.350000*%
%ADD26R,0.350000X0.375000*%
%ADD27RoundRect,0.250000X0.159099X-0.512652X0.512652X-0.159099X-0.159099X0.512652X-0.512652X0.159099X0*%
%ADD28RoundRect,0.250000X0.262500X0.450000X-0.262500X0.450000X-0.262500X-0.450000X0.262500X-0.450000X0*%
%ADD29RoundRect,0.250000X-0.450000X0.262500X-0.450000X-0.262500X0.450000X-0.262500X0.450000X0.262500X0*%
%ADD30RoundRect,0.243750X-0.243750X-0.456250X0.243750X-0.456250X0.243750X0.456250X-0.243750X0.456250X0*%
%ADD31RoundRect,0.218750X0.218750X0.381250X-0.218750X0.381250X-0.218750X-0.381250X0.218750X-0.381250X0*%
%ADD32RoundRect,0.250000X-0.250000X-0.475000X0.250000X-0.475000X0.250000X0.475000X-0.250000X0.475000X0*%
%ADD33RoundRect,0.250000X-0.132583X0.503814X-0.503814X0.132583X0.132583X-0.503814X0.503814X-0.132583X0*%
%ADD34RoundRect,0.087500X-0.225000X-0.087500X0.225000X-0.087500X0.225000X0.087500X-0.225000X0.087500X0*%
%ADD35RoundRect,0.087500X-0.087500X-0.225000X0.087500X-0.225000X0.087500X0.225000X-0.087500X0.225000X0*%
%ADD36RoundRect,0.250000X0.475000X-0.250000X0.475000X0.250000X-0.475000X0.250000X-0.475000X-0.250000X0*%
%ADD37RoundRect,0.250000X0.250000X0.475000X-0.250000X0.475000X-0.250000X-0.475000X0.250000X-0.475000X0*%
%ADD38RoundRect,0.250000X1.131371X-0.353553X-0.353553X1.131371X-1.131371X0.353553X0.353553X-1.131371X0*%
%ADD39RoundRect,0.243750X-0.456250X0.243750X-0.456250X-0.243750X0.456250X-0.243750X0.456250X0.243750X0*%
%ADD40RoundRect,0.250000X-0.512652X-0.159099X-0.159099X-0.512652X0.512652X0.159099X0.159099X0.512652X0*%
%ADD41R,1.500000X1.100000*%
%ADD42RoundRect,0.250000X0.132583X-0.503814X0.503814X-0.132583X-0.132583X0.503814X-0.503814X0.132583X0*%
G04 APERTURE END LIST*
D10*
%TO.C,Y200*%
X144376777Y-90821142D03*
X142821142Y-92376777D03*
X144023223Y-93578858D03*
X145578858Y-92023223D03*
%TD*%
D11*
%TO.C,D500*%
X172600000Y-78400000D03*
X172600000Y-80600000D03*
%TD*%
D12*
%TO.C,R501*%
X161975000Y-65800000D03*
X163800000Y-65800000D03*
%TD*%
D13*
%TO.C,C207*%
X142871751Y-89528249D03*
X141528249Y-90871751D03*
%TD*%
D14*
%TO.C,C305*%
X133800000Y-86050000D03*
X133800000Y-87950000D03*
%TD*%
D15*
%TO.C,J506*%
X178696801Y-81200001D03*
X178696801Y-80400000D03*
D16*
X178696801Y-79250000D03*
X178696801Y-78250000D03*
X178696801Y-77750000D03*
X178696801Y-76750000D03*
D15*
X178696801Y-74800001D03*
X178696801Y-75600000D03*
D16*
X178696801Y-76249940D03*
X178696801Y-77249941D03*
X178696801Y-78749940D03*
X178696801Y-79749941D03*
%TD*%
D13*
%TO.C,C203*%
X159171751Y-91828249D03*
X157828249Y-93171751D03*
%TD*%
D17*
%TO.C,D404*%
X160000000Y-104525000D03*
X160000000Y-102650000D03*
%TD*%
D18*
%TO.C,U200*%
X148335519Y-86361181D03*
X148689072Y-86714734D03*
X149042625Y-87068287D03*
X149396179Y-87421841D03*
X149749732Y-87775394D03*
X150103286Y-88128948D03*
X150456839Y-88482501D03*
X150810392Y-88836054D03*
X151163946Y-89189608D03*
X151517499Y-89543161D03*
X151871052Y-89896714D03*
X152224606Y-90250268D03*
X152578159Y-90603821D03*
X152931713Y-90957375D03*
X153285266Y-91310928D03*
X153638819Y-91664481D03*
D19*
X156361181Y-91664481D03*
X156714734Y-91310928D03*
X157068287Y-90957375D03*
X157421841Y-90603821D03*
X157775394Y-90250268D03*
X158128948Y-89896714D03*
X158482501Y-89543161D03*
X158836054Y-89189608D03*
X159189608Y-88836054D03*
X159543161Y-88482501D03*
X159896714Y-88128948D03*
X160250268Y-87775394D03*
X160603821Y-87421841D03*
X160957375Y-87068287D03*
X161310928Y-86714734D03*
X161664481Y-86361181D03*
D18*
X161664481Y-83638819D03*
X161310928Y-83285266D03*
X160957375Y-82931713D03*
X160603821Y-82578159D03*
X160250268Y-82224606D03*
X159896714Y-81871052D03*
X159543161Y-81517499D03*
X159189608Y-81163946D03*
X158836054Y-80810392D03*
X158482501Y-80456839D03*
X158128948Y-80103286D03*
X157775394Y-79749732D03*
X157421841Y-79396179D03*
X157068287Y-79042625D03*
X156714734Y-78689072D03*
X156361181Y-78335519D03*
D19*
X153638819Y-78335519D03*
X153285266Y-78689072D03*
X152931713Y-79042625D03*
X152578159Y-79396179D03*
X152224606Y-79749732D03*
X151871052Y-80103286D03*
X151517499Y-80456839D03*
X151163946Y-80810392D03*
X150810392Y-81163946D03*
X150456839Y-81517499D03*
X150103286Y-81871052D03*
X149749732Y-82224606D03*
X149396179Y-82578159D03*
X149042625Y-82931713D03*
X148689072Y-83285266D03*
X148335519Y-83638819D03*
%TD*%
D20*
%TO.C,C307*%
X133200000Y-71000000D03*
X136800000Y-71000000D03*
%TD*%
D14*
%TO.C,C100*%
X178500000Y-95050000D03*
X178500000Y-96950000D03*
%TD*%
D21*
%TO.C,R402*%
X163500000Y-108262500D03*
X163500000Y-106437500D03*
%TD*%
D22*
%TO.C,C204*%
X152171751Y-93171751D03*
X150828249Y-91828249D03*
%TD*%
D23*
%TO.C,U302*%
X124925000Y-83625000D03*
X124925000Y-84875000D03*
X124925000Y-86125000D03*
X124925000Y-87375000D03*
X127075000Y-87375000D03*
X127075000Y-86125000D03*
X127075000Y-84875000D03*
X127075000Y-83625000D03*
%TD*%
D21*
%TO.C,R406*%
X160000000Y-108250000D03*
X160000000Y-106425000D03*
%TD*%
D12*
%TO.C,R302*%
X125087500Y-92000000D03*
X126912500Y-92000000D03*
%TD*%
D24*
%TO.C,U100*%
X176550000Y-93137500D03*
X177500000Y-93137500D03*
X178450000Y-93137500D03*
X178450000Y-90862500D03*
X177500000Y-90862500D03*
X176550000Y-90862500D03*
%TD*%
D14*
%TO.C,C101*%
X175000000Y-95050000D03*
X175000000Y-96950000D03*
%TD*%
D21*
%TO.C,R504*%
X175500000Y-76262500D03*
X175500000Y-74437500D03*
%TD*%
D25*
%TO.C,U300*%
X130237500Y-77750000D03*
X130237500Y-78250000D03*
X130237500Y-78750000D03*
X130237500Y-79250000D03*
D26*
X130750000Y-79262500D03*
X131250000Y-79262500D03*
D25*
X131762500Y-79250000D03*
X131762500Y-78750000D03*
X131762500Y-78250000D03*
X131762500Y-77750000D03*
D26*
X131250000Y-77737500D03*
X130750000Y-77737500D03*
%TD*%
D27*
%TO.C,C205*%
X145828249Y-83171751D03*
X147171751Y-81828249D03*
%TD*%
D28*
%TO.C,R201*%
X153775000Y-71900000D03*
X151950000Y-71900000D03*
%TD*%
D29*
%TO.C,R401*%
X136000000Y-97337500D03*
X136000000Y-99162500D03*
%TD*%
D30*
%TO.C,D502*%
X175062500Y-85000000D03*
X176937500Y-85000000D03*
%TD*%
D31*
%TO.C,FB500*%
X181062500Y-85000000D03*
X178937500Y-85000000D03*
%TD*%
D29*
%TO.C,R503*%
X175550000Y-79237500D03*
X175550000Y-81062500D03*
%TD*%
D11*
%TO.C,D501*%
X172600000Y-75100000D03*
X172600000Y-77300000D03*
%TD*%
D14*
%TO.C,C306*%
X122900000Y-83500000D03*
X122900000Y-85400000D03*
%TD*%
D13*
%TO.C,C208*%
X146871751Y-93528249D03*
X145528249Y-94871751D03*
%TD*%
D28*
%TO.C,R300*%
X131412500Y-92000000D03*
X129587500Y-92000000D03*
%TD*%
D32*
%TO.C,C401*%
X151550000Y-101400000D03*
X153450000Y-101400000D03*
%TD*%
D33*
%TO.C,R200*%
X148345235Y-89554765D03*
X147054765Y-90845235D03*
%TD*%
D34*
%TO.C,U301*%
X129837500Y-84250000D03*
X129837500Y-84750000D03*
X129837500Y-85250000D03*
X129837500Y-85750000D03*
D35*
X130500000Y-85912500D03*
X131000000Y-85912500D03*
X131500000Y-85912500D03*
D34*
X132162500Y-85750000D03*
X132162500Y-85250000D03*
X132162500Y-84750000D03*
X132162500Y-84250000D03*
D35*
X131500000Y-84087500D03*
X131000000Y-84087500D03*
X130500000Y-84087500D03*
%TD*%
D36*
%TO.C,C300*%
X133500000Y-79950000D03*
X133500000Y-78050000D03*
%TD*%
D32*
%TO.C,C303*%
X129750000Y-81300000D03*
X131650000Y-81300000D03*
%TD*%
D17*
%TO.C,D402*%
X170500000Y-104537500D03*
X170500000Y-102662500D03*
%TD*%
D37*
%TO.C,C304*%
X131950000Y-87500000D03*
X130050000Y-87500000D03*
%TD*%
D21*
%TO.C,R404*%
X170500000Y-108262500D03*
X170500000Y-106437500D03*
%TD*%
D13*
%TO.C,C202*%
X164171751Y-86828249D03*
X162828249Y-88171751D03*
%TD*%
D38*
%TO.C,C200*%
X142772792Y-85272792D03*
X140227208Y-82727208D03*
%TD*%
D32*
%TO.C,C308*%
X134000000Y-76000000D03*
X135900000Y-76000000D03*
%TD*%
D17*
%TO.C,D403*%
X174000000Y-104537500D03*
X174000000Y-102662500D03*
%TD*%
D39*
%TO.C,D100*%
X171500000Y-91062500D03*
X171500000Y-92937500D03*
%TD*%
D21*
%TO.C,R400*%
X136000000Y-103662500D03*
X136000000Y-101837500D03*
%TD*%
D40*
%TO.C,C201*%
X156828249Y-75828249D03*
X158171751Y-77171751D03*
%TD*%
D33*
%TO.C,R303*%
X148645235Y-75354765D03*
X147354765Y-76645235D03*
%TD*%
D21*
%TO.C,R403*%
X167000000Y-108262500D03*
X167000000Y-106437500D03*
%TD*%
%TO.C,R100*%
X171500000Y-96912500D03*
X171500000Y-95087500D03*
%TD*%
D41*
%TO.C,SW400*%
X133450000Y-101770000D03*
X133450000Y-99230000D03*
X124550000Y-101770000D03*
X124550000Y-99230000D03*
%TD*%
D17*
%TO.C,D401*%
X167000000Y-104537500D03*
X167000000Y-102662500D03*
%TD*%
D42*
%TO.C,R304*%
X144854765Y-79145235D03*
X146145235Y-77854765D03*
%TD*%
D21*
%TO.C,R405*%
X174000000Y-108262500D03*
X174000000Y-106437500D03*
%TD*%
D28*
%TO.C,R500*%
X168312500Y-65800000D03*
X166487500Y-65800000D03*
%TD*%
D17*
%TO.C,D400*%
X163500000Y-104537500D03*
X163500000Y-102662500D03*
%TD*%
M02*
