%TF.GenerationSoftware,KiCad,Pcbnew,9.0.7+1*%
%TF.CreationDate,Date%
%TF.ProjectId,DumbFCC,44756d62-4643-4432-9e6b-696361645f70,+ (Unreleased)*%
%TF.SameCoordinates,Original*%
%TF.FileFunction,Copper,L3,Inr*%
%TF.FilePolarity,Positive*%
%FSLAX46Y46*%
G04 Gerber Fmt 4.6, Leading zero omitted, Abs format (unit mm)*
G04 Created by KiCad*
%MOMM*%
%LPD*%
G01*
G04 APERTURE LIST*
%TA.AperFunction,ComponentPad*%
%ADD10R,1.700000X1.700000*%
%TD*%
%TA.AperFunction,ComponentPad*%
%ADD11C,1.700000*%
%TD*%
%TA.AperFunction,ComponentPad*%
%ADD12C,1.308000*%
%TD*%
%TA.AperFunction,WasherPad*%
%ADD13O,1.803400X0.990600*%
%TD*%
%TA.AperFunction,WasherPad*%
%ADD14O,2.209800X0.990600*%
%TD*%
%TA.AperFunction,ComponentPad*%
%ADD15R,1.950000X1.950000*%
%TD*%
%TA.AperFunction,ComponentPad*%
%ADD16C,1.950000*%
%TD*%
%TA.AperFunction,ComponentPad*%
%ADD17C,3.600000*%
%TD*%
%TA.AperFunction,ComponentPad*%
%ADD18C,1.400000*%
%TD*%
%TA.AperFunction,ViaPad*%
%ADD19C,0.700000*%
%TD*%
G04 APERTURE END LIST*
D10*
%TO.N,GND*%
%TO.C,J100*%
X183000000Y-92275000D03*
D11*
%TO.N,+5V*%
X183000000Y-89735000D03*
%TD*%
D12*
%TO.N,/Project Architecture/MCU/BUZZ*%
%TO.C,BZ400*%
X162900000Y-71980750D03*
%TO.N,GND*%
X167900000Y-71980750D03*
%TD*%
D10*
%TO.N,GND*%
%TO.C,J300*%
X149000000Y-108250000D03*
D11*
%TO.N,/Project Architecture/MCU/ECHO*%
X146460000Y-108250000D03*
%TO.N,/Project Architecture/MCU/TRIG*%
X143920000Y-108250000D03*
%TO.N,+5V*%
X141380000Y-108250000D03*
%TD*%
D13*
%TO.N,*%
%TO.C,J506*%
X179271800Y-82320000D03*
D14*
X183271801Y-82320000D03*
D13*
X179271800Y-73680000D03*
D14*
X183271801Y-73680000D03*
%TD*%
D10*
%TO.N,GND*%
%TO.C,J501*%
X136000000Y-108250000D03*
D11*
%TO.N,/Project Architecture/Connections/UART_TX*%
X133460000Y-108250000D03*
%TO.N,/Project Architecture/Connections/UART_RX*%
X130920000Y-108250000D03*
%TO.N,+3V3*%
X128380000Y-108250000D03*
%TD*%
D15*
%TO.N,/Project Architecture/Connections/NRST*%
%TO.C,SW401*%
X149200000Y-97400000D03*
D16*
%TO.N,GND*%
X155700000Y-97400000D03*
%TD*%
D17*
%TO.N,GND*%
%TO.C,H201*%
X180000000Y-65000000D03*
%TD*%
D18*
%TO.N,/Project Architecture/MCU/BOOT*%
%TO.C,JP200*%
X151602500Y-74300000D03*
%TO.N,+3V3*%
X154142500Y-74300000D03*
%TD*%
D10*
%TO.N,/Project Architecture/Connections/PWM_1*%
%TO.C,J504*%
X152960000Y-64275000D03*
D11*
%TO.N,/Project Architecture/Connections/PWM_2*%
X152960000Y-61735000D03*
%TO.N,+5V*%
X155500000Y-64275000D03*
X155500000Y-61735000D03*
%TO.N,GND*%
X158040000Y-64275000D03*
X158040000Y-61735000D03*
%TD*%
D17*
%TO.N,GND*%
%TO.C,H202*%
X119500000Y-105000000D03*
%TD*%
%TO.N,GND*%
%TO.C,H203*%
X180000000Y-105500000D03*
%TD*%
%TO.N,GND*%
%TO.C,H200*%
X120000000Y-65000000D03*
%TD*%
D10*
%TO.N,GND*%
%TO.C,J500*%
X139880000Y-61750000D03*
D11*
%TO.N,/Project Architecture/Connections/SWDIO*%
X142420000Y-61750000D03*
%TO.N,/Project Architecture/Connections/SWCLK*%
X144960000Y-61750000D03*
%TO.N,/Project Architecture/Connections/NRST*%
X147500000Y-61750000D03*
%TD*%
D10*
%TO.N,/Project Architecture/Connections/I2C_PERIPH_SCL*%
%TO.C,J502*%
X163880000Y-61750000D03*
D11*
%TO.N,/Project Architecture/Connections/I2C_PERIPH_SDA*%
X166420000Y-61750000D03*
%TO.N,+3V3*%
X168960000Y-61750000D03*
%TO.N,GND*%
X171500000Y-61750000D03*
%TD*%
D10*
%TO.N,/Project Architecture/Connections/CANH*%
%TO.C,J503*%
X183000000Y-95975000D03*
D11*
%TO.N,/Project Architecture/Connections/CANL*%
X183000000Y-98515000D03*
%TD*%
D10*
%TO.N,/Project Architecture/Connections/GIMB_PITCH*%
%TO.C,J505*%
X128460000Y-64275000D03*
D11*
%TO.N,/Project Architecture/Connections/GIMB_ROLL*%
X128460000Y-61735000D03*
%TO.N,+5V*%
X131000000Y-64275000D03*
X131000000Y-61735000D03*
%TO.N,GND*%
X133540000Y-64275000D03*
X133540000Y-61735000D03*
%TD*%
D19*
%TO.N,GND*%
X122000000Y-78000000D03*
X176000000Y-102500000D03*
X119000000Y-77000000D03*
X121000000Y-79000000D03*
X175000000Y-68500000D03*
X119500000Y-94000000D03*
X120000000Y-78000000D03*
X156000000Y-105000000D03*
X146000000Y-68500000D03*
X119500000Y-98000000D03*
X159000000Y-71500000D03*
X145000000Y-100000000D03*
X120000000Y-80000000D03*
X165000000Y-97000000D03*
X126900000Y-89600000D03*
X120500000Y-95000000D03*
X174000000Y-67500000D03*
X118500000Y-95000000D03*
X144000000Y-99000000D03*
X128900000Y-85300000D03*
X177000000Y-101500000D03*
X125000000Y-68000000D03*
X146000000Y-99000000D03*
X121000000Y-77000000D03*
X176000000Y-69500000D03*
X137500000Y-64500000D03*
X174000000Y-69500000D03*
X173000000Y-66500000D03*
X162000000Y-100000000D03*
X120000000Y-76000000D03*
X119000000Y-79000000D03*
X165000000Y-100000000D03*
X118500000Y-97000000D03*
X118000000Y-78000000D03*
X165500000Y-98500000D03*
X145000000Y-98000000D03*
X119500000Y-96000000D03*
X120500000Y-97000000D03*
%TO.N,/Project Architecture/MCU/BUZZ*%
X157100000Y-84300000D03*
%TO.N,+3V3*%
X170500000Y-68000000D03*
X138300000Y-86700000D03*
X129000000Y-87500000D03*
X172500000Y-98600000D03*
X132900000Y-92000000D03*
X169000000Y-80100000D03*
%TO.N,+5V*%
X170700000Y-88800000D03*
%TO.N,/Project Architecture/Connections/NRST*%
X154400000Y-82100000D03*
%TO.N,/Project Architecture/Connections/UART_RX*%
X154391986Y-90500000D03*
%TO.N,/Project Architecture/Connections/UART_TX*%
X155000000Y-91500000D03*
%TO.N,/Project Architecture/Connections/PWM_2*%
X158700000Y-83100000D03*
%TO.N,/Project Architecture/Connections/PWM_1*%
X159500000Y-83500000D03*
%TO.N,/Project Architecture/Connections/GIMB_PITCH*%
X150900000Y-77300000D03*
%TO.N,/Project Architecture/Connections/GIMB_ROLL*%
X149850000Y-77550000D03*
%TO.N,/Project Architecture/Connections/SWCLK*%
X153800000Y-77400000D03*
%TO.N,/Project Architecture/Connections/SWDIO*%
X155250000Y-80150000D03*
%TO.N,/Project Architecture/MCU/I2C_SENS_SDA*%
X129300000Y-79250000D03*
X126000000Y-80200000D03*
X140300000Y-72500000D03*
%TO.N,/Project Architecture/MCU/LED_ERR*%
X159900000Y-98400000D03*
X150000000Y-95000000D03*
%TO.N,/Project Architecture/MCU/I2C_SENS_SCL*%
X127200000Y-80200000D03*
X130300000Y-75400000D03*
X140400000Y-76000000D03*
%TO.N,/Project Architecture/MCU/MAG_INT*%
X156450000Y-81050000D03*
X133400000Y-81400000D03*
%TO.N,/Project Architecture/MCU/IMU_INT_2*%
X140400000Y-77600000D03*
X152096194Y-77500000D03*
%TO.N,/Project Architecture/MCU/IMU_INT_1*%
X157500000Y-82000000D03*
X128800000Y-86500000D03*
%TO.N,/Project Architecture/Connections/CAN_TX*%
X163600000Y-82100000D03*
%TO.N,/Project Architecture/Connections/CAN_RX*%
X165000000Y-82900000D03*
%TO.N,/Project Architecture/MCU/SPI_MISO*%
X156300000Y-88100000D03*
%TO.N,/Project Architecture/MCU/CS_SD*%
X154500000Y-87800000D03*
%TO.N,/Project Architecture/MCU/SPI_SCK*%
X155700000Y-88900000D03*
%TO.N,/Project Architecture/MCU/SPI_MOSI*%
X157100000Y-87600000D03*
%TO.N,/Project Architecture/MCU/CS_FLASH*%
X155600000Y-90100000D03*
%TO.N,/Project Architecture/Connections/I2C_PERIPH_SDA*%
X165900000Y-68200000D03*
X164750000Y-79750000D03*
%TO.N,/Project Architecture/Connections/I2C_PERIPH_SCL*%
X163662500Y-79562500D03*
X164400000Y-68300000D03*
%TD*%
%TA.AperFunction,Conductor*%
%TO.N,GND*%
G36*
X128345902Y-60520185D02*
G01*
X128391657Y-60572989D01*
X128401601Y-60642147D01*
X128372576Y-60705703D01*
X128313798Y-60743477D01*
X128303055Y-60746117D01*
X128168170Y-60772947D01*
X128168160Y-60772950D01*
X127986092Y-60848364D01*
X127986079Y-60848371D01*
X127822218Y-60957860D01*
X127822214Y-60957863D01*
X127682863Y-61097214D01*
X127682860Y-61097218D01*
X127573371Y-61261079D01*
X127573364Y-61261092D01*
X127497950Y-61443160D01*
X127497947Y-61443170D01*
X127459500Y-61636456D01*
X127459500Y-61636459D01*
X127459500Y-61833541D01*
X127459500Y-61833543D01*
X127459499Y-61833543D01*
X127497947Y-62026829D01*
X127497950Y-62026839D01*
X127573364Y-62208907D01*
X127573371Y-62208920D01*
X127682860Y-62372781D01*
X127682863Y-62372785D01*
X127822214Y-62512136D01*
X127822218Y-62512139D01*
X127986079Y-62621628D01*
X127986092Y-62621635D01*
X128168160Y-62697049D01*
X128168165Y-62697051D01*
X128168169Y-62697051D01*
X128168170Y-62697052D01*
X128361456Y-62735500D01*
X128361459Y-62735500D01*
X128558543Y-62735500D01*
X128688582Y-62709632D01*
X128751835Y-62697051D01*
X128933914Y-62621632D01*
X129097782Y-62512139D01*
X129237139Y-62372782D01*
X129346632Y-62208914D01*
X129422051Y-62026835D01*
X129445317Y-61909872D01*
X129460500Y-61833543D01*
X129460500Y-61636456D01*
X129422052Y-61443170D01*
X129422051Y-61443169D01*
X129422051Y-61443165D01*
X129397997Y-61385092D01*
X129346635Y-61261092D01*
X129346628Y-61261079D01*
X129237139Y-61097218D01*
X129237136Y-61097214D01*
X129097785Y-60957863D01*
X129097781Y-60957860D01*
X128933920Y-60848371D01*
X128933907Y-60848364D01*
X128751839Y-60772950D01*
X128751829Y-60772947D01*
X128616945Y-60746117D01*
X128555035Y-60713732D01*
X128520460Y-60653016D01*
X128524200Y-60583247D01*
X128565067Y-60526575D01*
X128630085Y-60500994D01*
X128641137Y-60500500D01*
X130818863Y-60500500D01*
X130885902Y-60520185D01*
X130931657Y-60572989D01*
X130941601Y-60642147D01*
X130912576Y-60705703D01*
X130853798Y-60743477D01*
X130843055Y-60746117D01*
X130708170Y-60772947D01*
X130708160Y-60772950D01*
X130526092Y-60848364D01*
X130526079Y-60848371D01*
X130362218Y-60957860D01*
X130362214Y-60957863D01*
X130222863Y-61097214D01*
X130222860Y-61097218D01*
X130113371Y-61261079D01*
X130113364Y-61261092D01*
X130037950Y-61443160D01*
X130037947Y-61443170D01*
X129999500Y-61636456D01*
X129999500Y-61636459D01*
X129999500Y-61833541D01*
X129999500Y-61833543D01*
X129999499Y-61833543D01*
X130037947Y-62026829D01*
X130037950Y-62026839D01*
X130113364Y-62208907D01*
X130113371Y-62208920D01*
X130222860Y-62372781D01*
X130222863Y-62372785D01*
X130362214Y-62512136D01*
X130362218Y-62512139D01*
X130526079Y-62621628D01*
X130526092Y-62621635D01*
X130708160Y-62697049D01*
X130708165Y-62697051D01*
X130708169Y-62697051D01*
X130708170Y-62697052D01*
X130901456Y-62735500D01*
X130901459Y-62735500D01*
X131098543Y-62735500D01*
X131228582Y-62709632D01*
X131291835Y-62697051D01*
X131473914Y-62621632D01*
X131637782Y-62512139D01*
X131777139Y-62372782D01*
X131886632Y-62208914D01*
X131962051Y-62026835D01*
X131969852Y-61987615D01*
X132002236Y-61925707D01*
X132062952Y-61891133D01*
X132132721Y-61894872D01*
X132189394Y-61935738D01*
X132213942Y-61992411D01*
X132223242Y-62051127D01*
X132223242Y-62051130D01*
X132288904Y-62253217D01*
X132385375Y-62442550D01*
X132424728Y-62496716D01*
X133057037Y-61864408D01*
X133074075Y-61927993D01*
X133139901Y-62042007D01*
X133232993Y-62135099D01*
X133347007Y-62200925D01*
X133410591Y-62217962D01*
X132809971Y-62818581D01*
X132888711Y-62935895D01*
X132889920Y-62939729D01*
X132892844Y-62942491D01*
X132900343Y-62972778D01*
X132909727Y-63002529D01*
X132908671Y-63006408D01*
X132909638Y-63010312D01*
X132899573Y-63039844D01*
X132891383Y-63069947D01*
X132888397Y-63072640D01*
X132887100Y-63076447D01*
X132842051Y-63115483D01*
X132832440Y-63120380D01*
X132778282Y-63159727D01*
X132778282Y-63159728D01*
X133410591Y-63792037D01*
X133347007Y-63809075D01*
X133232993Y-63874901D01*
X133139901Y-63967993D01*
X133074075Y-64082007D01*
X133057037Y-64145591D01*
X132424728Y-63513282D01*
X132424727Y-63513282D01*
X132385380Y-63567439D01*
X132288904Y-63756782D01*
X132223242Y-63958869D01*
X132223242Y-63958870D01*
X132213942Y-64017589D01*
X132184012Y-64080723D01*
X132124700Y-64117654D01*
X132054838Y-64116656D01*
X131996605Y-64078046D01*
X131969852Y-64022381D01*
X131962052Y-63983172D01*
X131962052Y-63983170D01*
X131962051Y-63983165D01*
X131951987Y-63958869D01*
X131886635Y-63801092D01*
X131886628Y-63801079D01*
X131777139Y-63637218D01*
X131777136Y-63637214D01*
X131637785Y-63497863D01*
X131637781Y-63497860D01*
X131473920Y-63388371D01*
X131473907Y-63388364D01*
X131291839Y-63312950D01*
X131291829Y-63312947D01*
X131098543Y-63274500D01*
X131098541Y-63274500D01*
X130901459Y-63274500D01*
X130901457Y-63274500D01*
X130708170Y-63312947D01*
X130708160Y-63312950D01*
X130526092Y-63388364D01*
X130526079Y-63388371D01*
X130362218Y-63497860D01*
X130362214Y-63497863D01*
X130222863Y-63637214D01*
X130222860Y-63637218D01*
X130113371Y-63801079D01*
X130113364Y-63801092D01*
X130037950Y-63983160D01*
X130037947Y-63983170D01*
X129999500Y-64176456D01*
X129999500Y-64176459D01*
X129999500Y-64373541D01*
X129999500Y-64373543D01*
X129999499Y-64373543D01*
X130037947Y-64566829D01*
X130037950Y-64566839D01*
X130113364Y-64748907D01*
X130113371Y-64748920D01*
X130222860Y-64912781D01*
X130222863Y-64912785D01*
X130362214Y-65052136D01*
X130362218Y-65052139D01*
X130526079Y-65161628D01*
X130526092Y-65161635D01*
X130708160Y-65237049D01*
X130708165Y-65237051D01*
X130708169Y-65237051D01*
X130708170Y-65237052D01*
X130901456Y-65275500D01*
X130901459Y-65275500D01*
X131098543Y-65275500D01*
X131228582Y-65249632D01*
X131291835Y-65237051D01*
X131473914Y-65161632D01*
X131637782Y-65052139D01*
X131777139Y-64912782D01*
X131886632Y-64748914D01*
X131962051Y-64566835D01*
X131969852Y-64527615D01*
X132002236Y-64465707D01*
X132062952Y-64431133D01*
X132132721Y-64434872D01*
X132189394Y-64475738D01*
X132213942Y-64532411D01*
X132223242Y-64591127D01*
X132223242Y-64591130D01*
X132288904Y-64793217D01*
X132385375Y-64982550D01*
X132424728Y-65036716D01*
X133057037Y-64404408D01*
X133074075Y-64467993D01*
X133139901Y-64582007D01*
X133232993Y-64675099D01*
X133347007Y-64740925D01*
X133410590Y-64757962D01*
X132778282Y-65390269D01*
X132778282Y-65390270D01*
X132832449Y-65429624D01*
X133021782Y-65526095D01*
X133223870Y-65591757D01*
X133433754Y-65625000D01*
X133646246Y-65625000D01*
X133856127Y-65591757D01*
X133856130Y-65591757D01*
X134058217Y-65526095D01*
X134247554Y-65429622D01*
X134301716Y-65390270D01*
X134301717Y-65390270D01*
X134051269Y-65139822D01*
X151959499Y-65139822D01*
X151968231Y-65183717D01*
X151968234Y-65183724D01*
X151998118Y-65228449D01*
X152001496Y-65233504D01*
X152051278Y-65266767D01*
X152051281Y-65266767D01*
X152051282Y-65266768D01*
X152095177Y-65275500D01*
X152095180Y-65275500D01*
X153824822Y-65275500D01*
X153868717Y-65266768D01*
X153868717Y-65266767D01*
X153868722Y-65266767D01*
X153918504Y-65233504D01*
X153951767Y-65183722D01*
X153960500Y-65139820D01*
X153960500Y-63410180D01*
X153960500Y-63410177D01*
X153951768Y-63366282D01*
X153951767Y-63366281D01*
X153951767Y-63366278D01*
X153918504Y-63316496D01*
X153913197Y-63312950D01*
X153868724Y-63283234D01*
X153868717Y-63283231D01*
X153824822Y-63274500D01*
X153824820Y-63274500D01*
X152095180Y-63274500D01*
X152095178Y-63274500D01*
X152051282Y-63283231D01*
X152051275Y-63283234D01*
X152001496Y-63316495D01*
X152001495Y-63316496D01*
X151968234Y-63366275D01*
X151968231Y-63366282D01*
X151959500Y-63410177D01*
X151959500Y-63410180D01*
X151959500Y-65139820D01*
X151959500Y-65139822D01*
X151959499Y-65139822D01*
X134051269Y-65139822D01*
X133669408Y-64757962D01*
X133732993Y-64740925D01*
X133847007Y-64675099D01*
X133940099Y-64582007D01*
X134005925Y-64467993D01*
X134022962Y-64404409D01*
X134655270Y-65036717D01*
X134655270Y-65036716D01*
X134694622Y-64982554D01*
X134791095Y-64793217D01*
X134856757Y-64591130D01*
X134856757Y-64591127D01*
X134890000Y-64381246D01*
X134890000Y-64168753D01*
X134856757Y-63958872D01*
X134856757Y-63958869D01*
X134791095Y-63756782D01*
X134694623Y-63567447D01*
X134694621Y-63567443D01*
X134655271Y-63513282D01*
X134655269Y-63513282D01*
X134022962Y-64145590D01*
X134005925Y-64082007D01*
X133940099Y-63967993D01*
X133847007Y-63874901D01*
X133732993Y-63809075D01*
X133669409Y-63792037D01*
X134301716Y-63159728D01*
X134247550Y-63120375D01*
X134237954Y-63115486D01*
X134187157Y-63067512D01*
X134170361Y-62999692D01*
X134192897Y-62933556D01*
X134237954Y-62894514D01*
X134247554Y-62889622D01*
X134301716Y-62850270D01*
X134301717Y-62850270D01*
X133669408Y-62217962D01*
X133732993Y-62200925D01*
X133847007Y-62135099D01*
X133940099Y-62042007D01*
X134005925Y-61927993D01*
X134022962Y-61864409D01*
X134655270Y-62496717D01*
X134655270Y-62496716D01*
X134694622Y-62442554D01*
X134791095Y-62253217D01*
X134856757Y-62051130D01*
X134856757Y-62051127D01*
X134876063Y-61929240D01*
X134890000Y-61841246D01*
X134890000Y-61628753D01*
X134856757Y-61418872D01*
X134856757Y-61418869D01*
X134791095Y-61216782D01*
X134694624Y-61027449D01*
X134655270Y-60973282D01*
X134655269Y-60973282D01*
X134022962Y-61605590D01*
X134005925Y-61542007D01*
X133940099Y-61427993D01*
X133847007Y-61334901D01*
X133732993Y-61269075D01*
X133669409Y-61252037D01*
X134307017Y-60614427D01*
X134317222Y-60565852D01*
X134366273Y-60516095D01*
X134426476Y-60500500D01*
X138466764Y-60500500D01*
X138533803Y-60520185D01*
X138579558Y-60572989D01*
X138589502Y-60642147D01*
X138582946Y-60667833D01*
X138536403Y-60792620D01*
X138536401Y-60792627D01*
X138530000Y-60852155D01*
X138530000Y-61500000D01*
X139446988Y-61500000D01*
X139414075Y-61557007D01*
X139380000Y-61684174D01*
X139380000Y-61815826D01*
X139414075Y-61942993D01*
X139446988Y-62000000D01*
X138530000Y-62000000D01*
X138530000Y-62647844D01*
X138536401Y-62707372D01*
X138536403Y-62707379D01*
X138586645Y-62842086D01*
X138586649Y-62842093D01*
X138672809Y-62957187D01*
X138672812Y-62957190D01*
X138787906Y-63043350D01*
X138787913Y-63043354D01*
X138922620Y-63093596D01*
X138922627Y-63093598D01*
X138982155Y-63099999D01*
X138982172Y-63100000D01*
X139630000Y-63100000D01*
X139630000Y-62183012D01*
X139687007Y-62215925D01*
X139814174Y-62250000D01*
X139945826Y-62250000D01*
X140072993Y-62215925D01*
X140130000Y-62183012D01*
X140130000Y-63100000D01*
X140777828Y-63100000D01*
X140777844Y-63099999D01*
X140837372Y-63093598D01*
X140837379Y-63093596D01*
X140972086Y-63043354D01*
X140972093Y-63043350D01*
X141087187Y-62957190D01*
X141087190Y-62957187D01*
X141173350Y-62842093D01*
X141173354Y-62842086D01*
X141223596Y-62707379D01*
X141223598Y-62707372D01*
X141229999Y-62647844D01*
X141230000Y-62647827D01*
X141230000Y-62114907D01*
X141249685Y-62047868D01*
X141302489Y-62002113D01*
X141371647Y-61992169D01*
X141435203Y-62021194D01*
X141468561Y-62067455D01*
X141533364Y-62223907D01*
X141533371Y-62223920D01*
X141642860Y-62387781D01*
X141642863Y-62387785D01*
X141782214Y-62527136D01*
X141782218Y-62527139D01*
X141946079Y-62636628D01*
X141946092Y-62636635D01*
X142128160Y-62712049D01*
X142128165Y-62712051D01*
X142128169Y-62712051D01*
X142128170Y-62712052D01*
X142321456Y-62750500D01*
X142321459Y-62750500D01*
X142518543Y-62750500D01*
X142648582Y-62724632D01*
X142711835Y-62712051D01*
X142893914Y-62636632D01*
X143057782Y-62527139D01*
X143197139Y-62387782D01*
X143306632Y-62223914D01*
X143382051Y-62041835D01*
X143405151Y-61925707D01*
X143420500Y-61848543D01*
X143959499Y-61848543D01*
X143997947Y-62041829D01*
X143997950Y-62041839D01*
X144073364Y-62223907D01*
X144073371Y-62223920D01*
X144182860Y-62387781D01*
X144182863Y-62387785D01*
X144322214Y-62527136D01*
X144322218Y-62527139D01*
X144486079Y-62636628D01*
X144486092Y-62636635D01*
X144668160Y-62712049D01*
X144668165Y-62712051D01*
X144668169Y-62712051D01*
X144668170Y-62712052D01*
X144861456Y-62750500D01*
X144861459Y-62750500D01*
X145058543Y-62750500D01*
X145188582Y-62724632D01*
X145251835Y-62712051D01*
X145433914Y-62636632D01*
X145597782Y-62527139D01*
X145737139Y-62387782D01*
X145846632Y-62223914D01*
X145922051Y-62041835D01*
X145945151Y-61925707D01*
X145960500Y-61848543D01*
X146499499Y-61848543D01*
X146537947Y-62041829D01*
X146537950Y-62041839D01*
X146613364Y-62223907D01*
X146613371Y-62223920D01*
X146722860Y-62387781D01*
X146722863Y-62387785D01*
X146862214Y-62527136D01*
X146862218Y-62527139D01*
X147026079Y-62636628D01*
X147026092Y-62636635D01*
X147208160Y-62712049D01*
X147208165Y-62712051D01*
X147208169Y-62712051D01*
X147208170Y-62712052D01*
X147401456Y-62750500D01*
X147401459Y-62750500D01*
X147598543Y-62750500D01*
X147728582Y-62724632D01*
X147791835Y-62712051D01*
X147973914Y-62636632D01*
X148137782Y-62527139D01*
X148277139Y-62387782D01*
X148386632Y-62223914D01*
X148462051Y-62041835D01*
X148485151Y-61925707D01*
X148500500Y-61848543D01*
X148500500Y-61651456D01*
X148462052Y-61458170D01*
X148462051Y-61458169D01*
X148462051Y-61458165D01*
X148451439Y-61432544D01*
X148386635Y-61276092D01*
X148386628Y-61276079D01*
X148277139Y-61112218D01*
X148277136Y-61112214D01*
X148137785Y-60972863D01*
X148137781Y-60972860D01*
X147973920Y-60863371D01*
X147973907Y-60863364D01*
X147791839Y-60787950D01*
X147791829Y-60787947D01*
X147598543Y-60749500D01*
X147598541Y-60749500D01*
X147401459Y-60749500D01*
X147401457Y-60749500D01*
X147208170Y-60787947D01*
X147208160Y-60787950D01*
X147026092Y-60863364D01*
X147026079Y-60863371D01*
X146862218Y-60972860D01*
X146862214Y-60972863D01*
X146722863Y-61112214D01*
X146722860Y-61112218D01*
X146613371Y-61276079D01*
X146613364Y-61276092D01*
X146537950Y-61458160D01*
X146537947Y-61458170D01*
X146499500Y-61651456D01*
X146499500Y-61651459D01*
X146499500Y-61848541D01*
X146499500Y-61848543D01*
X146499499Y-61848543D01*
X145960500Y-61848543D01*
X145960500Y-61651456D01*
X145922052Y-61458170D01*
X145922051Y-61458169D01*
X145922051Y-61458165D01*
X145911439Y-61432544D01*
X145846635Y-61276092D01*
X145846628Y-61276079D01*
X145737139Y-61112218D01*
X145737136Y-61112214D01*
X145597785Y-60972863D01*
X145597781Y-60972860D01*
X145433920Y-60863371D01*
X145433907Y-60863364D01*
X145251839Y-60787950D01*
X145251829Y-60787947D01*
X145058543Y-60749500D01*
X145058541Y-60749500D01*
X144861459Y-60749500D01*
X144861457Y-60749500D01*
X144668170Y-60787947D01*
X144668160Y-60787950D01*
X144486092Y-60863364D01*
X144486079Y-60863371D01*
X144322218Y-60972860D01*
X144322214Y-60972863D01*
X144182863Y-61112214D01*
X144182860Y-61112218D01*
X144073371Y-61276079D01*
X144073364Y-61276092D01*
X143997950Y-61458160D01*
X143997947Y-61458170D01*
X143959500Y-61651456D01*
X143959500Y-61651459D01*
X143959500Y-61848541D01*
X143959500Y-61848543D01*
X143959499Y-61848543D01*
X143420500Y-61848543D01*
X143420500Y-61651456D01*
X143382052Y-61458170D01*
X143382051Y-61458169D01*
X143382051Y-61458165D01*
X143371439Y-61432544D01*
X143306635Y-61276092D01*
X143306628Y-61276079D01*
X143197139Y-61112218D01*
X143197136Y-61112214D01*
X143057785Y-60972863D01*
X143057781Y-60972860D01*
X142893920Y-60863371D01*
X142893907Y-60863364D01*
X142711839Y-60787950D01*
X142711829Y-60787947D01*
X142518543Y-60749500D01*
X142518541Y-60749500D01*
X142321459Y-60749500D01*
X142321457Y-60749500D01*
X142128170Y-60787947D01*
X142128160Y-60787950D01*
X141946092Y-60863364D01*
X141946079Y-60863371D01*
X141782218Y-60972860D01*
X141782214Y-60972863D01*
X141642863Y-61112214D01*
X141642860Y-61112218D01*
X141533371Y-61276079D01*
X141533364Y-61276092D01*
X141468561Y-61432544D01*
X141424720Y-61486948D01*
X141358426Y-61509013D01*
X141290727Y-61491734D01*
X141243116Y-61440597D01*
X141230000Y-61385092D01*
X141230000Y-60852172D01*
X141229999Y-60852155D01*
X141223598Y-60792627D01*
X141223596Y-60792620D01*
X141177054Y-60667833D01*
X141172070Y-60598142D01*
X141205555Y-60536818D01*
X141266878Y-60503334D01*
X141293236Y-60500500D01*
X152778863Y-60500500D01*
X152845902Y-60520185D01*
X152891657Y-60572989D01*
X152901601Y-60642147D01*
X152872576Y-60705703D01*
X152813798Y-60743477D01*
X152803055Y-60746117D01*
X152668170Y-60772947D01*
X152668160Y-60772950D01*
X152486092Y-60848364D01*
X152486079Y-60848371D01*
X152322218Y-60957860D01*
X152322214Y-60957863D01*
X152182863Y-61097214D01*
X152182860Y-61097218D01*
X152073371Y-61261079D01*
X152073364Y-61261092D01*
X151997950Y-61443160D01*
X151997947Y-61443170D01*
X151959500Y-61636456D01*
X151959500Y-61636459D01*
X151959500Y-61833541D01*
X151959500Y-61833543D01*
X151959499Y-61833543D01*
X151997947Y-62026829D01*
X151997950Y-62026839D01*
X152073364Y-62208907D01*
X152073371Y-62208920D01*
X152182860Y-62372781D01*
X152182863Y-62372785D01*
X152322214Y-62512136D01*
X152322218Y-62512139D01*
X152486079Y-62621628D01*
X152486092Y-62621635D01*
X152668160Y-62697049D01*
X152668165Y-62697051D01*
X152668169Y-62697051D01*
X152668170Y-62697052D01*
X152861456Y-62735500D01*
X152861459Y-62735500D01*
X153058543Y-62735500D01*
X153188582Y-62709632D01*
X153251835Y-62697051D01*
X153433914Y-62621632D01*
X153597782Y-62512139D01*
X153737139Y-62372782D01*
X153846632Y-62208914D01*
X153922051Y-62026835D01*
X153945317Y-61909872D01*
X153960500Y-61833543D01*
X153960500Y-61636456D01*
X153922052Y-61443170D01*
X153922051Y-61443169D01*
X153922051Y-61443165D01*
X153897997Y-61385092D01*
X153846635Y-61261092D01*
X153846628Y-61261079D01*
X153737139Y-61097218D01*
X153737136Y-61097214D01*
X153597785Y-60957863D01*
X153597781Y-60957860D01*
X153433920Y-60848371D01*
X153433907Y-60848364D01*
X153251839Y-60772950D01*
X153251829Y-60772947D01*
X153116945Y-60746117D01*
X153055035Y-60713732D01*
X153020460Y-60653016D01*
X153024200Y-60583247D01*
X153065067Y-60526575D01*
X153130085Y-60500994D01*
X153141137Y-60500500D01*
X155318863Y-60500500D01*
X155385902Y-60520185D01*
X155431657Y-60572989D01*
X155441601Y-60642147D01*
X155412576Y-60705703D01*
X155353798Y-60743477D01*
X155343055Y-60746117D01*
X155208170Y-60772947D01*
X155208160Y-60772950D01*
X155026092Y-60848364D01*
X155026079Y-60848371D01*
X154862218Y-60957860D01*
X154862214Y-60957863D01*
X154722863Y-61097214D01*
X154722860Y-61097218D01*
X154613371Y-61261079D01*
X154613364Y-61261092D01*
X154537950Y-61443160D01*
X154537947Y-61443170D01*
X154499500Y-61636456D01*
X154499500Y-61636459D01*
X154499500Y-61833541D01*
X154499500Y-61833543D01*
X154499499Y-61833543D01*
X154537947Y-62026829D01*
X154537950Y-62026839D01*
X154613364Y-62208907D01*
X154613371Y-62208920D01*
X154722860Y-62372781D01*
X154722863Y-62372785D01*
X154862214Y-62512136D01*
X154862218Y-62512139D01*
X155026079Y-62621628D01*
X155026092Y-62621635D01*
X155208160Y-62697049D01*
X155208165Y-62697051D01*
X155208169Y-62697051D01*
X155208170Y-62697052D01*
X155401456Y-62735500D01*
X155401459Y-62735500D01*
X155598543Y-62735500D01*
X155728582Y-62709632D01*
X155791835Y-62697051D01*
X155973914Y-62621632D01*
X156137782Y-62512139D01*
X156277139Y-62372782D01*
X156386632Y-62208914D01*
X156462051Y-62026835D01*
X156469852Y-61987615D01*
X156502236Y-61925707D01*
X156562952Y-61891133D01*
X156632721Y-61894872D01*
X156689394Y-61935738D01*
X156713942Y-61992411D01*
X156723242Y-62051127D01*
X156723242Y-62051130D01*
X156788904Y-62253217D01*
X156885375Y-62442550D01*
X156924728Y-62496716D01*
X157557037Y-61864408D01*
X157574075Y-61927993D01*
X157639901Y-62042007D01*
X157732993Y-62135099D01*
X157847007Y-62200925D01*
X157910591Y-62217962D01*
X157309971Y-62818581D01*
X157388711Y-62935895D01*
X157389920Y-62939729D01*
X157392844Y-62942491D01*
X157400343Y-62972778D01*
X157409727Y-63002529D01*
X157408671Y-63006408D01*
X157409638Y-63010312D01*
X157399573Y-63039844D01*
X157391383Y-63069947D01*
X157388397Y-63072640D01*
X157387100Y-63076447D01*
X157342051Y-63115483D01*
X157332440Y-63120380D01*
X157278282Y-63159727D01*
X157278282Y-63159728D01*
X157910591Y-63792037D01*
X157847007Y-63809075D01*
X157732993Y-63874901D01*
X157639901Y-63967993D01*
X157574075Y-64082007D01*
X157557037Y-64145591D01*
X156924728Y-63513282D01*
X156924727Y-63513282D01*
X156885380Y-63567439D01*
X156788904Y-63756782D01*
X156723242Y-63958869D01*
X156723242Y-63958870D01*
X156713942Y-64017589D01*
X156684012Y-64080723D01*
X156624700Y-64117654D01*
X156554838Y-64116656D01*
X156496605Y-64078046D01*
X156469852Y-64022381D01*
X156462052Y-63983172D01*
X156462052Y-63983170D01*
X156462051Y-63983165D01*
X156451987Y-63958869D01*
X156386635Y-63801092D01*
X156386628Y-63801079D01*
X156277139Y-63637218D01*
X156277136Y-63637214D01*
X156137785Y-63497863D01*
X156137781Y-63497860D01*
X155973920Y-63388371D01*
X155973907Y-63388364D01*
X155791839Y-63312950D01*
X155791829Y-63312947D01*
X155598543Y-63274500D01*
X155598541Y-63274500D01*
X155401459Y-63274500D01*
X155401457Y-63274500D01*
X155208170Y-63312947D01*
X155208160Y-63312950D01*
X155026092Y-63388364D01*
X155026079Y-63388371D01*
X154862218Y-63497860D01*
X154862214Y-63497863D01*
X154722863Y-63637214D01*
X154722860Y-63637218D01*
X154613371Y-63801079D01*
X154613364Y-63801092D01*
X154537950Y-63983160D01*
X154537947Y-63983170D01*
X154499500Y-64176456D01*
X154499500Y-64176459D01*
X154499500Y-64373541D01*
X154499500Y-64373543D01*
X154499499Y-64373543D01*
X154537947Y-64566829D01*
X154537950Y-64566839D01*
X154613364Y-64748907D01*
X154613371Y-64748920D01*
X154722860Y-64912781D01*
X154722863Y-64912785D01*
X154862214Y-65052136D01*
X154862218Y-65052139D01*
X155026079Y-65161628D01*
X155026092Y-65161635D01*
X155208160Y-65237049D01*
X155208165Y-65237051D01*
X155208169Y-65237051D01*
X155208170Y-65237052D01*
X155401456Y-65275500D01*
X155401459Y-65275500D01*
X155598543Y-65275500D01*
X155728582Y-65249632D01*
X155791835Y-65237051D01*
X155973914Y-65161632D01*
X156137782Y-65052139D01*
X156277139Y-64912782D01*
X156386632Y-64748914D01*
X156462051Y-64566835D01*
X156469852Y-64527615D01*
X156502236Y-64465707D01*
X156562952Y-64431133D01*
X156632721Y-64434872D01*
X156689394Y-64475738D01*
X156713942Y-64532411D01*
X156723242Y-64591127D01*
X156723242Y-64591130D01*
X156788904Y-64793217D01*
X156885375Y-64982550D01*
X156924728Y-65036716D01*
X157557037Y-64404408D01*
X157574075Y-64467993D01*
X157639901Y-64582007D01*
X157732993Y-64675099D01*
X157847007Y-64740925D01*
X157910590Y-64757962D01*
X157278282Y-65390269D01*
X157278282Y-65390270D01*
X157332449Y-65429624D01*
X157521782Y-65526095D01*
X157723870Y-65591757D01*
X157933754Y-65625000D01*
X158146246Y-65625000D01*
X158356127Y-65591757D01*
X158356130Y-65591757D01*
X158558217Y-65526095D01*
X158747554Y-65429622D01*
X158801716Y-65390270D01*
X158801717Y-65390270D01*
X158169408Y-64757962D01*
X158232993Y-64740925D01*
X158347007Y-64675099D01*
X158440099Y-64582007D01*
X158505925Y-64467993D01*
X158522962Y-64404408D01*
X159155270Y-65036717D01*
X159155270Y-65036716D01*
X159194622Y-64982554D01*
X159291095Y-64793217D01*
X159356757Y-64591130D01*
X159356757Y-64591127D01*
X159390000Y-64381246D01*
X159390000Y-64168753D01*
X159356757Y-63958872D01*
X159356757Y-63958869D01*
X159291095Y-63756782D01*
X159194624Y-63567449D01*
X159155270Y-63513282D01*
X159155269Y-63513282D01*
X158522962Y-64145590D01*
X158505925Y-64082007D01*
X158440099Y-63967993D01*
X158347007Y-63874901D01*
X158232993Y-63809075D01*
X158169409Y-63792037D01*
X158801716Y-63159728D01*
X158747550Y-63120375D01*
X158737954Y-63115486D01*
X158687157Y-63067512D01*
X158670361Y-62999692D01*
X158692897Y-62933556D01*
X158737954Y-62894514D01*
X158747554Y-62889622D01*
X158801716Y-62850270D01*
X158801717Y-62850270D01*
X158566269Y-62614822D01*
X162879499Y-62614822D01*
X162888231Y-62658717D01*
X162888234Y-62658724D01*
X162920744Y-62707379D01*
X162921496Y-62708504D01*
X162971278Y-62741767D01*
X162971281Y-62741767D01*
X162971282Y-62741768D01*
X163015177Y-62750500D01*
X163015180Y-62750500D01*
X164744822Y-62750500D01*
X164788717Y-62741768D01*
X164788717Y-62741767D01*
X164788722Y-62741767D01*
X164838504Y-62708504D01*
X164871767Y-62658722D01*
X164876162Y-62636628D01*
X164880500Y-62614822D01*
X164880500Y-61848543D01*
X165419499Y-61848543D01*
X165457947Y-62041829D01*
X165457950Y-62041839D01*
X165533364Y-62223907D01*
X165533371Y-62223920D01*
X165642860Y-62387781D01*
X165642863Y-62387785D01*
X165782214Y-62527136D01*
X165782218Y-62527139D01*
X165946079Y-62636628D01*
X165946092Y-62636635D01*
X166128160Y-62712049D01*
X166128165Y-62712051D01*
X166128169Y-62712051D01*
X166128170Y-62712052D01*
X166321456Y-62750500D01*
X166321459Y-62750500D01*
X166518543Y-62750500D01*
X166648582Y-62724632D01*
X166711835Y-62712051D01*
X166893914Y-62636632D01*
X167057782Y-62527139D01*
X167197139Y-62387782D01*
X167306632Y-62223914D01*
X167382051Y-62041835D01*
X167405151Y-61925707D01*
X167420500Y-61848543D01*
X167420500Y-61651456D01*
X167382052Y-61458170D01*
X167382051Y-61458169D01*
X167382051Y-61458165D01*
X167371439Y-61432544D01*
X167306635Y-61276092D01*
X167306628Y-61276079D01*
X167197139Y-61112218D01*
X167197136Y-61112214D01*
X167057785Y-60972863D01*
X167057781Y-60972860D01*
X166893920Y-60863371D01*
X166893907Y-60863364D01*
X166711839Y-60787950D01*
X166711829Y-60787947D01*
X166518543Y-60749500D01*
X166518541Y-60749500D01*
X166321459Y-60749500D01*
X166321457Y-60749500D01*
X166128170Y-60787947D01*
X166128160Y-60787950D01*
X165946092Y-60863364D01*
X165946079Y-60863371D01*
X165782218Y-60972860D01*
X165782214Y-60972863D01*
X165642863Y-61112214D01*
X165642860Y-61112218D01*
X165533371Y-61276079D01*
X165533364Y-61276092D01*
X165457950Y-61458160D01*
X165457947Y-61458170D01*
X165419500Y-61651456D01*
X165419500Y-61651459D01*
X165419500Y-61848541D01*
X165419500Y-61848543D01*
X165419499Y-61848543D01*
X164880500Y-61848543D01*
X164880500Y-60885177D01*
X164871768Y-60841282D01*
X164871767Y-60841281D01*
X164871767Y-60841278D01*
X164838504Y-60791496D01*
X164833197Y-60787950D01*
X164788724Y-60758234D01*
X164788717Y-60758231D01*
X164744822Y-60749500D01*
X164744820Y-60749500D01*
X163015180Y-60749500D01*
X163015178Y-60749500D01*
X162971282Y-60758231D01*
X162971275Y-60758234D01*
X162921496Y-60791495D01*
X162921495Y-60791496D01*
X162888234Y-60841275D01*
X162888231Y-60841282D01*
X162879500Y-60885177D01*
X162879500Y-60885180D01*
X162879500Y-62614820D01*
X162879500Y-62614822D01*
X162879499Y-62614822D01*
X158566269Y-62614822D01*
X158169408Y-62217962D01*
X158232993Y-62200925D01*
X158347007Y-62135099D01*
X158440099Y-62042007D01*
X158505925Y-61927993D01*
X158522962Y-61864408D01*
X159155270Y-62496717D01*
X159155270Y-62496716D01*
X159194622Y-62442554D01*
X159291095Y-62253217D01*
X159356757Y-62051130D01*
X159356757Y-62051127D01*
X159390000Y-61841246D01*
X159390000Y-61628753D01*
X159356757Y-61418872D01*
X159356757Y-61418869D01*
X159291095Y-61216782D01*
X159194623Y-61027447D01*
X159194621Y-61027443D01*
X159155271Y-60973282D01*
X159155269Y-60973282D01*
X158522962Y-61605590D01*
X158505925Y-61542007D01*
X158440099Y-61427993D01*
X158347007Y-61334901D01*
X158232993Y-61269075D01*
X158169409Y-61252037D01*
X158807017Y-60614427D01*
X158817222Y-60565852D01*
X158866273Y-60516095D01*
X158926476Y-60500500D01*
X170614704Y-60500500D01*
X170681743Y-60520185D01*
X170727498Y-60572989D01*
X170738322Y-60634230D01*
X170738282Y-60634728D01*
X171370591Y-61267037D01*
X171307007Y-61284075D01*
X171192993Y-61349901D01*
X171099901Y-61442993D01*
X171034075Y-61557007D01*
X171017037Y-61620591D01*
X170384728Y-60988282D01*
X170384727Y-60988282D01*
X170345380Y-61042439D01*
X170248904Y-61231782D01*
X170183242Y-61433869D01*
X170183242Y-61433870D01*
X170173942Y-61492589D01*
X170144012Y-61555723D01*
X170084700Y-61592654D01*
X170014838Y-61591656D01*
X169956605Y-61553046D01*
X169929852Y-61497381D01*
X169922052Y-61458172D01*
X169922052Y-61458170D01*
X169922051Y-61458165D01*
X169911439Y-61432544D01*
X169846635Y-61276092D01*
X169846628Y-61276079D01*
X169737139Y-61112218D01*
X169737136Y-61112214D01*
X169597785Y-60972863D01*
X169597781Y-60972860D01*
X169433920Y-60863371D01*
X169433907Y-60863364D01*
X169251839Y-60787950D01*
X169251829Y-60787947D01*
X169058543Y-60749500D01*
X169058541Y-60749500D01*
X168861459Y-60749500D01*
X168861457Y-60749500D01*
X168668170Y-60787947D01*
X168668160Y-60787950D01*
X168486092Y-60863364D01*
X168486079Y-60863371D01*
X168322218Y-60972860D01*
X168322214Y-60972863D01*
X168182863Y-61112214D01*
X168182860Y-61112218D01*
X168073371Y-61276079D01*
X168073364Y-61276092D01*
X167997950Y-61458160D01*
X167997947Y-61458170D01*
X167959500Y-61651456D01*
X167959500Y-61651459D01*
X167959500Y-61848541D01*
X167959500Y-61848543D01*
X167959499Y-61848543D01*
X167997947Y-62041829D01*
X167997950Y-62041839D01*
X168073364Y-62223907D01*
X168073371Y-62223920D01*
X168182860Y-62387781D01*
X168182863Y-62387785D01*
X168322214Y-62527136D01*
X168322218Y-62527139D01*
X168486079Y-62636628D01*
X168486092Y-62636635D01*
X168668160Y-62712049D01*
X168668165Y-62712051D01*
X168668169Y-62712051D01*
X168668170Y-62712052D01*
X168861456Y-62750500D01*
X168861459Y-62750500D01*
X169058543Y-62750500D01*
X169188582Y-62724632D01*
X169251835Y-62712051D01*
X169433914Y-62636632D01*
X169597782Y-62527139D01*
X169737139Y-62387782D01*
X169846632Y-62223914D01*
X169922051Y-62041835D01*
X169929852Y-62002615D01*
X169962236Y-61940707D01*
X170022952Y-61906133D01*
X170092721Y-61909872D01*
X170149394Y-61950738D01*
X170173942Y-62007411D01*
X170183242Y-62066127D01*
X170183242Y-62066130D01*
X170248904Y-62268217D01*
X170345375Y-62457550D01*
X170384728Y-62511716D01*
X171017037Y-61879408D01*
X171034075Y-61942993D01*
X171099901Y-62057007D01*
X171192993Y-62150099D01*
X171307007Y-62215925D01*
X171370590Y-62232962D01*
X170738282Y-62865269D01*
X170738282Y-62865270D01*
X170792449Y-62904624D01*
X170981782Y-63001095D01*
X171183870Y-63066757D01*
X171393754Y-63100000D01*
X171606246Y-63100000D01*
X171816127Y-63066757D01*
X171816130Y-63066757D01*
X172018217Y-63001095D01*
X172207554Y-62904622D01*
X172261716Y-62865270D01*
X172261717Y-62865270D01*
X171629408Y-62232962D01*
X171692993Y-62215925D01*
X171807007Y-62150099D01*
X171900099Y-62057007D01*
X171965925Y-61942993D01*
X171982962Y-61879409D01*
X172615270Y-62511717D01*
X172615270Y-62511716D01*
X172654622Y-62457554D01*
X172751095Y-62268217D01*
X172816757Y-62066130D01*
X172816757Y-62066127D01*
X172850000Y-61856246D01*
X172850000Y-61643753D01*
X172816757Y-61433872D01*
X172816757Y-61433869D01*
X172751095Y-61231782D01*
X172654624Y-61042449D01*
X172615270Y-60988282D01*
X172615269Y-60988282D01*
X171982962Y-61620590D01*
X171965925Y-61557007D01*
X171900099Y-61442993D01*
X171807007Y-61349901D01*
X171692993Y-61284075D01*
X171629409Y-61267037D01*
X172261716Y-60634728D01*
X172261677Y-60634230D01*
X172276041Y-60565853D01*
X172325091Y-60516096D01*
X172385295Y-60500500D01*
X179934108Y-60500500D01*
X179997294Y-60500500D01*
X180002702Y-60500617D01*
X180386771Y-60517386D01*
X180397506Y-60518326D01*
X180775971Y-60568152D01*
X180786597Y-60570025D01*
X181159284Y-60652648D01*
X181169710Y-60655442D01*
X181533765Y-60770227D01*
X181543911Y-60773920D01*
X181896578Y-60920000D01*
X181906369Y-60924566D01*
X182238030Y-61097218D01*
X182244942Y-61100816D01*
X182254310Y-61106224D01*
X182576244Y-61311318D01*
X182585105Y-61317523D01*
X182887930Y-61549889D01*
X182896217Y-61556843D01*
X183177635Y-61814715D01*
X183185284Y-61822364D01*
X183443156Y-62103782D01*
X183450110Y-62112069D01*
X183682476Y-62414894D01*
X183688681Y-62423755D01*
X183893775Y-62745689D01*
X183899183Y-62755057D01*
X184075430Y-63093623D01*
X184080002Y-63103427D01*
X184226075Y-63456078D01*
X184229775Y-63466244D01*
X184344554Y-63830278D01*
X184347354Y-63840727D01*
X184429971Y-64213389D01*
X184431849Y-64224042D01*
X184481671Y-64602473D01*
X184482614Y-64613249D01*
X184499382Y-64997297D01*
X184499500Y-65002706D01*
X184499500Y-73085606D01*
X184479815Y-73152645D01*
X184427011Y-73198400D01*
X184357853Y-73208344D01*
X184296837Y-73181461D01*
X184293074Y-73178373D01*
X184187308Y-73107702D01*
X184187299Y-73107697D01*
X184069776Y-73059018D01*
X184069777Y-73059018D01*
X184069774Y-73059017D01*
X184069770Y-73059016D01*
X184069766Y-73059015D01*
X183945011Y-73034200D01*
X183945007Y-73034200D01*
X182598595Y-73034200D01*
X182598590Y-73034200D01*
X182473835Y-73059015D01*
X182473825Y-73059018D01*
X182356302Y-73107697D01*
X182356293Y-73107702D01*
X182250527Y-73178373D01*
X182250523Y-73178376D01*
X182160577Y-73268322D01*
X182160574Y-73268326D01*
X182089903Y-73374092D01*
X182089898Y-73374101D01*
X182041219Y-73491624D01*
X182041216Y-73491634D01*
X182016401Y-73616389D01*
X182016401Y-73743610D01*
X182041216Y-73868365D01*
X182041219Y-73868375D01*
X182089898Y-73985898D01*
X182089903Y-73985907D01*
X182160574Y-74091673D01*
X182160577Y-74091677D01*
X182250523Y-74181623D01*
X182250527Y-74181626D01*
X182356293Y-74252297D01*
X182356299Y-74252300D01*
X182356300Y-74252301D01*
X182473828Y-74300983D01*
X182598590Y-74325799D01*
X182598594Y-74325800D01*
X182598595Y-74325800D01*
X183945008Y-74325800D01*
X183945009Y-74325799D01*
X184069774Y-74300983D01*
X184187302Y-74252301D01*
X184293075Y-74181626D01*
X184293082Y-74181618D01*
X184296831Y-74178543D01*
X184361139Y-74151227D01*
X184430007Y-74163016D01*
X184481570Y-74210165D01*
X184499500Y-74274393D01*
X184499500Y-81725606D01*
X184479815Y-81792645D01*
X184427011Y-81838400D01*
X184357853Y-81848344D01*
X184296837Y-81821461D01*
X184293074Y-81818373D01*
X184187308Y-81747702D01*
X184187299Y-81747697D01*
X184089802Y-81707313D01*
X184069774Y-81699017D01*
X184069770Y-81699016D01*
X184069766Y-81699015D01*
X183945011Y-81674200D01*
X183945007Y-81674200D01*
X182598595Y-81674200D01*
X182598590Y-81674200D01*
X182473835Y-81699015D01*
X182473825Y-81699018D01*
X182356302Y-81747697D01*
X182356293Y-81747702D01*
X182250527Y-81818373D01*
X182250523Y-81818376D01*
X182160577Y-81908322D01*
X182160574Y-81908326D01*
X182089903Y-82014092D01*
X182089898Y-82014101D01*
X182041219Y-82131624D01*
X182041216Y-82131634D01*
X182016401Y-82256389D01*
X182016401Y-82383610D01*
X182041216Y-82508365D01*
X182041219Y-82508375D01*
X182089898Y-82625898D01*
X182089903Y-82625907D01*
X182160574Y-82731673D01*
X182160577Y-82731677D01*
X182250523Y-82821623D01*
X182250527Y-82821626D01*
X182356293Y-82892297D01*
X182356299Y-82892300D01*
X182356300Y-82892301D01*
X182473828Y-82940983D01*
X182598590Y-82965799D01*
X182598594Y-82965800D01*
X182598595Y-82965800D01*
X183945008Y-82965800D01*
X183945009Y-82965799D01*
X184069774Y-82940983D01*
X184187302Y-82892301D01*
X184293075Y-82821626D01*
X184293082Y-82821618D01*
X184296831Y-82818543D01*
X184361139Y-82791227D01*
X184430007Y-82803016D01*
X184481570Y-82850165D01*
X184499500Y-82914393D01*
X184499500Y-91085730D01*
X184479815Y-91152769D01*
X184427011Y-91198524D01*
X184357853Y-91208468D01*
X184294297Y-91179443D01*
X184276234Y-91160042D01*
X184207187Y-91067809D01*
X184092093Y-90981649D01*
X184092086Y-90981645D01*
X183957379Y-90931403D01*
X183957372Y-90931401D01*
X183897844Y-90925000D01*
X183364908Y-90925000D01*
X183297869Y-90905315D01*
X183252114Y-90852511D01*
X183242170Y-90783353D01*
X183271195Y-90719797D01*
X183317456Y-90686439D01*
X183473907Y-90621635D01*
X183473907Y-90621634D01*
X183473914Y-90621632D01*
X183637782Y-90512139D01*
X183777139Y-90372782D01*
X183886632Y-90208914D01*
X183962051Y-90026835D01*
X183985925Y-89906814D01*
X184000500Y-89833543D01*
X184000500Y-89636456D01*
X183962052Y-89443170D01*
X183962051Y-89443169D01*
X183962051Y-89443165D01*
X183941530Y-89393622D01*
X183886635Y-89261092D01*
X183886628Y-89261079D01*
X183777139Y-89097218D01*
X183777136Y-89097214D01*
X183637785Y-88957863D01*
X183637781Y-88957860D01*
X183473920Y-88848371D01*
X183473907Y-88848364D01*
X183291839Y-88772950D01*
X183291829Y-88772947D01*
X183098543Y-88734500D01*
X183098541Y-88734500D01*
X182901459Y-88734500D01*
X182901457Y-88734500D01*
X182708170Y-88772947D01*
X182708160Y-88772950D01*
X182526092Y-88848364D01*
X182526079Y-88848371D01*
X182362218Y-88957860D01*
X182362214Y-88957863D01*
X182222863Y-89097214D01*
X182222860Y-89097218D01*
X182113371Y-89261079D01*
X182113364Y-89261092D01*
X182037950Y-89443160D01*
X182037947Y-89443170D01*
X181999500Y-89636456D01*
X181999500Y-89636459D01*
X181999500Y-89833541D01*
X181999500Y-89833543D01*
X181999499Y-89833543D01*
X182037947Y-90026829D01*
X182037950Y-90026839D01*
X182113364Y-90208907D01*
X182113371Y-90208920D01*
X182222860Y-90372781D01*
X182222863Y-90372785D01*
X182362214Y-90512136D01*
X182362218Y-90512139D01*
X182526079Y-90621628D01*
X182526092Y-90621635D01*
X182682544Y-90686439D01*
X182736948Y-90730280D01*
X182759013Y-90796574D01*
X182741734Y-90864273D01*
X182690597Y-90911884D01*
X182635092Y-90925000D01*
X182102155Y-90925000D01*
X182042627Y-90931401D01*
X182042620Y-90931403D01*
X181907913Y-90981645D01*
X181907906Y-90981649D01*
X181792812Y-91067809D01*
X181792809Y-91067812D01*
X181706649Y-91182906D01*
X181706645Y-91182913D01*
X181656403Y-91317620D01*
X181656401Y-91317627D01*
X181650000Y-91377155D01*
X181650000Y-92025000D01*
X182566988Y-92025000D01*
X182534075Y-92082007D01*
X182500000Y-92209174D01*
X182500000Y-92340826D01*
X182534075Y-92467993D01*
X182566988Y-92525000D01*
X181650000Y-92525000D01*
X181650000Y-93172844D01*
X181656401Y-93232372D01*
X181656403Y-93232379D01*
X181706645Y-93367086D01*
X181706649Y-93367093D01*
X181792809Y-93482187D01*
X181792812Y-93482190D01*
X181907906Y-93568350D01*
X181907913Y-93568354D01*
X182042620Y-93618596D01*
X182042627Y-93618598D01*
X182102155Y-93624999D01*
X182102172Y-93625000D01*
X182750000Y-93625000D01*
X182750000Y-92708012D01*
X182807007Y-92740925D01*
X182934174Y-92775000D01*
X183065826Y-92775000D01*
X183192993Y-92740925D01*
X183250000Y-92708012D01*
X183250000Y-93625000D01*
X183897828Y-93625000D01*
X183897844Y-93624999D01*
X183957372Y-93618598D01*
X183957379Y-93618596D01*
X184092086Y-93568354D01*
X184092093Y-93568350D01*
X184207187Y-93482190D01*
X184207190Y-93482187D01*
X184276234Y-93389958D01*
X184332168Y-93348087D01*
X184401859Y-93343103D01*
X184463182Y-93376589D01*
X184496666Y-93437912D01*
X184499500Y-93464269D01*
X184499500Y-104997293D01*
X184499382Y-105002702D01*
X184482614Y-105386750D01*
X184481671Y-105397526D01*
X184431849Y-105775957D01*
X184429971Y-105786610D01*
X184347354Y-106159272D01*
X184344554Y-106169721D01*
X184229775Y-106533755D01*
X184226075Y-106543921D01*
X184080002Y-106896572D01*
X184075430Y-106906376D01*
X183899183Y-107244942D01*
X183893775Y-107254310D01*
X183688681Y-107576244D01*
X183682476Y-107585105D01*
X183450110Y-107887930D01*
X183443156Y-107896217D01*
X183185284Y-108177635D01*
X183177635Y-108185284D01*
X182896217Y-108443156D01*
X182887930Y-108450110D01*
X182585105Y-108682476D01*
X182576244Y-108688681D01*
X182254310Y-108893775D01*
X182244942Y-108899183D01*
X181906376Y-109075430D01*
X181896572Y-109080002D01*
X181543921Y-109226075D01*
X181533755Y-109229775D01*
X181169721Y-109344554D01*
X181159272Y-109347354D01*
X180786610Y-109429971D01*
X180775957Y-109431849D01*
X180397526Y-109481671D01*
X180386750Y-109482614D01*
X180002703Y-109499382D01*
X179997294Y-109499500D01*
X150413236Y-109499500D01*
X150346197Y-109479815D01*
X150300442Y-109427011D01*
X150290498Y-109357853D01*
X150297054Y-109332167D01*
X150343596Y-109207379D01*
X150343598Y-109207372D01*
X150349999Y-109147844D01*
X150350000Y-109147827D01*
X150350000Y-108500000D01*
X149433012Y-108500000D01*
X149465925Y-108442993D01*
X149500000Y-108315826D01*
X149500000Y-108184174D01*
X149465925Y-108057007D01*
X149433012Y-108000000D01*
X150350000Y-108000000D01*
X150350000Y-107352172D01*
X150349999Y-107352155D01*
X150343598Y-107292627D01*
X150343596Y-107292620D01*
X150293354Y-107157913D01*
X150293350Y-107157906D01*
X150207190Y-107042812D01*
X150207187Y-107042809D01*
X150092093Y-106956649D01*
X150092086Y-106956645D01*
X149957379Y-106906403D01*
X149957372Y-106906401D01*
X149897844Y-106900000D01*
X149250000Y-106900000D01*
X149250000Y-107816988D01*
X149192993Y-107784075D01*
X149065826Y-107750000D01*
X148934174Y-107750000D01*
X148807007Y-107784075D01*
X148750000Y-107816988D01*
X148750000Y-106900000D01*
X148102155Y-106900000D01*
X148042627Y-106906401D01*
X148042620Y-106906403D01*
X147907913Y-106956645D01*
X147907906Y-106956649D01*
X147792812Y-107042809D01*
X147792809Y-107042812D01*
X147706649Y-107157906D01*
X147706645Y-107157913D01*
X147656403Y-107292620D01*
X147656401Y-107292627D01*
X147650000Y-107352155D01*
X147650000Y-107885092D01*
X147630315Y-107952131D01*
X147577511Y-107997886D01*
X147508353Y-108007830D01*
X147444797Y-107978805D01*
X147411439Y-107932544D01*
X147346635Y-107776092D01*
X147346628Y-107776079D01*
X147237139Y-107612218D01*
X147237136Y-107612214D01*
X147097785Y-107472863D01*
X147097781Y-107472860D01*
X146933920Y-107363371D01*
X146933907Y-107363364D01*
X146751839Y-107287950D01*
X146751829Y-107287947D01*
X146558543Y-107249500D01*
X146558541Y-107249500D01*
X146361459Y-107249500D01*
X146361457Y-107249500D01*
X146168170Y-107287947D01*
X146168160Y-107287950D01*
X145986092Y-107363364D01*
X145986079Y-107363371D01*
X145822218Y-107472860D01*
X145822214Y-107472863D01*
X145682863Y-107612214D01*
X145682860Y-107612218D01*
X145573371Y-107776079D01*
X145573364Y-107776092D01*
X145497950Y-107958160D01*
X145497947Y-107958170D01*
X145459500Y-108151456D01*
X145459500Y-108151459D01*
X145459500Y-108348541D01*
X145459500Y-108348543D01*
X145459499Y-108348543D01*
X145497947Y-108541829D01*
X145497950Y-108541839D01*
X145573364Y-108723907D01*
X145573371Y-108723920D01*
X145682860Y-108887781D01*
X145682863Y-108887785D01*
X145822214Y-109027136D01*
X145822218Y-109027139D01*
X145986079Y-109136628D01*
X145986092Y-109136635D01*
X146168160Y-109212049D01*
X146168165Y-109212051D01*
X146168169Y-109212051D01*
X146168170Y-109212052D01*
X146361456Y-109250500D01*
X146361459Y-109250500D01*
X146558543Y-109250500D01*
X146688582Y-109224632D01*
X146751835Y-109212051D01*
X146933914Y-109136632D01*
X147097782Y-109027139D01*
X147237139Y-108887782D01*
X147346632Y-108723914D01*
X147411439Y-108567455D01*
X147455279Y-108513051D01*
X147521573Y-108490986D01*
X147589273Y-108508265D01*
X147636884Y-108559402D01*
X147650000Y-108614907D01*
X147650000Y-109147844D01*
X147656401Y-109207372D01*
X147656403Y-109207379D01*
X147702946Y-109332167D01*
X147707930Y-109401858D01*
X147674445Y-109463182D01*
X147613122Y-109496666D01*
X147586764Y-109499500D01*
X137413236Y-109499500D01*
X137346197Y-109479815D01*
X137300442Y-109427011D01*
X137290498Y-109357853D01*
X137297054Y-109332167D01*
X137343596Y-109207379D01*
X137343598Y-109207372D01*
X137349999Y-109147844D01*
X137350000Y-109147827D01*
X137350000Y-108500000D01*
X136433012Y-108500000D01*
X136465925Y-108442993D01*
X136491233Y-108348543D01*
X140379499Y-108348543D01*
X140417947Y-108541829D01*
X140417950Y-108541839D01*
X140493364Y-108723907D01*
X140493371Y-108723920D01*
X140602860Y-108887781D01*
X140602863Y-108887785D01*
X140742214Y-109027136D01*
X140742218Y-109027139D01*
X140906079Y-109136628D01*
X140906092Y-109136635D01*
X141088160Y-109212049D01*
X141088165Y-109212051D01*
X141088169Y-109212051D01*
X141088170Y-109212052D01*
X141281456Y-109250500D01*
X141281459Y-109250500D01*
X141478543Y-109250500D01*
X141608582Y-109224632D01*
X141671835Y-109212051D01*
X141853914Y-109136632D01*
X142017782Y-109027139D01*
X142157139Y-108887782D01*
X142266632Y-108723914D01*
X142342051Y-108541835D01*
X142354632Y-108478582D01*
X142380500Y-108348543D01*
X142919499Y-108348543D01*
X142957947Y-108541829D01*
X142957950Y-108541839D01*
X143033364Y-108723907D01*
X143033371Y-108723920D01*
X143142860Y-108887781D01*
X143142863Y-108887785D01*
X143282214Y-109027136D01*
X143282218Y-109027139D01*
X143446079Y-109136628D01*
X143446092Y-109136635D01*
X143628160Y-109212049D01*
X143628165Y-109212051D01*
X143628169Y-109212051D01*
X143628170Y-109212052D01*
X143821456Y-109250500D01*
X143821459Y-109250500D01*
X144018543Y-109250500D01*
X144148582Y-109224632D01*
X144211835Y-109212051D01*
X144393914Y-109136632D01*
X144557782Y-109027139D01*
X144697139Y-108887782D01*
X144806632Y-108723914D01*
X144882051Y-108541835D01*
X144894632Y-108478582D01*
X144920500Y-108348543D01*
X144920500Y-108151456D01*
X144882052Y-107958170D01*
X144882051Y-107958169D01*
X144882051Y-107958165D01*
X144871439Y-107932544D01*
X144806635Y-107776092D01*
X144806628Y-107776079D01*
X144697139Y-107612218D01*
X144697136Y-107612214D01*
X144557785Y-107472863D01*
X144557781Y-107472860D01*
X144393920Y-107363371D01*
X144393907Y-107363364D01*
X144211839Y-107287950D01*
X144211829Y-107287947D01*
X144018543Y-107249500D01*
X144018541Y-107249500D01*
X143821459Y-107249500D01*
X143821457Y-107249500D01*
X143628170Y-107287947D01*
X143628160Y-107287950D01*
X143446092Y-107363364D01*
X143446079Y-107363371D01*
X143282218Y-107472860D01*
X143282214Y-107472863D01*
X143142863Y-107612214D01*
X143142860Y-107612218D01*
X143033371Y-107776079D01*
X143033364Y-107776092D01*
X142957950Y-107958160D01*
X142957947Y-107958170D01*
X142919500Y-108151456D01*
X142919500Y-108151459D01*
X142919500Y-108348541D01*
X142919500Y-108348543D01*
X142919499Y-108348543D01*
X142380500Y-108348543D01*
X142380500Y-108151456D01*
X142342052Y-107958170D01*
X142342051Y-107958169D01*
X142342051Y-107958165D01*
X142331439Y-107932544D01*
X142266635Y-107776092D01*
X142266628Y-107776079D01*
X142157139Y-107612218D01*
X142157136Y-107612214D01*
X142017785Y-107472863D01*
X142017781Y-107472860D01*
X141853920Y-107363371D01*
X141853907Y-107363364D01*
X141671839Y-107287950D01*
X141671829Y-107287947D01*
X141478543Y-107249500D01*
X141478541Y-107249500D01*
X141281459Y-107249500D01*
X141281457Y-107249500D01*
X141088170Y-107287947D01*
X141088160Y-107287950D01*
X140906092Y-107363364D01*
X140906079Y-107363371D01*
X140742218Y-107472860D01*
X140742214Y-107472863D01*
X140602863Y-107612214D01*
X140602860Y-107612218D01*
X140493371Y-107776079D01*
X140493364Y-107776092D01*
X140417950Y-107958160D01*
X140417947Y-107958170D01*
X140379500Y-108151456D01*
X140379500Y-108151459D01*
X140379500Y-108348541D01*
X140379500Y-108348543D01*
X140379499Y-108348543D01*
X136491233Y-108348543D01*
X136500000Y-108315826D01*
X136500000Y-108184174D01*
X136465925Y-108057007D01*
X136433012Y-108000000D01*
X137350000Y-108000000D01*
X137350000Y-107352172D01*
X137349999Y-107352155D01*
X137343598Y-107292627D01*
X137343596Y-107292620D01*
X137293354Y-107157913D01*
X137293350Y-107157906D01*
X137207190Y-107042812D01*
X137207187Y-107042809D01*
X137092093Y-106956649D01*
X137092086Y-106956645D01*
X136957379Y-106906403D01*
X136957372Y-106906401D01*
X136897844Y-106900000D01*
X136250000Y-106900000D01*
X136250000Y-107816988D01*
X136192993Y-107784075D01*
X136065826Y-107750000D01*
X135934174Y-107750000D01*
X135807007Y-107784075D01*
X135750000Y-107816988D01*
X135750000Y-106900000D01*
X135102155Y-106900000D01*
X135042627Y-106906401D01*
X135042620Y-106906403D01*
X134907913Y-106956645D01*
X134907906Y-106956649D01*
X134792812Y-107042809D01*
X134792809Y-107042812D01*
X134706649Y-107157906D01*
X134706645Y-107157913D01*
X134656403Y-107292620D01*
X134656401Y-107292627D01*
X134650000Y-107352155D01*
X134650000Y-107885092D01*
X134630315Y-107952131D01*
X134577511Y-107997886D01*
X134508353Y-108007830D01*
X134444797Y-107978805D01*
X134411439Y-107932544D01*
X134346635Y-107776092D01*
X134346628Y-107776079D01*
X134237139Y-107612218D01*
X134237136Y-107612214D01*
X134097785Y-107472863D01*
X134097781Y-107472860D01*
X133933920Y-107363371D01*
X133933907Y-107363364D01*
X133751839Y-107287950D01*
X133751829Y-107287947D01*
X133558543Y-107249500D01*
X133558541Y-107249500D01*
X133361459Y-107249500D01*
X133361457Y-107249500D01*
X133168170Y-107287947D01*
X133168160Y-107287950D01*
X132986092Y-107363364D01*
X132986079Y-107363371D01*
X132822218Y-107472860D01*
X132822214Y-107472863D01*
X132682863Y-107612214D01*
X132682860Y-107612218D01*
X132573371Y-107776079D01*
X132573364Y-107776092D01*
X132497950Y-107958160D01*
X132497947Y-107958170D01*
X132459500Y-108151456D01*
X132459500Y-108151459D01*
X132459500Y-108348541D01*
X132459500Y-108348543D01*
X132459499Y-108348543D01*
X132497947Y-108541829D01*
X132497950Y-108541839D01*
X132573364Y-108723907D01*
X132573371Y-108723920D01*
X132682860Y-108887781D01*
X132682863Y-108887785D01*
X132822214Y-109027136D01*
X132822218Y-109027139D01*
X132986079Y-109136628D01*
X132986092Y-109136635D01*
X133168160Y-109212049D01*
X133168165Y-109212051D01*
X133168169Y-109212051D01*
X133168170Y-109212052D01*
X133361456Y-109250500D01*
X133361459Y-109250500D01*
X133558543Y-109250500D01*
X133688582Y-109224632D01*
X133751835Y-109212051D01*
X133933914Y-109136632D01*
X134097782Y-109027139D01*
X134237139Y-108887782D01*
X134346632Y-108723914D01*
X134411439Y-108567455D01*
X134455279Y-108513051D01*
X134521573Y-108490986D01*
X134589273Y-108508265D01*
X134636884Y-108559402D01*
X134650000Y-108614907D01*
X134650000Y-109147844D01*
X134656401Y-109207372D01*
X134656403Y-109207379D01*
X134702946Y-109332167D01*
X134707930Y-109401858D01*
X134674445Y-109463182D01*
X134613122Y-109496666D01*
X134586764Y-109499500D01*
X120002706Y-109499500D01*
X119997297Y-109499382D01*
X119613249Y-109482614D01*
X119602473Y-109481671D01*
X119224042Y-109431849D01*
X119213389Y-109429971D01*
X118840727Y-109347354D01*
X118830278Y-109344554D01*
X118466244Y-109229775D01*
X118456078Y-109226075D01*
X118103427Y-109080002D01*
X118093623Y-109075430D01*
X117755057Y-108899183D01*
X117745689Y-108893775D01*
X117423755Y-108688681D01*
X117414894Y-108682476D01*
X117112069Y-108450110D01*
X117103782Y-108443156D01*
X117000530Y-108348543D01*
X127379499Y-108348543D01*
X127417947Y-108541829D01*
X127417950Y-108541839D01*
X127493364Y-108723907D01*
X127493371Y-108723920D01*
X127602860Y-108887781D01*
X127602863Y-108887785D01*
X127742214Y-109027136D01*
X127742218Y-109027139D01*
X127906079Y-109136628D01*
X127906092Y-109136635D01*
X128088160Y-109212049D01*
X128088165Y-109212051D01*
X128088169Y-109212051D01*
X128088170Y-109212052D01*
X128281456Y-109250500D01*
X128281459Y-109250500D01*
X128478543Y-109250500D01*
X128608582Y-109224632D01*
X128671835Y-109212051D01*
X128853914Y-109136632D01*
X129017782Y-109027139D01*
X129157139Y-108887782D01*
X129266632Y-108723914D01*
X129342051Y-108541835D01*
X129354632Y-108478582D01*
X129380500Y-108348543D01*
X129919499Y-108348543D01*
X129957947Y-108541829D01*
X129957950Y-108541839D01*
X130033364Y-108723907D01*
X130033371Y-108723920D01*
X130142860Y-108887781D01*
X130142863Y-108887785D01*
X130282214Y-109027136D01*
X130282218Y-109027139D01*
X130446079Y-109136628D01*
X130446092Y-109136635D01*
X130628160Y-109212049D01*
X130628165Y-109212051D01*
X130628169Y-109212051D01*
X130628170Y-109212052D01*
X130821456Y-109250500D01*
X130821459Y-109250500D01*
X131018543Y-109250500D01*
X131148582Y-109224632D01*
X131211835Y-109212051D01*
X131393914Y-109136632D01*
X131557782Y-109027139D01*
X131697139Y-108887782D01*
X131806632Y-108723914D01*
X131882051Y-108541835D01*
X131894632Y-108478582D01*
X131920500Y-108348543D01*
X131920500Y-108151456D01*
X131882052Y-107958170D01*
X131882051Y-107958169D01*
X131882051Y-107958165D01*
X131871439Y-107932544D01*
X131806635Y-107776092D01*
X131806628Y-107776079D01*
X131697139Y-107612218D01*
X131697136Y-107612214D01*
X131557785Y-107472863D01*
X131557781Y-107472860D01*
X131393920Y-107363371D01*
X131393907Y-107363364D01*
X131211839Y-107287950D01*
X131211829Y-107287947D01*
X131018543Y-107249500D01*
X131018541Y-107249500D01*
X130821459Y-107249500D01*
X130821457Y-107249500D01*
X130628170Y-107287947D01*
X130628160Y-107287950D01*
X130446092Y-107363364D01*
X130446079Y-107363371D01*
X130282218Y-107472860D01*
X130282214Y-107472863D01*
X130142863Y-107612214D01*
X130142860Y-107612218D01*
X130033371Y-107776079D01*
X130033364Y-107776092D01*
X129957950Y-107958160D01*
X129957947Y-107958170D01*
X129919500Y-108151456D01*
X129919500Y-108151459D01*
X129919500Y-108348541D01*
X129919500Y-108348543D01*
X129919499Y-108348543D01*
X129380500Y-108348543D01*
X129380500Y-108151456D01*
X129342052Y-107958170D01*
X129342051Y-107958169D01*
X129342051Y-107958165D01*
X129331439Y-107932544D01*
X129266635Y-107776092D01*
X129266628Y-107776079D01*
X129157139Y-107612218D01*
X129157136Y-107612214D01*
X129017785Y-107472863D01*
X129017781Y-107472860D01*
X128853920Y-107363371D01*
X128853907Y-107363364D01*
X128671839Y-107287950D01*
X128671829Y-107287947D01*
X128478543Y-107249500D01*
X128478541Y-107249500D01*
X128281459Y-107249500D01*
X128281457Y-107249500D01*
X128088170Y-107287947D01*
X128088160Y-107287950D01*
X127906092Y-107363364D01*
X127906079Y-107363371D01*
X127742218Y-107472860D01*
X127742214Y-107472863D01*
X127602863Y-107612214D01*
X127602860Y-107612218D01*
X127493371Y-107776079D01*
X127493364Y-107776092D01*
X127417950Y-107958160D01*
X127417947Y-107958170D01*
X127379500Y-108151456D01*
X127379500Y-108151459D01*
X127379500Y-108348541D01*
X127379500Y-108348543D01*
X127379499Y-108348543D01*
X117000530Y-108348543D01*
X116878578Y-108236795D01*
X116822353Y-108185274D01*
X116814715Y-108177635D01*
X116556843Y-107896217D01*
X116549889Y-107887930D01*
X116317523Y-107585105D01*
X116311318Y-107576244D01*
X116106224Y-107254310D01*
X116100816Y-107244942D01*
X115924566Y-106906369D01*
X115919997Y-106896572D01*
X115773924Y-106543921D01*
X115770224Y-106533755D01*
X115655442Y-106169710D01*
X115652648Y-106159284D01*
X115570025Y-105786597D01*
X115568152Y-105775971D01*
X115518326Y-105397506D01*
X115517386Y-105386771D01*
X115500618Y-105002702D01*
X115500500Y-104997293D01*
X115500500Y-98389822D01*
X148074499Y-98389822D01*
X148083231Y-98433717D01*
X148083234Y-98433724D01*
X148116495Y-98483503D01*
X148116496Y-98483504D01*
X148166278Y-98516767D01*
X148166281Y-98516767D01*
X148166282Y-98516768D01*
X148210177Y-98525500D01*
X148210180Y-98525500D01*
X150189822Y-98525500D01*
X150233717Y-98516768D01*
X150233717Y-98516767D01*
X150233722Y-98516767D01*
X150283504Y-98483504D01*
X150316767Y-98433722D01*
X150325500Y-98389820D01*
X150325500Y-97283909D01*
X154225000Y-97283909D01*
X154225000Y-97516090D01*
X154261318Y-97745393D01*
X154333065Y-97966205D01*
X154438465Y-98173064D01*
X154495238Y-98251207D01*
X155098958Y-97647487D01*
X155123978Y-97707890D01*
X155195112Y-97814351D01*
X155285649Y-97904888D01*
X155392110Y-97976022D01*
X155452510Y-98001041D01*
X154848791Y-98604759D01*
X154848791Y-98604760D01*
X154926935Y-98661534D01*
X155133794Y-98766934D01*
X155354606Y-98838681D01*
X155583910Y-98875000D01*
X155816090Y-98875000D01*
X156045393Y-98838681D01*
X156266205Y-98766934D01*
X156473071Y-98661530D01*
X156551207Y-98604762D01*
X156551208Y-98604760D01*
X156280556Y-98334108D01*
X159399500Y-98334108D01*
X159399500Y-98465892D01*
X159413131Y-98516765D01*
X159433608Y-98593187D01*
X159440290Y-98604760D01*
X159499500Y-98707314D01*
X159592686Y-98800500D01*
X159706814Y-98866392D01*
X159834108Y-98900500D01*
X159834110Y-98900500D01*
X159965890Y-98900500D01*
X159965892Y-98900500D01*
X160093186Y-98866392D01*
X160207314Y-98800500D01*
X160300500Y-98707314D01*
X160366392Y-98593186D01*
X160382222Y-98534108D01*
X171999500Y-98534108D01*
X171999500Y-98665892D01*
X172016554Y-98729539D01*
X172033608Y-98793187D01*
X172059875Y-98838681D01*
X172099500Y-98907314D01*
X172192686Y-99000500D01*
X172306814Y-99066392D01*
X172434108Y-99100500D01*
X172434110Y-99100500D01*
X172565890Y-99100500D01*
X172565892Y-99100500D01*
X172693186Y-99066392D01*
X172807314Y-99000500D01*
X172900500Y-98907314D01*
X172966392Y-98793186D01*
X173000500Y-98665892D01*
X173000500Y-98613543D01*
X181999499Y-98613543D01*
X182037947Y-98806829D01*
X182037950Y-98806839D01*
X182113364Y-98988907D01*
X182113371Y-98988920D01*
X182222860Y-99152781D01*
X182222863Y-99152785D01*
X182362214Y-99292136D01*
X182362218Y-99292139D01*
X182526079Y-99401628D01*
X182526092Y-99401635D01*
X182708160Y-99477049D01*
X182708165Y-99477051D01*
X182708169Y-99477051D01*
X182708170Y-99477052D01*
X182901456Y-99515500D01*
X182901459Y-99515500D01*
X183098543Y-99515500D01*
X183228582Y-99489632D01*
X183291835Y-99477051D01*
X183473914Y-99401632D01*
X183637782Y-99292139D01*
X183777139Y-99152782D01*
X183886632Y-98988914D01*
X183962051Y-98806835D01*
X183990087Y-98665890D01*
X184000500Y-98613543D01*
X184000500Y-98416456D01*
X183962052Y-98223170D01*
X183962051Y-98223169D01*
X183962051Y-98223165D01*
X183955278Y-98206814D01*
X183886635Y-98041092D01*
X183886628Y-98041079D01*
X183777139Y-97877218D01*
X183777136Y-97877214D01*
X183637785Y-97737863D01*
X183637781Y-97737860D01*
X183473920Y-97628371D01*
X183473907Y-97628364D01*
X183291839Y-97552950D01*
X183291829Y-97552947D01*
X183098543Y-97514500D01*
X183098541Y-97514500D01*
X182901459Y-97514500D01*
X182901457Y-97514500D01*
X182708170Y-97552947D01*
X182708160Y-97552950D01*
X182526092Y-97628364D01*
X182526079Y-97628371D01*
X182362218Y-97737860D01*
X182362214Y-97737863D01*
X182222863Y-97877214D01*
X182222860Y-97877218D01*
X182113371Y-98041079D01*
X182113364Y-98041092D01*
X182037950Y-98223160D01*
X182037947Y-98223170D01*
X181999500Y-98416456D01*
X181999500Y-98416459D01*
X181999500Y-98613541D01*
X181999500Y-98613543D01*
X181999499Y-98613543D01*
X173000500Y-98613543D01*
X173000500Y-98534108D01*
X172966392Y-98406814D01*
X172900500Y-98292686D01*
X172807314Y-98199500D01*
X172750250Y-98166554D01*
X172693187Y-98133608D01*
X172629539Y-98116554D01*
X172565892Y-98099500D01*
X172434108Y-98099500D01*
X172306812Y-98133608D01*
X172192686Y-98199500D01*
X172192683Y-98199502D01*
X172099502Y-98292683D01*
X172099500Y-98292686D01*
X172033608Y-98406812D01*
X172013059Y-98483503D01*
X171999500Y-98534108D01*
X160382222Y-98534108D01*
X160400500Y-98465892D01*
X160400500Y-98334108D01*
X160366392Y-98206814D01*
X160300500Y-98092686D01*
X160207314Y-97999500D01*
X160149646Y-97966205D01*
X160093187Y-97933608D01*
X159986000Y-97904888D01*
X159965892Y-97899500D01*
X159834108Y-97899500D01*
X159706812Y-97933608D01*
X159592686Y-97999500D01*
X159592683Y-97999502D01*
X159499502Y-98092683D01*
X159499500Y-98092686D01*
X159433608Y-98206812D01*
X159410600Y-98292683D01*
X159399500Y-98334108D01*
X156280556Y-98334108D01*
X155947488Y-98001041D01*
X156007890Y-97976022D01*
X156114351Y-97904888D01*
X156204888Y-97814351D01*
X156276022Y-97707890D01*
X156301041Y-97647489D01*
X156904760Y-98251208D01*
X156904761Y-98251207D01*
X156961530Y-98173071D01*
X157066934Y-97966205D01*
X157138681Y-97745393D01*
X157175000Y-97516090D01*
X157175000Y-97283909D01*
X157138681Y-97054606D01*
X157068893Y-96839822D01*
X181999499Y-96839822D01*
X182008231Y-96883717D01*
X182008232Y-96883721D01*
X182008233Y-96883722D01*
X182041496Y-96933504D01*
X182091278Y-96966767D01*
X182091281Y-96966767D01*
X182091282Y-96966768D01*
X182135177Y-96975500D01*
X182135180Y-96975500D01*
X183864822Y-96975500D01*
X183908717Y-96966768D01*
X183908717Y-96966767D01*
X183908722Y-96966767D01*
X183958504Y-96933504D01*
X183991767Y-96883722D01*
X184000500Y-96839820D01*
X184000500Y-95110180D01*
X184000500Y-95110177D01*
X183991768Y-95066282D01*
X183991767Y-95066281D01*
X183991767Y-95066278D01*
X183958504Y-95016496D01*
X183958503Y-95016495D01*
X183908724Y-94983234D01*
X183908717Y-94983231D01*
X183864822Y-94974500D01*
X183864820Y-94974500D01*
X182135180Y-94974500D01*
X182135178Y-94974500D01*
X182091282Y-94983231D01*
X182091275Y-94983234D01*
X182041496Y-95016495D01*
X182041495Y-95016496D01*
X182008234Y-95066275D01*
X182008231Y-95066282D01*
X181999500Y-95110177D01*
X181999500Y-95110180D01*
X181999500Y-96839820D01*
X181999500Y-96839822D01*
X181999499Y-96839822D01*
X157068893Y-96839822D01*
X157066934Y-96833794D01*
X156961534Y-96626935D01*
X156904760Y-96548791D01*
X156904759Y-96548791D01*
X156301041Y-97152510D01*
X156276022Y-97092110D01*
X156204888Y-96985649D01*
X156114351Y-96895112D01*
X156007890Y-96823978D01*
X155947487Y-96798957D01*
X156551207Y-96195238D01*
X156473064Y-96138465D01*
X156266205Y-96033065D01*
X156045393Y-95961318D01*
X155816090Y-95925000D01*
X155583910Y-95925000D01*
X155354606Y-95961318D01*
X155133794Y-96033065D01*
X154926925Y-96138470D01*
X154848791Y-96195237D01*
X154848791Y-96195238D01*
X155452511Y-96798958D01*
X155392110Y-96823978D01*
X155285649Y-96895112D01*
X155195112Y-96985649D01*
X155123978Y-97092110D01*
X155098958Y-97152511D01*
X154495238Y-96548791D01*
X154495237Y-96548791D01*
X154438470Y-96626925D01*
X154333065Y-96833794D01*
X154261318Y-97054606D01*
X154225000Y-97283909D01*
X150325500Y-97283909D01*
X150325500Y-96410180D01*
X150325500Y-96410177D01*
X150316768Y-96366282D01*
X150316767Y-96366279D01*
X150316767Y-96366278D01*
X150283504Y-96316496D01*
X150283503Y-96316495D01*
X150233724Y-96283234D01*
X150233717Y-96283231D01*
X150189822Y-96274500D01*
X150189820Y-96274500D01*
X148210180Y-96274500D01*
X148210178Y-96274500D01*
X148166282Y-96283231D01*
X148166275Y-96283234D01*
X148116496Y-96316495D01*
X148116495Y-96316496D01*
X148083234Y-96366275D01*
X148083231Y-96366282D01*
X148074500Y-96410177D01*
X148074500Y-96410180D01*
X148074500Y-98389820D01*
X148074500Y-98389822D01*
X148074499Y-98389822D01*
X115500500Y-98389822D01*
X115500500Y-94934108D01*
X149499500Y-94934108D01*
X149499500Y-95065892D01*
X149511366Y-95110177D01*
X149533608Y-95193187D01*
X149566554Y-95250250D01*
X149599500Y-95307314D01*
X149692686Y-95400500D01*
X149806814Y-95466392D01*
X149934108Y-95500500D01*
X149934110Y-95500500D01*
X150065890Y-95500500D01*
X150065892Y-95500500D01*
X150193186Y-95466392D01*
X150307314Y-95400500D01*
X150400500Y-95307314D01*
X150466392Y-95193186D01*
X150500500Y-95065892D01*
X150500500Y-94934108D01*
X150466392Y-94806814D01*
X150400500Y-94692686D01*
X150307314Y-94599500D01*
X150250250Y-94566554D01*
X150193187Y-94533608D01*
X150129539Y-94516554D01*
X150065892Y-94499500D01*
X149934108Y-94499500D01*
X149806812Y-94533608D01*
X149692686Y-94599500D01*
X149692683Y-94599502D01*
X149599502Y-94692683D01*
X149599500Y-94692686D01*
X149533608Y-94806812D01*
X149499500Y-94934108D01*
X115500500Y-94934108D01*
X115500500Y-91934108D01*
X132399500Y-91934108D01*
X132399500Y-92065891D01*
X132433608Y-92193187D01*
X132466554Y-92250250D01*
X132499500Y-92307314D01*
X132592686Y-92400500D01*
X132706814Y-92466392D01*
X132834108Y-92500500D01*
X132834110Y-92500500D01*
X132965890Y-92500500D01*
X132965892Y-92500500D01*
X133093186Y-92466392D01*
X133207314Y-92400500D01*
X133300500Y-92307314D01*
X133366392Y-92193186D01*
X133400500Y-92065892D01*
X133400500Y-91934108D01*
X133366392Y-91806814D01*
X133300500Y-91692686D01*
X133207314Y-91599500D01*
X133149100Y-91565890D01*
X133093187Y-91533608D01*
X133029539Y-91516554D01*
X132965892Y-91499500D01*
X132834108Y-91499500D01*
X132706812Y-91533608D01*
X132592686Y-91599500D01*
X132592683Y-91599502D01*
X132499502Y-91692683D01*
X132499500Y-91692686D01*
X132433608Y-91806812D01*
X132399500Y-91934108D01*
X115500500Y-91934108D01*
X115500500Y-90434108D01*
X153891486Y-90434108D01*
X153891486Y-90565891D01*
X153925594Y-90693187D01*
X153927825Y-90697051D01*
X153991486Y-90807314D01*
X154084672Y-90900500D01*
X154198800Y-90966392D01*
X154326094Y-91000500D01*
X154326096Y-91000500D01*
X154457874Y-91000500D01*
X154457878Y-91000500D01*
X154468946Y-90997534D01*
X154538792Y-90999195D01*
X154596656Y-91038355D01*
X154624163Y-91102583D01*
X154612578Y-91171485D01*
X154599730Y-91192287D01*
X154533608Y-91306812D01*
X154499500Y-91434108D01*
X154499500Y-91565891D01*
X154533608Y-91693187D01*
X154566554Y-91750250D01*
X154599500Y-91807314D01*
X154692686Y-91900500D01*
X154806814Y-91966392D01*
X154934108Y-92000500D01*
X154934110Y-92000500D01*
X155065890Y-92000500D01*
X155065892Y-92000500D01*
X155193186Y-91966392D01*
X155307314Y-91900500D01*
X155400500Y-91807314D01*
X155466392Y-91693186D01*
X155500500Y-91565892D01*
X155500500Y-91434108D01*
X155466392Y-91306814D01*
X155400500Y-91192686D01*
X155307314Y-91099500D01*
X155250250Y-91066554D01*
X155193187Y-91033608D01*
X155129539Y-91016554D01*
X155065892Y-90999500D01*
X154934108Y-90999500D01*
X154923035Y-91002467D01*
X154853185Y-91000802D01*
X154795324Y-90961638D01*
X154767822Y-90897409D01*
X154779410Y-90828507D01*
X154792243Y-90807732D01*
X154792482Y-90807317D01*
X154792486Y-90807314D01*
X154858378Y-90693186D01*
X154892486Y-90565892D01*
X154892486Y-90434108D01*
X154858378Y-90306814D01*
X154792486Y-90192686D01*
X154699300Y-90099500D01*
X154642236Y-90066554D01*
X154586039Y-90034108D01*
X155099500Y-90034108D01*
X155099500Y-90165892D01*
X155111026Y-90208907D01*
X155133608Y-90293187D01*
X155141475Y-90306812D01*
X155199500Y-90407314D01*
X155292686Y-90500500D01*
X155391521Y-90557563D01*
X155405944Y-90565890D01*
X155406814Y-90566392D01*
X155534108Y-90600500D01*
X155534110Y-90600500D01*
X155665890Y-90600500D01*
X155665892Y-90600500D01*
X155793186Y-90566392D01*
X155907314Y-90500500D01*
X156000500Y-90407314D01*
X156066392Y-90293186D01*
X156100500Y-90165892D01*
X156100500Y-90034108D01*
X156066392Y-89906814D01*
X156000500Y-89792686D01*
X155907314Y-89699500D01*
X155841421Y-89661456D01*
X155793185Y-89633607D01*
X155791556Y-89633171D01*
X155790336Y-89632427D01*
X155785682Y-89630500D01*
X155785982Y-89629773D01*
X155731896Y-89596806D01*
X155701368Y-89533959D01*
X155709663Y-89464583D01*
X155754149Y-89410706D01*
X155791553Y-89393624D01*
X155893186Y-89366392D01*
X156007314Y-89300500D01*
X156100500Y-89207314D01*
X156166392Y-89093186D01*
X156200500Y-88965892D01*
X156200500Y-88834108D01*
X156179734Y-88756606D01*
X156180267Y-88734108D01*
X170199500Y-88734108D01*
X170199500Y-88865891D01*
X170233608Y-88993187D01*
X170266554Y-89050250D01*
X170299500Y-89107314D01*
X170392686Y-89200500D01*
X170506814Y-89266392D01*
X170634108Y-89300500D01*
X170634110Y-89300500D01*
X170765890Y-89300500D01*
X170765892Y-89300500D01*
X170893186Y-89266392D01*
X171007314Y-89200500D01*
X171100500Y-89107314D01*
X171166392Y-88993186D01*
X171200500Y-88865892D01*
X171200500Y-88734108D01*
X171166392Y-88606814D01*
X171100500Y-88492686D01*
X171007314Y-88399500D01*
X170950250Y-88366554D01*
X170893187Y-88333608D01*
X170817234Y-88313257D01*
X170765892Y-88299500D01*
X170634108Y-88299500D01*
X170506812Y-88333608D01*
X170392686Y-88399500D01*
X170392683Y-88399502D01*
X170299502Y-88492683D01*
X170299500Y-88492686D01*
X170233608Y-88606812D01*
X170199500Y-88734108D01*
X156180267Y-88734108D01*
X156181389Y-88686756D01*
X156220545Y-88628889D01*
X156284771Y-88601378D01*
X156299505Y-88600500D01*
X156365890Y-88600500D01*
X156365892Y-88600500D01*
X156493186Y-88566392D01*
X156607314Y-88500500D01*
X156700500Y-88407314D01*
X156766392Y-88293186D01*
X156800404Y-88166249D01*
X156836766Y-88106593D01*
X156899613Y-88076063D01*
X156952266Y-88078570D01*
X157034108Y-88100500D01*
X157034111Y-88100500D01*
X157165890Y-88100500D01*
X157165892Y-88100500D01*
X157293186Y-88066392D01*
X157407314Y-88000500D01*
X157500500Y-87907314D01*
X157566392Y-87793186D01*
X157600500Y-87665892D01*
X157600500Y-87534108D01*
X157566392Y-87406814D01*
X157500500Y-87292686D01*
X157407314Y-87199500D01*
X157321202Y-87149783D01*
X157293187Y-87133608D01*
X157229539Y-87116554D01*
X157165892Y-87099500D01*
X157034108Y-87099500D01*
X156906812Y-87133608D01*
X156792686Y-87199500D01*
X156792683Y-87199502D01*
X156699502Y-87292683D01*
X156699500Y-87292686D01*
X156637830Y-87399502D01*
X156633608Y-87406814D01*
X156610600Y-87492683D01*
X156599597Y-87533747D01*
X156563232Y-87593407D01*
X156500385Y-87623936D01*
X156447729Y-87621428D01*
X156393188Y-87606814D01*
X156365892Y-87599500D01*
X156234108Y-87599500D01*
X156106812Y-87633608D01*
X155992686Y-87699500D01*
X155992683Y-87699502D01*
X155899502Y-87792683D01*
X155899500Y-87792686D01*
X155833608Y-87906812D01*
X155799500Y-88034108D01*
X155799500Y-88165891D01*
X155820270Y-88243407D01*
X155818607Y-88313257D01*
X155779444Y-88371119D01*
X155715216Y-88398623D01*
X155700495Y-88399500D01*
X155634108Y-88399500D01*
X155506812Y-88433608D01*
X155392686Y-88499500D01*
X155392683Y-88499502D01*
X155299502Y-88592683D01*
X155299500Y-88592686D01*
X155233608Y-88706812D01*
X155199500Y-88834108D01*
X155199500Y-88965891D01*
X155233608Y-89093187D01*
X155241766Y-89107316D01*
X155299500Y-89207314D01*
X155392686Y-89300500D01*
X155479843Y-89350820D01*
X155506810Y-89366390D01*
X155506814Y-89366392D01*
X155508437Y-89366826D01*
X155509652Y-89367567D01*
X155514318Y-89369500D01*
X155514016Y-89370227D01*
X155568097Y-89403186D01*
X155598630Y-89466032D01*
X155590339Y-89535408D01*
X155545857Y-89589288D01*
X155508441Y-89606377D01*
X155406814Y-89633608D01*
X155406812Y-89633608D01*
X155406812Y-89633609D01*
X155292686Y-89699500D01*
X155292683Y-89699502D01*
X155199502Y-89792683D01*
X155199500Y-89792686D01*
X155133608Y-89906812D01*
X155108773Y-89999500D01*
X155099500Y-90034108D01*
X154586039Y-90034108D01*
X154585173Y-90033608D01*
X154521525Y-90016554D01*
X154457878Y-89999500D01*
X154326094Y-89999500D01*
X154198798Y-90033608D01*
X154084672Y-90099500D01*
X154084669Y-90099502D01*
X153991488Y-90192683D01*
X153991486Y-90192686D01*
X153925594Y-90306812D01*
X153891486Y-90434108D01*
X115500500Y-90434108D01*
X115500500Y-86434108D01*
X128299500Y-86434108D01*
X128299500Y-86565892D01*
X128316554Y-86629539D01*
X128333608Y-86693187D01*
X128366554Y-86750250D01*
X128399500Y-86807314D01*
X128492686Y-86900500D01*
X128605692Y-86965744D01*
X128653908Y-87016311D01*
X128667131Y-87084918D01*
X128641163Y-87149783D01*
X128631374Y-87160811D01*
X128599503Y-87192682D01*
X128599500Y-87192686D01*
X128533608Y-87306812D01*
X128499500Y-87434108D01*
X128499500Y-87565891D01*
X128533608Y-87693187D01*
X128566554Y-87750250D01*
X128599500Y-87807314D01*
X128692686Y-87900500D01*
X128806814Y-87966392D01*
X128934108Y-88000500D01*
X128934110Y-88000500D01*
X129065890Y-88000500D01*
X129065892Y-88000500D01*
X129193186Y-87966392D01*
X129307314Y-87900500D01*
X129400500Y-87807314D01*
X129442766Y-87734108D01*
X153999500Y-87734108D01*
X153999500Y-87865892D01*
X154016554Y-87929539D01*
X154033608Y-87993187D01*
X154057234Y-88034108D01*
X154099500Y-88107314D01*
X154192686Y-88200500D01*
X154306814Y-88266392D01*
X154434108Y-88300500D01*
X154434110Y-88300500D01*
X154565890Y-88300500D01*
X154565892Y-88300500D01*
X154693186Y-88266392D01*
X154807314Y-88200500D01*
X154900500Y-88107314D01*
X154966392Y-87993186D01*
X155000500Y-87865892D01*
X155000500Y-87734108D01*
X154966392Y-87606814D01*
X154900500Y-87492686D01*
X154807314Y-87399500D01*
X154750250Y-87366554D01*
X154693187Y-87333608D01*
X154593188Y-87306814D01*
X154565892Y-87299500D01*
X154434108Y-87299500D01*
X154306812Y-87333608D01*
X154192686Y-87399500D01*
X154192683Y-87399502D01*
X154099502Y-87492683D01*
X154099500Y-87492686D01*
X154033608Y-87606812D01*
X154008337Y-87701127D01*
X153999500Y-87734108D01*
X129442766Y-87734108D01*
X129466392Y-87693186D01*
X129500500Y-87565892D01*
X129500500Y-87434108D01*
X129466392Y-87306814D01*
X129400500Y-87192686D01*
X129307314Y-87099500D01*
X129194307Y-87034255D01*
X129146091Y-86983688D01*
X129132869Y-86915081D01*
X129158837Y-86850216D01*
X129168619Y-86839194D01*
X129200500Y-86807314D01*
X129266392Y-86693186D01*
X129282222Y-86634108D01*
X137799500Y-86634108D01*
X137799500Y-86765892D01*
X137816554Y-86829539D01*
X137833608Y-86893187D01*
X137837831Y-86900501D01*
X137899500Y-87007314D01*
X137992686Y-87100500D01*
X138106814Y-87166392D01*
X138234108Y-87200500D01*
X138234110Y-87200500D01*
X138365890Y-87200500D01*
X138365892Y-87200500D01*
X138493186Y-87166392D01*
X138607314Y-87100500D01*
X138700500Y-87007314D01*
X138766392Y-86893186D01*
X138800500Y-86765892D01*
X138800500Y-86634108D01*
X138766392Y-86506814D01*
X138700500Y-86392686D01*
X138607314Y-86299500D01*
X138550250Y-86266554D01*
X138493187Y-86233608D01*
X138429539Y-86216554D01*
X138365892Y-86199500D01*
X138234108Y-86199500D01*
X138106812Y-86233608D01*
X137992686Y-86299500D01*
X137992683Y-86299502D01*
X137899502Y-86392683D01*
X137899500Y-86392686D01*
X137833608Y-86506812D01*
X137817778Y-86565892D01*
X137799500Y-86634108D01*
X129282222Y-86634108D01*
X129300500Y-86565892D01*
X129300500Y-86434108D01*
X129266392Y-86306814D01*
X129200500Y-86192686D01*
X129107314Y-86099500D01*
X129050250Y-86066554D01*
X128993187Y-86033608D01*
X128929539Y-86016554D01*
X128865892Y-85999500D01*
X128734108Y-85999500D01*
X128606812Y-86033608D01*
X128492686Y-86099500D01*
X128492683Y-86099502D01*
X128399502Y-86192683D01*
X128399500Y-86192686D01*
X128333608Y-86306812D01*
X128310600Y-86392683D01*
X128299500Y-86434108D01*
X115500500Y-86434108D01*
X115500500Y-84234108D01*
X156599500Y-84234108D01*
X156599500Y-84365891D01*
X156633608Y-84493187D01*
X156666554Y-84550250D01*
X156699500Y-84607314D01*
X156792686Y-84700500D01*
X156906814Y-84766392D01*
X157034108Y-84800500D01*
X157034110Y-84800500D01*
X157165890Y-84800500D01*
X157165892Y-84800500D01*
X157293186Y-84766392D01*
X157407314Y-84700500D01*
X157500500Y-84607314D01*
X157566392Y-84493186D01*
X157600500Y-84365892D01*
X157600500Y-84234108D01*
X157566392Y-84106814D01*
X157500500Y-83992686D01*
X157407314Y-83899500D01*
X157350250Y-83866554D01*
X157293187Y-83833608D01*
X157229539Y-83816554D01*
X157165892Y-83799500D01*
X157034108Y-83799500D01*
X156906812Y-83833608D01*
X156792686Y-83899500D01*
X156792683Y-83899502D01*
X156699502Y-83992683D01*
X156699500Y-83992686D01*
X156633608Y-84106812D01*
X156599500Y-84234108D01*
X115500500Y-84234108D01*
X115500500Y-83034108D01*
X158199500Y-83034108D01*
X158199500Y-83165892D01*
X158216554Y-83229539D01*
X158233608Y-83293187D01*
X158241475Y-83306812D01*
X158299500Y-83407314D01*
X158392686Y-83500500D01*
X158491521Y-83557563D01*
X158505944Y-83565890D01*
X158506814Y-83566392D01*
X158634108Y-83600500D01*
X158634110Y-83600500D01*
X158765890Y-83600500D01*
X158765892Y-83600500D01*
X158872730Y-83571873D01*
X158942579Y-83573536D01*
X159000441Y-83612699D01*
X159024597Y-83659555D01*
X159033608Y-83693187D01*
X159066554Y-83750250D01*
X159099500Y-83807314D01*
X159192686Y-83900500D01*
X159306814Y-83966392D01*
X159434108Y-84000500D01*
X159434110Y-84000500D01*
X159565890Y-84000500D01*
X159565892Y-84000500D01*
X159693186Y-83966392D01*
X159807314Y-83900500D01*
X159900500Y-83807314D01*
X159966392Y-83693186D01*
X160000500Y-83565892D01*
X160000500Y-83434108D01*
X159966392Y-83306814D01*
X159900500Y-83192686D01*
X159807314Y-83099500D01*
X159750250Y-83066554D01*
X159693187Y-83033608D01*
X159629539Y-83016554D01*
X159565892Y-82999500D01*
X159434108Y-82999500D01*
X159434106Y-82999500D01*
X159327269Y-83028126D01*
X159325264Y-83028078D01*
X159323519Y-83029069D01*
X159290484Y-83027250D01*
X159257419Y-83026463D01*
X159255757Y-83025338D01*
X159253755Y-83025228D01*
X159226949Y-83005839D01*
X159199557Y-82987299D01*
X159198254Y-82985084D01*
X159197142Y-82984280D01*
X159193712Y-82977365D01*
X159179722Y-82953584D01*
X159177196Y-82947138D01*
X159166392Y-82906814D01*
X159124415Y-82834108D01*
X164499500Y-82834108D01*
X164499500Y-82965892D01*
X164505236Y-82987299D01*
X164533608Y-83093187D01*
X164566554Y-83150250D01*
X164599500Y-83207314D01*
X164692686Y-83300500D01*
X164806814Y-83366392D01*
X164934108Y-83400500D01*
X164934110Y-83400500D01*
X165065890Y-83400500D01*
X165065892Y-83400500D01*
X165193186Y-83366392D01*
X165307314Y-83300500D01*
X165400500Y-83207314D01*
X165466392Y-83093186D01*
X165500500Y-82965892D01*
X165500500Y-82834108D01*
X165466392Y-82706814D01*
X165400500Y-82592686D01*
X165307314Y-82499500D01*
X165249968Y-82466391D01*
X165193187Y-82433608D01*
X165129539Y-82416554D01*
X165065892Y-82399500D01*
X164934108Y-82399500D01*
X164806812Y-82433608D01*
X164692686Y-82499500D01*
X164692683Y-82499502D01*
X164599502Y-82592683D01*
X164599500Y-82592686D01*
X164533608Y-82706812D01*
X164502844Y-82821628D01*
X164499500Y-82834108D01*
X159124415Y-82834108D01*
X159100500Y-82792686D01*
X159007314Y-82699500D01*
X158950250Y-82666554D01*
X158893187Y-82633608D01*
X158829539Y-82616554D01*
X158765892Y-82599500D01*
X158634108Y-82599500D01*
X158506812Y-82633608D01*
X158392686Y-82699500D01*
X158392683Y-82699502D01*
X158299502Y-82792683D01*
X158299500Y-82792686D01*
X158233608Y-82906812D01*
X158201879Y-83025228D01*
X158199500Y-83034108D01*
X115500500Y-83034108D01*
X115500500Y-82034108D01*
X153899500Y-82034108D01*
X153899500Y-82165891D01*
X153933608Y-82293187D01*
X153941766Y-82307316D01*
X153999500Y-82407314D01*
X154092686Y-82500500D01*
X154206814Y-82566392D01*
X154334108Y-82600500D01*
X154334110Y-82600500D01*
X154465890Y-82600500D01*
X154465892Y-82600500D01*
X154593186Y-82566392D01*
X154707314Y-82500500D01*
X154800500Y-82407314D01*
X154866392Y-82293186D01*
X154900500Y-82165892D01*
X154900500Y-82034108D01*
X154873705Y-81934108D01*
X156999500Y-81934108D01*
X156999500Y-82065891D01*
X157033608Y-82193187D01*
X157048054Y-82218208D01*
X157099500Y-82307314D01*
X157192686Y-82400500D01*
X157306814Y-82466392D01*
X157434108Y-82500500D01*
X157434110Y-82500500D01*
X157565890Y-82500500D01*
X157565892Y-82500500D01*
X157693186Y-82466392D01*
X157807314Y-82400500D01*
X157900500Y-82307314D01*
X157966392Y-82193186D01*
X158000500Y-82065892D01*
X158000500Y-82034108D01*
X163099500Y-82034108D01*
X163099500Y-82165891D01*
X163133608Y-82293187D01*
X163141766Y-82307316D01*
X163199500Y-82407314D01*
X163292686Y-82500500D01*
X163406814Y-82566392D01*
X163534108Y-82600500D01*
X163534110Y-82600500D01*
X163665890Y-82600500D01*
X163665892Y-82600500D01*
X163793186Y-82566392D01*
X163907314Y-82500500D01*
X164000500Y-82407314D01*
X164066392Y-82293186D01*
X164076252Y-82256389D01*
X178219600Y-82256389D01*
X178219600Y-82383610D01*
X178244415Y-82508365D01*
X178244418Y-82508375D01*
X178293097Y-82625898D01*
X178293102Y-82625907D01*
X178363773Y-82731673D01*
X178363776Y-82731677D01*
X178453722Y-82821623D01*
X178453726Y-82821626D01*
X178559492Y-82892297D01*
X178559498Y-82892300D01*
X178559499Y-82892301D01*
X178677027Y-82940983D01*
X178801789Y-82965799D01*
X178801793Y-82965800D01*
X178801794Y-82965800D01*
X179741807Y-82965800D01*
X179741808Y-82965799D01*
X179866573Y-82940983D01*
X179984101Y-82892301D01*
X180089874Y-82821626D01*
X180179826Y-82731674D01*
X180250501Y-82625901D01*
X180299183Y-82508373D01*
X180324000Y-82383606D01*
X180324000Y-82256394D01*
X180299183Y-82131627D01*
X180250501Y-82014099D01*
X180250500Y-82014098D01*
X180250497Y-82014092D01*
X180179826Y-81908326D01*
X180179823Y-81908322D01*
X180089877Y-81818376D01*
X180089873Y-81818373D01*
X179984107Y-81747702D01*
X179984098Y-81747697D01*
X179886601Y-81707313D01*
X179866573Y-81699017D01*
X179866569Y-81699016D01*
X179866565Y-81699015D01*
X179741810Y-81674200D01*
X179741806Y-81674200D01*
X178801794Y-81674200D01*
X178801789Y-81674200D01*
X178677034Y-81699015D01*
X178677024Y-81699018D01*
X178559501Y-81747697D01*
X178559492Y-81747702D01*
X178453726Y-81818373D01*
X178453722Y-81818376D01*
X178363776Y-81908322D01*
X178363773Y-81908326D01*
X178293102Y-82014092D01*
X178293097Y-82014101D01*
X178244418Y-82131624D01*
X178244415Y-82131634D01*
X178219600Y-82256389D01*
X164076252Y-82256389D01*
X164100500Y-82165892D01*
X164100500Y-82034108D01*
X164066392Y-81906814D01*
X164000500Y-81792686D01*
X163907314Y-81699500D01*
X163850250Y-81666554D01*
X163793187Y-81633608D01*
X163729539Y-81616554D01*
X163665892Y-81599500D01*
X163534108Y-81599500D01*
X163406812Y-81633608D01*
X163292686Y-81699500D01*
X163292683Y-81699502D01*
X163199502Y-81792683D01*
X163199500Y-81792686D01*
X163133608Y-81906812D01*
X163099500Y-82034108D01*
X158000500Y-82034108D01*
X158000500Y-81934108D01*
X157966392Y-81806814D01*
X157900500Y-81692686D01*
X157807314Y-81599500D01*
X157722442Y-81550499D01*
X157693187Y-81533608D01*
X157628931Y-81516391D01*
X157565892Y-81499500D01*
X157434108Y-81499500D01*
X157306812Y-81533608D01*
X157192686Y-81599500D01*
X157192683Y-81599502D01*
X157099502Y-81692683D01*
X157099500Y-81692686D01*
X157033608Y-81806812D01*
X156999500Y-81934108D01*
X154873705Y-81934108D01*
X154866392Y-81906814D01*
X154800500Y-81792686D01*
X154707314Y-81699500D01*
X154650250Y-81666554D01*
X154593187Y-81633608D01*
X154529539Y-81616554D01*
X154465892Y-81599500D01*
X154334108Y-81599500D01*
X154206812Y-81633608D01*
X154092686Y-81699500D01*
X154092683Y-81699502D01*
X153999502Y-81792683D01*
X153999500Y-81792686D01*
X153933608Y-81906812D01*
X153899500Y-82034108D01*
X115500500Y-82034108D01*
X115500500Y-81334108D01*
X132899500Y-81334108D01*
X132899500Y-81465891D01*
X132933608Y-81593187D01*
X132956946Y-81633608D01*
X132999500Y-81707314D01*
X133092686Y-81800500D01*
X133206814Y-81866392D01*
X133334108Y-81900500D01*
X133334110Y-81900500D01*
X133465890Y-81900500D01*
X133465892Y-81900500D01*
X133593186Y-81866392D01*
X133707314Y-81800500D01*
X133800500Y-81707314D01*
X133866392Y-81593186D01*
X133900500Y-81465892D01*
X133900500Y-81334108D01*
X133866392Y-81206814D01*
X133800500Y-81092686D01*
X133707314Y-80999500D01*
X133680654Y-80984108D01*
X155949500Y-80984108D01*
X155949500Y-81115891D01*
X155983608Y-81243187D01*
X156016554Y-81300250D01*
X156049500Y-81357314D01*
X156142686Y-81450500D01*
X156256814Y-81516392D01*
X156384108Y-81550500D01*
X156384110Y-81550500D01*
X156515890Y-81550500D01*
X156515892Y-81550500D01*
X156643186Y-81516392D01*
X156757314Y-81450500D01*
X156850500Y-81357314D01*
X156916392Y-81243186D01*
X156950500Y-81115892D01*
X156950500Y-80984108D01*
X156916392Y-80856814D01*
X156850500Y-80742686D01*
X156757314Y-80649500D01*
X156672439Y-80600497D01*
X156643187Y-80583608D01*
X156578931Y-80566391D01*
X156515892Y-80549500D01*
X156384108Y-80549500D01*
X156256812Y-80583608D01*
X156142686Y-80649500D01*
X156142683Y-80649502D01*
X156049502Y-80742683D01*
X156049500Y-80742686D01*
X155983608Y-80856812D01*
X155949500Y-80984108D01*
X133680654Y-80984108D01*
X133650250Y-80966554D01*
X133593187Y-80933608D01*
X133529539Y-80916554D01*
X133465892Y-80899500D01*
X133334108Y-80899500D01*
X133206812Y-80933608D01*
X133092686Y-80999500D01*
X133092683Y-80999502D01*
X132999502Y-81092683D01*
X132999500Y-81092686D01*
X132933608Y-81206812D01*
X132899500Y-81334108D01*
X115500500Y-81334108D01*
X115500500Y-80134108D01*
X125499500Y-80134108D01*
X125499500Y-80265892D01*
X125506813Y-80293186D01*
X125533608Y-80393187D01*
X125541766Y-80407316D01*
X125599500Y-80507314D01*
X125692686Y-80600500D01*
X125806814Y-80666392D01*
X125934108Y-80700500D01*
X125934110Y-80700500D01*
X126065890Y-80700500D01*
X126065892Y-80700500D01*
X126193186Y-80666392D01*
X126307314Y-80600500D01*
X126400500Y-80507314D01*
X126466392Y-80393186D01*
X126480225Y-80341556D01*
X126516590Y-80281897D01*
X126579436Y-80251368D01*
X126648812Y-80259662D01*
X126702690Y-80304147D01*
X126719773Y-80341555D01*
X126720211Y-80343186D01*
X126733608Y-80393187D01*
X126741766Y-80407316D01*
X126799500Y-80507314D01*
X126892686Y-80600500D01*
X127006814Y-80666392D01*
X127134108Y-80700500D01*
X127134110Y-80700500D01*
X127265890Y-80700500D01*
X127265892Y-80700500D01*
X127393186Y-80666392D01*
X127507314Y-80600500D01*
X127600500Y-80507314D01*
X127666392Y-80393186D01*
X127700500Y-80265892D01*
X127700500Y-80134108D01*
X127687103Y-80084108D01*
X154749500Y-80084108D01*
X154749500Y-80215891D01*
X154783608Y-80343187D01*
X154812476Y-80393186D01*
X154849500Y-80457314D01*
X154942686Y-80550500D01*
X155056814Y-80616392D01*
X155184108Y-80650500D01*
X155184110Y-80650500D01*
X155315890Y-80650500D01*
X155315892Y-80650500D01*
X155443186Y-80616392D01*
X155557314Y-80550500D01*
X155650500Y-80457314D01*
X155716392Y-80343186D01*
X155750500Y-80215892D01*
X155750500Y-80084108D01*
X155716392Y-79956814D01*
X155650500Y-79842686D01*
X155557314Y-79749500D01*
X155499968Y-79716391D01*
X155443187Y-79683608D01*
X155379539Y-79666554D01*
X155315892Y-79649500D01*
X155184108Y-79649500D01*
X155056812Y-79683608D01*
X154942686Y-79749500D01*
X154942683Y-79749502D01*
X154849502Y-79842683D01*
X154849500Y-79842686D01*
X154783608Y-79956812D01*
X154749500Y-80084108D01*
X127687103Y-80084108D01*
X127666392Y-80006814D01*
X127600500Y-79892686D01*
X127507314Y-79799500D01*
X127422442Y-79750499D01*
X127393187Y-79733608D01*
X127328931Y-79716391D01*
X127265892Y-79699500D01*
X127134108Y-79699500D01*
X127006812Y-79733608D01*
X126892686Y-79799500D01*
X126892683Y-79799502D01*
X126799502Y-79892683D01*
X126799500Y-79892686D01*
X126733608Y-80006812D01*
X126719775Y-80058441D01*
X126683410Y-80118102D01*
X126620563Y-80148631D01*
X126551188Y-80140336D01*
X126497310Y-80095851D01*
X126480225Y-80058441D01*
X126473705Y-80034108D01*
X126466392Y-80006814D01*
X126400500Y-79892686D01*
X126307314Y-79799500D01*
X126222442Y-79750499D01*
X126193187Y-79733608D01*
X126128931Y-79716391D01*
X126065892Y-79699500D01*
X125934108Y-79699500D01*
X125806812Y-79733608D01*
X125692686Y-79799500D01*
X125692683Y-79799502D01*
X125599502Y-79892683D01*
X125599500Y-79892686D01*
X125533608Y-80006812D01*
X125518553Y-80062999D01*
X125499500Y-80134108D01*
X115500500Y-80134108D01*
X115500500Y-79184108D01*
X128799500Y-79184108D01*
X128799500Y-79315891D01*
X128833608Y-79443187D01*
X128835334Y-79446176D01*
X128899500Y-79557314D01*
X128992686Y-79650500D01*
X129106814Y-79716392D01*
X129234108Y-79750500D01*
X129234110Y-79750500D01*
X129365890Y-79750500D01*
X129365892Y-79750500D01*
X129493186Y-79716392D01*
X129607314Y-79650500D01*
X129700500Y-79557314D01*
X129735549Y-79496608D01*
X163162000Y-79496608D01*
X163162000Y-79628392D01*
X163167924Y-79650500D01*
X163196108Y-79755687D01*
X163217468Y-79792683D01*
X163262000Y-79869814D01*
X163355186Y-79963000D01*
X163469314Y-80028892D01*
X163596608Y-80063000D01*
X163596610Y-80063000D01*
X163728390Y-80063000D01*
X163728392Y-80063000D01*
X163855686Y-80028892D01*
X163969814Y-79963000D01*
X164063000Y-79869814D01*
X164063000Y-79869813D01*
X164068747Y-79864067D01*
X164071016Y-79866336D01*
X164115249Y-79834012D01*
X164184993Y-79829830D01*
X164245927Y-79864018D01*
X164277017Y-79918590D01*
X164283607Y-79943184D01*
X164283607Y-79943185D01*
X164295613Y-79963979D01*
X164349500Y-80057314D01*
X164442686Y-80150500D01*
X164541521Y-80207563D01*
X164555944Y-80215890D01*
X164556814Y-80216392D01*
X164684108Y-80250500D01*
X164684110Y-80250500D01*
X164815890Y-80250500D01*
X164815892Y-80250500D01*
X164943186Y-80216392D01*
X165057314Y-80150500D01*
X165150500Y-80057314D01*
X165163898Y-80034108D01*
X168499500Y-80034108D01*
X168499500Y-80165891D01*
X168533608Y-80293187D01*
X168539936Y-80304147D01*
X168599500Y-80407314D01*
X168692686Y-80500500D01*
X168806814Y-80566392D01*
X168934108Y-80600500D01*
X168934110Y-80600500D01*
X169065890Y-80600500D01*
X169065892Y-80600500D01*
X169193186Y-80566392D01*
X169307314Y-80500500D01*
X169400500Y-80407314D01*
X169466392Y-80293186D01*
X169500500Y-80165892D01*
X169500500Y-80034108D01*
X169466392Y-79906814D01*
X169400500Y-79792686D01*
X169307314Y-79699500D01*
X169220712Y-79649500D01*
X169193187Y-79633608D01*
X169129539Y-79616554D01*
X169065892Y-79599500D01*
X168934108Y-79599500D01*
X168806812Y-79633608D01*
X168692686Y-79699500D01*
X168692683Y-79699502D01*
X168599502Y-79792683D01*
X168599500Y-79792686D01*
X168533608Y-79906812D01*
X168499500Y-80034108D01*
X165163898Y-80034108D01*
X165216392Y-79943186D01*
X165250500Y-79815892D01*
X165250500Y-79684108D01*
X165216392Y-79556814D01*
X165150500Y-79442686D01*
X165057314Y-79349500D01*
X164999100Y-79315890D01*
X164943187Y-79283608D01*
X164879539Y-79266554D01*
X164815892Y-79249500D01*
X164684108Y-79249500D01*
X164556812Y-79283608D01*
X164442686Y-79349500D01*
X164442683Y-79349502D01*
X164343753Y-79448433D01*
X164341496Y-79446176D01*
X164297128Y-79478530D01*
X164227379Y-79482640D01*
X164166481Y-79448388D01*
X164135481Y-79393906D01*
X164128892Y-79369314D01*
X164063000Y-79255186D01*
X163969814Y-79162000D01*
X163912750Y-79129054D01*
X163855687Y-79096108D01*
X163792039Y-79079054D01*
X163728392Y-79062000D01*
X163596608Y-79062000D01*
X163469312Y-79096108D01*
X163355186Y-79162000D01*
X163355183Y-79162002D01*
X163262002Y-79255183D01*
X163262000Y-79255186D01*
X163196108Y-79369312D01*
X163176449Y-79442683D01*
X163162000Y-79496608D01*
X129735549Y-79496608D01*
X129766392Y-79443186D01*
X129800500Y-79315892D01*
X129800500Y-79184108D01*
X129766392Y-79056814D01*
X129700500Y-78942686D01*
X129607314Y-78849500D01*
X129550250Y-78816554D01*
X129493187Y-78783608D01*
X129429539Y-78766554D01*
X129365892Y-78749500D01*
X129234108Y-78749500D01*
X129106812Y-78783608D01*
X128992686Y-78849500D01*
X128992683Y-78849502D01*
X128899502Y-78942683D01*
X128899500Y-78942686D01*
X128833608Y-79056812D01*
X128799500Y-79184108D01*
X115500500Y-79184108D01*
X115500500Y-77534108D01*
X139899500Y-77534108D01*
X139899500Y-77665892D01*
X139916554Y-77729539D01*
X139933608Y-77793187D01*
X139941766Y-77807316D01*
X139999500Y-77907314D01*
X140092686Y-78000500D01*
X140206814Y-78066392D01*
X140334108Y-78100500D01*
X140334110Y-78100500D01*
X140465890Y-78100500D01*
X140465892Y-78100500D01*
X140593186Y-78066392D01*
X140707314Y-78000500D01*
X140800500Y-77907314D01*
X140866392Y-77793186D01*
X140900500Y-77665892D01*
X140900500Y-77534108D01*
X140887103Y-77484108D01*
X149349500Y-77484108D01*
X149349500Y-77615891D01*
X149383608Y-77743187D01*
X149397005Y-77766391D01*
X149449500Y-77857314D01*
X149542686Y-77950500D01*
X149656814Y-78016392D01*
X149784108Y-78050500D01*
X149784110Y-78050500D01*
X149915890Y-78050500D01*
X149915892Y-78050500D01*
X150043186Y-78016392D01*
X150157314Y-77950500D01*
X150250500Y-77857314D01*
X150316392Y-77743186D01*
X150328212Y-77699069D01*
X150364576Y-77639410D01*
X150427423Y-77608880D01*
X150496799Y-77617174D01*
X150535668Y-77643482D01*
X150592686Y-77700500D01*
X150706814Y-77766392D01*
X150834108Y-77800500D01*
X150834110Y-77800500D01*
X150965890Y-77800500D01*
X150965892Y-77800500D01*
X151093186Y-77766392D01*
X151207314Y-77700500D01*
X151300500Y-77607314D01*
X151351926Y-77518242D01*
X151364307Y-77496798D01*
X151414874Y-77448582D01*
X151483481Y-77435360D01*
X151548346Y-77461328D01*
X151588874Y-77518242D01*
X151595694Y-77558798D01*
X151595694Y-77565892D01*
X151609091Y-77615891D01*
X151629802Y-77693187D01*
X151637960Y-77707316D01*
X151695694Y-77807314D01*
X151788880Y-77900500D01*
X151903008Y-77966392D01*
X152030302Y-78000500D01*
X152030304Y-78000500D01*
X152162084Y-78000500D01*
X152162086Y-78000500D01*
X152289380Y-77966392D01*
X152403508Y-77900500D01*
X152496694Y-77807314D01*
X152562586Y-77693186D01*
X152596694Y-77565892D01*
X152596694Y-77434108D01*
X152569899Y-77334108D01*
X153299500Y-77334108D01*
X153299500Y-77465891D01*
X153333608Y-77593187D01*
X153362646Y-77643482D01*
X153399500Y-77707314D01*
X153492686Y-77800500D01*
X153606814Y-77866392D01*
X153734108Y-77900500D01*
X153734110Y-77900500D01*
X153865890Y-77900500D01*
X153865892Y-77900500D01*
X153993186Y-77866392D01*
X154107314Y-77800500D01*
X154200500Y-77707314D01*
X154266392Y-77593186D01*
X154300500Y-77465892D01*
X154300500Y-77334108D01*
X154266392Y-77206814D01*
X154200500Y-77092686D01*
X154107314Y-76999500D01*
X154050250Y-76966554D01*
X153993187Y-76933608D01*
X153929539Y-76916554D01*
X153865892Y-76899500D01*
X153734108Y-76899500D01*
X153606812Y-76933608D01*
X153492686Y-76999500D01*
X153492683Y-76999502D01*
X153399502Y-77092683D01*
X153399500Y-77092686D01*
X153333608Y-77206812D01*
X153299500Y-77334108D01*
X152569899Y-77334108D01*
X152562586Y-77306814D01*
X152496694Y-77192686D01*
X152403508Y-77099500D01*
X152316906Y-77049500D01*
X152289381Y-77033608D01*
X152225733Y-77016554D01*
X152162086Y-76999500D01*
X152030302Y-76999500D01*
X151903006Y-77033608D01*
X151788880Y-77099500D01*
X151788877Y-77099502D01*
X151695696Y-77192683D01*
X151695694Y-77192686D01*
X151631887Y-77303202D01*
X151581319Y-77351417D01*
X151512712Y-77364639D01*
X151447848Y-77338671D01*
X151407320Y-77281757D01*
X151400500Y-77241201D01*
X151400500Y-77234110D01*
X151400500Y-77234108D01*
X151366392Y-77106814D01*
X151300500Y-76992686D01*
X151207314Y-76899500D01*
X151150250Y-76866554D01*
X151093187Y-76833608D01*
X151029539Y-76816554D01*
X150965892Y-76799500D01*
X150834108Y-76799500D01*
X150706812Y-76833608D01*
X150592686Y-76899500D01*
X150592683Y-76899502D01*
X150499502Y-76992683D01*
X150499500Y-76992686D01*
X150433607Y-77106814D01*
X150433607Y-77106815D01*
X150421786Y-77150931D01*
X150385421Y-77210591D01*
X150322573Y-77241119D01*
X150253198Y-77232824D01*
X150214331Y-77206517D01*
X150157316Y-77149502D01*
X150157314Y-77149500D01*
X150083380Y-77106814D01*
X150043187Y-77083608D01*
X149979539Y-77066554D01*
X149915892Y-77049500D01*
X149784108Y-77049500D01*
X149656812Y-77083608D01*
X149542686Y-77149500D01*
X149542683Y-77149502D01*
X149449502Y-77242683D01*
X149449500Y-77242686D01*
X149383608Y-77356812D01*
X149349500Y-77484108D01*
X140887103Y-77484108D01*
X140866392Y-77406814D01*
X140800500Y-77292686D01*
X140707314Y-77199500D01*
X140650250Y-77166554D01*
X140593187Y-77133608D01*
X140493188Y-77106814D01*
X140465892Y-77099500D01*
X140334108Y-77099500D01*
X140206812Y-77133608D01*
X140092686Y-77199500D01*
X140092683Y-77199502D01*
X139999502Y-77292683D01*
X139999500Y-77292686D01*
X139933608Y-77406812D01*
X139917778Y-77465892D01*
X139899500Y-77534108D01*
X115500500Y-77534108D01*
X115500500Y-75934108D01*
X139899500Y-75934108D01*
X139899500Y-76065891D01*
X139933608Y-76193187D01*
X139966554Y-76250250D01*
X139999500Y-76307314D01*
X140092686Y-76400500D01*
X140206814Y-76466392D01*
X140334108Y-76500500D01*
X140334110Y-76500500D01*
X140465890Y-76500500D01*
X140465892Y-76500500D01*
X140593186Y-76466392D01*
X140707314Y-76400500D01*
X140800500Y-76307314D01*
X140866392Y-76193186D01*
X140900500Y-76065892D01*
X140900500Y-75934108D01*
X140866392Y-75806814D01*
X140800500Y-75692686D01*
X140707314Y-75599500D01*
X140650250Y-75566554D01*
X140593187Y-75533608D01*
X140529539Y-75516554D01*
X140465892Y-75499500D01*
X140334108Y-75499500D01*
X140206812Y-75533608D01*
X140092686Y-75599500D01*
X140092683Y-75599502D01*
X139999502Y-75692683D01*
X139999500Y-75692686D01*
X139933608Y-75806812D01*
X139899500Y-75934108D01*
X115500500Y-75934108D01*
X115500500Y-75334108D01*
X129799500Y-75334108D01*
X129799500Y-75465891D01*
X129833608Y-75593187D01*
X129866554Y-75650250D01*
X129899500Y-75707314D01*
X129992686Y-75800500D01*
X130091521Y-75857563D01*
X130106810Y-75866390D01*
X130106814Y-75866392D01*
X130234108Y-75900500D01*
X130234110Y-75900500D01*
X130365890Y-75900500D01*
X130365892Y-75900500D01*
X130493186Y-75866392D01*
X130607314Y-75800500D01*
X130700500Y-75707314D01*
X130766392Y-75593186D01*
X130800500Y-75465892D01*
X130800500Y-75334108D01*
X130766392Y-75206814D01*
X130700500Y-75092686D01*
X130607314Y-74999500D01*
X130550250Y-74966554D01*
X130493187Y-74933608D01*
X130429539Y-74916554D01*
X130365892Y-74899500D01*
X130234108Y-74899500D01*
X130106812Y-74933608D01*
X129992686Y-74999500D01*
X129992683Y-74999502D01*
X129899502Y-75092683D01*
X129899500Y-75092686D01*
X129833608Y-75206812D01*
X129799500Y-75334108D01*
X115500500Y-75334108D01*
X115500500Y-74216228D01*
X150752000Y-74216228D01*
X150752000Y-74383771D01*
X150784682Y-74548074D01*
X150784684Y-74548082D01*
X150848795Y-74702860D01*
X150941873Y-74842162D01*
X151060337Y-74960626D01*
X151152994Y-75022537D01*
X151199637Y-75053703D01*
X151354418Y-75117816D01*
X151518728Y-75150499D01*
X151518732Y-75150500D01*
X151518733Y-75150500D01*
X151686268Y-75150500D01*
X151686269Y-75150499D01*
X151850582Y-75117816D01*
X152005363Y-75053703D01*
X152144662Y-74960626D01*
X152263126Y-74842162D01*
X152356203Y-74702863D01*
X152420316Y-74548082D01*
X152453000Y-74383767D01*
X152453000Y-74216233D01*
X152452999Y-74216228D01*
X153292000Y-74216228D01*
X153292000Y-74383771D01*
X153324682Y-74548074D01*
X153324684Y-74548082D01*
X153388795Y-74702860D01*
X153481873Y-74842162D01*
X153600337Y-74960626D01*
X153692994Y-75022537D01*
X153739637Y-75053703D01*
X153894418Y-75117816D01*
X154058728Y-75150499D01*
X154058732Y-75150500D01*
X154058733Y-75150500D01*
X154226268Y-75150500D01*
X154226269Y-75150499D01*
X154390582Y-75117816D01*
X154545363Y-75053703D01*
X154684662Y-74960626D01*
X154803126Y-74842162D01*
X154896203Y-74702863D01*
X154960316Y-74548082D01*
X154993000Y-74383767D01*
X154993000Y-74216233D01*
X154960316Y-74051918D01*
X154896203Y-73897137D01*
X154865037Y-73850494D01*
X154803126Y-73757837D01*
X154684662Y-73639373D01*
X154650264Y-73616389D01*
X178219600Y-73616389D01*
X178219600Y-73743610D01*
X178244415Y-73868365D01*
X178244418Y-73868375D01*
X178293097Y-73985898D01*
X178293102Y-73985907D01*
X178363773Y-74091673D01*
X178363776Y-74091677D01*
X178453722Y-74181623D01*
X178453726Y-74181626D01*
X178559492Y-74252297D01*
X178559498Y-74252300D01*
X178559499Y-74252301D01*
X178677027Y-74300983D01*
X178801789Y-74325799D01*
X178801793Y-74325800D01*
X178801794Y-74325800D01*
X179741807Y-74325800D01*
X179741808Y-74325799D01*
X179866573Y-74300983D01*
X179984101Y-74252301D01*
X180089874Y-74181626D01*
X180179826Y-74091674D01*
X180250501Y-73985901D01*
X180299183Y-73868373D01*
X180324000Y-73743606D01*
X180324000Y-73616394D01*
X180299183Y-73491627D01*
X180250501Y-73374099D01*
X180250500Y-73374098D01*
X180250497Y-73374092D01*
X180179826Y-73268326D01*
X180179823Y-73268322D01*
X180089877Y-73178376D01*
X180089873Y-73178373D01*
X179984107Y-73107702D01*
X179984098Y-73107697D01*
X179866575Y-73059018D01*
X179866576Y-73059018D01*
X179866573Y-73059017D01*
X179866569Y-73059016D01*
X179866565Y-73059015D01*
X179741810Y-73034200D01*
X179741806Y-73034200D01*
X178801794Y-73034200D01*
X178801789Y-73034200D01*
X178677034Y-73059015D01*
X178677024Y-73059018D01*
X178559501Y-73107697D01*
X178559492Y-73107702D01*
X178453726Y-73178373D01*
X178453722Y-73178376D01*
X178363776Y-73268322D01*
X178363773Y-73268326D01*
X178293102Y-73374092D01*
X178293097Y-73374101D01*
X178244418Y-73491624D01*
X178244415Y-73491634D01*
X178219600Y-73616389D01*
X154650264Y-73616389D01*
X154545360Y-73546295D01*
X154390582Y-73482184D01*
X154390574Y-73482182D01*
X154226271Y-73449500D01*
X154226267Y-73449500D01*
X154058733Y-73449500D01*
X154058728Y-73449500D01*
X153894425Y-73482182D01*
X153894417Y-73482184D01*
X153739639Y-73546295D01*
X153600337Y-73639373D01*
X153481873Y-73757837D01*
X153388795Y-73897139D01*
X153324684Y-74051917D01*
X153324682Y-74051925D01*
X153292000Y-74216228D01*
X152452999Y-74216228D01*
X152420316Y-74051918D01*
X152356203Y-73897137D01*
X152325037Y-73850494D01*
X152263126Y-73757837D01*
X152144662Y-73639373D01*
X152005360Y-73546295D01*
X151850582Y-73482184D01*
X151850574Y-73482182D01*
X151686271Y-73449500D01*
X151686267Y-73449500D01*
X151518733Y-73449500D01*
X151518728Y-73449500D01*
X151354425Y-73482182D01*
X151354417Y-73482184D01*
X151199639Y-73546295D01*
X151060337Y-73639373D01*
X150941873Y-73757837D01*
X150848795Y-73897139D01*
X150784684Y-74051917D01*
X150784682Y-74051925D01*
X150752000Y-74216228D01*
X115500500Y-74216228D01*
X115500500Y-72434108D01*
X139799500Y-72434108D01*
X139799500Y-72565892D01*
X139809214Y-72602145D01*
X139833608Y-72693187D01*
X139866554Y-72750250D01*
X139899500Y-72807314D01*
X139992686Y-72900500D01*
X140106814Y-72966392D01*
X140234108Y-73000500D01*
X140234110Y-73000500D01*
X140365890Y-73000500D01*
X140365892Y-73000500D01*
X140493186Y-72966392D01*
X140607314Y-72900500D01*
X140700500Y-72807314D01*
X140766392Y-72693186D01*
X140800500Y-72565892D01*
X140800500Y-72434108D01*
X140766392Y-72306814D01*
X140700500Y-72192686D01*
X140607314Y-72099500D01*
X140538874Y-72059986D01*
X140493187Y-72033608D01*
X140466333Y-72026413D01*
X140365892Y-71999500D01*
X140234108Y-71999500D01*
X140106812Y-72033608D01*
X139992686Y-72099500D01*
X139992683Y-72099502D01*
X139899502Y-72192683D01*
X139899500Y-72192686D01*
X139833608Y-72306812D01*
X139813797Y-72380750D01*
X139799500Y-72434108D01*
X115500500Y-72434108D01*
X115500500Y-71901509D01*
X162095500Y-71901509D01*
X162095500Y-72059990D01*
X162126414Y-72215406D01*
X162126416Y-72215414D01*
X162187059Y-72361821D01*
X162187064Y-72361830D01*
X162275103Y-72493588D01*
X162275106Y-72493592D01*
X162387157Y-72605643D01*
X162387161Y-72605646D01*
X162518919Y-72693685D01*
X162518925Y-72693688D01*
X162518926Y-72693689D01*
X162665336Y-72754334D01*
X162820759Y-72785249D01*
X162820763Y-72785250D01*
X162820764Y-72785250D01*
X162979237Y-72785250D01*
X162979238Y-72785249D01*
X163134664Y-72754334D01*
X163281074Y-72693689D01*
X163412839Y-72605646D01*
X163524896Y-72493589D01*
X163612939Y-72361824D01*
X163673584Y-72215414D01*
X163704500Y-72059986D01*
X163704500Y-71901514D01*
X163702195Y-71889928D01*
X166746000Y-71889928D01*
X166746000Y-72071571D01*
X166774415Y-72250975D01*
X166830548Y-72423734D01*
X166913012Y-72585580D01*
X166913014Y-72585584D01*
X166925048Y-72602145D01*
X166925049Y-72602146D01*
X167500000Y-72027195D01*
X167500000Y-72033411D01*
X167527259Y-72135144D01*
X167579920Y-72226356D01*
X167654394Y-72300830D01*
X167745606Y-72353491D01*
X167847339Y-72380750D01*
X167853554Y-72380750D01*
X167278602Y-72955699D01*
X167278603Y-72955700D01*
X167295165Y-72967735D01*
X167295179Y-72967743D01*
X167457012Y-73050200D01*
X167629774Y-73106334D01*
X167809179Y-73134750D01*
X167990821Y-73134750D01*
X168170225Y-73106334D01*
X168342984Y-73050201D01*
X168504831Y-72967736D01*
X168521396Y-72955699D01*
X167946447Y-72380750D01*
X167952661Y-72380750D01*
X168054394Y-72353491D01*
X168145606Y-72300830D01*
X168220080Y-72226356D01*
X168272741Y-72135144D01*
X168300000Y-72033411D01*
X168300000Y-72027196D01*
X168874949Y-72602145D01*
X168886986Y-72585581D01*
X168969451Y-72423734D01*
X169025584Y-72250975D01*
X169054000Y-72071571D01*
X169054000Y-71889928D01*
X169025584Y-71710524D01*
X168969450Y-71537762D01*
X168886993Y-71375929D01*
X168886985Y-71375915D01*
X168874950Y-71359353D01*
X168874949Y-71359352D01*
X168300000Y-71934302D01*
X168300000Y-71928089D01*
X168272741Y-71826356D01*
X168220080Y-71735144D01*
X168145606Y-71660670D01*
X168054394Y-71608009D01*
X167952661Y-71580750D01*
X167946447Y-71580750D01*
X168521396Y-71005799D01*
X168521395Y-71005798D01*
X168504834Y-70993764D01*
X168504830Y-70993762D01*
X168342984Y-70911298D01*
X168170225Y-70855165D01*
X167990821Y-70826750D01*
X167809179Y-70826750D01*
X167629774Y-70855165D01*
X167457015Y-70911298D01*
X167295170Y-70993762D01*
X167295161Y-70993768D01*
X167278603Y-71005798D01*
X167278602Y-71005799D01*
X167853554Y-71580750D01*
X167847339Y-71580750D01*
X167745606Y-71608009D01*
X167654394Y-71660670D01*
X167579920Y-71735144D01*
X167527259Y-71826356D01*
X167500000Y-71928089D01*
X167500000Y-71934303D01*
X166925049Y-71359352D01*
X166925048Y-71359353D01*
X166913018Y-71375911D01*
X166913012Y-71375920D01*
X166830548Y-71537765D01*
X166774415Y-71710524D01*
X166746000Y-71889928D01*
X163702195Y-71889928D01*
X163673585Y-71746093D01*
X163673584Y-71746086D01*
X163612939Y-71599676D01*
X163612938Y-71599675D01*
X163612935Y-71599669D01*
X163524896Y-71467911D01*
X163524893Y-71467907D01*
X163412842Y-71355856D01*
X163412838Y-71355853D01*
X163281080Y-71267814D01*
X163281071Y-71267809D01*
X163134664Y-71207166D01*
X163134656Y-71207164D01*
X162979239Y-71176250D01*
X162979236Y-71176250D01*
X162820764Y-71176250D01*
X162820759Y-71176250D01*
X162665343Y-71207164D01*
X162665335Y-71207166D01*
X162518928Y-71267809D01*
X162518919Y-71267814D01*
X162387161Y-71355853D01*
X162387157Y-71355856D01*
X162275106Y-71467907D01*
X162275103Y-71467911D01*
X162187064Y-71599669D01*
X162187059Y-71599678D01*
X162126416Y-71746085D01*
X162126414Y-71746093D01*
X162095500Y-71901509D01*
X115500500Y-71901509D01*
X115500500Y-68234108D01*
X163899500Y-68234108D01*
X163899500Y-68365891D01*
X163933608Y-68493187D01*
X163941766Y-68507316D01*
X163999500Y-68607314D01*
X164092686Y-68700500D01*
X164206814Y-68766392D01*
X164334108Y-68800500D01*
X164334110Y-68800500D01*
X164465890Y-68800500D01*
X164465892Y-68800500D01*
X164593186Y-68766392D01*
X164707314Y-68700500D01*
X164800500Y-68607314D01*
X164866392Y-68493186D01*
X164900500Y-68365892D01*
X164900500Y-68234108D01*
X164873705Y-68134108D01*
X165399500Y-68134108D01*
X165399500Y-68265892D01*
X165416554Y-68329539D01*
X165433608Y-68393187D01*
X165466554Y-68450250D01*
X165499500Y-68507314D01*
X165592686Y-68600500D01*
X165706814Y-68666392D01*
X165834108Y-68700500D01*
X165834110Y-68700500D01*
X165965890Y-68700500D01*
X165965892Y-68700500D01*
X166093186Y-68666392D01*
X166207314Y-68600500D01*
X166300500Y-68507314D01*
X166366392Y-68393186D01*
X166400500Y-68265892D01*
X166400500Y-68134108D01*
X166366392Y-68006814D01*
X166366389Y-68006808D01*
X166355520Y-67987982D01*
X166355519Y-67987981D01*
X166324415Y-67934108D01*
X169999500Y-67934108D01*
X169999500Y-68065891D01*
X170033608Y-68193187D01*
X170066554Y-68250250D01*
X170099500Y-68307314D01*
X170192686Y-68400500D01*
X170306814Y-68466392D01*
X170434108Y-68500500D01*
X170434110Y-68500500D01*
X170565890Y-68500500D01*
X170565892Y-68500500D01*
X170693186Y-68466392D01*
X170807314Y-68400500D01*
X170900500Y-68307314D01*
X170966392Y-68193186D01*
X171000500Y-68065892D01*
X171000500Y-67934108D01*
X170966392Y-67806814D01*
X170900500Y-67692686D01*
X170807314Y-67599500D01*
X170750250Y-67566554D01*
X170693187Y-67533608D01*
X170629539Y-67516554D01*
X170565892Y-67499500D01*
X170434108Y-67499500D01*
X170306812Y-67533608D01*
X170192686Y-67599500D01*
X170192683Y-67599502D01*
X170099502Y-67692683D01*
X170099500Y-67692686D01*
X170033608Y-67806812D01*
X169999500Y-67934108D01*
X166324415Y-67934108D01*
X166304435Y-67899502D01*
X166300500Y-67892686D01*
X166207314Y-67799500D01*
X166150250Y-67766554D01*
X166093187Y-67733608D01*
X166029539Y-67716554D01*
X165965892Y-67699500D01*
X165834108Y-67699500D01*
X165706812Y-67733608D01*
X165592686Y-67799500D01*
X165592683Y-67799502D01*
X165499502Y-67892683D01*
X165499500Y-67892686D01*
X165433608Y-68006812D01*
X165417778Y-68065892D01*
X165399500Y-68134108D01*
X164873705Y-68134108D01*
X164866392Y-68106814D01*
X164800500Y-67992686D01*
X164707314Y-67899500D01*
X164650250Y-67866554D01*
X164593187Y-67833608D01*
X164493188Y-67806814D01*
X164465892Y-67799500D01*
X164334108Y-67799500D01*
X164206812Y-67833608D01*
X164092686Y-67899500D01*
X164092683Y-67899502D01*
X163999502Y-67992683D01*
X163999500Y-67992686D01*
X163933608Y-68106812D01*
X163899500Y-68234108D01*
X115500500Y-68234108D01*
X115500500Y-65139822D01*
X127459499Y-65139822D01*
X127468231Y-65183717D01*
X127468234Y-65183724D01*
X127498118Y-65228449D01*
X127501496Y-65233504D01*
X127551278Y-65266767D01*
X127551281Y-65266767D01*
X127551282Y-65266768D01*
X127595177Y-65275500D01*
X127595180Y-65275500D01*
X129324822Y-65275500D01*
X129368717Y-65266768D01*
X129368717Y-65266767D01*
X129368722Y-65266767D01*
X129418504Y-65233504D01*
X129451767Y-65183722D01*
X129460500Y-65139820D01*
X129460500Y-63410180D01*
X129460500Y-63410177D01*
X129451768Y-63366282D01*
X129451767Y-63366281D01*
X129451767Y-63366278D01*
X129418504Y-63316496D01*
X129413197Y-63312950D01*
X129368724Y-63283234D01*
X129368717Y-63283231D01*
X129324822Y-63274500D01*
X129324820Y-63274500D01*
X127595180Y-63274500D01*
X127595178Y-63274500D01*
X127551282Y-63283231D01*
X127551275Y-63283234D01*
X127501496Y-63316495D01*
X127501495Y-63316496D01*
X127468234Y-63366275D01*
X127468231Y-63366282D01*
X127459500Y-63410177D01*
X127459500Y-63410180D01*
X127459500Y-65139820D01*
X127459500Y-65139822D01*
X127459499Y-65139822D01*
X115500500Y-65139822D01*
X115500500Y-65002706D01*
X115500618Y-64997297D01*
X115509528Y-64793217D01*
X115517386Y-64613226D01*
X115518326Y-64602495D01*
X115568152Y-64224025D01*
X115570025Y-64213405D01*
X115652649Y-63840709D01*
X115655440Y-63830295D01*
X115770230Y-63466227D01*
X115773917Y-63456095D01*
X115920003Y-63103412D01*
X115924561Y-63093638D01*
X116100822Y-62755045D01*
X116106217Y-62745700D01*
X116311325Y-62423744D01*
X116317515Y-62414905D01*
X116549896Y-62112060D01*
X116556834Y-62103791D01*
X116814726Y-61822352D01*
X116822352Y-61814726D01*
X117103791Y-61556834D01*
X117112060Y-61549896D01*
X117414905Y-61317515D01*
X117423744Y-61311325D01*
X117745700Y-61106217D01*
X117755045Y-61100822D01*
X118093638Y-60924561D01*
X118103412Y-60920003D01*
X118456095Y-60773917D01*
X118466227Y-60770230D01*
X118830295Y-60655440D01*
X118840709Y-60652649D01*
X119213405Y-60570025D01*
X119224025Y-60568152D01*
X119602495Y-60518326D01*
X119613226Y-60517386D01*
X119997297Y-60500617D01*
X120002706Y-60500500D01*
X120065892Y-60500500D01*
X128278863Y-60500500D01*
X128345902Y-60520185D01*
G37*
%TD.AperFunction*%
%TA.AperFunction,Conductor*%
G36*
X132720562Y-60520185D02*
G01*
X132766317Y-60572989D01*
X132773782Y-60615228D01*
X133410591Y-61252037D01*
X133347007Y-61269075D01*
X133232993Y-61334901D01*
X133139901Y-61427993D01*
X133074075Y-61542007D01*
X133057037Y-61605591D01*
X132424728Y-60973282D01*
X132424727Y-60973282D01*
X132385380Y-61027439D01*
X132288904Y-61216782D01*
X132223242Y-61418869D01*
X132223242Y-61418870D01*
X132213942Y-61477589D01*
X132184012Y-61540723D01*
X132124700Y-61577654D01*
X132054838Y-61576656D01*
X131996605Y-61538046D01*
X131969852Y-61482381D01*
X131962052Y-61443172D01*
X131962052Y-61443170D01*
X131962051Y-61443165D01*
X131937997Y-61385092D01*
X131886635Y-61261092D01*
X131886628Y-61261079D01*
X131777139Y-61097218D01*
X131777136Y-61097214D01*
X131637785Y-60957863D01*
X131637781Y-60957860D01*
X131473920Y-60848371D01*
X131473907Y-60848364D01*
X131291839Y-60772950D01*
X131291829Y-60772947D01*
X131156945Y-60746117D01*
X131095035Y-60713732D01*
X131060460Y-60653016D01*
X131064200Y-60583247D01*
X131105067Y-60526575D01*
X131170085Y-60500994D01*
X131181137Y-60500500D01*
X132653523Y-60500500D01*
X132720562Y-60520185D01*
G37*
%TD.AperFunction*%
%TA.AperFunction,Conductor*%
G36*
X157220562Y-60520185D02*
G01*
X157266317Y-60572989D01*
X157273782Y-60615228D01*
X157910591Y-61252037D01*
X157847007Y-61269075D01*
X157732993Y-61334901D01*
X157639901Y-61427993D01*
X157574075Y-61542007D01*
X157557037Y-61605591D01*
X156924728Y-60973282D01*
X156924727Y-60973282D01*
X156885380Y-61027439D01*
X156788904Y-61216782D01*
X156723242Y-61418869D01*
X156723242Y-61418870D01*
X156713942Y-61477589D01*
X156684012Y-61540723D01*
X156624700Y-61577654D01*
X156554838Y-61576656D01*
X156496605Y-61538046D01*
X156469852Y-61482381D01*
X156462052Y-61443172D01*
X156462052Y-61443170D01*
X156462051Y-61443165D01*
X156437997Y-61385092D01*
X156386635Y-61261092D01*
X156386628Y-61261079D01*
X156277139Y-61097218D01*
X156277136Y-61097214D01*
X156137785Y-60957863D01*
X156137781Y-60957860D01*
X155973920Y-60848371D01*
X155973907Y-60848364D01*
X155791839Y-60772950D01*
X155791829Y-60772947D01*
X155656945Y-60746117D01*
X155595035Y-60713732D01*
X155560460Y-60653016D01*
X155564200Y-60583247D01*
X155605067Y-60526575D01*
X155670085Y-60500994D01*
X155681137Y-60500500D01*
X157153523Y-60500500D01*
X157220562Y-60520185D01*
G37*
%TD.AperFunction*%
%TD*%
M02*
