M48
; DRILL file {KiCad 9.0.7+1} date 2026-03-14T05:20:30+0000
; FORMAT={-:-/ absolute / metric / decimal}
; #@! TF.CreationDate,2026-03-14T05:20:30+00:00
; #@! TF.GenerationSoftware,Kicad,Pcbnew,9.0.7+1
; #@! TF.FileFunction,Plated,1,4,PTH
FMAT,2
METRIC
; #@! TA.AperFunction,Plated,PTH,ViaDrill
T1C0.300
; #@! TA.AperFunction,Plated,PTH,ComponentDrill
T2C0.800
; #@! TA.AperFunction,Plated,PTH,ComponentDrill
T3C1.000
; #@! TA.AperFunction,Plated,PTH,ComponentDrill
T4C1.300
; #@! TA.AperFunction,Plated,PTH,ComponentDrill
T5C3.200
%
G90
G05
T1
X116.5Y-76.0
X116.5Y-78.0
X116.5Y-80.0
X116.5Y-87.0
X116.5Y-89.0
X116.5Y-91.0
X116.5Y-93.0
X116.5Y-95.0
X118.0Y-100.0
X119.0Y-99.0
X120.0Y-70.0
X120.0Y-100.0
X122.2Y-87.4
X125.0Y-70.0
X125.9Y-103.6
X127.0Y-99.0
X127.5Y-85.1
X128.6Y-89.3
X128.8Y-85.8
X128.9Y-86.8
X129.0Y-99.0
X129.3Y-79.7
X130.0Y-70.0
X130.2Y-100.1
X131.0Y-75.2
X131.7Y-75.9
X133.974Y-84.2
X134.0Y-90.0
X136.0Y-89.5
X137.0Y-84.5
X137.2Y-82.9
X137.3Y-91.5
X138.1Y-89.5
X139.1Y-76.0
X139.8Y-66.0
X139.9Y-95.1
X140.0Y-103.5
X140.3Y-98.8
X140.6Y-72.5
X140.7Y-87.2
X141.2Y-80.1
X141.3Y-97.7
X142.0Y-103.5
X144.0Y-103.5
X144.5Y-89.7
X145.0Y-67.5
X146.0Y-103.5
X146.2Y-84.7
X147.1Y-80.2
X147.5Y-67.5
X147.5Y-70.0
X148.0Y-103.5
X148.5Y-78.8
X150.0Y-62.0
X150.0Y-63.5
X150.0Y-103.5
X151.125Y-77.7
X151.2Y-84.3
X151.9Y-77.1
X152.0Y-96.0
X153.4Y-92.6
X154.4Y-93.0
X154.8Y-89.1
X154.9Y-90.3
X155.1Y-81.4
X155.1Y-87.4
X155.3Y-94.8
X155.505Y-80.105
X155.725Y-82.1
X156.2Y-87.8
X156.7Y-82.7
X157.363Y-88.36
X158.5Y-84.5
X158.9Y-91.5
X158.9Y-95.9
X160.09Y-100.0
X160.5Y-95.1
X160.8Y-78.4
X160.8Y-80.9
X161.8Y-79.0
X162.0Y-81.0
X163.2Y-82.7
X163.8Y-81.8
X164.7Y-67.825
X165.0Y-96.0
X165.0Y-98.0
X165.0Y-100.0
X165.022Y-88.178
X166.8Y-67.3
X167.5Y-90.4
X169.5Y-80.3
X171.0Y-65.0
X171.0Y-67.0
X171.0Y-69.0
X171.0Y-71.0
X171.6Y-75.9
X175.0Y-65.0
X175.0Y-100.0
X177.0Y-100.0
X179.0Y-100.0
X180.0Y-70.0
T2
X151.105Y-73.648
X153.644Y-73.648
X162.1Y-72.0
X167.1Y-72.0
T3
X127.19Y-108.0
X127.46Y-61.75
X127.46Y-64.29
X129.73Y-108.0
X130.0Y-61.75
X130.0Y-64.29
X132.27Y-108.0
X132.54Y-61.75
X132.54Y-64.29
X134.81Y-108.0
X139.21Y-61.75
X140.71Y-108.0
X141.75Y-61.75
X143.25Y-108.0
X144.29Y-61.75
X145.79Y-108.0
X146.83Y-61.75
X148.33Y-108.0
X153.75Y-61.75
X153.75Y-64.29
X156.29Y-61.75
X156.29Y-64.29
X158.83Y-61.75
X158.83Y-64.29
X164.19Y-61.75
X166.73Y-61.75
X169.27Y-61.75
X171.81Y-61.75
X182.5Y-88.685
X182.5Y-91.225
X182.5Y-96.225
X182.5Y-98.765
T4
X150.3Y-98.353
X156.8Y-98.353
T5
X119.5Y-65.0
X119.5Y-105.0
X179.5Y-65.0
X179.5Y-105.0
M30
