%TF.GenerationSoftware,KiCad,Pcbnew,9.0.7+1*%
%TF.CreationDate,Date%
%TF.ProjectId,DumbFCC,44756d62-4643-4432-9e6b-696361645f70,1.0.0+ (Unreleased)*%
%TF.SameCoordinates,Original*%
%TF.FileFunction,Copper,L2,Inr*%
%TF.FilePolarity,Positive*%
%FSLAX46Y46*%
G04 Gerber Fmt 4.6, Leading zero omitted, Abs format (unit mm)*
G04 Created by KiCad*
%MOMM*%
%LPD*%
G01*
G04 APERTURE LIST*
%TA.AperFunction,ComponentPad*%
%ADD10R,1.700000X1.700000*%
%TD*%
%TA.AperFunction,ComponentPad*%
%ADD11C,1.700000*%
%TD*%
%TA.AperFunction,ComponentPad*%
%ADD12C,1.308000*%
%TD*%
%TA.AperFunction,WasherPad*%
%ADD13O,1.803400X0.990600*%
%TD*%
%TA.AperFunction,WasherPad*%
%ADD14O,2.209800X0.990600*%
%TD*%
%TA.AperFunction,ComponentPad*%
%ADD15R,1.950000X1.950000*%
%TD*%
%TA.AperFunction,ComponentPad*%
%ADD16C,1.950000*%
%TD*%
%TA.AperFunction,ComponentPad*%
%ADD17C,3.600000*%
%TD*%
%TA.AperFunction,ComponentPad*%
%ADD18C,1.400000*%
%TD*%
%TA.AperFunction,ViaPad*%
%ADD19C,0.700000*%
%TD*%
G04 APERTURE END LIST*
D10*
%TO.N,GND*%
%TO.C,J100*%
X183000000Y-92275000D03*
D11*
%TO.N,+5V*%
X183000000Y-89735000D03*
%TD*%
D12*
%TO.N,/Project Architecture/MCU/BUZZ*%
%TO.C,BZ400*%
X162900000Y-71980750D03*
%TO.N,GND*%
X167900000Y-71980750D03*
%TD*%
D10*
%TO.N,GND*%
%TO.C,J300*%
X149000000Y-108250000D03*
D11*
%TO.N,/Project Architecture/MCU/ECHO*%
X146460000Y-108250000D03*
%TO.N,/Project Architecture/MCU/TRIG*%
X143920000Y-108250000D03*
%TO.N,+5V*%
X141380000Y-108250000D03*
%TD*%
D13*
%TO.N,*%
%TO.C,J506*%
X179271800Y-82320000D03*
D14*
X183271801Y-82320000D03*
D13*
X179271800Y-73680000D03*
D14*
X183271801Y-73680000D03*
%TD*%
D10*
%TO.N,GND*%
%TO.C,J501*%
X136000000Y-108250000D03*
D11*
%TO.N,/Project Architecture/Connections/UART_TX*%
X133460000Y-108250000D03*
%TO.N,/Project Architecture/Connections/UART_RX*%
X130920000Y-108250000D03*
%TO.N,+3V3*%
X128380000Y-108250000D03*
%TD*%
D15*
%TO.N,/Project Architecture/Connections/NRST*%
%TO.C,SW401*%
X149200000Y-97400000D03*
D16*
%TO.N,GND*%
X155700000Y-97400000D03*
%TD*%
D17*
%TO.N,GND*%
%TO.C,H201*%
X180000000Y-65000000D03*
%TD*%
D18*
%TO.N,/Project Architecture/MCU/BOOT*%
%TO.C,JP200*%
X151602500Y-74300000D03*
%TO.N,+3V3*%
X154142500Y-74300000D03*
%TD*%
D10*
%TO.N,/Project Architecture/Connections/PWM_1*%
%TO.C,J504*%
X152960000Y-64275000D03*
D11*
%TO.N,/Project Architecture/Connections/PWM_2*%
X152960000Y-61735000D03*
%TO.N,+5V*%
X155500000Y-64275000D03*
X155500000Y-61735000D03*
%TO.N,GND*%
X158040000Y-64275000D03*
X158040000Y-61735000D03*
%TD*%
D17*
%TO.N,GND*%
%TO.C,H202*%
X119500000Y-105000000D03*
%TD*%
%TO.N,GND*%
%TO.C,H203*%
X180000000Y-105500000D03*
%TD*%
%TO.N,GND*%
%TO.C,H200*%
X120000000Y-65000000D03*
%TD*%
D10*
%TO.N,GND*%
%TO.C,J500*%
X139880000Y-61750000D03*
D11*
%TO.N,/Project Architecture/Connections/SWCLK*%
X142420000Y-61750000D03*
%TO.N,/Project Architecture/Connections/SWDIO*%
X144960000Y-61750000D03*
%TO.N,/Project Architecture/Connections/NRST*%
X147500000Y-61750000D03*
%TD*%
D10*
%TO.N,/Project Architecture/Connections/I2C_PERIPH_SCL*%
%TO.C,J502*%
X163880000Y-61750000D03*
D11*
%TO.N,/Project Architecture/Connections/I2C_PERIPH_SDA*%
X166420000Y-61750000D03*
%TO.N,+3V3*%
X168960000Y-61750000D03*
%TO.N,GND*%
X171500000Y-61750000D03*
%TD*%
D10*
%TO.N,/Project Architecture/Connections/CANH*%
%TO.C,J503*%
X183000000Y-95975000D03*
D11*
%TO.N,/Project Architecture/Connections/CANL*%
X183000000Y-98515000D03*
%TD*%
D10*
%TO.N,/Project Architecture/Connections/GIMB_PITCH*%
%TO.C,J505*%
X128460000Y-64275000D03*
D11*
%TO.N,/Project Architecture/Connections/GIMB_ROLL*%
X128460000Y-61735000D03*
%TO.N,+5V*%
X131000000Y-64275000D03*
X131000000Y-61735000D03*
%TO.N,GND*%
X133540000Y-64275000D03*
X133540000Y-61735000D03*
%TD*%
D19*
%TO.N,GND*%
X122000000Y-78000000D03*
X176000000Y-102500000D03*
X119000000Y-77000000D03*
X121000000Y-79000000D03*
X175000000Y-68500000D03*
X119500000Y-94000000D03*
X120000000Y-78000000D03*
X156000000Y-105000000D03*
X146000000Y-68500000D03*
X172025000Y-77400000D03*
X119500000Y-98000000D03*
X159000000Y-71500000D03*
X145000000Y-100000000D03*
X120000000Y-80000000D03*
X165000000Y-97000000D03*
X126900000Y-89600000D03*
X120500000Y-95000000D03*
X174000000Y-67500000D03*
X118500000Y-95000000D03*
X144000000Y-99000000D03*
X128900000Y-85300000D03*
X177000000Y-101500000D03*
X125000000Y-68000000D03*
X146000000Y-99000000D03*
X121000000Y-77000000D03*
X176000000Y-69500000D03*
X137500000Y-64500000D03*
X174000000Y-69500000D03*
X173000000Y-66500000D03*
X162000000Y-100000000D03*
X120000000Y-76000000D03*
X119000000Y-79000000D03*
X165000000Y-100000000D03*
X118500000Y-97000000D03*
X118000000Y-78000000D03*
X165500000Y-98500000D03*
X145000000Y-98000000D03*
X119500000Y-96000000D03*
X120500000Y-97000000D03*
%TO.N,/Project Architecture/MCU/BUZZ*%
X157100000Y-84300000D03*
%TO.N,+3V3*%
X170500000Y-68000000D03*
X138300000Y-87700000D03*
X129000000Y-87500000D03*
X172500000Y-98600000D03*
X132900000Y-92000000D03*
X169000000Y-80100000D03*
%TO.N,+5V*%
X170700000Y-88800000D03*
%TO.N,/Project Architecture/Connections/NRST*%
X154400000Y-82100000D03*
%TO.N,/Project Architecture/Connections/UART_RX*%
X154391986Y-90500000D03*
%TO.N,/Project Architecture/Connections/UART_TX*%
X155000000Y-91500000D03*
%TO.N,/Project Architecture/Connections/PWM_2*%
X158700000Y-83100000D03*
%TO.N,/Project Architecture/Connections/PWM_1*%
X159500000Y-83500000D03*
%TO.N,/Project Architecture/Connections/GIMB_PITCH*%
X150900000Y-77300000D03*
%TO.N,/Project Architecture/Connections/GIMB_ROLL*%
X149850000Y-77550000D03*
%TO.N,/Project Architecture/Connections/SWCLK*%
X153800000Y-77400000D03*
%TO.N,/Project Architecture/Connections/SWDIO*%
X155250000Y-80150000D03*
%TO.N,/Project Architecture/MCU/I2C_SENS_SDA*%
X129300000Y-79250000D03*
X126000000Y-80200000D03*
X140300000Y-72500000D03*
%TO.N,/Project Architecture/MCU/LED_ERR*%
X159900000Y-98400000D03*
X150000000Y-95000000D03*
%TO.N,/Project Architecture/MCU/I2C_SENS_SCL*%
X127200000Y-80200000D03*
X130300000Y-75400000D03*
X140400000Y-76000000D03*
%TO.N,/Project Architecture/MCU/MAG_INT*%
X156450000Y-81050000D03*
X133400000Y-81400000D03*
%TO.N,/Project Architecture/MCU/IMU_INT_2*%
X140400000Y-77600000D03*
X152096194Y-77500000D03*
%TO.N,/Project Architecture/MCU/IMU_INT_1*%
X157500000Y-82000000D03*
X128800000Y-86500000D03*
%TO.N,/Project Architecture/Connections/CAN_TX*%
X163600000Y-82100000D03*
%TO.N,/Project Architecture/Connections/CAN_RX*%
X165000000Y-82900000D03*
%TO.N,/Project Architecture/MCU/SPI_MISO*%
X156300000Y-88100000D03*
%TO.N,/Project Architecture/MCU/CS_SD*%
X154500000Y-87800000D03*
%TO.N,/Project Architecture/MCU/SPI_SCK*%
X155700000Y-88900000D03*
%TO.N,/Project Architecture/MCU/SPI_MOSI*%
X157100000Y-87600000D03*
%TO.N,/Project Architecture/MCU/CS_FLASH*%
X155825000Y-90325000D03*
%TO.N,/Project Architecture/Connections/I2C_PERIPH_SDA*%
X165900000Y-68200000D03*
X164750000Y-79750000D03*
%TO.N,/Project Architecture/Connections/I2C_PERIPH_SCL*%
X163662500Y-79562500D03*
X164400000Y-68300000D03*
%TD*%
%TA.AperFunction,Conductor*%
%TO.N,GND*%
G36*
X128138906Y-60520185D02*
G01*
X128184661Y-60572989D01*
X128194605Y-60642147D01*
X128165580Y-60705703D01*
X128119320Y-60739061D01*
X127962403Y-60804057D01*
X127790342Y-60919024D01*
X127644024Y-61065342D01*
X127529058Y-61237403D01*
X127449870Y-61428579D01*
X127449868Y-61428587D01*
X127409500Y-61631530D01*
X127409500Y-61838469D01*
X127449868Y-62041412D01*
X127449870Y-62041420D01*
X127515939Y-62200925D01*
X127529059Y-62232598D01*
X127542836Y-62253217D01*
X127644024Y-62404657D01*
X127790342Y-62550975D01*
X127790345Y-62550977D01*
X127962402Y-62665941D01*
X128153580Y-62745130D01*
X128356530Y-62785499D01*
X128356534Y-62785500D01*
X128356535Y-62785500D01*
X128563466Y-62785500D01*
X128563467Y-62785499D01*
X128766420Y-62745130D01*
X128957598Y-62665941D01*
X129129655Y-62550977D01*
X129275977Y-62404655D01*
X129390941Y-62232598D01*
X129470130Y-62041420D01*
X129510500Y-61838465D01*
X129510500Y-61631535D01*
X129470130Y-61428580D01*
X129390941Y-61237402D01*
X129275977Y-61065345D01*
X129275975Y-61065342D01*
X129129657Y-60919024D01*
X128957596Y-60804057D01*
X128800680Y-60739061D01*
X128746277Y-60695220D01*
X128724212Y-60628926D01*
X128741491Y-60561226D01*
X128792629Y-60513616D01*
X128848133Y-60500500D01*
X130611867Y-60500500D01*
X130678906Y-60520185D01*
X130724661Y-60572989D01*
X130734605Y-60642147D01*
X130705580Y-60705703D01*
X130659320Y-60739061D01*
X130502403Y-60804057D01*
X130330342Y-60919024D01*
X130184024Y-61065342D01*
X130069058Y-61237403D01*
X129989870Y-61428579D01*
X129989868Y-61428587D01*
X129949500Y-61631530D01*
X129949500Y-61838469D01*
X129989868Y-62041412D01*
X129989870Y-62041420D01*
X130055939Y-62200925D01*
X130069059Y-62232598D01*
X130082836Y-62253217D01*
X130184024Y-62404657D01*
X130330342Y-62550975D01*
X130330345Y-62550977D01*
X130502402Y-62665941D01*
X130693580Y-62745130D01*
X130896530Y-62785499D01*
X130896534Y-62785500D01*
X130896535Y-62785500D01*
X131103466Y-62785500D01*
X131103467Y-62785499D01*
X131306420Y-62745130D01*
X131497598Y-62665941D01*
X131669655Y-62550977D01*
X131815977Y-62404655D01*
X131930941Y-62232598D01*
X131999165Y-62067889D01*
X132043004Y-62013488D01*
X132109298Y-61991423D01*
X132176998Y-62008702D01*
X132224609Y-62059839D01*
X132231656Y-62077026D01*
X132288904Y-62253216D01*
X132385375Y-62442550D01*
X132424728Y-62496716D01*
X133057037Y-61864408D01*
X133074075Y-61927993D01*
X133139901Y-62042007D01*
X133232993Y-62135099D01*
X133347007Y-62200925D01*
X133410591Y-62217962D01*
X132809971Y-62818581D01*
X132888711Y-62935895D01*
X132889920Y-62939729D01*
X132892844Y-62942491D01*
X132900343Y-62972778D01*
X132909727Y-63002529D01*
X132908671Y-63006408D01*
X132909638Y-63010312D01*
X132899573Y-63039844D01*
X132891383Y-63069947D01*
X132888397Y-63072640D01*
X132887100Y-63076447D01*
X132842051Y-63115483D01*
X132832440Y-63120380D01*
X132778282Y-63159727D01*
X132778282Y-63159728D01*
X133410591Y-63792037D01*
X133347007Y-63809075D01*
X133232993Y-63874901D01*
X133139901Y-63967993D01*
X133074075Y-64082007D01*
X133057037Y-64145591D01*
X132424728Y-63513282D01*
X132424727Y-63513282D01*
X132385380Y-63567439D01*
X132288905Y-63756781D01*
X132231656Y-63932974D01*
X132192218Y-63990649D01*
X132127859Y-64017847D01*
X132059013Y-64005932D01*
X132007537Y-63958688D01*
X131999164Y-63942107D01*
X131930943Y-63777405D01*
X131815975Y-63605342D01*
X131669657Y-63459024D01*
X131501655Y-63346770D01*
X131497598Y-63344059D01*
X131306420Y-63264870D01*
X131306412Y-63264868D01*
X131103469Y-63224500D01*
X131103465Y-63224500D01*
X130896535Y-63224500D01*
X130896530Y-63224500D01*
X130693587Y-63264868D01*
X130693579Y-63264870D01*
X130502403Y-63344058D01*
X130330342Y-63459024D01*
X130184024Y-63605342D01*
X130069058Y-63777403D01*
X129989870Y-63968579D01*
X129989868Y-63968587D01*
X129949500Y-64171530D01*
X129949500Y-64378469D01*
X129989868Y-64581412D01*
X129989870Y-64581420D01*
X130069017Y-64772498D01*
X130069059Y-64772598D01*
X130082836Y-64793217D01*
X130184024Y-64944657D01*
X130330342Y-65090975D01*
X130330345Y-65090977D01*
X130502402Y-65205941D01*
X130693580Y-65285130D01*
X130838052Y-65313867D01*
X130896530Y-65325499D01*
X130896534Y-65325500D01*
X130896535Y-65325500D01*
X131103466Y-65325500D01*
X131103467Y-65325499D01*
X131306420Y-65285130D01*
X131497598Y-65205941D01*
X131669655Y-65090977D01*
X131815977Y-64944655D01*
X131930941Y-64772598D01*
X131999165Y-64607889D01*
X132043004Y-64553488D01*
X132109298Y-64531423D01*
X132176998Y-64548702D01*
X132224609Y-64599839D01*
X132231656Y-64617026D01*
X132288904Y-64793216D01*
X132385375Y-64982550D01*
X132424728Y-65036716D01*
X133057037Y-64404408D01*
X133074075Y-64467993D01*
X133139901Y-64582007D01*
X133232993Y-64675099D01*
X133347007Y-64740925D01*
X133410590Y-64757962D01*
X132778282Y-65390269D01*
X132778282Y-65390270D01*
X132832449Y-65429624D01*
X133021782Y-65526095D01*
X133223870Y-65591757D01*
X133433754Y-65625000D01*
X133646246Y-65625000D01*
X133856127Y-65591757D01*
X133856130Y-65591757D01*
X134058217Y-65526095D01*
X134247554Y-65429622D01*
X134301716Y-65390270D01*
X134301717Y-65390270D01*
X133669408Y-64757962D01*
X133732993Y-64740925D01*
X133847007Y-64675099D01*
X133940099Y-64582007D01*
X134005925Y-64467993D01*
X134022962Y-64404409D01*
X134655270Y-65036717D01*
X134655270Y-65036716D01*
X134694622Y-64982554D01*
X134791095Y-64793217D01*
X134856757Y-64591130D01*
X134856757Y-64591127D01*
X134890000Y-64381246D01*
X134890000Y-64168753D01*
X134856757Y-63958872D01*
X134856757Y-63958869D01*
X134791095Y-63756782D01*
X134694624Y-63567449D01*
X134655270Y-63513282D01*
X134655269Y-63513282D01*
X134022962Y-64145590D01*
X134005925Y-64082007D01*
X133940099Y-63967993D01*
X133847007Y-63874901D01*
X133732993Y-63809075D01*
X133669409Y-63792037D01*
X134056198Y-63405247D01*
X151909500Y-63405247D01*
X151909500Y-65144752D01*
X151921131Y-65203229D01*
X151921132Y-65203230D01*
X151965447Y-65269552D01*
X152031769Y-65313867D01*
X152031770Y-65313868D01*
X152090247Y-65325499D01*
X152090250Y-65325500D01*
X152090252Y-65325500D01*
X153829750Y-65325500D01*
X153829751Y-65325499D01*
X153844568Y-65322552D01*
X153888229Y-65313868D01*
X153888229Y-65313867D01*
X153888231Y-65313867D01*
X153954552Y-65269552D01*
X153998867Y-65203231D01*
X153998867Y-65203229D01*
X153998868Y-65203229D01*
X154010499Y-65144752D01*
X154010500Y-65144750D01*
X154010500Y-63405249D01*
X154010499Y-63405247D01*
X153998868Y-63346770D01*
X153998867Y-63346769D01*
X153954552Y-63280447D01*
X153888230Y-63236132D01*
X153888229Y-63236131D01*
X153829752Y-63224500D01*
X153829748Y-63224500D01*
X152090252Y-63224500D01*
X152090247Y-63224500D01*
X152031770Y-63236131D01*
X152031769Y-63236132D01*
X151965447Y-63280447D01*
X151921132Y-63346769D01*
X151921131Y-63346770D01*
X151909500Y-63405247D01*
X134056198Y-63405247D01*
X134301716Y-63159728D01*
X134247550Y-63120375D01*
X134237954Y-63115486D01*
X134187157Y-63067512D01*
X134170361Y-62999692D01*
X134192897Y-62933556D01*
X134237954Y-62894514D01*
X134247554Y-62889622D01*
X134301716Y-62850270D01*
X134301717Y-62850270D01*
X133669408Y-62217962D01*
X133732993Y-62200925D01*
X133847007Y-62135099D01*
X133940099Y-62042007D01*
X134005925Y-61927993D01*
X134022962Y-61864409D01*
X134655270Y-62496717D01*
X134655270Y-62496716D01*
X134694622Y-62442554D01*
X134791095Y-62253217D01*
X134856757Y-62051130D01*
X134856757Y-62051127D01*
X134876063Y-61929240D01*
X134890000Y-61841246D01*
X134890000Y-61628753D01*
X134856757Y-61418872D01*
X134856757Y-61418869D01*
X134791095Y-61216782D01*
X134694624Y-61027449D01*
X134655270Y-60973282D01*
X134655269Y-60973282D01*
X134022962Y-61605590D01*
X134005925Y-61542007D01*
X133940099Y-61427993D01*
X133847007Y-61334901D01*
X133732993Y-61269075D01*
X133669409Y-61252037D01*
X134307017Y-60614427D01*
X134317222Y-60565852D01*
X134366273Y-60516095D01*
X134426476Y-60500500D01*
X138466764Y-60500500D01*
X138533803Y-60520185D01*
X138579558Y-60572989D01*
X138589502Y-60642147D01*
X138582946Y-60667833D01*
X138536403Y-60792620D01*
X138536401Y-60792627D01*
X138530000Y-60852155D01*
X138530000Y-61500000D01*
X139446988Y-61500000D01*
X139414075Y-61557007D01*
X139380000Y-61684174D01*
X139380000Y-61815826D01*
X139414075Y-61942993D01*
X139446988Y-62000000D01*
X138530000Y-62000000D01*
X138530000Y-62647844D01*
X138536401Y-62707372D01*
X138536403Y-62707379D01*
X138586645Y-62842086D01*
X138586649Y-62842093D01*
X138672809Y-62957187D01*
X138672812Y-62957190D01*
X138787906Y-63043350D01*
X138787913Y-63043354D01*
X138922620Y-63093596D01*
X138922627Y-63093598D01*
X138982155Y-63099999D01*
X138982172Y-63100000D01*
X139630000Y-63100000D01*
X139630000Y-62183012D01*
X139687007Y-62215925D01*
X139814174Y-62250000D01*
X139945826Y-62250000D01*
X140072993Y-62215925D01*
X140130000Y-62183012D01*
X140130000Y-63100000D01*
X140777828Y-63100000D01*
X140777844Y-63099999D01*
X140837372Y-63093598D01*
X140837379Y-63093596D01*
X140972086Y-63043354D01*
X140972093Y-63043350D01*
X141087187Y-62957190D01*
X141087190Y-62957187D01*
X141173350Y-62842093D01*
X141173354Y-62842086D01*
X141223596Y-62707379D01*
X141223598Y-62707372D01*
X141229999Y-62647844D01*
X141230000Y-62647827D01*
X141230000Y-62245564D01*
X141249685Y-62178525D01*
X141302489Y-62132770D01*
X141371647Y-62122826D01*
X141435203Y-62151851D01*
X141468561Y-62198112D01*
X141483840Y-62235000D01*
X141489059Y-62247598D01*
X141565701Y-62362302D01*
X141604024Y-62419657D01*
X141750342Y-62565975D01*
X141750345Y-62565977D01*
X141922402Y-62680941D01*
X142113580Y-62760130D01*
X142258052Y-62788867D01*
X142316530Y-62800499D01*
X142316534Y-62800500D01*
X142316535Y-62800500D01*
X142523466Y-62800500D01*
X142523467Y-62800499D01*
X142726420Y-62760130D01*
X142917598Y-62680941D01*
X143089655Y-62565977D01*
X143235977Y-62419655D01*
X143350941Y-62247598D01*
X143430130Y-62056420D01*
X143470500Y-61853465D01*
X143470500Y-61646535D01*
X143430130Y-61443580D01*
X143350941Y-61252402D01*
X143235977Y-61080345D01*
X143235975Y-61080342D01*
X143089657Y-60934024D01*
X142921655Y-60821770D01*
X142917598Y-60819059D01*
X142726420Y-60739870D01*
X142726418Y-60739869D01*
X142724466Y-60739061D01*
X142670063Y-60695220D01*
X142647998Y-60628926D01*
X142665277Y-60561227D01*
X142716414Y-60513616D01*
X142771919Y-60500500D01*
X144608081Y-60500500D01*
X144675120Y-60520185D01*
X144720875Y-60572989D01*
X144730819Y-60642147D01*
X144701794Y-60705703D01*
X144655534Y-60739061D01*
X144653581Y-60739869D01*
X144653580Y-60739870D01*
X144615972Y-60755448D01*
X144462403Y-60819058D01*
X144290342Y-60934024D01*
X144144024Y-61080342D01*
X144029058Y-61252403D01*
X143949870Y-61443579D01*
X143949868Y-61443587D01*
X143909500Y-61646530D01*
X143909500Y-61853469D01*
X143949868Y-62056412D01*
X143949870Y-62056420D01*
X144015939Y-62215925D01*
X144029059Y-62247598D01*
X144042836Y-62268217D01*
X144144024Y-62419657D01*
X144290342Y-62565975D01*
X144290345Y-62565977D01*
X144462402Y-62680941D01*
X144653580Y-62760130D01*
X144798052Y-62788867D01*
X144856530Y-62800499D01*
X144856534Y-62800500D01*
X144856535Y-62800500D01*
X145063466Y-62800500D01*
X145063467Y-62800499D01*
X145266420Y-62760130D01*
X145457598Y-62680941D01*
X145629655Y-62565977D01*
X145775977Y-62419655D01*
X145890941Y-62247598D01*
X145970130Y-62056420D01*
X146010500Y-61853465D01*
X146010500Y-61646535D01*
X145970130Y-61443580D01*
X145890941Y-61252402D01*
X145775977Y-61080345D01*
X145775975Y-61080342D01*
X145629657Y-60934024D01*
X145461655Y-60821770D01*
X145457598Y-60819059D01*
X145266420Y-60739870D01*
X145266418Y-60739869D01*
X145264466Y-60739061D01*
X145210063Y-60695220D01*
X145187998Y-60628926D01*
X145205277Y-60561227D01*
X145256414Y-60513616D01*
X145311919Y-60500500D01*
X147148081Y-60500500D01*
X147215120Y-60520185D01*
X147260875Y-60572989D01*
X147270819Y-60642147D01*
X147241794Y-60705703D01*
X147195534Y-60739061D01*
X147193581Y-60739869D01*
X147193580Y-60739870D01*
X147155972Y-60755448D01*
X147002403Y-60819058D01*
X146830342Y-60934024D01*
X146684024Y-61080342D01*
X146569058Y-61252403D01*
X146489870Y-61443579D01*
X146489868Y-61443587D01*
X146449500Y-61646530D01*
X146449500Y-61853469D01*
X146489868Y-62056412D01*
X146489870Y-62056420D01*
X146555939Y-62215925D01*
X146569059Y-62247598D01*
X146582836Y-62268217D01*
X146684024Y-62419657D01*
X146830342Y-62565975D01*
X146830345Y-62565977D01*
X147002402Y-62680941D01*
X147193580Y-62760130D01*
X147338052Y-62788867D01*
X147396530Y-62800499D01*
X147396534Y-62800500D01*
X147396535Y-62800500D01*
X147603466Y-62800500D01*
X147603467Y-62800499D01*
X147806420Y-62760130D01*
X147997598Y-62680941D01*
X148169655Y-62565977D01*
X148315977Y-62419655D01*
X148430941Y-62247598D01*
X148510130Y-62056420D01*
X148550500Y-61853465D01*
X148550500Y-61646535D01*
X148510130Y-61443580D01*
X148430941Y-61252402D01*
X148315977Y-61080345D01*
X148315975Y-61080342D01*
X148169657Y-60934024D01*
X148001655Y-60821770D01*
X147997598Y-60819059D01*
X147806420Y-60739870D01*
X147806418Y-60739869D01*
X147804466Y-60739061D01*
X147750063Y-60695220D01*
X147727998Y-60628926D01*
X147745277Y-60561227D01*
X147796414Y-60513616D01*
X147851919Y-60500500D01*
X152571867Y-60500500D01*
X152638906Y-60520185D01*
X152684661Y-60572989D01*
X152694605Y-60642147D01*
X152665580Y-60705703D01*
X152619320Y-60739061D01*
X152462403Y-60804057D01*
X152290342Y-60919024D01*
X152144024Y-61065342D01*
X152029058Y-61237403D01*
X151949870Y-61428579D01*
X151949868Y-61428587D01*
X151909500Y-61631530D01*
X151909500Y-61838469D01*
X151949868Y-62041412D01*
X151949870Y-62041420D01*
X152015939Y-62200925D01*
X152029059Y-62232598D01*
X152042836Y-62253217D01*
X152144024Y-62404657D01*
X152290342Y-62550975D01*
X152290345Y-62550977D01*
X152462402Y-62665941D01*
X152653580Y-62745130D01*
X152856530Y-62785499D01*
X152856534Y-62785500D01*
X152856535Y-62785500D01*
X153063466Y-62785500D01*
X153063467Y-62785499D01*
X153266420Y-62745130D01*
X153457598Y-62665941D01*
X153629655Y-62550977D01*
X153775977Y-62404655D01*
X153890941Y-62232598D01*
X153970130Y-62041420D01*
X154010500Y-61838465D01*
X154010500Y-61631535D01*
X153970130Y-61428580D01*
X153890941Y-61237402D01*
X153775977Y-61065345D01*
X153775975Y-61065342D01*
X153629657Y-60919024D01*
X153457596Y-60804057D01*
X153300680Y-60739061D01*
X153246277Y-60695220D01*
X153224212Y-60628926D01*
X153241491Y-60561226D01*
X153292629Y-60513616D01*
X153348133Y-60500500D01*
X155111867Y-60500500D01*
X155178906Y-60520185D01*
X155224661Y-60572989D01*
X155234605Y-60642147D01*
X155205580Y-60705703D01*
X155159320Y-60739061D01*
X155002403Y-60804057D01*
X154830342Y-60919024D01*
X154684024Y-61065342D01*
X154569058Y-61237403D01*
X154489870Y-61428579D01*
X154489868Y-61428587D01*
X154449500Y-61631530D01*
X154449500Y-61838469D01*
X154489868Y-62041412D01*
X154489870Y-62041420D01*
X154555939Y-62200925D01*
X154569059Y-62232598D01*
X154582836Y-62253217D01*
X154684024Y-62404657D01*
X154830342Y-62550975D01*
X154830345Y-62550977D01*
X155002402Y-62665941D01*
X155193580Y-62745130D01*
X155396530Y-62785499D01*
X155396534Y-62785500D01*
X155396535Y-62785500D01*
X155603466Y-62785500D01*
X155603467Y-62785499D01*
X155806420Y-62745130D01*
X155997598Y-62665941D01*
X156169655Y-62550977D01*
X156315977Y-62404655D01*
X156430941Y-62232598D01*
X156499165Y-62067889D01*
X156543004Y-62013488D01*
X156609298Y-61991423D01*
X156676998Y-62008702D01*
X156724609Y-62059839D01*
X156731656Y-62077026D01*
X156788904Y-62253216D01*
X156885375Y-62442550D01*
X156924728Y-62496716D01*
X157557037Y-61864408D01*
X157574075Y-61927993D01*
X157639901Y-62042007D01*
X157732993Y-62135099D01*
X157847007Y-62200925D01*
X157910591Y-62217962D01*
X157309971Y-62818581D01*
X157388711Y-62935895D01*
X157389920Y-62939729D01*
X157392844Y-62942491D01*
X157400343Y-62972778D01*
X157409727Y-63002529D01*
X157408671Y-63006408D01*
X157409638Y-63010312D01*
X157399573Y-63039844D01*
X157391383Y-63069947D01*
X157388397Y-63072640D01*
X157387100Y-63076447D01*
X157342051Y-63115483D01*
X157332440Y-63120380D01*
X157278282Y-63159727D01*
X157278282Y-63159728D01*
X157910591Y-63792037D01*
X157847007Y-63809075D01*
X157732993Y-63874901D01*
X157639901Y-63967993D01*
X157574075Y-64082007D01*
X157557037Y-64145591D01*
X156924728Y-63513282D01*
X156924727Y-63513282D01*
X156885380Y-63567439D01*
X156788905Y-63756781D01*
X156731656Y-63932974D01*
X156692218Y-63990649D01*
X156627859Y-64017847D01*
X156559013Y-64005932D01*
X156507537Y-63958688D01*
X156499164Y-63942107D01*
X156430943Y-63777405D01*
X156315975Y-63605342D01*
X156169657Y-63459024D01*
X156001655Y-63346770D01*
X155997598Y-63344059D01*
X155806420Y-63264870D01*
X155806412Y-63264868D01*
X155603469Y-63224500D01*
X155603465Y-63224500D01*
X155396535Y-63224500D01*
X155396530Y-63224500D01*
X155193587Y-63264868D01*
X155193579Y-63264870D01*
X155002403Y-63344058D01*
X154830342Y-63459024D01*
X154684024Y-63605342D01*
X154569058Y-63777403D01*
X154489870Y-63968579D01*
X154489868Y-63968587D01*
X154449500Y-64171530D01*
X154449500Y-64378469D01*
X154489868Y-64581412D01*
X154489870Y-64581420D01*
X154569017Y-64772498D01*
X154569059Y-64772598D01*
X154582836Y-64793217D01*
X154684024Y-64944657D01*
X154830342Y-65090975D01*
X154830345Y-65090977D01*
X155002402Y-65205941D01*
X155193580Y-65285130D01*
X155338052Y-65313867D01*
X155396530Y-65325499D01*
X155396534Y-65325500D01*
X155396535Y-65325500D01*
X155603466Y-65325500D01*
X155603467Y-65325499D01*
X155806420Y-65285130D01*
X155997598Y-65205941D01*
X156169655Y-65090977D01*
X156315977Y-64944655D01*
X156430941Y-64772598D01*
X156499165Y-64607889D01*
X156543004Y-64553488D01*
X156609298Y-64531423D01*
X156676998Y-64548702D01*
X156724609Y-64599839D01*
X156731656Y-64617026D01*
X156788904Y-64793216D01*
X156885375Y-64982550D01*
X156924728Y-65036716D01*
X157557037Y-64404408D01*
X157574075Y-64467993D01*
X157639901Y-64582007D01*
X157732993Y-64675099D01*
X157847007Y-64740925D01*
X157910590Y-64757962D01*
X157278282Y-65390269D01*
X157278282Y-65390270D01*
X157332449Y-65429624D01*
X157521782Y-65526095D01*
X157723870Y-65591757D01*
X157933754Y-65625000D01*
X158146246Y-65625000D01*
X158356127Y-65591757D01*
X158356130Y-65591757D01*
X158558217Y-65526095D01*
X158747554Y-65429622D01*
X158801716Y-65390270D01*
X158801717Y-65390270D01*
X158169408Y-64757962D01*
X158232993Y-64740925D01*
X158347007Y-64675099D01*
X158440099Y-64582007D01*
X158505925Y-64467993D01*
X158522962Y-64404408D01*
X159155270Y-65036717D01*
X159155270Y-65036716D01*
X159194622Y-64982554D01*
X159291095Y-64793217D01*
X159356757Y-64591130D01*
X159356757Y-64591127D01*
X159390000Y-64381246D01*
X159390000Y-64168753D01*
X159356757Y-63958872D01*
X159356757Y-63958869D01*
X159291095Y-63756782D01*
X159194624Y-63567449D01*
X159155270Y-63513282D01*
X159155269Y-63513282D01*
X158522962Y-64145590D01*
X158505925Y-64082007D01*
X158440099Y-63967993D01*
X158347007Y-63874901D01*
X158232993Y-63809075D01*
X158169409Y-63792037D01*
X158801716Y-63159728D01*
X158747550Y-63120375D01*
X158737954Y-63115486D01*
X158687157Y-63067512D01*
X158670361Y-62999692D01*
X158692897Y-62933556D01*
X158737954Y-62894514D01*
X158747554Y-62889622D01*
X158801716Y-62850270D01*
X158801717Y-62850270D01*
X158169408Y-62217962D01*
X158232993Y-62200925D01*
X158347007Y-62135099D01*
X158440099Y-62042007D01*
X158505925Y-61927993D01*
X158522962Y-61864408D01*
X159155270Y-62496717D01*
X159155270Y-62496716D01*
X159194622Y-62442554D01*
X159291095Y-62253217D01*
X159356757Y-62051130D01*
X159356757Y-62051127D01*
X159390000Y-61841246D01*
X159390000Y-61628753D01*
X159356757Y-61418872D01*
X159356757Y-61418869D01*
X159291095Y-61216782D01*
X159194624Y-61027449D01*
X159155270Y-60973282D01*
X159155269Y-60973282D01*
X158522962Y-61605590D01*
X158505925Y-61542007D01*
X158440099Y-61427993D01*
X158347007Y-61334901D01*
X158232993Y-61269075D01*
X158169409Y-61252037D01*
X158807017Y-60614427D01*
X158817222Y-60565852D01*
X158866273Y-60516095D01*
X158926476Y-60500500D01*
X162858230Y-60500500D01*
X162925269Y-60520185D01*
X162971024Y-60572989D01*
X162980968Y-60642147D01*
X162951943Y-60705703D01*
X162927122Y-60727602D01*
X162885446Y-60755448D01*
X162841132Y-60821769D01*
X162841131Y-60821770D01*
X162829500Y-60880247D01*
X162829500Y-62619752D01*
X162841131Y-62678229D01*
X162841132Y-62678230D01*
X162885447Y-62744552D01*
X162951769Y-62788867D01*
X162951770Y-62788868D01*
X163010247Y-62800499D01*
X163010250Y-62800500D01*
X163010252Y-62800500D01*
X164749750Y-62800500D01*
X164749751Y-62800499D01*
X164764568Y-62797552D01*
X164808229Y-62788868D01*
X164808229Y-62788867D01*
X164808231Y-62788867D01*
X164874552Y-62744552D01*
X164918867Y-62678231D01*
X164918867Y-62678229D01*
X164918868Y-62678229D01*
X164930499Y-62619752D01*
X164930500Y-62619750D01*
X164930500Y-60880249D01*
X164930499Y-60880247D01*
X164918868Y-60821770D01*
X164918867Y-60821769D01*
X164874553Y-60755448D01*
X164832878Y-60727602D01*
X164788074Y-60673989D01*
X164779367Y-60604664D01*
X164809522Y-60541637D01*
X164868965Y-60504918D01*
X164901770Y-60500500D01*
X166068081Y-60500500D01*
X166135120Y-60520185D01*
X166180875Y-60572989D01*
X166190819Y-60642147D01*
X166161794Y-60705703D01*
X166115534Y-60739061D01*
X166113581Y-60739869D01*
X166113580Y-60739870D01*
X166075972Y-60755448D01*
X165922403Y-60819058D01*
X165750342Y-60934024D01*
X165604024Y-61080342D01*
X165489058Y-61252403D01*
X165409870Y-61443579D01*
X165409868Y-61443587D01*
X165369500Y-61646530D01*
X165369500Y-61853469D01*
X165409868Y-62056412D01*
X165409870Y-62056420D01*
X165475939Y-62215925D01*
X165489059Y-62247598D01*
X165502836Y-62268217D01*
X165604024Y-62419657D01*
X165750342Y-62565975D01*
X165750345Y-62565977D01*
X165922402Y-62680941D01*
X166113580Y-62760130D01*
X166258052Y-62788867D01*
X166316530Y-62800499D01*
X166316534Y-62800500D01*
X166316535Y-62800500D01*
X166523466Y-62800500D01*
X166523467Y-62800499D01*
X166726420Y-62760130D01*
X166917598Y-62680941D01*
X167089655Y-62565977D01*
X167235977Y-62419655D01*
X167350941Y-62247598D01*
X167430130Y-62056420D01*
X167470500Y-61853465D01*
X167470500Y-61646535D01*
X167430130Y-61443580D01*
X167350941Y-61252402D01*
X167235977Y-61080345D01*
X167235975Y-61080342D01*
X167089657Y-60934024D01*
X166921655Y-60821770D01*
X166917598Y-60819059D01*
X166726420Y-60739870D01*
X166726418Y-60739869D01*
X166724466Y-60739061D01*
X166670063Y-60695220D01*
X166647998Y-60628926D01*
X166665277Y-60561227D01*
X166716414Y-60513616D01*
X166771919Y-60500500D01*
X168608081Y-60500500D01*
X168675120Y-60520185D01*
X168720875Y-60572989D01*
X168730819Y-60642147D01*
X168701794Y-60705703D01*
X168655534Y-60739061D01*
X168653581Y-60739869D01*
X168653580Y-60739870D01*
X168615972Y-60755448D01*
X168462403Y-60819058D01*
X168290342Y-60934024D01*
X168144024Y-61080342D01*
X168029058Y-61252403D01*
X167949870Y-61443579D01*
X167949868Y-61443587D01*
X167909500Y-61646530D01*
X167909500Y-61853469D01*
X167949868Y-62056412D01*
X167949870Y-62056420D01*
X168015939Y-62215925D01*
X168029059Y-62247598D01*
X168042836Y-62268217D01*
X168144024Y-62419657D01*
X168290342Y-62565975D01*
X168290345Y-62565977D01*
X168462402Y-62680941D01*
X168653580Y-62760130D01*
X168798052Y-62788867D01*
X168856530Y-62800499D01*
X168856534Y-62800500D01*
X168856535Y-62800500D01*
X169063466Y-62800500D01*
X169063467Y-62800499D01*
X169266420Y-62760130D01*
X169457598Y-62680941D01*
X169629655Y-62565977D01*
X169775977Y-62419655D01*
X169890941Y-62247598D01*
X169959165Y-62082889D01*
X170003004Y-62028488D01*
X170069298Y-62006423D01*
X170136998Y-62023702D01*
X170184609Y-62074839D01*
X170191656Y-62092026D01*
X170248904Y-62268216D01*
X170345375Y-62457550D01*
X170384728Y-62511716D01*
X171017037Y-61879408D01*
X171034075Y-61942993D01*
X171099901Y-62057007D01*
X171192993Y-62150099D01*
X171307007Y-62215925D01*
X171370590Y-62232962D01*
X170738282Y-62865269D01*
X170738282Y-62865270D01*
X170792449Y-62904624D01*
X170981782Y-63001095D01*
X171183870Y-63066757D01*
X171393754Y-63100000D01*
X171606246Y-63100000D01*
X171816127Y-63066757D01*
X171816130Y-63066757D01*
X172018217Y-63001095D01*
X172207554Y-62904622D01*
X172261716Y-62865270D01*
X172261717Y-62865270D01*
X171629408Y-62232962D01*
X171692993Y-62215925D01*
X171807007Y-62150099D01*
X171900099Y-62057007D01*
X171965925Y-61942993D01*
X171982962Y-61879409D01*
X172615270Y-62511717D01*
X172615270Y-62511716D01*
X172654622Y-62457554D01*
X172751095Y-62268217D01*
X172816757Y-62066130D01*
X172816757Y-62066127D01*
X172850000Y-61856246D01*
X172850000Y-61643753D01*
X172816757Y-61433872D01*
X172816757Y-61433869D01*
X172751095Y-61231782D01*
X172654624Y-61042449D01*
X172615270Y-60988282D01*
X172615269Y-60988282D01*
X171982962Y-61620590D01*
X171965925Y-61557007D01*
X171900099Y-61442993D01*
X171807007Y-61349901D01*
X171692993Y-61284075D01*
X171629409Y-61267037D01*
X172261716Y-60634728D01*
X172261677Y-60634230D01*
X172276041Y-60565853D01*
X172325091Y-60516096D01*
X172385295Y-60500500D01*
X179934108Y-60500500D01*
X179997294Y-60500500D01*
X180002702Y-60500617D01*
X180386771Y-60517386D01*
X180397506Y-60518326D01*
X180775971Y-60568152D01*
X180786597Y-60570025D01*
X181159284Y-60652648D01*
X181169710Y-60655442D01*
X181533765Y-60770227D01*
X181543911Y-60773920D01*
X181896578Y-60920000D01*
X181906369Y-60924566D01*
X182244942Y-61100816D01*
X182254309Y-61106223D01*
X182460223Y-61237405D01*
X182576244Y-61311318D01*
X182585105Y-61317523D01*
X182887930Y-61549889D01*
X182896217Y-61556843D01*
X183177635Y-61814715D01*
X183185284Y-61822364D01*
X183443156Y-62103782D01*
X183450110Y-62112069D01*
X183682476Y-62414894D01*
X183688681Y-62423755D01*
X183893775Y-62745689D01*
X183899183Y-62755057D01*
X184075430Y-63093623D01*
X184080002Y-63103427D01*
X184226075Y-63456078D01*
X184229775Y-63466244D01*
X184344554Y-63830278D01*
X184347354Y-63840727D01*
X184429971Y-64213389D01*
X184431849Y-64224042D01*
X184481671Y-64602473D01*
X184482614Y-64613249D01*
X184499382Y-64997297D01*
X184499500Y-65002706D01*
X184499500Y-73024180D01*
X184479815Y-73091219D01*
X184427011Y-73136974D01*
X184357853Y-73146918D01*
X184306610Y-73127283D01*
X184210990Y-73063392D01*
X184210979Y-73063386D01*
X184084362Y-73010940D01*
X184084350Y-73010937D01*
X183949935Y-72984200D01*
X183949931Y-72984200D01*
X182593671Y-72984200D01*
X182593666Y-72984200D01*
X182459251Y-73010937D01*
X182459239Y-73010940D01*
X182332622Y-73063386D01*
X182332609Y-73063393D01*
X182218654Y-73139536D01*
X182218650Y-73139539D01*
X182121740Y-73236449D01*
X182121737Y-73236453D01*
X182045594Y-73350408D01*
X182045587Y-73350421D01*
X181993141Y-73477038D01*
X181993138Y-73477050D01*
X181966401Y-73611465D01*
X181966401Y-73748534D01*
X181993138Y-73882949D01*
X181993141Y-73882961D01*
X182045587Y-74009578D01*
X182045594Y-74009591D01*
X182121737Y-74123546D01*
X182121740Y-74123550D01*
X182218650Y-74220460D01*
X182218654Y-74220463D01*
X182332609Y-74296606D01*
X182332622Y-74296613D01*
X182427275Y-74335819D01*
X182459244Y-74349061D01*
X182593666Y-74375799D01*
X182593670Y-74375800D01*
X182593671Y-74375800D01*
X183949932Y-74375800D01*
X183949933Y-74375799D01*
X184084358Y-74349061D01*
X184210986Y-74296610D01*
X184210992Y-74296606D01*
X184306609Y-74232717D01*
X184373286Y-74211839D01*
X184440667Y-74230323D01*
X184487357Y-74282302D01*
X184499500Y-74335819D01*
X184499500Y-81664180D01*
X184479815Y-81731219D01*
X184427011Y-81776974D01*
X184357853Y-81786918D01*
X184306610Y-81767283D01*
X184210990Y-81703392D01*
X184210979Y-81703386D01*
X184084362Y-81650940D01*
X184084350Y-81650937D01*
X183949935Y-81624200D01*
X183949931Y-81624200D01*
X182593671Y-81624200D01*
X182593666Y-81624200D01*
X182459251Y-81650937D01*
X182459239Y-81650940D01*
X182332622Y-81703386D01*
X182332609Y-81703393D01*
X182218654Y-81779536D01*
X182218650Y-81779539D01*
X182121740Y-81876449D01*
X182121737Y-81876453D01*
X182045594Y-81990408D01*
X182045587Y-81990421D01*
X181993141Y-82117038D01*
X181993138Y-82117050D01*
X181966401Y-82251465D01*
X181966401Y-82388534D01*
X181993138Y-82522949D01*
X181993141Y-82522961D01*
X182045587Y-82649578D01*
X182045594Y-82649591D01*
X182121737Y-82763546D01*
X182121740Y-82763550D01*
X182218650Y-82860460D01*
X182218654Y-82860463D01*
X182332609Y-82936606D01*
X182332622Y-82936613D01*
X182427275Y-82975819D01*
X182459244Y-82989061D01*
X182593666Y-83015799D01*
X182593670Y-83015800D01*
X182593671Y-83015800D01*
X183949932Y-83015800D01*
X183949933Y-83015799D01*
X184084358Y-82989061D01*
X184210986Y-82936610D01*
X184226745Y-82926080D01*
X184306609Y-82872717D01*
X184373286Y-82851839D01*
X184440667Y-82870323D01*
X184487357Y-82922302D01*
X184499500Y-82975819D01*
X184499500Y-91085730D01*
X184479815Y-91152769D01*
X184427011Y-91198524D01*
X184357853Y-91208468D01*
X184294297Y-91179443D01*
X184276234Y-91160042D01*
X184207187Y-91067809D01*
X184092093Y-90981649D01*
X184092086Y-90981645D01*
X183957379Y-90931403D01*
X183957372Y-90931401D01*
X183897844Y-90925000D01*
X183495565Y-90925000D01*
X183428526Y-90905315D01*
X183382771Y-90852511D01*
X183372827Y-90783353D01*
X183401852Y-90719797D01*
X183448112Y-90686439D01*
X183453608Y-90684162D01*
X183497598Y-90665941D01*
X183669655Y-90550977D01*
X183815977Y-90404655D01*
X183930941Y-90232598D01*
X184010130Y-90041420D01*
X184050500Y-89838465D01*
X184050500Y-89631535D01*
X184010130Y-89428580D01*
X183930941Y-89237402D01*
X183815977Y-89065345D01*
X183815975Y-89065342D01*
X183669657Y-88919024D01*
X183583626Y-88861541D01*
X183497598Y-88804059D01*
X183306420Y-88724870D01*
X183306412Y-88724868D01*
X183103469Y-88684500D01*
X183103465Y-88684500D01*
X182896535Y-88684500D01*
X182896530Y-88684500D01*
X182693587Y-88724868D01*
X182693579Y-88724870D01*
X182502403Y-88804058D01*
X182330342Y-88919024D01*
X182184024Y-89065342D01*
X182069058Y-89237403D01*
X181989870Y-89428579D01*
X181989868Y-89428587D01*
X181949500Y-89631530D01*
X181949500Y-89838469D01*
X181989868Y-90041412D01*
X181989870Y-90041420D01*
X182069059Y-90232598D01*
X182105753Y-90287515D01*
X182184024Y-90404657D01*
X182330342Y-90550975D01*
X182330345Y-90550977D01*
X182502402Y-90665941D01*
X182541993Y-90682340D01*
X182551888Y-90686439D01*
X182606291Y-90730280D01*
X182628356Y-90796574D01*
X182611077Y-90864274D01*
X182559939Y-90911884D01*
X182504435Y-90925000D01*
X182102155Y-90925000D01*
X182042627Y-90931401D01*
X182042620Y-90931403D01*
X181907913Y-90981645D01*
X181907906Y-90981649D01*
X181792812Y-91067809D01*
X181792809Y-91067812D01*
X181706649Y-91182906D01*
X181706645Y-91182913D01*
X181656403Y-91317620D01*
X181656401Y-91317627D01*
X181650000Y-91377155D01*
X181650000Y-92025000D01*
X182566988Y-92025000D01*
X182534075Y-92082007D01*
X182500000Y-92209174D01*
X182500000Y-92340826D01*
X182534075Y-92467993D01*
X182566988Y-92525000D01*
X181650000Y-92525000D01*
X181650000Y-93172844D01*
X181656401Y-93232372D01*
X181656403Y-93232379D01*
X181706645Y-93367086D01*
X181706649Y-93367093D01*
X181792809Y-93482187D01*
X181792812Y-93482190D01*
X181907906Y-93568350D01*
X181907913Y-93568354D01*
X182042620Y-93618596D01*
X182042627Y-93618598D01*
X182102155Y-93624999D01*
X182102172Y-93625000D01*
X182750000Y-93625000D01*
X182750000Y-92708012D01*
X182807007Y-92740925D01*
X182934174Y-92775000D01*
X183065826Y-92775000D01*
X183192993Y-92740925D01*
X183250000Y-92708012D01*
X183250000Y-93625000D01*
X183897828Y-93625000D01*
X183897844Y-93624999D01*
X183957372Y-93618598D01*
X183957379Y-93618596D01*
X184092086Y-93568354D01*
X184092093Y-93568350D01*
X184207187Y-93482190D01*
X184207190Y-93482187D01*
X184276234Y-93389958D01*
X184332168Y-93348087D01*
X184401859Y-93343103D01*
X184463182Y-93376589D01*
X184496666Y-93437912D01*
X184499500Y-93464269D01*
X184499500Y-104997293D01*
X184499382Y-105002702D01*
X184482614Y-105386750D01*
X184481671Y-105397526D01*
X184431849Y-105775957D01*
X184429971Y-105786610D01*
X184347354Y-106159272D01*
X184344554Y-106169721D01*
X184229775Y-106533755D01*
X184226075Y-106543921D01*
X184080002Y-106896572D01*
X184075430Y-106906376D01*
X183899183Y-107244942D01*
X183893775Y-107254310D01*
X183688681Y-107576244D01*
X183682476Y-107585105D01*
X183450110Y-107887930D01*
X183443156Y-107896217D01*
X183185284Y-108177635D01*
X183177635Y-108185284D01*
X182896217Y-108443156D01*
X182887930Y-108450110D01*
X182585105Y-108682476D01*
X182576244Y-108688681D01*
X182254310Y-108893775D01*
X182244942Y-108899183D01*
X181906376Y-109075430D01*
X181896572Y-109080002D01*
X181543921Y-109226075D01*
X181533755Y-109229775D01*
X181169721Y-109344554D01*
X181159272Y-109347354D01*
X180786610Y-109429971D01*
X180775957Y-109431849D01*
X180397526Y-109481671D01*
X180386750Y-109482614D01*
X180002703Y-109499382D01*
X179997294Y-109499500D01*
X150413236Y-109499500D01*
X150346197Y-109479815D01*
X150300442Y-109427011D01*
X150290498Y-109357853D01*
X150297054Y-109332167D01*
X150343596Y-109207379D01*
X150343598Y-109207372D01*
X150349999Y-109147844D01*
X150350000Y-109147827D01*
X150350000Y-108500000D01*
X149433012Y-108500000D01*
X149465925Y-108442993D01*
X149500000Y-108315826D01*
X149500000Y-108184174D01*
X149465925Y-108057007D01*
X149433012Y-108000000D01*
X150350000Y-108000000D01*
X150350000Y-107352172D01*
X150349999Y-107352155D01*
X150343598Y-107292627D01*
X150343596Y-107292620D01*
X150293354Y-107157913D01*
X150293350Y-107157906D01*
X150207190Y-107042812D01*
X150207187Y-107042809D01*
X150092093Y-106956649D01*
X150092086Y-106956645D01*
X149957379Y-106906403D01*
X149957372Y-106906401D01*
X149897844Y-106900000D01*
X149250000Y-106900000D01*
X149250000Y-107816988D01*
X149192993Y-107784075D01*
X149065826Y-107750000D01*
X148934174Y-107750000D01*
X148807007Y-107784075D01*
X148750000Y-107816988D01*
X148750000Y-106900000D01*
X148102155Y-106900000D01*
X148042627Y-106906401D01*
X148042620Y-106906403D01*
X147907913Y-106956645D01*
X147907906Y-106956649D01*
X147792812Y-107042809D01*
X147792809Y-107042812D01*
X147706649Y-107157906D01*
X147706645Y-107157913D01*
X147656403Y-107292620D01*
X147656401Y-107292627D01*
X147650000Y-107352155D01*
X147650000Y-107754435D01*
X147630315Y-107821474D01*
X147577511Y-107867229D01*
X147508353Y-107877173D01*
X147444797Y-107848148D01*
X147411439Y-107801888D01*
X147390941Y-107752403D01*
X147390941Y-107752402D01*
X147275977Y-107580345D01*
X147275975Y-107580342D01*
X147129657Y-107434024D01*
X147007130Y-107352155D01*
X146957598Y-107319059D01*
X146766420Y-107239870D01*
X146766412Y-107239868D01*
X146563469Y-107199500D01*
X146563465Y-107199500D01*
X146356535Y-107199500D01*
X146356530Y-107199500D01*
X146153587Y-107239868D01*
X146153579Y-107239870D01*
X145962403Y-107319058D01*
X145790342Y-107434024D01*
X145644024Y-107580342D01*
X145529058Y-107752403D01*
X145449870Y-107943579D01*
X145449868Y-107943587D01*
X145409500Y-108146530D01*
X145409500Y-108353469D01*
X145449868Y-108556412D01*
X145449870Y-108556420D01*
X145529058Y-108747596D01*
X145644024Y-108919657D01*
X145790342Y-109065975D01*
X145790345Y-109065977D01*
X145962402Y-109180941D01*
X146153580Y-109260130D01*
X146153581Y-109260130D01*
X146155534Y-109260939D01*
X146209937Y-109304780D01*
X146232002Y-109371074D01*
X146214723Y-109438773D01*
X146163586Y-109486384D01*
X146108081Y-109499500D01*
X144271919Y-109499500D01*
X144204880Y-109479815D01*
X144159125Y-109427011D01*
X144149181Y-109357853D01*
X144178206Y-109294297D01*
X144224466Y-109260939D01*
X144226418Y-109260130D01*
X144226420Y-109260130D01*
X144417598Y-109180941D01*
X144589655Y-109065977D01*
X144735977Y-108919655D01*
X144850941Y-108747598D01*
X144930130Y-108556420D01*
X144970500Y-108353465D01*
X144970500Y-108146535D01*
X144930130Y-107943580D01*
X144850941Y-107752402D01*
X144735977Y-107580345D01*
X144735975Y-107580342D01*
X144589657Y-107434024D01*
X144467130Y-107352155D01*
X144417598Y-107319059D01*
X144226420Y-107239870D01*
X144226412Y-107239868D01*
X144023469Y-107199500D01*
X144023465Y-107199500D01*
X143816535Y-107199500D01*
X143816530Y-107199500D01*
X143613587Y-107239868D01*
X143613579Y-107239870D01*
X143422403Y-107319058D01*
X143250342Y-107434024D01*
X143104024Y-107580342D01*
X142989058Y-107752403D01*
X142909870Y-107943579D01*
X142909868Y-107943587D01*
X142869500Y-108146530D01*
X142869500Y-108353469D01*
X142909868Y-108556412D01*
X142909870Y-108556420D01*
X142989058Y-108747596D01*
X143104024Y-108919657D01*
X143250342Y-109065975D01*
X143250345Y-109065977D01*
X143422402Y-109180941D01*
X143613580Y-109260130D01*
X143613581Y-109260130D01*
X143615534Y-109260939D01*
X143669937Y-109304780D01*
X143692002Y-109371074D01*
X143674723Y-109438773D01*
X143623586Y-109486384D01*
X143568081Y-109499500D01*
X141731919Y-109499500D01*
X141664880Y-109479815D01*
X141619125Y-109427011D01*
X141609181Y-109357853D01*
X141638206Y-109294297D01*
X141684466Y-109260939D01*
X141686418Y-109260130D01*
X141686420Y-109260130D01*
X141877598Y-109180941D01*
X142049655Y-109065977D01*
X142195977Y-108919655D01*
X142310941Y-108747598D01*
X142390130Y-108556420D01*
X142430500Y-108353465D01*
X142430500Y-108146535D01*
X142390130Y-107943580D01*
X142310941Y-107752402D01*
X142195977Y-107580345D01*
X142195975Y-107580342D01*
X142049657Y-107434024D01*
X141927130Y-107352155D01*
X141877598Y-107319059D01*
X141686420Y-107239870D01*
X141686412Y-107239868D01*
X141483469Y-107199500D01*
X141483465Y-107199500D01*
X141276535Y-107199500D01*
X141276530Y-107199500D01*
X141073587Y-107239868D01*
X141073579Y-107239870D01*
X140882403Y-107319058D01*
X140710342Y-107434024D01*
X140564024Y-107580342D01*
X140449058Y-107752403D01*
X140369870Y-107943579D01*
X140369868Y-107943587D01*
X140329500Y-108146530D01*
X140329500Y-108353469D01*
X140369868Y-108556412D01*
X140369870Y-108556420D01*
X140449058Y-108747596D01*
X140564024Y-108919657D01*
X140710342Y-109065975D01*
X140710345Y-109065977D01*
X140882402Y-109180941D01*
X141073580Y-109260130D01*
X141073581Y-109260130D01*
X141075534Y-109260939D01*
X141129937Y-109304780D01*
X141152002Y-109371074D01*
X141134723Y-109438773D01*
X141083586Y-109486384D01*
X141028081Y-109499500D01*
X137413236Y-109499500D01*
X137346197Y-109479815D01*
X137300442Y-109427011D01*
X137290498Y-109357853D01*
X137297054Y-109332167D01*
X137343596Y-109207379D01*
X137343598Y-109207372D01*
X137349999Y-109147844D01*
X137350000Y-109147827D01*
X137350000Y-108500000D01*
X136433012Y-108500000D01*
X136465925Y-108442993D01*
X136500000Y-108315826D01*
X136500000Y-108184174D01*
X136465925Y-108057007D01*
X136433012Y-108000000D01*
X137350000Y-108000000D01*
X137350000Y-107352172D01*
X137349999Y-107352155D01*
X137343598Y-107292627D01*
X137343596Y-107292620D01*
X137293354Y-107157913D01*
X137293350Y-107157906D01*
X137207190Y-107042812D01*
X137207187Y-107042809D01*
X137092093Y-106956649D01*
X137092086Y-106956645D01*
X136957379Y-106906403D01*
X136957372Y-106906401D01*
X136897844Y-106900000D01*
X136250000Y-106900000D01*
X136250000Y-107816988D01*
X136192993Y-107784075D01*
X136065826Y-107750000D01*
X135934174Y-107750000D01*
X135807007Y-107784075D01*
X135750000Y-107816988D01*
X135750000Y-106900000D01*
X135102155Y-106900000D01*
X135042627Y-106906401D01*
X135042620Y-106906403D01*
X134907913Y-106956645D01*
X134907906Y-106956649D01*
X134792812Y-107042809D01*
X134792809Y-107042812D01*
X134706649Y-107157906D01*
X134706645Y-107157913D01*
X134656403Y-107292620D01*
X134656401Y-107292627D01*
X134650000Y-107352155D01*
X134650000Y-107754435D01*
X134630315Y-107821474D01*
X134577511Y-107867229D01*
X134508353Y-107877173D01*
X134444797Y-107848148D01*
X134411439Y-107801888D01*
X134390941Y-107752403D01*
X134390941Y-107752402D01*
X134275977Y-107580345D01*
X134275975Y-107580342D01*
X134129657Y-107434024D01*
X134007130Y-107352155D01*
X133957598Y-107319059D01*
X133766420Y-107239870D01*
X133766412Y-107239868D01*
X133563469Y-107199500D01*
X133563465Y-107199500D01*
X133356535Y-107199500D01*
X133356530Y-107199500D01*
X133153587Y-107239868D01*
X133153579Y-107239870D01*
X132962403Y-107319058D01*
X132790342Y-107434024D01*
X132644024Y-107580342D01*
X132529058Y-107752403D01*
X132449870Y-107943579D01*
X132449868Y-107943587D01*
X132409500Y-108146530D01*
X132409500Y-108353469D01*
X132449868Y-108556412D01*
X132449870Y-108556420D01*
X132529058Y-108747596D01*
X132644024Y-108919657D01*
X132790342Y-109065975D01*
X132790345Y-109065977D01*
X132962402Y-109180941D01*
X133153580Y-109260130D01*
X133153581Y-109260130D01*
X133155534Y-109260939D01*
X133209937Y-109304780D01*
X133232002Y-109371074D01*
X133214723Y-109438773D01*
X133163586Y-109486384D01*
X133108081Y-109499500D01*
X131271919Y-109499500D01*
X131204880Y-109479815D01*
X131159125Y-109427011D01*
X131149181Y-109357853D01*
X131178206Y-109294297D01*
X131224466Y-109260939D01*
X131226418Y-109260130D01*
X131226420Y-109260130D01*
X131417598Y-109180941D01*
X131589655Y-109065977D01*
X131735977Y-108919655D01*
X131850941Y-108747598D01*
X131930130Y-108556420D01*
X131970500Y-108353465D01*
X131970500Y-108146535D01*
X131930130Y-107943580D01*
X131850941Y-107752402D01*
X131735977Y-107580345D01*
X131735975Y-107580342D01*
X131589657Y-107434024D01*
X131467130Y-107352155D01*
X131417598Y-107319059D01*
X131226420Y-107239870D01*
X131226412Y-107239868D01*
X131023469Y-107199500D01*
X131023465Y-107199500D01*
X130816535Y-107199500D01*
X130816530Y-107199500D01*
X130613587Y-107239868D01*
X130613579Y-107239870D01*
X130422403Y-107319058D01*
X130250342Y-107434024D01*
X130104024Y-107580342D01*
X129989058Y-107752403D01*
X129909870Y-107943579D01*
X129909868Y-107943587D01*
X129869500Y-108146530D01*
X129869500Y-108353469D01*
X129909868Y-108556412D01*
X129909870Y-108556420D01*
X129989058Y-108747596D01*
X130104024Y-108919657D01*
X130250342Y-109065975D01*
X130250345Y-109065977D01*
X130422402Y-109180941D01*
X130613580Y-109260130D01*
X130613581Y-109260130D01*
X130615534Y-109260939D01*
X130669937Y-109304780D01*
X130692002Y-109371074D01*
X130674723Y-109438773D01*
X130623586Y-109486384D01*
X130568081Y-109499500D01*
X128731919Y-109499500D01*
X128664880Y-109479815D01*
X128619125Y-109427011D01*
X128609181Y-109357853D01*
X128638206Y-109294297D01*
X128684466Y-109260939D01*
X128686418Y-109260130D01*
X128686420Y-109260130D01*
X128877598Y-109180941D01*
X129049655Y-109065977D01*
X129195977Y-108919655D01*
X129310941Y-108747598D01*
X129390130Y-108556420D01*
X129430500Y-108353465D01*
X129430500Y-108146535D01*
X129390130Y-107943580D01*
X129310941Y-107752402D01*
X129195977Y-107580345D01*
X129195975Y-107580342D01*
X129049657Y-107434024D01*
X128927130Y-107352155D01*
X128877598Y-107319059D01*
X128686420Y-107239870D01*
X128686412Y-107239868D01*
X128483469Y-107199500D01*
X128483465Y-107199500D01*
X128276535Y-107199500D01*
X128276530Y-107199500D01*
X128073587Y-107239868D01*
X128073579Y-107239870D01*
X127882403Y-107319058D01*
X127710342Y-107434024D01*
X127564024Y-107580342D01*
X127449058Y-107752403D01*
X127369870Y-107943579D01*
X127369868Y-107943587D01*
X127329500Y-108146530D01*
X127329500Y-108353469D01*
X127369868Y-108556412D01*
X127369870Y-108556420D01*
X127449058Y-108747596D01*
X127564024Y-108919657D01*
X127710342Y-109065975D01*
X127710345Y-109065977D01*
X127882402Y-109180941D01*
X128073580Y-109260130D01*
X128073581Y-109260130D01*
X128075534Y-109260939D01*
X128129937Y-109304780D01*
X128152002Y-109371074D01*
X128134723Y-109438773D01*
X128083586Y-109486384D01*
X128028081Y-109499500D01*
X120002706Y-109499500D01*
X119997297Y-109499382D01*
X119613249Y-109482614D01*
X119602473Y-109481671D01*
X119224042Y-109431849D01*
X119213389Y-109429971D01*
X118840727Y-109347354D01*
X118830278Y-109344554D01*
X118466244Y-109229775D01*
X118456078Y-109226075D01*
X118103427Y-109080002D01*
X118093623Y-109075430D01*
X117755057Y-108899183D01*
X117745689Y-108893775D01*
X117423755Y-108688681D01*
X117414894Y-108682476D01*
X117112069Y-108450110D01*
X117103782Y-108443156D01*
X116822364Y-108185284D01*
X116814715Y-108177635D01*
X116556843Y-107896217D01*
X116549889Y-107887930D01*
X116317523Y-107585105D01*
X116311318Y-107576244D01*
X116220713Y-107434023D01*
X116106223Y-107254309D01*
X116100816Y-107244942D01*
X116077160Y-107199500D01*
X115924566Y-106906369D01*
X115919997Y-106896572D01*
X115773924Y-106543921D01*
X115770224Y-106533755D01*
X115655442Y-106169710D01*
X115652648Y-106159284D01*
X115570025Y-105786597D01*
X115568152Y-105775971D01*
X115518326Y-105397506D01*
X115517386Y-105386771D01*
X115500618Y-105002702D01*
X115500500Y-104997293D01*
X115500500Y-96405247D01*
X148024500Y-96405247D01*
X148024500Y-98394752D01*
X148036131Y-98453229D01*
X148036132Y-98453230D01*
X148080447Y-98519552D01*
X148146769Y-98563867D01*
X148146770Y-98563868D01*
X148205247Y-98575499D01*
X148205250Y-98575500D01*
X148205252Y-98575500D01*
X150194750Y-98575500D01*
X150194751Y-98575499D01*
X150209568Y-98572552D01*
X150253229Y-98563868D01*
X150253229Y-98563867D01*
X150253231Y-98563867D01*
X150319552Y-98519552D01*
X150319553Y-98519551D01*
X150340227Y-98488611D01*
X150340227Y-98488610D01*
X150340228Y-98488609D01*
X150363867Y-98453231D01*
X150363868Y-98453229D01*
X150375499Y-98394752D01*
X150375500Y-98394750D01*
X150375500Y-97283909D01*
X154225000Y-97283909D01*
X154225000Y-97516090D01*
X154261318Y-97745393D01*
X154333065Y-97966205D01*
X154438465Y-98173064D01*
X154495238Y-98251207D01*
X155098958Y-97647487D01*
X155123978Y-97707890D01*
X155195112Y-97814351D01*
X155285649Y-97904888D01*
X155392110Y-97976022D01*
X155452510Y-98001041D01*
X154848791Y-98604759D01*
X154848791Y-98604760D01*
X154926935Y-98661534D01*
X155133794Y-98766934D01*
X155354606Y-98838681D01*
X155583910Y-98875000D01*
X155816090Y-98875000D01*
X156045393Y-98838681D01*
X156266205Y-98766934D01*
X156473071Y-98661530D01*
X156551207Y-98604762D01*
X156551208Y-98604760D01*
X156273973Y-98327525D01*
X159349500Y-98327525D01*
X159349500Y-98472475D01*
X159373989Y-98563867D01*
X159387017Y-98612488D01*
X159459488Y-98738011D01*
X159459490Y-98738013D01*
X159459491Y-98738015D01*
X159561985Y-98840509D01*
X159561986Y-98840510D01*
X159561988Y-98840511D01*
X159687511Y-98912982D01*
X159687512Y-98912982D01*
X159687515Y-98912984D01*
X159827525Y-98950500D01*
X159827528Y-98950500D01*
X159972472Y-98950500D01*
X159972475Y-98950500D01*
X160112485Y-98912984D01*
X160238015Y-98840509D01*
X160340509Y-98738015D01*
X160412984Y-98612485D01*
X160435749Y-98527525D01*
X171949500Y-98527525D01*
X171949500Y-98672475D01*
X171974811Y-98766934D01*
X171987017Y-98812488D01*
X172059488Y-98938011D01*
X172059490Y-98938013D01*
X172059491Y-98938015D01*
X172161985Y-99040509D01*
X172161986Y-99040510D01*
X172161988Y-99040511D01*
X172287511Y-99112982D01*
X172287512Y-99112982D01*
X172287515Y-99112984D01*
X172427525Y-99150500D01*
X172427528Y-99150500D01*
X172572472Y-99150500D01*
X172572475Y-99150500D01*
X172712485Y-99112984D01*
X172838015Y-99040509D01*
X172940509Y-98938015D01*
X173012984Y-98812485D01*
X173050500Y-98672475D01*
X173050500Y-98527525D01*
X173019419Y-98411530D01*
X181949500Y-98411530D01*
X181949500Y-98618469D01*
X181989868Y-98821412D01*
X181989870Y-98821420D01*
X182038165Y-98938015D01*
X182069059Y-99012598D01*
X182087710Y-99040511D01*
X182184024Y-99184657D01*
X182330342Y-99330975D01*
X182330345Y-99330977D01*
X182502402Y-99445941D01*
X182693580Y-99525130D01*
X182896530Y-99565499D01*
X182896534Y-99565500D01*
X182896535Y-99565500D01*
X183103466Y-99565500D01*
X183103467Y-99565499D01*
X183306420Y-99525130D01*
X183497598Y-99445941D01*
X183669655Y-99330977D01*
X183815977Y-99184655D01*
X183930941Y-99012598D01*
X184010130Y-98821420D01*
X184050500Y-98618465D01*
X184050500Y-98411535D01*
X184010130Y-98208580D01*
X183930941Y-98017402D01*
X183815977Y-97845345D01*
X183815975Y-97845342D01*
X183669657Y-97699024D01*
X183583626Y-97641541D01*
X183497598Y-97584059D01*
X183306420Y-97504870D01*
X183306412Y-97504868D01*
X183103469Y-97464500D01*
X183103465Y-97464500D01*
X182896535Y-97464500D01*
X182896530Y-97464500D01*
X182693587Y-97504868D01*
X182693579Y-97504870D01*
X182502403Y-97584058D01*
X182330342Y-97699024D01*
X182184024Y-97845342D01*
X182069058Y-98017403D01*
X181989870Y-98208579D01*
X181989868Y-98208587D01*
X181949500Y-98411530D01*
X173019419Y-98411530D01*
X173012984Y-98387515D01*
X172940509Y-98261985D01*
X172838015Y-98159491D01*
X172838013Y-98159490D01*
X172838011Y-98159488D01*
X172712488Y-98087017D01*
X172712489Y-98087017D01*
X172701006Y-98083940D01*
X172572475Y-98049500D01*
X172427525Y-98049500D01*
X172298993Y-98083940D01*
X172287511Y-98087017D01*
X172161988Y-98159488D01*
X172161982Y-98159493D01*
X172059493Y-98261982D01*
X172059488Y-98261988D01*
X171987017Y-98387511D01*
X171987016Y-98387515D01*
X171949500Y-98527525D01*
X160435749Y-98527525D01*
X160450500Y-98472475D01*
X160450500Y-98327525D01*
X160412984Y-98187515D01*
X160396805Y-98159493D01*
X160340511Y-98061988D01*
X160340506Y-98061982D01*
X160238017Y-97959493D01*
X160238011Y-97959488D01*
X160112488Y-97887017D01*
X160112489Y-97887017D01*
X160101006Y-97883940D01*
X159972475Y-97849500D01*
X159827525Y-97849500D01*
X159698993Y-97883940D01*
X159687511Y-97887017D01*
X159561988Y-97959488D01*
X159561982Y-97959493D01*
X159459493Y-98061982D01*
X159459488Y-98061988D01*
X159387017Y-98187511D01*
X159387016Y-98187515D01*
X159349500Y-98327525D01*
X156273973Y-98327525D01*
X155947488Y-98001041D01*
X156007890Y-97976022D01*
X156114351Y-97904888D01*
X156204888Y-97814351D01*
X156276022Y-97707890D01*
X156301041Y-97647489D01*
X156904760Y-98251208D01*
X156904761Y-98251207D01*
X156908173Y-98246513D01*
X156961530Y-98173071D01*
X157066934Y-97966205D01*
X157138681Y-97745393D01*
X157175000Y-97516090D01*
X157175000Y-97283909D01*
X157138681Y-97054606D01*
X157066934Y-96833794D01*
X156961534Y-96626935D01*
X156904760Y-96548791D01*
X156904759Y-96548791D01*
X156301041Y-97152510D01*
X156276022Y-97092110D01*
X156204888Y-96985649D01*
X156114351Y-96895112D01*
X156007890Y-96823978D01*
X155947487Y-96798957D01*
X156551207Y-96195238D01*
X156473064Y-96138465D01*
X156266205Y-96033065D01*
X156045393Y-95961318D01*
X155816090Y-95925000D01*
X155583910Y-95925000D01*
X155354606Y-95961318D01*
X155133794Y-96033065D01*
X154926925Y-96138470D01*
X154848791Y-96195237D01*
X154848791Y-96195238D01*
X155452511Y-96798958D01*
X155392110Y-96823978D01*
X155285649Y-96895112D01*
X155195112Y-96985649D01*
X155123978Y-97092110D01*
X155098958Y-97152511D01*
X154495238Y-96548791D01*
X154495237Y-96548791D01*
X154438470Y-96626925D01*
X154333065Y-96833794D01*
X154261318Y-97054606D01*
X154225000Y-97283909D01*
X150375500Y-97283909D01*
X150375500Y-96405249D01*
X150375499Y-96405247D01*
X150363868Y-96346770D01*
X150363867Y-96346769D01*
X150340226Y-96311388D01*
X150319552Y-96280447D01*
X150253230Y-96236132D01*
X150253229Y-96236131D01*
X150194752Y-96224500D01*
X150194748Y-96224500D01*
X148205252Y-96224500D01*
X148205247Y-96224500D01*
X148146770Y-96236131D01*
X148146769Y-96236132D01*
X148080447Y-96280447D01*
X148036132Y-96346769D01*
X148036131Y-96346770D01*
X148024500Y-96405247D01*
X115500500Y-96405247D01*
X115500500Y-94927525D01*
X149449500Y-94927525D01*
X149449500Y-95072475D01*
X149458283Y-95105252D01*
X149487017Y-95212488D01*
X149559488Y-95338011D01*
X149559490Y-95338013D01*
X149559491Y-95338015D01*
X149661985Y-95440509D01*
X149661986Y-95440510D01*
X149661988Y-95440511D01*
X149787511Y-95512982D01*
X149787512Y-95512982D01*
X149787515Y-95512984D01*
X149927525Y-95550500D01*
X149927528Y-95550500D01*
X150072472Y-95550500D01*
X150072475Y-95550500D01*
X150212485Y-95512984D01*
X150338015Y-95440509D01*
X150440509Y-95338015D01*
X150512984Y-95212485D01*
X150541719Y-95105247D01*
X181949500Y-95105247D01*
X181949500Y-96844752D01*
X181961131Y-96903229D01*
X181961132Y-96903230D01*
X182005447Y-96969552D01*
X182071769Y-97013867D01*
X182071770Y-97013868D01*
X182130247Y-97025499D01*
X182130250Y-97025500D01*
X182130252Y-97025500D01*
X183869750Y-97025500D01*
X183869751Y-97025499D01*
X183884568Y-97022552D01*
X183928229Y-97013868D01*
X183928229Y-97013867D01*
X183928231Y-97013867D01*
X183994552Y-96969552D01*
X184038867Y-96903231D01*
X184038867Y-96903229D01*
X184038868Y-96903229D01*
X184050499Y-96844752D01*
X184050500Y-96844750D01*
X184050500Y-95105249D01*
X184050499Y-95105247D01*
X184038868Y-95046770D01*
X184038867Y-95046769D01*
X183994552Y-94980447D01*
X183928230Y-94936132D01*
X183928229Y-94936131D01*
X183869752Y-94924500D01*
X183869748Y-94924500D01*
X182130252Y-94924500D01*
X182130247Y-94924500D01*
X182071770Y-94936131D01*
X182071769Y-94936132D01*
X182005447Y-94980447D01*
X181961132Y-95046769D01*
X181961131Y-95046770D01*
X181949500Y-95105247D01*
X150541719Y-95105247D01*
X150550500Y-95072475D01*
X150550500Y-94927525D01*
X150512984Y-94787515D01*
X150440509Y-94661985D01*
X150338015Y-94559491D01*
X150338013Y-94559490D01*
X150338011Y-94559488D01*
X150212488Y-94487017D01*
X150212489Y-94487017D01*
X150201006Y-94483940D01*
X150072475Y-94449500D01*
X149927525Y-94449500D01*
X149798993Y-94483940D01*
X149787511Y-94487017D01*
X149661988Y-94559488D01*
X149661982Y-94559493D01*
X149559493Y-94661982D01*
X149559488Y-94661988D01*
X149487017Y-94787511D01*
X149487016Y-94787515D01*
X149449500Y-94927525D01*
X115500500Y-94927525D01*
X115500500Y-91927525D01*
X132349500Y-91927525D01*
X132349500Y-92072475D01*
X132386129Y-92209174D01*
X132387017Y-92212488D01*
X132459488Y-92338011D01*
X132459490Y-92338013D01*
X132459491Y-92338015D01*
X132561985Y-92440509D01*
X132561986Y-92440510D01*
X132561988Y-92440511D01*
X132687511Y-92512982D01*
X132687512Y-92512982D01*
X132687515Y-92512984D01*
X132827525Y-92550500D01*
X132827528Y-92550500D01*
X132972472Y-92550500D01*
X132972475Y-92550500D01*
X133112485Y-92512984D01*
X133238015Y-92440509D01*
X133340509Y-92338015D01*
X133412984Y-92212485D01*
X133450500Y-92072475D01*
X133450500Y-91927525D01*
X133412984Y-91787515D01*
X133405758Y-91775000D01*
X133340511Y-91661988D01*
X133340506Y-91661982D01*
X133238017Y-91559493D01*
X133238011Y-91559488D01*
X133112488Y-91487017D01*
X133112489Y-91487017D01*
X133101006Y-91483940D01*
X132972475Y-91449500D01*
X132827525Y-91449500D01*
X132698993Y-91483940D01*
X132687511Y-91487017D01*
X132561988Y-91559488D01*
X132561982Y-91559493D01*
X132459493Y-91661982D01*
X132459488Y-91661988D01*
X132387017Y-91787511D01*
X132387016Y-91787515D01*
X132349500Y-91927525D01*
X115500500Y-91927525D01*
X115500500Y-90427525D01*
X153841486Y-90427525D01*
X153841486Y-90572475D01*
X153872023Y-90686439D01*
X153879003Y-90712488D01*
X153951474Y-90838011D01*
X153951476Y-90838013D01*
X153951477Y-90838015D01*
X154053971Y-90940509D01*
X154053972Y-90940510D01*
X154053974Y-90940511D01*
X154179497Y-91012982D01*
X154179498Y-91012982D01*
X154179501Y-91012984D01*
X154319511Y-91050500D01*
X154319514Y-91050500D01*
X154409082Y-91050500D01*
X154476121Y-91070185D01*
X154521876Y-91122989D01*
X154531820Y-91192147D01*
X154516469Y-91236500D01*
X154487017Y-91287511D01*
X154487016Y-91287515D01*
X154449500Y-91427525D01*
X154449500Y-91572475D01*
X154487016Y-91712485D01*
X154487017Y-91712488D01*
X154559488Y-91838011D01*
X154559490Y-91838013D01*
X154559491Y-91838015D01*
X154661985Y-91940509D01*
X154661986Y-91940510D01*
X154661988Y-91940511D01*
X154787511Y-92012982D01*
X154787512Y-92012982D01*
X154787515Y-92012984D01*
X154927525Y-92050500D01*
X154927528Y-92050500D01*
X155072472Y-92050500D01*
X155072475Y-92050500D01*
X155212485Y-92012984D01*
X155338015Y-91940509D01*
X155440509Y-91838015D01*
X155512984Y-91712485D01*
X155550500Y-91572475D01*
X155550500Y-91427525D01*
X155512984Y-91287515D01*
X155483530Y-91236500D01*
X155440511Y-91161988D01*
X155440506Y-91161982D01*
X155338017Y-91059493D01*
X155338011Y-91059488D01*
X155212488Y-90987017D01*
X155212489Y-90987017D01*
X155192440Y-90981645D01*
X155072475Y-90949500D01*
X154982904Y-90949500D01*
X154915865Y-90929815D01*
X154870110Y-90877011D01*
X154860166Y-90807853D01*
X154875517Y-90763500D01*
X154904968Y-90712488D01*
X154904967Y-90712488D01*
X154904970Y-90712485D01*
X154942486Y-90572475D01*
X154942486Y-90427525D01*
X154904970Y-90287515D01*
X154884768Y-90252525D01*
X155274500Y-90252525D01*
X155274500Y-90397475D01*
X155282553Y-90427527D01*
X155312017Y-90537488D01*
X155384488Y-90663011D01*
X155384490Y-90663013D01*
X155384491Y-90663015D01*
X155486985Y-90765509D01*
X155486986Y-90765510D01*
X155486988Y-90765511D01*
X155612511Y-90837982D01*
X155612512Y-90837982D01*
X155612515Y-90837984D01*
X155752525Y-90875500D01*
X155752528Y-90875500D01*
X155897472Y-90875500D01*
X155897475Y-90875500D01*
X156037485Y-90837984D01*
X156163015Y-90765509D01*
X156265509Y-90663015D01*
X156337984Y-90537485D01*
X156375500Y-90397475D01*
X156375500Y-90252525D01*
X156337984Y-90112515D01*
X156307370Y-90059491D01*
X156265511Y-89986988D01*
X156265506Y-89986982D01*
X156163017Y-89884493D01*
X156163011Y-89884488D01*
X156037488Y-89812017D01*
X156037489Y-89812017D01*
X156026006Y-89808940D01*
X155897475Y-89774500D01*
X155752525Y-89774500D01*
X155623993Y-89808940D01*
X155612511Y-89812017D01*
X155486988Y-89884488D01*
X155486982Y-89884493D01*
X155384493Y-89986982D01*
X155384488Y-89986988D01*
X155312017Y-90112511D01*
X155312016Y-90112515D01*
X155274500Y-90252525D01*
X154884768Y-90252525D01*
X154832497Y-90161988D01*
X154832492Y-90161982D01*
X154730003Y-90059493D01*
X154729997Y-90059488D01*
X154604474Y-89987017D01*
X154604475Y-89987017D01*
X154592992Y-89983940D01*
X154464461Y-89949500D01*
X154319511Y-89949500D01*
X154190979Y-89983940D01*
X154179497Y-89987017D01*
X154053974Y-90059488D01*
X154053968Y-90059493D01*
X153951479Y-90161982D01*
X153951474Y-90161988D01*
X153879003Y-90287511D01*
X153879002Y-90287515D01*
X153841486Y-90427525D01*
X115500500Y-90427525D01*
X115500500Y-88827525D01*
X155149500Y-88827525D01*
X155149500Y-88972475D01*
X155160221Y-89012485D01*
X155187017Y-89112488D01*
X155259488Y-89238011D01*
X155259490Y-89238013D01*
X155259491Y-89238015D01*
X155361985Y-89340509D01*
X155361986Y-89340510D01*
X155361988Y-89340511D01*
X155487511Y-89412982D01*
X155487512Y-89412982D01*
X155487515Y-89412984D01*
X155627525Y-89450500D01*
X155627528Y-89450500D01*
X155772472Y-89450500D01*
X155772475Y-89450500D01*
X155912485Y-89412984D01*
X156038015Y-89340509D01*
X156140509Y-89238015D01*
X156212984Y-89112485D01*
X156250500Y-88972475D01*
X156250500Y-88827525D01*
X156244891Y-88806592D01*
X156246554Y-88736743D01*
X156252793Y-88727525D01*
X170149500Y-88727525D01*
X170149500Y-88872475D01*
X170187016Y-89012485D01*
X170187017Y-89012488D01*
X170259488Y-89138011D01*
X170259490Y-89138013D01*
X170259491Y-89138015D01*
X170361985Y-89240509D01*
X170361986Y-89240510D01*
X170361988Y-89240511D01*
X170487511Y-89312982D01*
X170487512Y-89312982D01*
X170487515Y-89312984D01*
X170627525Y-89350500D01*
X170627528Y-89350500D01*
X170772472Y-89350500D01*
X170772475Y-89350500D01*
X170912485Y-89312984D01*
X171038015Y-89240509D01*
X171140509Y-89138015D01*
X171212984Y-89012485D01*
X171250500Y-88872475D01*
X171250500Y-88727525D01*
X171212984Y-88587515D01*
X171198244Y-88561985D01*
X171140511Y-88461988D01*
X171140506Y-88461982D01*
X171038017Y-88359493D01*
X171038011Y-88359488D01*
X170912488Y-88287017D01*
X170912489Y-88287017D01*
X170901006Y-88283940D01*
X170772475Y-88249500D01*
X170627525Y-88249500D01*
X170498993Y-88283940D01*
X170487511Y-88287017D01*
X170361988Y-88359488D01*
X170361982Y-88359493D01*
X170259493Y-88461982D01*
X170259488Y-88461988D01*
X170187017Y-88587511D01*
X170187016Y-88587515D01*
X170149500Y-88727525D01*
X156252793Y-88727525D01*
X156285717Y-88678881D01*
X156333405Y-88654505D01*
X156348778Y-88650500D01*
X156372475Y-88650500D01*
X156512485Y-88612984D01*
X156638015Y-88540509D01*
X156740509Y-88438015D01*
X156812984Y-88312485D01*
X156835759Y-88227486D01*
X156872123Y-88167829D01*
X156934970Y-88137300D01*
X156987625Y-88139808D01*
X157027525Y-88150500D01*
X157027527Y-88150500D01*
X157172472Y-88150500D01*
X157172475Y-88150500D01*
X157312485Y-88112984D01*
X157438015Y-88040509D01*
X157540509Y-87938015D01*
X157612984Y-87812485D01*
X157650500Y-87672475D01*
X157650500Y-87527525D01*
X157612984Y-87387515D01*
X157598244Y-87361985D01*
X157540511Y-87261988D01*
X157540506Y-87261982D01*
X157438017Y-87159493D01*
X157438011Y-87159488D01*
X157312488Y-87087017D01*
X157312489Y-87087017D01*
X157301006Y-87083940D01*
X157172475Y-87049500D01*
X157027525Y-87049500D01*
X156898993Y-87083940D01*
X156887511Y-87087017D01*
X156761988Y-87159488D01*
X156761982Y-87159493D01*
X156659493Y-87261982D01*
X156659488Y-87261988D01*
X156587017Y-87387511D01*
X156587015Y-87387516D01*
X156564240Y-87472511D01*
X156527875Y-87532171D01*
X156465027Y-87562699D01*
X156412374Y-87560191D01*
X156372475Y-87549500D01*
X156227525Y-87549500D01*
X156098993Y-87583940D01*
X156087511Y-87587017D01*
X155961988Y-87659488D01*
X155961982Y-87659493D01*
X155859493Y-87761982D01*
X155859488Y-87761988D01*
X155787017Y-87887511D01*
X155787016Y-87887515D01*
X155749500Y-88027525D01*
X155749500Y-88027527D01*
X155749500Y-88172474D01*
X155755109Y-88193407D01*
X155753446Y-88263257D01*
X155714283Y-88321119D01*
X155650055Y-88348623D01*
X155635334Y-88349500D01*
X155627525Y-88349500D01*
X155498993Y-88383940D01*
X155487511Y-88387017D01*
X155361988Y-88459488D01*
X155361982Y-88459493D01*
X155259493Y-88561982D01*
X155259488Y-88561988D01*
X155187017Y-88687511D01*
X155187016Y-88687515D01*
X155149500Y-88827525D01*
X115500500Y-88827525D01*
X115500500Y-86427525D01*
X128249500Y-86427525D01*
X128249500Y-86572475D01*
X128287016Y-86712485D01*
X128287017Y-86712488D01*
X128359488Y-86838011D01*
X128359489Y-86838012D01*
X128359491Y-86838015D01*
X128461985Y-86940509D01*
X128524874Y-86976818D01*
X128573090Y-87027385D01*
X128586313Y-87095992D01*
X128563200Y-87154741D01*
X128563555Y-87154946D01*
X128562188Y-87157313D01*
X128561256Y-87159683D01*
X128559494Y-87161979D01*
X128487017Y-87287511D01*
X128487016Y-87287515D01*
X128449500Y-87427525D01*
X128449500Y-87572475D01*
X128487016Y-87712485D01*
X128487017Y-87712488D01*
X128559488Y-87838011D01*
X128559490Y-87838013D01*
X128559491Y-87838015D01*
X128661985Y-87940509D01*
X128661986Y-87940510D01*
X128661988Y-87940511D01*
X128787511Y-88012982D01*
X128787512Y-88012982D01*
X128787515Y-88012984D01*
X128927525Y-88050500D01*
X128927528Y-88050500D01*
X129072472Y-88050500D01*
X129072475Y-88050500D01*
X129212485Y-88012984D01*
X129338015Y-87940509D01*
X129440509Y-87838015D01*
X129512984Y-87712485D01*
X129535749Y-87627525D01*
X137749500Y-87627525D01*
X137749500Y-87772475D01*
X137787016Y-87912485D01*
X137787017Y-87912488D01*
X137859488Y-88038011D01*
X137859490Y-88038013D01*
X137859491Y-88038015D01*
X137961985Y-88140509D01*
X137961986Y-88140510D01*
X137961988Y-88140511D01*
X138087511Y-88212982D01*
X138087512Y-88212982D01*
X138087515Y-88212984D01*
X138227525Y-88250500D01*
X138227528Y-88250500D01*
X138372472Y-88250500D01*
X138372475Y-88250500D01*
X138512485Y-88212984D01*
X138638015Y-88140509D01*
X138740509Y-88038015D01*
X138812984Y-87912485D01*
X138850500Y-87772475D01*
X138850500Y-87727525D01*
X153949500Y-87727525D01*
X153949500Y-87872475D01*
X153987016Y-88012485D01*
X153987017Y-88012488D01*
X154059488Y-88138011D01*
X154059490Y-88138013D01*
X154059491Y-88138015D01*
X154161985Y-88240509D01*
X154161986Y-88240510D01*
X154161988Y-88240511D01*
X154287511Y-88312982D01*
X154287512Y-88312982D01*
X154287515Y-88312984D01*
X154427525Y-88350500D01*
X154427528Y-88350500D01*
X154572472Y-88350500D01*
X154572475Y-88350500D01*
X154712485Y-88312984D01*
X154838015Y-88240509D01*
X154940509Y-88138015D01*
X155012984Y-88012485D01*
X155050500Y-87872475D01*
X155050500Y-87727525D01*
X155012984Y-87587515D01*
X155012696Y-87587017D01*
X154940511Y-87461988D01*
X154940506Y-87461982D01*
X154838017Y-87359493D01*
X154838011Y-87359488D01*
X154712488Y-87287017D01*
X154712489Y-87287017D01*
X154701006Y-87283940D01*
X154572475Y-87249500D01*
X154427525Y-87249500D01*
X154298993Y-87283940D01*
X154287511Y-87287017D01*
X154161988Y-87359488D01*
X154161982Y-87359493D01*
X154059493Y-87461982D01*
X154059488Y-87461988D01*
X153987017Y-87587511D01*
X153987016Y-87587515D01*
X153949500Y-87727525D01*
X138850500Y-87727525D01*
X138850500Y-87627525D01*
X138812984Y-87487515D01*
X138804321Y-87472511D01*
X138740511Y-87361988D01*
X138740506Y-87361982D01*
X138638017Y-87259493D01*
X138638011Y-87259488D01*
X138512488Y-87187017D01*
X138512489Y-87187017D01*
X138501006Y-87183940D01*
X138372475Y-87149500D01*
X138227525Y-87149500D01*
X138098993Y-87183940D01*
X138087511Y-87187017D01*
X137961988Y-87259488D01*
X137961982Y-87259493D01*
X137859493Y-87361982D01*
X137859488Y-87361988D01*
X137787017Y-87487511D01*
X137787016Y-87487515D01*
X137749500Y-87627525D01*
X129535749Y-87627525D01*
X129550500Y-87572475D01*
X129550500Y-87427525D01*
X129512984Y-87287515D01*
X129512696Y-87287017D01*
X129440511Y-87161988D01*
X129440506Y-87161982D01*
X129338017Y-87059493D01*
X129338015Y-87059491D01*
X129275123Y-87023180D01*
X129226909Y-86972614D01*
X129213687Y-86904006D01*
X129236801Y-86845260D01*
X129236445Y-86845054D01*
X129237820Y-86842672D01*
X129238752Y-86840304D01*
X129240503Y-86838020D01*
X129240509Y-86838015D01*
X129312984Y-86712485D01*
X129350500Y-86572475D01*
X129350500Y-86427525D01*
X129312984Y-86287515D01*
X129240509Y-86161985D01*
X129138015Y-86059491D01*
X129138013Y-86059490D01*
X129138011Y-86059488D01*
X129012488Y-85987017D01*
X129012489Y-85987017D01*
X129001006Y-85983940D01*
X128872475Y-85949500D01*
X128727525Y-85949500D01*
X128598993Y-85983940D01*
X128587511Y-85987017D01*
X128461988Y-86059488D01*
X128461982Y-86059493D01*
X128359493Y-86161982D01*
X128359488Y-86161988D01*
X128287017Y-86287511D01*
X128287016Y-86287515D01*
X128249500Y-86427525D01*
X115500500Y-86427525D01*
X115500500Y-84227525D01*
X156549500Y-84227525D01*
X156549500Y-84372475D01*
X156587016Y-84512485D01*
X156587017Y-84512488D01*
X156659488Y-84638011D01*
X156659490Y-84638013D01*
X156659491Y-84638015D01*
X156761985Y-84740509D01*
X156761986Y-84740510D01*
X156761988Y-84740511D01*
X156887511Y-84812982D01*
X156887512Y-84812982D01*
X156887515Y-84812984D01*
X157027525Y-84850500D01*
X157027528Y-84850500D01*
X157172472Y-84850500D01*
X157172475Y-84850500D01*
X157312485Y-84812984D01*
X157438015Y-84740509D01*
X157540509Y-84638015D01*
X157612984Y-84512485D01*
X157650500Y-84372475D01*
X157650500Y-84227525D01*
X157612984Y-84087515D01*
X157591613Y-84050500D01*
X157540511Y-83961988D01*
X157540506Y-83961982D01*
X157438017Y-83859493D01*
X157438011Y-83859488D01*
X157312488Y-83787017D01*
X157312489Y-83787017D01*
X157301006Y-83783940D01*
X157172475Y-83749500D01*
X157027525Y-83749500D01*
X156898993Y-83783940D01*
X156887511Y-83787017D01*
X156761988Y-83859488D01*
X156761982Y-83859493D01*
X156659493Y-83961982D01*
X156659488Y-83961988D01*
X156587017Y-84087511D01*
X156587016Y-84087515D01*
X156549500Y-84227525D01*
X115500500Y-84227525D01*
X115500500Y-83027525D01*
X158149500Y-83027525D01*
X158149500Y-83172475D01*
X158187016Y-83312485D01*
X158187017Y-83312488D01*
X158259488Y-83438011D01*
X158259490Y-83438013D01*
X158259491Y-83438015D01*
X158361985Y-83540509D01*
X158361986Y-83540510D01*
X158361988Y-83540511D01*
X158487511Y-83612982D01*
X158487512Y-83612982D01*
X158487515Y-83612984D01*
X158627525Y-83650500D01*
X158627528Y-83650500D01*
X158772473Y-83650500D01*
X158772475Y-83650500D01*
X158837434Y-83633094D01*
X158907282Y-83634756D01*
X158965145Y-83673917D01*
X158984090Y-83705421D01*
X158987016Y-83712486D01*
X159059488Y-83838011D01*
X159059490Y-83838013D01*
X159059491Y-83838015D01*
X159161985Y-83940509D01*
X159161986Y-83940510D01*
X159161988Y-83940511D01*
X159287511Y-84012982D01*
X159287512Y-84012982D01*
X159287515Y-84012984D01*
X159427525Y-84050500D01*
X159427528Y-84050500D01*
X159572472Y-84050500D01*
X159572475Y-84050500D01*
X159712485Y-84012984D01*
X159838015Y-83940509D01*
X159940509Y-83838015D01*
X160012984Y-83712485D01*
X160050500Y-83572475D01*
X160050500Y-83427525D01*
X160012984Y-83287515D01*
X159984406Y-83238017D01*
X159940511Y-83161988D01*
X159940506Y-83161982D01*
X159838017Y-83059493D01*
X159838011Y-83059488D01*
X159712488Y-82987017D01*
X159712489Y-82987017D01*
X159701006Y-82983940D01*
X159572475Y-82949500D01*
X159427525Y-82949500D01*
X159362565Y-82966906D01*
X159330748Y-82966148D01*
X159298937Y-82967054D01*
X159296066Y-82965322D01*
X159292715Y-82965243D01*
X159266361Y-82947405D01*
X159239108Y-82930968D01*
X159236856Y-82927435D01*
X159234853Y-82926080D01*
X159219189Y-82901831D01*
X159213981Y-82891236D01*
X159212984Y-82887515D01*
X159178349Y-82827525D01*
X164449500Y-82827525D01*
X164449500Y-82972475D01*
X164472817Y-83059493D01*
X164487017Y-83112488D01*
X164559488Y-83238011D01*
X164559490Y-83238013D01*
X164559491Y-83238015D01*
X164661985Y-83340509D01*
X164661986Y-83340510D01*
X164661988Y-83340511D01*
X164787511Y-83412982D01*
X164787512Y-83412982D01*
X164787515Y-83412984D01*
X164927525Y-83450500D01*
X164927528Y-83450500D01*
X165072472Y-83450500D01*
X165072475Y-83450500D01*
X165212485Y-83412984D01*
X165338015Y-83340509D01*
X165440509Y-83238015D01*
X165512984Y-83112485D01*
X165550500Y-82972475D01*
X165550500Y-82827525D01*
X165512984Y-82687515D01*
X165496805Y-82659493D01*
X165440511Y-82561988D01*
X165440506Y-82561982D01*
X165338017Y-82459493D01*
X165338011Y-82459488D01*
X165212488Y-82387017D01*
X165212489Y-82387017D01*
X165203316Y-82384559D01*
X165072475Y-82349500D01*
X164927525Y-82349500D01*
X164798993Y-82383940D01*
X164787511Y-82387017D01*
X164661988Y-82459488D01*
X164661982Y-82459493D01*
X164559493Y-82561982D01*
X164559488Y-82561988D01*
X164487017Y-82687511D01*
X164487016Y-82687515D01*
X164449500Y-82827525D01*
X159178349Y-82827525D01*
X159140509Y-82761985D01*
X159038015Y-82659491D01*
X159038013Y-82659490D01*
X159038011Y-82659488D01*
X158912488Y-82587017D01*
X158912489Y-82587017D01*
X158901006Y-82583940D01*
X158772475Y-82549500D01*
X158627525Y-82549500D01*
X158498993Y-82583940D01*
X158487511Y-82587017D01*
X158361988Y-82659488D01*
X158361982Y-82659493D01*
X158259493Y-82761982D01*
X158259488Y-82761988D01*
X158187017Y-82887511D01*
X158187016Y-82887515D01*
X158149500Y-83027525D01*
X115500500Y-83027525D01*
X115500500Y-82027525D01*
X153849500Y-82027525D01*
X153849500Y-82172475D01*
X153860221Y-82212485D01*
X153887017Y-82312488D01*
X153959488Y-82438011D01*
X153959490Y-82438013D01*
X153959491Y-82438015D01*
X154061985Y-82540509D01*
X154061986Y-82540510D01*
X154061988Y-82540511D01*
X154187511Y-82612982D01*
X154187512Y-82612982D01*
X154187515Y-82612984D01*
X154327525Y-82650500D01*
X154327528Y-82650500D01*
X154472472Y-82650500D01*
X154472475Y-82650500D01*
X154612485Y-82612984D01*
X154738015Y-82540509D01*
X154840509Y-82438015D01*
X154912984Y-82312485D01*
X154950500Y-82172475D01*
X154950500Y-82027525D01*
X154923705Y-81927525D01*
X156949500Y-81927525D01*
X156949500Y-82072475D01*
X156987016Y-82212485D01*
X156987017Y-82212488D01*
X157059488Y-82338011D01*
X157059490Y-82338013D01*
X157059491Y-82338015D01*
X157161985Y-82440509D01*
X157161986Y-82440510D01*
X157161988Y-82440511D01*
X157287511Y-82512982D01*
X157287512Y-82512982D01*
X157287515Y-82512984D01*
X157427525Y-82550500D01*
X157427528Y-82550500D01*
X157572472Y-82550500D01*
X157572475Y-82550500D01*
X157712485Y-82512984D01*
X157838015Y-82440509D01*
X157940509Y-82338015D01*
X158012984Y-82212485D01*
X158050500Y-82072475D01*
X158050500Y-82027525D01*
X163049500Y-82027525D01*
X163049500Y-82172475D01*
X163060221Y-82212485D01*
X163087017Y-82312488D01*
X163159488Y-82438011D01*
X163159490Y-82438013D01*
X163159491Y-82438015D01*
X163261985Y-82540509D01*
X163261986Y-82540510D01*
X163261988Y-82540511D01*
X163387511Y-82612982D01*
X163387512Y-82612982D01*
X163387515Y-82612984D01*
X163527525Y-82650500D01*
X163527528Y-82650500D01*
X163672472Y-82650500D01*
X163672475Y-82650500D01*
X163812485Y-82612984D01*
X163938015Y-82540509D01*
X164040509Y-82438015D01*
X164112984Y-82312485D01*
X164129334Y-82251465D01*
X178169600Y-82251465D01*
X178169600Y-82388534D01*
X178196337Y-82522949D01*
X178196340Y-82522961D01*
X178248786Y-82649578D01*
X178248793Y-82649591D01*
X178324936Y-82763546D01*
X178324939Y-82763550D01*
X178421849Y-82860460D01*
X178421853Y-82860463D01*
X178535808Y-82936606D01*
X178535821Y-82936613D01*
X178630474Y-82975819D01*
X178662443Y-82989061D01*
X178796865Y-83015799D01*
X178796869Y-83015800D01*
X178796870Y-83015800D01*
X179746731Y-83015800D01*
X179746732Y-83015799D01*
X179881157Y-82989061D01*
X180007785Y-82936610D01*
X180121747Y-82860463D01*
X180218663Y-82763547D01*
X180294810Y-82649585D01*
X180347261Y-82522957D01*
X180374000Y-82388530D01*
X180374000Y-82251470D01*
X180347261Y-82117043D01*
X180347259Y-82117038D01*
X180294813Y-81990421D01*
X180294806Y-81990408D01*
X180218663Y-81876453D01*
X180218660Y-81876449D01*
X180121750Y-81779539D01*
X180121746Y-81779536D01*
X180007791Y-81703393D01*
X180007778Y-81703386D01*
X179881161Y-81650940D01*
X179881149Y-81650937D01*
X179746734Y-81624200D01*
X179746730Y-81624200D01*
X178796870Y-81624200D01*
X178796865Y-81624200D01*
X178662450Y-81650937D01*
X178662438Y-81650940D01*
X178535821Y-81703386D01*
X178535808Y-81703393D01*
X178421853Y-81779536D01*
X178421849Y-81779539D01*
X178324939Y-81876449D01*
X178324936Y-81876453D01*
X178248793Y-81990408D01*
X178248786Y-81990421D01*
X178196340Y-82117038D01*
X178196337Y-82117050D01*
X178169600Y-82251465D01*
X164129334Y-82251465D01*
X164150500Y-82172475D01*
X164150500Y-82027525D01*
X164112984Y-81887515D01*
X164106597Y-81876453D01*
X164040511Y-81761988D01*
X164040506Y-81761982D01*
X163938017Y-81659493D01*
X163938011Y-81659488D01*
X163812488Y-81587017D01*
X163812489Y-81587017D01*
X163801006Y-81583940D01*
X163672475Y-81549500D01*
X163527525Y-81549500D01*
X163398993Y-81583940D01*
X163387511Y-81587017D01*
X163261988Y-81659488D01*
X163261982Y-81659493D01*
X163159493Y-81761982D01*
X163159488Y-81761988D01*
X163087017Y-81887511D01*
X163087016Y-81887515D01*
X163049500Y-82027525D01*
X158050500Y-82027525D01*
X158050500Y-81927525D01*
X158012984Y-81787515D01*
X158012639Y-81786918D01*
X157940511Y-81661988D01*
X157940506Y-81661982D01*
X157838017Y-81559493D01*
X157838011Y-81559488D01*
X157712488Y-81487017D01*
X157712489Y-81487017D01*
X157701006Y-81483940D01*
X157572475Y-81449500D01*
X157427525Y-81449500D01*
X157298993Y-81483940D01*
X157287511Y-81487017D01*
X157161988Y-81559488D01*
X157161982Y-81559493D01*
X157059493Y-81661982D01*
X157059488Y-81661988D01*
X156987017Y-81787511D01*
X156987016Y-81787515D01*
X156949500Y-81927525D01*
X154923705Y-81927525D01*
X154912984Y-81887515D01*
X154906597Y-81876453D01*
X154840511Y-81761988D01*
X154840506Y-81761982D01*
X154738017Y-81659493D01*
X154738011Y-81659488D01*
X154612488Y-81587017D01*
X154612489Y-81587017D01*
X154601006Y-81583940D01*
X154472475Y-81549500D01*
X154327525Y-81549500D01*
X154198993Y-81583940D01*
X154187511Y-81587017D01*
X154061988Y-81659488D01*
X154061982Y-81659493D01*
X153959493Y-81761982D01*
X153959488Y-81761988D01*
X153887017Y-81887511D01*
X153887016Y-81887515D01*
X153849500Y-82027525D01*
X115500500Y-82027525D01*
X115500500Y-81327525D01*
X132849500Y-81327525D01*
X132849500Y-81472475D01*
X132880192Y-81587016D01*
X132887017Y-81612488D01*
X132959488Y-81738011D01*
X132959490Y-81738013D01*
X132959491Y-81738015D01*
X133061985Y-81840509D01*
X133061986Y-81840510D01*
X133061988Y-81840511D01*
X133187511Y-81912982D01*
X133187512Y-81912982D01*
X133187515Y-81912984D01*
X133327525Y-81950500D01*
X133327528Y-81950500D01*
X133472472Y-81950500D01*
X133472475Y-81950500D01*
X133612485Y-81912984D01*
X133614170Y-81912011D01*
X133614171Y-81912011D01*
X133675765Y-81876449D01*
X133738015Y-81840509D01*
X133840509Y-81738015D01*
X133912984Y-81612485D01*
X133950500Y-81472475D01*
X133950500Y-81327525D01*
X133912984Y-81187515D01*
X133875431Y-81122472D01*
X133840511Y-81061988D01*
X133840506Y-81061982D01*
X133756049Y-80977525D01*
X155899500Y-80977525D01*
X155899500Y-81122475D01*
X155916927Y-81187511D01*
X155937017Y-81262488D01*
X156009488Y-81388011D01*
X156009490Y-81388013D01*
X156009491Y-81388015D01*
X156111985Y-81490509D01*
X156111986Y-81490510D01*
X156111988Y-81490511D01*
X156237511Y-81562982D01*
X156237512Y-81562982D01*
X156237515Y-81562984D01*
X156377525Y-81600500D01*
X156377528Y-81600500D01*
X156522472Y-81600500D01*
X156522475Y-81600500D01*
X156662485Y-81562984D01*
X156788015Y-81490509D01*
X156890509Y-81388015D01*
X156962984Y-81262485D01*
X157000500Y-81122475D01*
X157000500Y-80977525D01*
X156962984Y-80837515D01*
X156890509Y-80711985D01*
X156788015Y-80609491D01*
X156788013Y-80609490D01*
X156788011Y-80609488D01*
X156662488Y-80537017D01*
X156662489Y-80537017D01*
X156651006Y-80533940D01*
X156522475Y-80499500D01*
X156377525Y-80499500D01*
X156248993Y-80533940D01*
X156237511Y-80537017D01*
X156111988Y-80609488D01*
X156111982Y-80609493D01*
X156009493Y-80711982D01*
X156009488Y-80711988D01*
X155937017Y-80837511D01*
X155937016Y-80837515D01*
X155899500Y-80977525D01*
X133756049Y-80977525D01*
X133738017Y-80959493D01*
X133738011Y-80959488D01*
X133612488Y-80887017D01*
X133612489Y-80887017D01*
X133601006Y-80883940D01*
X133472475Y-80849500D01*
X133327525Y-80849500D01*
X133198993Y-80883940D01*
X133187511Y-80887017D01*
X133061988Y-80959488D01*
X133061982Y-80959493D01*
X132959493Y-81061982D01*
X132959488Y-81061988D01*
X132887017Y-81187511D01*
X132887016Y-81187515D01*
X132849500Y-81327525D01*
X115500500Y-81327525D01*
X115500500Y-80127525D01*
X125449500Y-80127525D01*
X125449500Y-80272475D01*
X125480008Y-80386331D01*
X125487017Y-80412488D01*
X125559488Y-80538011D01*
X125559490Y-80538013D01*
X125559491Y-80538015D01*
X125661985Y-80640509D01*
X125661986Y-80640510D01*
X125661988Y-80640511D01*
X125787511Y-80712982D01*
X125787512Y-80712982D01*
X125787515Y-80712984D01*
X125927525Y-80750500D01*
X125927528Y-80750500D01*
X126072472Y-80750500D01*
X126072475Y-80750500D01*
X126212485Y-80712984D01*
X126338015Y-80640509D01*
X126440509Y-80538015D01*
X126492613Y-80447769D01*
X126543180Y-80399553D01*
X126611787Y-80386331D01*
X126676652Y-80412299D01*
X126707387Y-80447769D01*
X126759491Y-80538015D01*
X126861985Y-80640509D01*
X126861986Y-80640510D01*
X126861988Y-80640511D01*
X126987511Y-80712982D01*
X126987512Y-80712982D01*
X126987515Y-80712984D01*
X127127525Y-80750500D01*
X127127528Y-80750500D01*
X127272472Y-80750500D01*
X127272475Y-80750500D01*
X127412485Y-80712984D01*
X127538015Y-80640509D01*
X127640509Y-80538015D01*
X127712984Y-80412485D01*
X127750500Y-80272475D01*
X127750500Y-80127525D01*
X127737102Y-80077525D01*
X154699500Y-80077525D01*
X154699500Y-80222475D01*
X154737016Y-80362485D01*
X154737017Y-80362488D01*
X154809488Y-80488011D01*
X154809490Y-80488013D01*
X154809491Y-80488015D01*
X154911985Y-80590509D01*
X154911986Y-80590510D01*
X154911988Y-80590511D01*
X155037511Y-80662982D01*
X155037512Y-80662982D01*
X155037515Y-80662984D01*
X155177525Y-80700500D01*
X155177528Y-80700500D01*
X155322472Y-80700500D01*
X155322475Y-80700500D01*
X155462485Y-80662984D01*
X155588015Y-80590509D01*
X155690509Y-80488015D01*
X155762984Y-80362485D01*
X155800500Y-80222475D01*
X155800500Y-80077525D01*
X155762984Y-79937515D01*
X155734116Y-79887515D01*
X155690511Y-79811988D01*
X155690506Y-79811982D01*
X155588017Y-79709493D01*
X155588011Y-79709488D01*
X155462488Y-79637017D01*
X155462489Y-79637017D01*
X155425635Y-79627142D01*
X155322475Y-79599500D01*
X155177525Y-79599500D01*
X155074365Y-79627142D01*
X155037511Y-79637017D01*
X154911988Y-79709488D01*
X154911982Y-79709493D01*
X154809493Y-79811982D01*
X154809488Y-79811988D01*
X154737017Y-79937511D01*
X154737016Y-79937515D01*
X154699500Y-80077525D01*
X127737102Y-80077525D01*
X127712984Y-79987515D01*
X127700492Y-79965879D01*
X127640511Y-79861988D01*
X127640506Y-79861982D01*
X127538017Y-79759493D01*
X127538011Y-79759488D01*
X127412488Y-79687017D01*
X127412489Y-79687017D01*
X127401006Y-79683940D01*
X127272475Y-79649500D01*
X127127525Y-79649500D01*
X126998993Y-79683940D01*
X126987511Y-79687017D01*
X126861988Y-79759488D01*
X126861982Y-79759493D01*
X126759493Y-79861982D01*
X126759491Y-79861985D01*
X126707387Y-79952231D01*
X126656819Y-80000446D01*
X126588212Y-80013668D01*
X126523347Y-79987700D01*
X126492613Y-79952231D01*
X126476318Y-79924008D01*
X126440509Y-79861985D01*
X126338015Y-79759491D01*
X126338013Y-79759490D01*
X126338011Y-79759488D01*
X126212488Y-79687017D01*
X126212489Y-79687017D01*
X126201006Y-79683940D01*
X126072475Y-79649500D01*
X125927525Y-79649500D01*
X125798993Y-79683940D01*
X125787511Y-79687017D01*
X125661988Y-79759488D01*
X125661982Y-79759493D01*
X125559493Y-79861982D01*
X125559488Y-79861988D01*
X125487017Y-79987511D01*
X125487016Y-79987515D01*
X125449500Y-80127525D01*
X115500500Y-80127525D01*
X115500500Y-79177525D01*
X128749500Y-79177525D01*
X128749500Y-79322475D01*
X128787016Y-79462485D01*
X128787017Y-79462488D01*
X128859488Y-79588011D01*
X128859490Y-79588013D01*
X128859491Y-79588015D01*
X128961985Y-79690509D01*
X128961986Y-79690510D01*
X128961988Y-79690511D01*
X129087511Y-79762982D01*
X129087512Y-79762982D01*
X129087515Y-79762984D01*
X129227525Y-79800500D01*
X129227528Y-79800500D01*
X129372472Y-79800500D01*
X129372475Y-79800500D01*
X129512485Y-79762984D01*
X129638015Y-79690509D01*
X129740509Y-79588015D01*
X129797084Y-79490025D01*
X163112000Y-79490025D01*
X163112000Y-79634975D01*
X163149516Y-79774985D01*
X163149517Y-79774988D01*
X163221988Y-79900511D01*
X163221990Y-79900513D01*
X163221991Y-79900515D01*
X163324485Y-80003009D01*
X163324486Y-80003010D01*
X163324488Y-80003011D01*
X163450011Y-80075482D01*
X163450012Y-80075482D01*
X163450015Y-80075484D01*
X163590025Y-80113000D01*
X163590028Y-80113000D01*
X163734972Y-80113000D01*
X163734975Y-80113000D01*
X163874985Y-80075484D01*
X164000515Y-80003009D01*
X164051015Y-79952508D01*
X164112336Y-79919024D01*
X164182028Y-79924008D01*
X164237961Y-79965879D01*
X164246082Y-79978189D01*
X164274567Y-80027525D01*
X164309491Y-80088015D01*
X164411985Y-80190509D01*
X164411986Y-80190510D01*
X164411988Y-80190511D01*
X164537511Y-80262982D01*
X164537512Y-80262982D01*
X164537515Y-80262984D01*
X164677525Y-80300500D01*
X164677528Y-80300500D01*
X164822472Y-80300500D01*
X164822475Y-80300500D01*
X164962485Y-80262984D01*
X165088015Y-80190509D01*
X165190509Y-80088015D01*
X165225433Y-80027525D01*
X168449500Y-80027525D01*
X168449500Y-80172475D01*
X168483805Y-80300500D01*
X168487017Y-80312488D01*
X168559488Y-80438011D01*
X168559490Y-80438013D01*
X168559491Y-80438015D01*
X168661985Y-80540509D01*
X168661986Y-80540510D01*
X168661988Y-80540511D01*
X168787511Y-80612982D01*
X168787512Y-80612982D01*
X168787515Y-80612984D01*
X168927525Y-80650500D01*
X168927528Y-80650500D01*
X169072472Y-80650500D01*
X169072475Y-80650500D01*
X169212485Y-80612984D01*
X169338015Y-80540509D01*
X169440509Y-80438015D01*
X169512984Y-80312485D01*
X169550500Y-80172475D01*
X169550500Y-80027525D01*
X169512984Y-79887515D01*
X169498244Y-79861985D01*
X169440511Y-79761988D01*
X169440506Y-79761982D01*
X169338017Y-79659493D01*
X169338011Y-79659488D01*
X169212488Y-79587017D01*
X169212489Y-79587017D01*
X169201006Y-79583940D01*
X169072475Y-79549500D01*
X168927525Y-79549500D01*
X168798993Y-79583940D01*
X168787511Y-79587017D01*
X168661988Y-79659488D01*
X168661982Y-79659493D01*
X168559493Y-79761982D01*
X168559488Y-79761988D01*
X168487017Y-79887511D01*
X168487016Y-79887515D01*
X168449500Y-80027525D01*
X165225433Y-80027525D01*
X165262984Y-79962485D01*
X165300500Y-79822475D01*
X165300500Y-79677525D01*
X165262984Y-79537515D01*
X165219665Y-79462485D01*
X165190511Y-79411988D01*
X165190506Y-79411982D01*
X165088017Y-79309493D01*
X165088011Y-79309488D01*
X164962488Y-79237017D01*
X164962489Y-79237017D01*
X164915730Y-79224488D01*
X164822475Y-79199500D01*
X164677525Y-79199500D01*
X164584270Y-79224488D01*
X164537511Y-79237017D01*
X164411988Y-79309488D01*
X164411981Y-79309494D01*
X164361484Y-79359991D01*
X164300161Y-79393475D01*
X164230469Y-79388490D01*
X164174536Y-79346619D01*
X164166417Y-79334310D01*
X164110244Y-79237017D01*
X164103009Y-79224485D01*
X164000515Y-79121991D01*
X164000513Y-79121990D01*
X164000511Y-79121988D01*
X163874988Y-79049517D01*
X163874989Y-79049517D01*
X163863506Y-79046440D01*
X163734975Y-79012000D01*
X163590025Y-79012000D01*
X163461493Y-79046440D01*
X163450011Y-79049517D01*
X163324488Y-79121988D01*
X163324482Y-79121993D01*
X163221993Y-79224482D01*
X163221988Y-79224488D01*
X163149517Y-79350011D01*
X163149516Y-79350015D01*
X163112000Y-79490025D01*
X129797084Y-79490025D01*
X129812984Y-79462485D01*
X129850500Y-79322475D01*
X129850500Y-79177525D01*
X129812984Y-79037515D01*
X129740509Y-78911985D01*
X129638015Y-78809491D01*
X129638013Y-78809490D01*
X129638011Y-78809488D01*
X129512488Y-78737017D01*
X129512489Y-78737017D01*
X129501006Y-78733940D01*
X129372475Y-78699500D01*
X129227525Y-78699500D01*
X129098993Y-78733940D01*
X129087511Y-78737017D01*
X128961988Y-78809488D01*
X128961982Y-78809493D01*
X128859493Y-78911982D01*
X128859488Y-78911988D01*
X128787017Y-79037511D01*
X128787016Y-79037515D01*
X128749500Y-79177525D01*
X115500500Y-79177525D01*
X115500500Y-77527525D01*
X139849500Y-77527525D01*
X139849500Y-77672475D01*
X139887016Y-77812485D01*
X139887017Y-77812488D01*
X139959488Y-77938011D01*
X139959490Y-77938013D01*
X139959491Y-77938015D01*
X140061985Y-78040509D01*
X140061986Y-78040510D01*
X140061988Y-78040511D01*
X140187511Y-78112982D01*
X140187512Y-78112982D01*
X140187515Y-78112984D01*
X140327525Y-78150500D01*
X140327528Y-78150500D01*
X140472472Y-78150500D01*
X140472475Y-78150500D01*
X140612485Y-78112984D01*
X140738015Y-78040509D01*
X140840509Y-77938015D01*
X140912984Y-77812485D01*
X140950500Y-77672475D01*
X140950500Y-77527525D01*
X140937102Y-77477525D01*
X149299500Y-77477525D01*
X149299500Y-77622475D01*
X149331128Y-77740511D01*
X149337017Y-77762488D01*
X149409488Y-77888011D01*
X149409490Y-77888013D01*
X149409491Y-77888015D01*
X149511985Y-77990509D01*
X149511986Y-77990510D01*
X149511988Y-77990511D01*
X149637511Y-78062982D01*
X149637512Y-78062982D01*
X149637515Y-78062984D01*
X149777525Y-78100500D01*
X149777528Y-78100500D01*
X149922472Y-78100500D01*
X149922475Y-78100500D01*
X150062485Y-78062984D01*
X150188015Y-77990509D01*
X150290509Y-77888015D01*
X150362984Y-77762485D01*
X150362984Y-77762482D01*
X150363067Y-77762340D01*
X150413634Y-77714125D01*
X150482241Y-77700901D01*
X150547105Y-77726869D01*
X150558135Y-77736659D01*
X150561985Y-77740509D01*
X150561986Y-77740510D01*
X150561988Y-77740511D01*
X150687511Y-77812982D01*
X150687512Y-77812982D01*
X150687515Y-77812984D01*
X150827525Y-77850500D01*
X150827528Y-77850500D01*
X150972472Y-77850500D01*
X150972475Y-77850500D01*
X151112485Y-77812984D01*
X151238015Y-77740509D01*
X151340509Y-77638015D01*
X151342964Y-77633761D01*
X151393523Y-77585546D01*
X151462129Y-77572317D01*
X151526996Y-77598280D01*
X151567530Y-77655190D01*
X151570127Y-77663662D01*
X151583209Y-77712483D01*
X151583211Y-77712488D01*
X151655682Y-77838011D01*
X151655684Y-77838013D01*
X151655685Y-77838015D01*
X151758179Y-77940509D01*
X151758180Y-77940510D01*
X151758182Y-77940511D01*
X151883705Y-78012982D01*
X151883706Y-78012982D01*
X151883709Y-78012984D01*
X152023719Y-78050500D01*
X152023722Y-78050500D01*
X152168666Y-78050500D01*
X152168669Y-78050500D01*
X152308679Y-78012984D01*
X152434209Y-77940509D01*
X152536703Y-77838015D01*
X152609178Y-77712485D01*
X152646694Y-77572475D01*
X152646694Y-77427525D01*
X152619899Y-77327525D01*
X153249500Y-77327525D01*
X153249500Y-77472475D01*
X153279798Y-77585546D01*
X153287017Y-77612488D01*
X153359488Y-77738011D01*
X153359490Y-77738013D01*
X153359491Y-77738015D01*
X153461985Y-77840509D01*
X153461986Y-77840510D01*
X153461988Y-77840511D01*
X153587511Y-77912982D01*
X153587512Y-77912982D01*
X153587515Y-77912984D01*
X153727525Y-77950500D01*
X153727528Y-77950500D01*
X153872472Y-77950500D01*
X153872475Y-77950500D01*
X154012485Y-77912984D01*
X154138015Y-77840509D01*
X154240509Y-77738015D01*
X154312984Y-77612485D01*
X154350500Y-77472475D01*
X154350500Y-77327525D01*
X154312984Y-77187515D01*
X154298244Y-77161985D01*
X154240511Y-77061988D01*
X154240506Y-77061982D01*
X154138017Y-76959493D01*
X154138011Y-76959488D01*
X154012488Y-76887017D01*
X154012489Y-76887017D01*
X154001006Y-76883940D01*
X153872475Y-76849500D01*
X153727525Y-76849500D01*
X153598993Y-76883940D01*
X153587511Y-76887017D01*
X153461988Y-76959488D01*
X153461982Y-76959493D01*
X153359493Y-77061982D01*
X153359488Y-77061988D01*
X153287017Y-77187511D01*
X153287016Y-77187515D01*
X153249500Y-77327525D01*
X152619899Y-77327525D01*
X152609178Y-77287515D01*
X152594438Y-77261985D01*
X152536705Y-77161988D01*
X152536700Y-77161982D01*
X152434211Y-77059493D01*
X152434205Y-77059488D01*
X152308682Y-76987017D01*
X152308683Y-76987017D01*
X152297200Y-76983940D01*
X152168669Y-76949500D01*
X152023719Y-76949500D01*
X151895187Y-76983940D01*
X151883705Y-76987017D01*
X151758182Y-77059488D01*
X151758176Y-77059493D01*
X151655687Y-77161982D01*
X151655683Y-77161988D01*
X151653226Y-77166244D01*
X151602658Y-77214459D01*
X151534051Y-77227680D01*
X151469187Y-77201711D01*
X151428659Y-77144796D01*
X151426070Y-77136354D01*
X151412984Y-77087515D01*
X151412696Y-77087017D01*
X151340511Y-76961988D01*
X151340506Y-76961982D01*
X151238017Y-76859493D01*
X151238011Y-76859488D01*
X151112488Y-76787017D01*
X151112489Y-76787017D01*
X151101006Y-76783940D01*
X150972475Y-76749500D01*
X150827525Y-76749500D01*
X150698993Y-76783940D01*
X150687511Y-76787017D01*
X150561988Y-76859488D01*
X150561982Y-76859493D01*
X150459493Y-76961982D01*
X150459491Y-76961985D01*
X150386932Y-77087660D01*
X150336364Y-77135875D01*
X150267757Y-77149097D01*
X150202893Y-77123129D01*
X150191864Y-77113340D01*
X150188017Y-77109493D01*
X150188011Y-77109488D01*
X150062488Y-77037017D01*
X150062489Y-77037017D01*
X150051006Y-77033940D01*
X149922475Y-76999500D01*
X149777525Y-76999500D01*
X149648993Y-77033940D01*
X149637511Y-77037017D01*
X149511988Y-77109488D01*
X149511982Y-77109493D01*
X149409493Y-77211982D01*
X149409488Y-77211988D01*
X149337017Y-77337511D01*
X149337016Y-77337515D01*
X149299500Y-77477525D01*
X140937102Y-77477525D01*
X140912984Y-77387515D01*
X140884116Y-77337515D01*
X140840511Y-77261988D01*
X140840506Y-77261982D01*
X140738017Y-77159493D01*
X140738011Y-77159488D01*
X140612488Y-77087017D01*
X140612489Y-77087017D01*
X140601006Y-77083940D01*
X140472475Y-77049500D01*
X140327525Y-77049500D01*
X140198993Y-77083940D01*
X140187511Y-77087017D01*
X140061988Y-77159488D01*
X140061982Y-77159493D01*
X139959493Y-77261982D01*
X139959488Y-77261988D01*
X139887017Y-77387511D01*
X139887016Y-77387515D01*
X139849500Y-77527525D01*
X115500500Y-77527525D01*
X115500500Y-75327525D01*
X129749500Y-75327525D01*
X129749500Y-75472475D01*
X129772817Y-75559493D01*
X129787017Y-75612488D01*
X129859488Y-75738011D01*
X129859490Y-75738013D01*
X129859491Y-75738015D01*
X129961985Y-75840509D01*
X129961986Y-75840510D01*
X129961988Y-75840511D01*
X130087511Y-75912982D01*
X130087512Y-75912982D01*
X130087515Y-75912984D01*
X130227525Y-75950500D01*
X130227528Y-75950500D01*
X130372472Y-75950500D01*
X130372475Y-75950500D01*
X130458218Y-75927525D01*
X139849500Y-75927525D01*
X139849500Y-76072475D01*
X139887016Y-76212485D01*
X139887017Y-76212488D01*
X139959488Y-76338011D01*
X139959490Y-76338013D01*
X139959491Y-76338015D01*
X140061985Y-76440509D01*
X140061986Y-76440510D01*
X140061988Y-76440511D01*
X140187511Y-76512982D01*
X140187512Y-76512982D01*
X140187515Y-76512984D01*
X140327525Y-76550500D01*
X140327528Y-76550500D01*
X140472472Y-76550500D01*
X140472475Y-76550500D01*
X140612485Y-76512984D01*
X140738015Y-76440509D01*
X140840509Y-76338015D01*
X140912984Y-76212485D01*
X140950500Y-76072475D01*
X140950500Y-75927525D01*
X140912984Y-75787515D01*
X140884406Y-75738017D01*
X140840511Y-75661988D01*
X140840506Y-75661982D01*
X140738017Y-75559493D01*
X140738011Y-75559488D01*
X140612488Y-75487017D01*
X140612489Y-75487017D01*
X140601006Y-75483940D01*
X140472475Y-75449500D01*
X140327525Y-75449500D01*
X140198993Y-75483940D01*
X140187511Y-75487017D01*
X140061988Y-75559488D01*
X140061982Y-75559493D01*
X139959493Y-75661982D01*
X139959488Y-75661988D01*
X139887017Y-75787511D01*
X139887016Y-75787515D01*
X139849500Y-75927525D01*
X130458218Y-75927525D01*
X130512485Y-75912984D01*
X130638015Y-75840509D01*
X130740509Y-75738015D01*
X130812984Y-75612485D01*
X130850500Y-75472475D01*
X130850500Y-75327525D01*
X130812984Y-75187515D01*
X130800502Y-75165896D01*
X130740511Y-75061988D01*
X130740506Y-75061982D01*
X130638017Y-74959493D01*
X130638011Y-74959488D01*
X130512488Y-74887017D01*
X130512489Y-74887017D01*
X130501006Y-74883940D01*
X130372475Y-74849500D01*
X130227525Y-74849500D01*
X130098993Y-74883940D01*
X130087511Y-74887017D01*
X129961988Y-74959488D01*
X129961982Y-74959493D01*
X129859493Y-75061982D01*
X129859488Y-75061988D01*
X129787017Y-75187511D01*
X129787016Y-75187515D01*
X129749500Y-75327525D01*
X115500500Y-75327525D01*
X115500500Y-74211304D01*
X150702000Y-74211304D01*
X150702000Y-74388695D01*
X150736603Y-74562658D01*
X150736606Y-74562667D01*
X150804483Y-74726540D01*
X150804490Y-74726553D01*
X150903035Y-74874034D01*
X150903038Y-74874038D01*
X151028461Y-74999461D01*
X151028465Y-74999464D01*
X151175946Y-75098009D01*
X151175959Y-75098016D01*
X151298863Y-75148923D01*
X151339834Y-75165894D01*
X151339836Y-75165894D01*
X151339841Y-75165896D01*
X151513804Y-75200499D01*
X151513807Y-75200500D01*
X151513809Y-75200500D01*
X151691193Y-75200500D01*
X151691194Y-75200499D01*
X151756491Y-75187511D01*
X151865158Y-75165896D01*
X151865161Y-75165894D01*
X151865166Y-75165894D01*
X152029047Y-75098013D01*
X152176535Y-74999464D01*
X152301964Y-74874035D01*
X152400513Y-74726547D01*
X152468394Y-74562666D01*
X152503000Y-74388691D01*
X152503000Y-74211309D01*
X152503000Y-74211306D01*
X152502999Y-74211304D01*
X153242000Y-74211304D01*
X153242000Y-74388695D01*
X153276603Y-74562658D01*
X153276606Y-74562667D01*
X153344483Y-74726540D01*
X153344490Y-74726553D01*
X153443035Y-74874034D01*
X153443038Y-74874038D01*
X153568461Y-74999461D01*
X153568465Y-74999464D01*
X153715946Y-75098009D01*
X153715959Y-75098016D01*
X153838863Y-75148923D01*
X153879834Y-75165894D01*
X153879836Y-75165894D01*
X153879841Y-75165896D01*
X154053804Y-75200499D01*
X154053807Y-75200500D01*
X154053809Y-75200500D01*
X154231193Y-75200500D01*
X154231194Y-75200499D01*
X154296491Y-75187511D01*
X154405158Y-75165896D01*
X154405161Y-75165894D01*
X154405166Y-75165894D01*
X154569047Y-75098013D01*
X154716535Y-74999464D01*
X154841964Y-74874035D01*
X154940513Y-74726547D01*
X155008394Y-74562666D01*
X155043000Y-74388691D01*
X155043000Y-74211309D01*
X155043000Y-74211306D01*
X155042999Y-74211304D01*
X155008396Y-74037341D01*
X155008393Y-74037332D01*
X154940516Y-73873459D01*
X154940509Y-73873446D01*
X154841964Y-73725965D01*
X154841961Y-73725961D01*
X154727465Y-73611465D01*
X178169600Y-73611465D01*
X178169600Y-73748534D01*
X178196337Y-73882949D01*
X178196340Y-73882961D01*
X178248786Y-74009578D01*
X178248793Y-74009591D01*
X178324936Y-74123546D01*
X178324939Y-74123550D01*
X178421849Y-74220460D01*
X178421853Y-74220463D01*
X178535808Y-74296606D01*
X178535821Y-74296613D01*
X178630474Y-74335819D01*
X178662443Y-74349061D01*
X178796865Y-74375799D01*
X178796869Y-74375800D01*
X178796870Y-74375800D01*
X179746731Y-74375800D01*
X179746732Y-74375799D01*
X179881157Y-74349061D01*
X180007785Y-74296610D01*
X180121747Y-74220463D01*
X180218663Y-74123547D01*
X180294810Y-74009585D01*
X180347261Y-73882957D01*
X180374000Y-73748530D01*
X180374000Y-73611470D01*
X180347261Y-73477043D01*
X180296299Y-73354009D01*
X180294813Y-73350421D01*
X180294806Y-73350408D01*
X180218663Y-73236453D01*
X180218660Y-73236449D01*
X180121750Y-73139539D01*
X180121746Y-73139536D01*
X180007791Y-73063393D01*
X180007778Y-73063386D01*
X179881161Y-73010940D01*
X179881149Y-73010937D01*
X179746734Y-72984200D01*
X179746730Y-72984200D01*
X178796870Y-72984200D01*
X178796865Y-72984200D01*
X178662450Y-73010937D01*
X178662438Y-73010940D01*
X178535821Y-73063386D01*
X178535808Y-73063393D01*
X178421853Y-73139536D01*
X178421849Y-73139539D01*
X178324939Y-73236449D01*
X178324936Y-73236453D01*
X178248793Y-73350408D01*
X178248786Y-73350421D01*
X178196340Y-73477038D01*
X178196337Y-73477050D01*
X178169600Y-73611465D01*
X154727465Y-73611465D01*
X154716538Y-73600538D01*
X154716534Y-73600535D01*
X154569053Y-73501990D01*
X154569040Y-73501983D01*
X154405167Y-73434106D01*
X154405158Y-73434103D01*
X154231194Y-73399500D01*
X154231191Y-73399500D01*
X154053809Y-73399500D01*
X154053806Y-73399500D01*
X153879841Y-73434103D01*
X153879832Y-73434106D01*
X153715959Y-73501983D01*
X153715946Y-73501990D01*
X153568465Y-73600535D01*
X153568461Y-73600538D01*
X153443038Y-73725961D01*
X153443035Y-73725965D01*
X153344490Y-73873446D01*
X153344483Y-73873459D01*
X153276606Y-74037332D01*
X153276603Y-74037341D01*
X153242000Y-74211304D01*
X152502999Y-74211304D01*
X152468396Y-74037341D01*
X152468393Y-74037332D01*
X152400516Y-73873459D01*
X152400509Y-73873446D01*
X152301964Y-73725965D01*
X152301961Y-73725961D01*
X152176538Y-73600538D01*
X152176534Y-73600535D01*
X152029053Y-73501990D01*
X152029040Y-73501983D01*
X151865167Y-73434106D01*
X151865158Y-73434103D01*
X151691194Y-73399500D01*
X151691191Y-73399500D01*
X151513809Y-73399500D01*
X151513806Y-73399500D01*
X151339841Y-73434103D01*
X151339832Y-73434106D01*
X151175959Y-73501983D01*
X151175946Y-73501990D01*
X151028465Y-73600535D01*
X151028461Y-73600538D01*
X150903038Y-73725961D01*
X150903035Y-73725965D01*
X150804490Y-73873446D01*
X150804483Y-73873459D01*
X150736606Y-74037332D01*
X150736603Y-74037341D01*
X150702000Y-74211304D01*
X115500500Y-74211304D01*
X115500500Y-72427525D01*
X139749500Y-72427525D01*
X139749500Y-72572475D01*
X139768795Y-72644484D01*
X139787017Y-72712488D01*
X139859488Y-72838011D01*
X139859490Y-72838013D01*
X139859491Y-72838015D01*
X139961985Y-72940509D01*
X139961986Y-72940510D01*
X139961988Y-72940511D01*
X140087511Y-73012982D01*
X140087512Y-73012982D01*
X140087515Y-73012984D01*
X140227525Y-73050500D01*
X140227528Y-73050500D01*
X140372472Y-73050500D01*
X140372475Y-73050500D01*
X140512485Y-73012984D01*
X140638015Y-72940509D01*
X140740509Y-72838015D01*
X140812984Y-72712485D01*
X140850500Y-72572475D01*
X140850500Y-72427525D01*
X140812984Y-72287515D01*
X140779772Y-72229991D01*
X140740511Y-72161988D01*
X140740506Y-72161982D01*
X140638017Y-72059493D01*
X140638015Y-72059491D01*
X140531309Y-71997884D01*
X140531307Y-71997882D01*
X140512488Y-71987017D01*
X140512489Y-71987017D01*
X140489100Y-71980750D01*
X140372475Y-71949500D01*
X140227525Y-71949500D01*
X140110900Y-71980750D01*
X140087511Y-71987017D01*
X139961988Y-72059488D01*
X139961982Y-72059493D01*
X139859493Y-72161982D01*
X139859488Y-72161988D01*
X139787017Y-72287511D01*
X139787016Y-72287515D01*
X139749500Y-72427525D01*
X115500500Y-72427525D01*
X115500500Y-71896584D01*
X162045500Y-71896584D01*
X162045500Y-72064915D01*
X162078336Y-72229991D01*
X162078338Y-72229999D01*
X162142750Y-72385505D01*
X162142755Y-72385514D01*
X162236265Y-72525461D01*
X162236268Y-72525465D01*
X162355284Y-72644481D01*
X162355288Y-72644484D01*
X162495235Y-72737994D01*
X162495241Y-72737997D01*
X162495242Y-72737998D01*
X162650751Y-72802412D01*
X162815834Y-72835249D01*
X162815838Y-72835250D01*
X162815839Y-72835250D01*
X162984162Y-72835250D01*
X162984163Y-72835249D01*
X163149249Y-72802412D01*
X163304758Y-72737998D01*
X163444712Y-72644484D01*
X163563734Y-72525462D01*
X163657248Y-72385508D01*
X163721662Y-72229999D01*
X163754500Y-72064911D01*
X163754500Y-71896589D01*
X163754500Y-71896586D01*
X163753176Y-71889928D01*
X166746000Y-71889928D01*
X166746000Y-72071571D01*
X166774415Y-72250975D01*
X166830548Y-72423734D01*
X166913012Y-72585580D01*
X166913014Y-72585584D01*
X166925048Y-72602145D01*
X166925049Y-72602146D01*
X167500000Y-72027195D01*
X167500000Y-72033411D01*
X167527259Y-72135144D01*
X167579920Y-72226356D01*
X167654394Y-72300830D01*
X167745606Y-72353491D01*
X167847339Y-72380750D01*
X167853554Y-72380750D01*
X167278602Y-72955699D01*
X167278603Y-72955700D01*
X167295165Y-72967735D01*
X167295179Y-72967743D01*
X167457012Y-73050200D01*
X167629774Y-73106334D01*
X167809179Y-73134750D01*
X167990821Y-73134750D01*
X168170225Y-73106334D01*
X168342984Y-73050201D01*
X168504831Y-72967736D01*
X168521396Y-72955699D01*
X167946447Y-72380750D01*
X167952661Y-72380750D01*
X168054394Y-72353491D01*
X168145606Y-72300830D01*
X168220080Y-72226356D01*
X168272741Y-72135144D01*
X168300000Y-72033411D01*
X168300000Y-72027196D01*
X168874949Y-72602145D01*
X168886986Y-72585581D01*
X168969451Y-72423734D01*
X169025584Y-72250975D01*
X169054000Y-72071571D01*
X169054000Y-71889928D01*
X169025584Y-71710524D01*
X168969450Y-71537762D01*
X168886993Y-71375929D01*
X168886985Y-71375915D01*
X168874950Y-71359353D01*
X168874949Y-71359352D01*
X168300000Y-71934302D01*
X168300000Y-71928089D01*
X168272741Y-71826356D01*
X168220080Y-71735144D01*
X168145606Y-71660670D01*
X168054394Y-71608009D01*
X167952661Y-71580750D01*
X167946447Y-71580750D01*
X168521396Y-71005799D01*
X168521395Y-71005798D01*
X168504834Y-70993764D01*
X168504830Y-70993762D01*
X168342984Y-70911298D01*
X168170225Y-70855165D01*
X167990821Y-70826750D01*
X167809179Y-70826750D01*
X167629774Y-70855165D01*
X167457015Y-70911298D01*
X167295170Y-70993762D01*
X167295161Y-70993768D01*
X167278603Y-71005798D01*
X167278602Y-71005799D01*
X167853554Y-71580750D01*
X167847339Y-71580750D01*
X167745606Y-71608009D01*
X167654394Y-71660670D01*
X167579920Y-71735144D01*
X167527259Y-71826356D01*
X167500000Y-71928089D01*
X167500000Y-71934303D01*
X166925049Y-71359352D01*
X166925048Y-71359353D01*
X166913018Y-71375911D01*
X166913012Y-71375920D01*
X166830548Y-71537765D01*
X166774415Y-71710524D01*
X166746000Y-71889928D01*
X163753176Y-71889928D01*
X163734689Y-71796994D01*
X163721662Y-71731501D01*
X163657248Y-71575992D01*
X163657247Y-71575991D01*
X163657244Y-71575985D01*
X163563734Y-71436038D01*
X163563731Y-71436034D01*
X163444715Y-71317018D01*
X163444711Y-71317015D01*
X163304764Y-71223505D01*
X163304755Y-71223500D01*
X163169847Y-71167620D01*
X163169845Y-71167619D01*
X163149253Y-71159089D01*
X163149241Y-71159086D01*
X162984165Y-71126250D01*
X162984161Y-71126250D01*
X162815839Y-71126250D01*
X162815834Y-71126250D01*
X162650758Y-71159086D01*
X162650750Y-71159088D01*
X162495244Y-71223500D01*
X162495235Y-71223505D01*
X162355288Y-71317015D01*
X162355284Y-71317018D01*
X162236268Y-71436034D01*
X162236265Y-71436038D01*
X162142755Y-71575985D01*
X162142750Y-71575994D01*
X162078338Y-71731500D01*
X162078336Y-71731508D01*
X162045500Y-71896584D01*
X115500500Y-71896584D01*
X115500500Y-68227525D01*
X163849500Y-68227525D01*
X163849500Y-68372475D01*
X163887016Y-68512485D01*
X163887017Y-68512488D01*
X163959488Y-68638011D01*
X163959490Y-68638013D01*
X163959491Y-68638015D01*
X164061985Y-68740509D01*
X164061986Y-68740510D01*
X164061988Y-68740511D01*
X164187511Y-68812982D01*
X164187512Y-68812982D01*
X164187515Y-68812984D01*
X164327525Y-68850500D01*
X164327528Y-68850500D01*
X164472472Y-68850500D01*
X164472475Y-68850500D01*
X164612485Y-68812984D01*
X164738015Y-68740509D01*
X164840509Y-68638015D01*
X164912984Y-68512485D01*
X164950500Y-68372475D01*
X164950500Y-68227525D01*
X164923705Y-68127525D01*
X165349500Y-68127525D01*
X165349500Y-68272475D01*
X165387016Y-68412485D01*
X165387017Y-68412488D01*
X165459488Y-68538011D01*
X165459490Y-68538013D01*
X165459491Y-68538015D01*
X165561985Y-68640509D01*
X165561986Y-68640510D01*
X165561988Y-68640511D01*
X165687511Y-68712982D01*
X165687512Y-68712982D01*
X165687515Y-68712984D01*
X165827525Y-68750500D01*
X165827528Y-68750500D01*
X165972472Y-68750500D01*
X165972475Y-68750500D01*
X166112485Y-68712984D01*
X166238015Y-68640509D01*
X166340509Y-68538015D01*
X166412984Y-68412485D01*
X166450500Y-68272475D01*
X166450500Y-68127525D01*
X166412984Y-67987515D01*
X166412982Y-67987511D01*
X166409454Y-67981400D01*
X166409453Y-67981399D01*
X166398242Y-67961982D01*
X166378348Y-67927525D01*
X169949500Y-67927525D01*
X169949500Y-68072475D01*
X169970673Y-68151492D01*
X169987017Y-68212488D01*
X170059488Y-68338011D01*
X170059490Y-68338013D01*
X170059491Y-68338015D01*
X170161985Y-68440509D01*
X170161986Y-68440510D01*
X170161988Y-68440511D01*
X170287511Y-68512982D01*
X170287512Y-68512982D01*
X170287515Y-68512984D01*
X170427525Y-68550500D01*
X170427528Y-68550500D01*
X170572472Y-68550500D01*
X170572475Y-68550500D01*
X170712485Y-68512984D01*
X170838015Y-68440509D01*
X170940509Y-68338015D01*
X171012984Y-68212485D01*
X171050500Y-68072475D01*
X171050500Y-67927525D01*
X171012984Y-67787515D01*
X171012696Y-67787017D01*
X170940511Y-67661988D01*
X170940506Y-67661982D01*
X170838017Y-67559493D01*
X170838011Y-67559488D01*
X170712488Y-67487017D01*
X170712489Y-67487017D01*
X170701006Y-67483940D01*
X170572475Y-67449500D01*
X170427525Y-67449500D01*
X170298993Y-67483940D01*
X170287511Y-67487017D01*
X170161988Y-67559488D01*
X170161982Y-67559493D01*
X170059493Y-67661982D01*
X170059488Y-67661988D01*
X169987017Y-67787511D01*
X169987016Y-67787515D01*
X169949500Y-67927525D01*
X166378348Y-67927525D01*
X166340509Y-67861985D01*
X166238015Y-67759491D01*
X166238013Y-67759490D01*
X166238011Y-67759488D01*
X166112488Y-67687017D01*
X166112489Y-67687017D01*
X166101006Y-67683940D01*
X165972475Y-67649500D01*
X165827525Y-67649500D01*
X165698993Y-67683940D01*
X165687511Y-67687017D01*
X165561988Y-67759488D01*
X165561982Y-67759493D01*
X165459493Y-67861982D01*
X165459488Y-67861988D01*
X165387017Y-67987511D01*
X165387016Y-67987515D01*
X165349500Y-68127525D01*
X164923705Y-68127525D01*
X164912984Y-68087515D01*
X164855246Y-67987511D01*
X164840511Y-67961988D01*
X164840506Y-67961982D01*
X164738017Y-67859493D01*
X164738011Y-67859488D01*
X164612488Y-67787017D01*
X164612489Y-67787017D01*
X164601006Y-67783940D01*
X164472475Y-67749500D01*
X164327525Y-67749500D01*
X164198993Y-67783940D01*
X164187511Y-67787017D01*
X164061988Y-67859488D01*
X164061982Y-67859493D01*
X163959493Y-67961982D01*
X163959488Y-67961988D01*
X163887017Y-68087511D01*
X163887016Y-68087515D01*
X163849500Y-68227525D01*
X115500500Y-68227525D01*
X115500500Y-65002706D01*
X115500618Y-64997297D01*
X115509528Y-64793216D01*
X115517386Y-64613226D01*
X115518326Y-64602495D01*
X115568152Y-64224025D01*
X115570025Y-64213405D01*
X115652649Y-63840709D01*
X115655440Y-63830295D01*
X115770230Y-63466227D01*
X115773917Y-63456095D01*
X115794979Y-63405247D01*
X127409500Y-63405247D01*
X127409500Y-65144752D01*
X127421131Y-65203229D01*
X127421132Y-65203230D01*
X127465447Y-65269552D01*
X127531769Y-65313867D01*
X127531770Y-65313868D01*
X127590247Y-65325499D01*
X127590250Y-65325500D01*
X127590252Y-65325500D01*
X129329750Y-65325500D01*
X129329751Y-65325499D01*
X129344568Y-65322552D01*
X129388229Y-65313868D01*
X129388229Y-65313867D01*
X129388231Y-65313867D01*
X129454552Y-65269552D01*
X129498867Y-65203231D01*
X129498867Y-65203229D01*
X129498868Y-65203229D01*
X129510499Y-65144752D01*
X129510500Y-65144750D01*
X129510500Y-63405249D01*
X129510499Y-63405247D01*
X129498868Y-63346770D01*
X129498867Y-63346769D01*
X129454552Y-63280447D01*
X129388230Y-63236132D01*
X129388229Y-63236131D01*
X129329752Y-63224500D01*
X129329748Y-63224500D01*
X127590252Y-63224500D01*
X127590247Y-63224500D01*
X127531770Y-63236131D01*
X127531769Y-63236132D01*
X127465447Y-63280447D01*
X127421132Y-63346769D01*
X127421131Y-63346770D01*
X127409500Y-63405247D01*
X115794979Y-63405247D01*
X115920003Y-63103412D01*
X115924561Y-63093638D01*
X116100822Y-62755045D01*
X116106217Y-62745700D01*
X116311325Y-62423744D01*
X116317515Y-62414905D01*
X116549896Y-62112060D01*
X116556834Y-62103791D01*
X116814726Y-61822352D01*
X116822352Y-61814726D01*
X117103791Y-61556834D01*
X117112060Y-61549896D01*
X117414905Y-61317515D01*
X117423744Y-61311325D01*
X117745700Y-61106217D01*
X117755045Y-61100822D01*
X118093638Y-60924561D01*
X118103412Y-60920003D01*
X118456095Y-60773917D01*
X118466227Y-60770230D01*
X118830295Y-60655440D01*
X118840709Y-60652649D01*
X119213405Y-60570025D01*
X119224025Y-60568152D01*
X119602495Y-60518326D01*
X119613226Y-60517386D01*
X119997297Y-60500617D01*
X120002706Y-60500500D01*
X120065892Y-60500500D01*
X128071867Y-60500500D01*
X128138906Y-60520185D01*
G37*
%TD.AperFunction*%
%TA.AperFunction,Conductor*%
G36*
X170681743Y-60520185D02*
G01*
X170727498Y-60572989D01*
X170738322Y-60634230D01*
X170738282Y-60634728D01*
X171370591Y-61267037D01*
X171307007Y-61284075D01*
X171192993Y-61349901D01*
X171099901Y-61442993D01*
X171034075Y-61557007D01*
X171017037Y-61620591D01*
X170384728Y-60988282D01*
X170384727Y-60988282D01*
X170345380Y-61042439D01*
X170248905Y-61231781D01*
X170191656Y-61407974D01*
X170152218Y-61465649D01*
X170087859Y-61492847D01*
X170019013Y-61480932D01*
X169967537Y-61433688D01*
X169959164Y-61417107D01*
X169890943Y-61252405D01*
X169775975Y-61080342D01*
X169629657Y-60934024D01*
X169461655Y-60821770D01*
X169457598Y-60819059D01*
X169266420Y-60739870D01*
X169266418Y-60739869D01*
X169264466Y-60739061D01*
X169210063Y-60695220D01*
X169187998Y-60628926D01*
X169205277Y-60561227D01*
X169256414Y-60513616D01*
X169311919Y-60500500D01*
X170614704Y-60500500D01*
X170681743Y-60520185D01*
G37*
%TD.AperFunction*%
%TA.AperFunction,Conductor*%
G36*
X132720562Y-60520185D02*
G01*
X132766317Y-60572989D01*
X132773782Y-60615228D01*
X133410591Y-61252037D01*
X133347007Y-61269075D01*
X133232993Y-61334901D01*
X133139901Y-61427993D01*
X133074075Y-61542007D01*
X133057037Y-61605591D01*
X132424728Y-60973282D01*
X132424727Y-60973282D01*
X132385380Y-61027439D01*
X132288905Y-61216781D01*
X132231656Y-61392974D01*
X132192218Y-61450649D01*
X132127859Y-61477847D01*
X132059013Y-61465932D01*
X132007537Y-61418688D01*
X131999164Y-61402107D01*
X131996819Y-61396446D01*
X131971327Y-61334901D01*
X131930943Y-61237405D01*
X131815975Y-61065342D01*
X131669657Y-60919024D01*
X131497596Y-60804057D01*
X131340680Y-60739061D01*
X131286277Y-60695220D01*
X131264212Y-60628926D01*
X131281491Y-60561226D01*
X131332629Y-60513616D01*
X131388133Y-60500500D01*
X132653523Y-60500500D01*
X132720562Y-60520185D01*
G37*
%TD.AperFunction*%
%TA.AperFunction,Conductor*%
G36*
X157220562Y-60520185D02*
G01*
X157266317Y-60572989D01*
X157273782Y-60615228D01*
X157910591Y-61252037D01*
X157847007Y-61269075D01*
X157732993Y-61334901D01*
X157639901Y-61427993D01*
X157574075Y-61542007D01*
X157557037Y-61605591D01*
X156924728Y-60973282D01*
X156924727Y-60973282D01*
X156885380Y-61027439D01*
X156788905Y-61216781D01*
X156731656Y-61392974D01*
X156692218Y-61450649D01*
X156627859Y-61477847D01*
X156559013Y-61465932D01*
X156507537Y-61418688D01*
X156499164Y-61402107D01*
X156496819Y-61396446D01*
X156471327Y-61334901D01*
X156430943Y-61237405D01*
X156315975Y-61065342D01*
X156169657Y-60919024D01*
X155997596Y-60804057D01*
X155840680Y-60739061D01*
X155786277Y-60695220D01*
X155764212Y-60628926D01*
X155781491Y-60561226D01*
X155832629Y-60513616D01*
X155888133Y-60500500D01*
X157153523Y-60500500D01*
X157220562Y-60520185D01*
G37*
%TD.AperFunction*%
%TD*%
%TA.AperFunction,NonConductor*%
G36*
X142135120Y-60520185D02*
G01*
X142180875Y-60572989D01*
X142190819Y-60642147D01*
X142161794Y-60705703D01*
X142115534Y-60739061D01*
X142113581Y-60739869D01*
X142113580Y-60739870D01*
X142075972Y-60755448D01*
X141922403Y-60819058D01*
X141750342Y-60934024D01*
X141604024Y-61080342D01*
X141489058Y-61252403D01*
X141468561Y-61301888D01*
X141424720Y-61356291D01*
X141358426Y-61378356D01*
X141290726Y-61361077D01*
X141243116Y-61309939D01*
X141230000Y-61254435D01*
X141230000Y-60852172D01*
X141229999Y-60852155D01*
X141223598Y-60792627D01*
X141223596Y-60792620D01*
X141177054Y-60667833D01*
X141172070Y-60598142D01*
X141205555Y-60536818D01*
X141266878Y-60503334D01*
X141293236Y-60500500D01*
X142068081Y-60500500D01*
X142135120Y-60520185D01*
G37*
%TD.AperFunction*%
%TA.AperFunction,NonConductor*%
G36*
X147589273Y-108638922D02*
G01*
X147636884Y-108690059D01*
X147650000Y-108745564D01*
X147650000Y-109134652D01*
X147706452Y-109343083D01*
X147705831Y-109372508D01*
X147707930Y-109401858D01*
X147705102Y-109407036D01*
X147704978Y-109412937D01*
X147688549Y-109437351D01*
X147674445Y-109463182D01*
X147669264Y-109466010D01*
X147665971Y-109470905D01*
X147638954Y-109482560D01*
X147613122Y-109496666D01*
X147603982Y-109497648D01*
X147601817Y-109498583D01*
X147599246Y-109498157D01*
X147586764Y-109499500D01*
X146811919Y-109499500D01*
X146744880Y-109479815D01*
X146699125Y-109427011D01*
X146689181Y-109357853D01*
X146718206Y-109294297D01*
X146764466Y-109260939D01*
X146766418Y-109260130D01*
X146766420Y-109260130D01*
X146957598Y-109180941D01*
X147129655Y-109065977D01*
X147275977Y-108919655D01*
X147390941Y-108747598D01*
X147411439Y-108698112D01*
X147455279Y-108643708D01*
X147521573Y-108621643D01*
X147589273Y-108638922D01*
G37*
%TD.AperFunction*%
%TA.AperFunction,NonConductor*%
G36*
X134589273Y-108638922D02*
G01*
X134636884Y-108690059D01*
X134650000Y-108745564D01*
X134650000Y-109134652D01*
X134706452Y-109343083D01*
X134705831Y-109372508D01*
X134707930Y-109401858D01*
X134705102Y-109407036D01*
X134704978Y-109412937D01*
X134688549Y-109437351D01*
X134674445Y-109463182D01*
X134669264Y-109466010D01*
X134665971Y-109470905D01*
X134638954Y-109482560D01*
X134613122Y-109496666D01*
X134603982Y-109497648D01*
X134601817Y-109498583D01*
X134599246Y-109498157D01*
X134586764Y-109499500D01*
X133811919Y-109499500D01*
X133744880Y-109479815D01*
X133699125Y-109427011D01*
X133689181Y-109357853D01*
X133718206Y-109294297D01*
X133764466Y-109260939D01*
X133766418Y-109260130D01*
X133766420Y-109260130D01*
X133957598Y-109180941D01*
X134129655Y-109065977D01*
X134275977Y-108919655D01*
X134390941Y-108747598D01*
X134411439Y-108698112D01*
X134455279Y-108643708D01*
X134521573Y-108621643D01*
X134589273Y-108638922D01*
G37*
%TD.AperFunction*%
M02*
