%TF.GenerationSoftware,KiCad,Pcbnew,9.0.7+1*%
%TF.CreationDate,Date%
%TF.ProjectId,DumbFCC,44756d62-4643-4432-9e6b-696361645f70,1.0.0+ (Unreleased)*%
%TF.SameCoordinates,Original*%
%TF.FileFunction,Copper,L3,Inr*%
%TF.FilePolarity,Positive*%
%FSLAX46Y46*%
G04 Gerber Fmt 4.6, Leading zero omitted, Abs format (unit mm)*
G04 Created by KiCad*
%MOMM*%
%LPD*%
G01*
G04 APERTURE LIST*
%TA.AperFunction,ComponentPad*%
%ADD10C,3.600000*%
%TD*%
%TA.AperFunction,ComponentPad*%
%ADD11R,1.700000X1.700000*%
%TD*%
%TA.AperFunction,ComponentPad*%
%ADD12C,1.700000*%
%TD*%
%TA.AperFunction,WasherPad*%
%ADD13O,1.803400X0.990600*%
%TD*%
%TA.AperFunction,WasherPad*%
%ADD14O,2.209800X0.990600*%
%TD*%
%TA.AperFunction,ComponentPad*%
%ADD15C,1.400000*%
%TD*%
%TA.AperFunction,ComponentPad*%
%ADD16R,1.950000X1.950000*%
%TD*%
%TA.AperFunction,ComponentPad*%
%ADD17C,1.950000*%
%TD*%
%TA.AperFunction,ComponentPad*%
%ADD18C,1.308000*%
%TD*%
%TA.AperFunction,ViaPad*%
%ADD19C,0.700000*%
%TD*%
%TA.AperFunction,ViaPad*%
%ADD20C,0.600000*%
%TD*%
G04 APERTURE END LIST*
D10*
%TO.N,GND*%
%TO.C,H200*%
X119500000Y-65000000D03*
%TD*%
D11*
%TO.N,GND*%
%TO.C,J501*%
X134810000Y-108000000D03*
D12*
%TO.N,/Project Architecture/Connections/UART_TX*%
X132270000Y-108000000D03*
%TO.N,/Project Architecture/Connections/UART_RX*%
X129730000Y-108000000D03*
%TO.N,+3V3*%
X127190000Y-108000000D03*
%TD*%
D11*
%TO.N,/Project Architecture/Connections/PWM_1*%
%TO.C,J504*%
X153750000Y-64290000D03*
D12*
%TO.N,/Project Architecture/Connections/PWM_2*%
X153750000Y-61750000D03*
%TO.N,+5V*%
X156290000Y-64290000D03*
X156290000Y-61750000D03*
%TO.N,GND*%
X158830000Y-64290000D03*
X158830000Y-61750000D03*
%TD*%
D11*
%TO.N,GND*%
%TO.C,J300*%
X148330000Y-108000000D03*
D12*
%TO.N,/Project Architecture/MCU/ECHO*%
X145790000Y-108000000D03*
%TO.N,/Project Architecture/MCU/TRIG*%
X143250000Y-108000000D03*
%TO.N,+5V*%
X140710000Y-108000000D03*
%TD*%
D11*
%TO.N,/Project Architecture/Connections/I2C_PERIPH_SCL*%
%TO.C,J502*%
X164190000Y-61750000D03*
D12*
%TO.N,/Project Architecture/Connections/I2C_PERIPH_SDA*%
X166730000Y-61750000D03*
%TO.N,+3V3*%
X169270000Y-61750000D03*
%TO.N,GND*%
X171810000Y-61750000D03*
%TD*%
D11*
%TO.N,GND*%
%TO.C,J100*%
X182500000Y-91225000D03*
D12*
%TO.N,+5V*%
X182500000Y-88685000D03*
%TD*%
D10*
%TO.N,GND*%
%TO.C,H202*%
X179500000Y-105000000D03*
%TD*%
D11*
%TO.N,GND*%
%TO.C,J500*%
X139210000Y-61750000D03*
D12*
%TO.N,/Project Architecture/Connections/SWCLK*%
X141750000Y-61750000D03*
%TO.N,/Project Architecture/Connections/SWDIO*%
X144290000Y-61750000D03*
%TO.N,/Project Architecture/Connections/NRST*%
X146830000Y-61750000D03*
%TD*%
D13*
%TO.N,*%
%TO.C,J506*%
X178771800Y-80320000D03*
D14*
X182771801Y-80320000D03*
D13*
X178771800Y-71680000D03*
D14*
X182771801Y-71680000D03*
%TD*%
D10*
%TO.N,GND*%
%TO.C,H203*%
X119500000Y-105000000D03*
%TD*%
D15*
%TO.N,/Project Architecture/MCU/BOOT*%
%TO.C,JP200*%
X151104500Y-73648300D03*
%TO.N,+3V3*%
X153644500Y-73648300D03*
%TD*%
D10*
%TO.N,GND*%
%TO.C,H201*%
X179500000Y-65000000D03*
%TD*%
D16*
%TO.N,/Project Architecture/Connections/NRST*%
%TO.C,SW401*%
X150300000Y-98353300D03*
D17*
%TO.N,GND*%
X156800000Y-98353300D03*
%TD*%
D11*
%TO.N,/Project Architecture/Connections/GIMB_PITCH*%
%TO.C,J505*%
X127460000Y-64290000D03*
D12*
%TO.N,/Project Architecture/Connections/GIMB_ROLL*%
X127460000Y-61750000D03*
%TO.N,+5V*%
X130000000Y-64290000D03*
X130000000Y-61750000D03*
%TO.N,GND*%
X132540000Y-64290000D03*
X132540000Y-61750000D03*
%TD*%
D11*
%TO.N,/Project Architecture/Connections/CANH*%
%TO.C,J503*%
X182500000Y-96225000D03*
D12*
%TO.N,/Project Architecture/Connections/CANL*%
X182500000Y-98765000D03*
%TD*%
D18*
%TO.N,/Project Architecture/MCU/BUZZ*%
%TO.C,BZ400*%
X167100000Y-72000000D03*
%TO.N,GND*%
X162100000Y-72000000D03*
%TD*%
D19*
%TO.N,GND*%
X180000000Y-70000000D03*
X179000000Y-100000000D03*
X140000000Y-103500000D03*
X175000000Y-100000000D03*
X150000000Y-63500000D03*
X171600000Y-75900000D03*
X144000000Y-103500000D03*
X150000000Y-62000000D03*
X119000000Y-99000000D03*
X141300000Y-97700000D03*
X145000000Y-67500000D03*
X116500000Y-76000000D03*
X116500000Y-93000000D03*
X116500000Y-78000000D03*
X128800000Y-85800000D03*
X122200000Y-87400000D03*
X147500000Y-70000000D03*
X171000000Y-69000000D03*
X116500000Y-91000000D03*
X116500000Y-87000000D03*
X155300000Y-94800000D03*
X130000000Y-70000000D03*
X165000000Y-96000000D03*
X160500000Y-95100000D03*
X144500000Y-89700000D03*
X137000000Y-84500000D03*
X134000000Y-90000000D03*
X140300000Y-98800000D03*
X127500000Y-85100000D03*
X129000000Y-99000000D03*
X150000000Y-103500000D03*
X116500000Y-80000000D03*
X137300000Y-91500000D03*
X151200000Y-84300000D03*
X146200000Y-84700000D03*
X136000000Y-89500000D03*
X120000000Y-100000000D03*
X146000000Y-103500000D03*
X127000000Y-99000000D03*
X165000000Y-100000000D03*
X171000000Y-67000000D03*
X120000000Y-70000000D03*
X165000000Y-98000000D03*
X147500000Y-67500000D03*
X158900000Y-95900000D03*
X116500000Y-95000000D03*
X171000000Y-71000000D03*
X142000000Y-103500000D03*
X125000000Y-70000000D03*
X139900000Y-95100000D03*
X148000000Y-103500000D03*
X118000000Y-100000000D03*
X141200000Y-80100000D03*
X171000000Y-65000000D03*
X175000000Y-65000000D03*
X116500000Y-89000000D03*
X177000000Y-100000000D03*
%TO.N,/Project Architecture/MCU/BUZZ*%
X158500000Y-84500000D03*
%TO.N,+3V3*%
X140700000Y-87200000D03*
X148500000Y-78800000D03*
X128600000Y-89300000D03*
X138100000Y-89500000D03*
X165021751Y-88178249D03*
X130200000Y-100100000D03*
X147100000Y-80200000D03*
X158900000Y-91500000D03*
X169500000Y-80300000D03*
%TO.N,+5V*%
X125900000Y-103600000D03*
X139800000Y-66000000D03*
X167500000Y-90400000D03*
%TO.N,/Project Architecture/Connections/NRST*%
X155100000Y-81400000D03*
%TO.N,/Project Architecture/Connections/UART_RX*%
X153400000Y-92600000D03*
%TO.N,/Project Architecture/Connections/UART_TX*%
X154400000Y-93000000D03*
%TO.N,/Project Architecture/Connections/PWM_2*%
X160800000Y-80900000D03*
%TO.N,/Project Architecture/Connections/PWM_1*%
X162000000Y-81000000D03*
%TO.N,/Project Architecture/Connections/SWCLK*%
X151900000Y-77100000D03*
%TO.N,/Project Architecture/Connections/SWDIO*%
X155505456Y-80105456D03*
D20*
%TO.N,/Project Architecture/MCU/I2C_SENS_SDA*%
X140600000Y-72500000D03*
X131000000Y-75200000D03*
D19*
X129300000Y-79700000D03*
%TO.N,/Project Architecture/MCU/LED_ERR*%
X152000000Y-96000000D03*
X160090000Y-100000000D03*
D20*
%TO.N,/Project Architecture/MCU/I2C_SENS_SCL*%
X131700000Y-75900000D03*
X139100000Y-76000000D03*
D19*
%TO.N,/Project Architecture/MCU/MAG_INT*%
X155725000Y-82100000D03*
X137200000Y-82900000D03*
%TO.N,/Project Architecture/MCU/IMU_INT_2*%
X133974196Y-84200000D03*
X151125000Y-77700000D03*
%TO.N,/Project Architecture/MCU/IMU_INT_1*%
X156700000Y-82700000D03*
X128900000Y-86800000D03*
%TO.N,/Project Architecture/Connections/CAN_TX*%
X163800000Y-81800000D03*
%TO.N,/Project Architecture/Connections/CAN_RX*%
X163200000Y-82700000D03*
%TO.N,/Project Architecture/MCU/SPI_MISO*%
X156200000Y-87800000D03*
%TO.N,/Project Architecture/MCU/CS_SD*%
X154800000Y-89100000D03*
%TO.N,/Project Architecture/MCU/SPI_SCK*%
X155100000Y-87400000D03*
%TO.N,/Project Architecture/MCU/SPI_MOSI*%
X157362940Y-88360121D03*
%TO.N,/Project Architecture/MCU/CS_FLASH*%
X154900000Y-90300000D03*
%TO.N,/Project Architecture/Connections/I2C_PERIPH_SDA*%
X166800000Y-67300000D03*
X161800000Y-79000000D03*
%TO.N,/Project Architecture/Connections/I2C_PERIPH_SCL*%
X160800000Y-78400000D03*
X164700000Y-67825000D03*
%TD*%
%TA.AperFunction,Conductor*%
%TO.N,GND*%
G36*
X131721743Y-60520185D02*
G01*
X131767498Y-60572989D01*
X131778322Y-60634230D01*
X131778282Y-60634728D01*
X132410591Y-61267037D01*
X132347007Y-61284075D01*
X132232993Y-61349901D01*
X132139901Y-61442993D01*
X132074075Y-61557007D01*
X132057037Y-61620591D01*
X131424728Y-60988282D01*
X131424727Y-60988282D01*
X131385380Y-61042439D01*
X131288904Y-61231782D01*
X131223242Y-61433869D01*
X131223242Y-61433870D01*
X131213942Y-61492589D01*
X131184012Y-61555723D01*
X131124700Y-61592654D01*
X131054838Y-61591656D01*
X130996605Y-61553046D01*
X130969852Y-61497381D01*
X130962052Y-61458172D01*
X130962052Y-61458170D01*
X130962051Y-61458165D01*
X130951439Y-61432544D01*
X130886635Y-61276092D01*
X130886628Y-61276079D01*
X130777139Y-61112218D01*
X130777136Y-61112214D01*
X130637785Y-60972863D01*
X130637781Y-60972860D01*
X130473920Y-60863371D01*
X130473907Y-60863364D01*
X130291839Y-60787950D01*
X130291829Y-60787947D01*
X130098543Y-60749500D01*
X130098541Y-60749500D01*
X129901459Y-60749500D01*
X129901457Y-60749500D01*
X129708170Y-60787947D01*
X129708160Y-60787950D01*
X129526092Y-60863364D01*
X129526079Y-60863371D01*
X129362218Y-60972860D01*
X129362214Y-60972863D01*
X129222863Y-61112214D01*
X129222860Y-61112218D01*
X129113371Y-61276079D01*
X129113364Y-61276092D01*
X129037950Y-61458160D01*
X129037947Y-61458170D01*
X128999500Y-61651456D01*
X128999500Y-61651459D01*
X128999500Y-61848541D01*
X128999500Y-61848543D01*
X128999499Y-61848543D01*
X129037947Y-62041829D01*
X129037950Y-62041839D01*
X129113364Y-62223907D01*
X129113371Y-62223920D01*
X129222860Y-62387781D01*
X129222863Y-62387785D01*
X129362214Y-62527136D01*
X129362218Y-62527139D01*
X129526079Y-62636628D01*
X129526092Y-62636635D01*
X129708160Y-62712049D01*
X129708165Y-62712051D01*
X129708169Y-62712051D01*
X129708170Y-62712052D01*
X129901456Y-62750500D01*
X129901459Y-62750500D01*
X130098543Y-62750500D01*
X130228582Y-62724632D01*
X130291835Y-62712051D01*
X130473914Y-62636632D01*
X130637782Y-62527139D01*
X130777139Y-62387782D01*
X130886632Y-62223914D01*
X130962051Y-62041835D01*
X130969852Y-62002615D01*
X131002236Y-61940707D01*
X131062952Y-61906133D01*
X131132721Y-61909872D01*
X131189394Y-61950738D01*
X131213942Y-62007411D01*
X131223242Y-62066127D01*
X131223242Y-62066130D01*
X131288904Y-62268217D01*
X131385375Y-62457550D01*
X131424728Y-62511716D01*
X132057037Y-61879408D01*
X132074075Y-61942993D01*
X132139901Y-62057007D01*
X132232993Y-62150099D01*
X132347007Y-62215925D01*
X132410591Y-62232962D01*
X131809971Y-62833581D01*
X131888711Y-62950895D01*
X131889920Y-62954729D01*
X131892844Y-62957491D01*
X131900343Y-62987778D01*
X131909727Y-63017529D01*
X131908671Y-63021408D01*
X131909638Y-63025312D01*
X131899573Y-63054844D01*
X131891383Y-63084947D01*
X131888397Y-63087640D01*
X131887100Y-63091447D01*
X131842051Y-63130483D01*
X131832440Y-63135380D01*
X131778282Y-63174727D01*
X131778282Y-63174728D01*
X132410591Y-63807037D01*
X132347007Y-63824075D01*
X132232993Y-63889901D01*
X132139901Y-63982993D01*
X132074075Y-64097007D01*
X132057037Y-64160591D01*
X131424728Y-63528282D01*
X131424727Y-63528282D01*
X131385380Y-63582439D01*
X131288904Y-63771782D01*
X131223242Y-63973869D01*
X131223242Y-63973870D01*
X131213942Y-64032589D01*
X131184012Y-64095723D01*
X131124700Y-64132654D01*
X131054838Y-64131656D01*
X130996605Y-64093046D01*
X130969852Y-64037381D01*
X130962052Y-63998172D01*
X130962052Y-63998170D01*
X130962051Y-63998165D01*
X130951987Y-63973869D01*
X130886635Y-63816092D01*
X130886628Y-63816079D01*
X130777139Y-63652218D01*
X130777136Y-63652214D01*
X130637785Y-63512863D01*
X130637781Y-63512860D01*
X130473920Y-63403371D01*
X130473907Y-63403364D01*
X130291839Y-63327950D01*
X130291829Y-63327947D01*
X130098543Y-63289500D01*
X130098541Y-63289500D01*
X129901459Y-63289500D01*
X129901457Y-63289500D01*
X129708170Y-63327947D01*
X129708160Y-63327950D01*
X129526092Y-63403364D01*
X129526079Y-63403371D01*
X129362218Y-63512860D01*
X129362214Y-63512863D01*
X129222863Y-63652214D01*
X129222860Y-63652218D01*
X129113371Y-63816079D01*
X129113364Y-63816092D01*
X129037950Y-63998160D01*
X129037947Y-63998170D01*
X128999500Y-64191456D01*
X128999500Y-64191459D01*
X128999500Y-64388541D01*
X128999500Y-64388543D01*
X128999499Y-64388543D01*
X129037947Y-64581829D01*
X129037950Y-64581839D01*
X129113364Y-64763907D01*
X129113371Y-64763920D01*
X129222860Y-64927781D01*
X129222863Y-64927785D01*
X129362214Y-65067136D01*
X129362218Y-65067139D01*
X129526079Y-65176628D01*
X129526092Y-65176635D01*
X129708160Y-65252049D01*
X129708165Y-65252051D01*
X129708169Y-65252051D01*
X129708170Y-65252052D01*
X129901456Y-65290500D01*
X129901459Y-65290500D01*
X130098543Y-65290500D01*
X130228582Y-65264632D01*
X130291835Y-65252051D01*
X130473914Y-65176632D01*
X130637782Y-65067139D01*
X130777139Y-64927782D01*
X130886632Y-64763914D01*
X130962051Y-64581835D01*
X130969852Y-64542615D01*
X131002236Y-64480707D01*
X131062952Y-64446133D01*
X131132721Y-64449872D01*
X131189394Y-64490738D01*
X131213942Y-64547411D01*
X131223242Y-64606127D01*
X131223242Y-64606130D01*
X131288904Y-64808217D01*
X131385375Y-64997550D01*
X131424728Y-65051716D01*
X132057037Y-64419408D01*
X132074075Y-64482993D01*
X132139901Y-64597007D01*
X132232993Y-64690099D01*
X132347007Y-64755925D01*
X132410590Y-64772962D01*
X131778282Y-65405269D01*
X131778282Y-65405270D01*
X131832449Y-65444624D01*
X132021782Y-65541095D01*
X132223870Y-65606757D01*
X132433754Y-65640000D01*
X132646246Y-65640000D01*
X132856127Y-65606757D01*
X132856130Y-65606757D01*
X133058217Y-65541095D01*
X133247554Y-65444622D01*
X133301716Y-65405270D01*
X133301717Y-65405270D01*
X133051269Y-65154822D01*
X152749499Y-65154822D01*
X152758231Y-65198717D01*
X152758234Y-65198724D01*
X152788118Y-65243449D01*
X152791496Y-65248504D01*
X152841278Y-65281767D01*
X152841281Y-65281767D01*
X152841282Y-65281768D01*
X152885177Y-65290500D01*
X152885180Y-65290500D01*
X154614822Y-65290500D01*
X154658717Y-65281768D01*
X154658717Y-65281767D01*
X154658722Y-65281767D01*
X154708504Y-65248504D01*
X154741767Y-65198722D01*
X154750500Y-65154820D01*
X154750500Y-63425180D01*
X154750500Y-63425177D01*
X154741768Y-63381282D01*
X154741767Y-63381281D01*
X154741767Y-63381278D01*
X154708504Y-63331496D01*
X154703197Y-63327950D01*
X154658724Y-63298234D01*
X154658717Y-63298231D01*
X154614822Y-63289500D01*
X154614820Y-63289500D01*
X152885180Y-63289500D01*
X152885178Y-63289500D01*
X152841282Y-63298231D01*
X152841275Y-63298234D01*
X152791496Y-63331495D01*
X152791495Y-63331496D01*
X152758234Y-63381275D01*
X152758231Y-63381282D01*
X152749500Y-63425177D01*
X152749500Y-63425180D01*
X152749500Y-65154820D01*
X152749500Y-65154822D01*
X152749499Y-65154822D01*
X133051269Y-65154822D01*
X132669408Y-64772962D01*
X132732993Y-64755925D01*
X132847007Y-64690099D01*
X132940099Y-64597007D01*
X133005925Y-64482993D01*
X133022962Y-64419408D01*
X133655270Y-65051717D01*
X133655270Y-65051716D01*
X133694622Y-64997554D01*
X133791095Y-64808217D01*
X133856757Y-64606130D01*
X133856757Y-64606127D01*
X133890000Y-64396246D01*
X133890000Y-64183753D01*
X133856757Y-63973872D01*
X133856757Y-63973869D01*
X133791095Y-63771782D01*
X133694623Y-63582447D01*
X133694621Y-63582443D01*
X133655271Y-63528282D01*
X133655269Y-63528282D01*
X133022962Y-64160590D01*
X133005925Y-64097007D01*
X132940099Y-63982993D01*
X132847007Y-63889901D01*
X132732993Y-63824075D01*
X132669409Y-63807037D01*
X133301716Y-63174728D01*
X133247550Y-63135375D01*
X133237954Y-63130486D01*
X133187157Y-63082512D01*
X133170361Y-63014692D01*
X133192897Y-62948556D01*
X133237954Y-62909514D01*
X133247554Y-62904622D01*
X133301716Y-62865270D01*
X133301717Y-62865270D01*
X132669408Y-62232962D01*
X132732993Y-62215925D01*
X132847007Y-62150099D01*
X132940099Y-62057007D01*
X133005925Y-61942993D01*
X133022962Y-61879408D01*
X133655270Y-62511717D01*
X133655270Y-62511716D01*
X133694622Y-62457554D01*
X133791095Y-62268217D01*
X133856757Y-62066130D01*
X133856757Y-62066127D01*
X133878439Y-61929240D01*
X133890000Y-61856246D01*
X133890000Y-61643753D01*
X133856757Y-61433872D01*
X133856757Y-61433869D01*
X133791095Y-61231782D01*
X133694624Y-61042449D01*
X133655270Y-60988282D01*
X133655269Y-60988282D01*
X133022962Y-61620590D01*
X133005925Y-61557007D01*
X132940099Y-61442993D01*
X132847007Y-61349901D01*
X132732993Y-61284075D01*
X132669409Y-61267037D01*
X133301716Y-60634728D01*
X133301677Y-60634230D01*
X133316041Y-60565853D01*
X133365091Y-60516096D01*
X133425295Y-60500500D01*
X137796764Y-60500500D01*
X137863803Y-60520185D01*
X137909558Y-60572989D01*
X137919502Y-60642147D01*
X137912946Y-60667833D01*
X137866403Y-60792620D01*
X137866401Y-60792627D01*
X137860000Y-60852155D01*
X137860000Y-61500000D01*
X138776988Y-61500000D01*
X138744075Y-61557007D01*
X138710000Y-61684174D01*
X138710000Y-61815826D01*
X138744075Y-61942993D01*
X138776988Y-62000000D01*
X137860000Y-62000000D01*
X137860000Y-62647844D01*
X137866401Y-62707372D01*
X137866403Y-62707379D01*
X137916645Y-62842086D01*
X137916649Y-62842093D01*
X138002809Y-62957187D01*
X138002812Y-62957190D01*
X138117906Y-63043350D01*
X138117913Y-63043354D01*
X138252620Y-63093596D01*
X138252627Y-63093598D01*
X138312155Y-63099999D01*
X138312172Y-63100000D01*
X138960000Y-63100000D01*
X138960000Y-62183012D01*
X139017007Y-62215925D01*
X139144174Y-62250000D01*
X139275826Y-62250000D01*
X139402993Y-62215925D01*
X139460000Y-62183012D01*
X139460000Y-63100000D01*
X140107828Y-63100000D01*
X140107844Y-63099999D01*
X140167372Y-63093598D01*
X140167379Y-63093596D01*
X140302086Y-63043354D01*
X140302093Y-63043350D01*
X140417187Y-62957190D01*
X140417190Y-62957187D01*
X140503350Y-62842093D01*
X140503354Y-62842086D01*
X140553596Y-62707379D01*
X140553598Y-62707372D01*
X140559999Y-62647844D01*
X140560000Y-62647827D01*
X140560000Y-62114907D01*
X140579685Y-62047868D01*
X140632489Y-62002113D01*
X140701647Y-61992169D01*
X140765203Y-62021194D01*
X140798561Y-62067455D01*
X140863364Y-62223907D01*
X140863371Y-62223920D01*
X140972860Y-62387781D01*
X140972863Y-62387785D01*
X141112214Y-62527136D01*
X141112218Y-62527139D01*
X141276079Y-62636628D01*
X141276092Y-62636635D01*
X141458160Y-62712049D01*
X141458165Y-62712051D01*
X141458169Y-62712051D01*
X141458170Y-62712052D01*
X141651456Y-62750500D01*
X141651459Y-62750500D01*
X141848543Y-62750500D01*
X141978582Y-62724632D01*
X142041835Y-62712051D01*
X142223914Y-62636632D01*
X142387782Y-62527139D01*
X142527139Y-62387782D01*
X142636632Y-62223914D01*
X142712051Y-62041835D01*
X142734448Y-61929240D01*
X142750500Y-61848543D01*
X143289499Y-61848543D01*
X143327947Y-62041829D01*
X143327950Y-62041839D01*
X143403364Y-62223907D01*
X143403371Y-62223920D01*
X143512860Y-62387781D01*
X143512863Y-62387785D01*
X143652214Y-62527136D01*
X143652218Y-62527139D01*
X143816079Y-62636628D01*
X143816092Y-62636635D01*
X143998160Y-62712049D01*
X143998165Y-62712051D01*
X143998169Y-62712051D01*
X143998170Y-62712052D01*
X144191456Y-62750500D01*
X144191459Y-62750500D01*
X144388543Y-62750500D01*
X144518582Y-62724632D01*
X144581835Y-62712051D01*
X144763914Y-62636632D01*
X144927782Y-62527139D01*
X145067139Y-62387782D01*
X145176632Y-62223914D01*
X145252051Y-62041835D01*
X145274448Y-61929240D01*
X145290500Y-61848543D01*
X145829499Y-61848543D01*
X145867947Y-62041829D01*
X145867950Y-62041839D01*
X145943364Y-62223907D01*
X145943371Y-62223920D01*
X146052860Y-62387781D01*
X146052863Y-62387785D01*
X146192214Y-62527136D01*
X146192218Y-62527139D01*
X146356079Y-62636628D01*
X146356092Y-62636635D01*
X146538160Y-62712049D01*
X146538165Y-62712051D01*
X146538169Y-62712051D01*
X146538170Y-62712052D01*
X146731456Y-62750500D01*
X146731459Y-62750500D01*
X146928543Y-62750500D01*
X147058582Y-62724632D01*
X147121835Y-62712051D01*
X147303914Y-62636632D01*
X147467782Y-62527139D01*
X147607139Y-62387782D01*
X147716632Y-62223914D01*
X147792051Y-62041835D01*
X147814448Y-61929240D01*
X147830500Y-61848543D01*
X152749499Y-61848543D01*
X152787947Y-62041829D01*
X152787950Y-62041839D01*
X152863364Y-62223907D01*
X152863371Y-62223920D01*
X152972860Y-62387781D01*
X152972863Y-62387785D01*
X153112214Y-62527136D01*
X153112218Y-62527139D01*
X153276079Y-62636628D01*
X153276092Y-62636635D01*
X153458160Y-62712049D01*
X153458165Y-62712051D01*
X153458169Y-62712051D01*
X153458170Y-62712052D01*
X153651456Y-62750500D01*
X153651459Y-62750500D01*
X153848543Y-62750500D01*
X153978582Y-62724632D01*
X154041835Y-62712051D01*
X154223914Y-62636632D01*
X154387782Y-62527139D01*
X154527139Y-62387782D01*
X154636632Y-62223914D01*
X154712051Y-62041835D01*
X154734448Y-61929240D01*
X154750500Y-61848543D01*
X154750500Y-61651456D01*
X154712052Y-61458170D01*
X154712051Y-61458169D01*
X154712051Y-61458165D01*
X154701439Y-61432544D01*
X154636635Y-61276092D01*
X154636628Y-61276079D01*
X154527139Y-61112218D01*
X154527136Y-61112214D01*
X154387785Y-60972863D01*
X154387781Y-60972860D01*
X154223920Y-60863371D01*
X154223907Y-60863364D01*
X154041839Y-60787950D01*
X154041829Y-60787947D01*
X153848543Y-60749500D01*
X153848541Y-60749500D01*
X153651459Y-60749500D01*
X153651457Y-60749500D01*
X153458170Y-60787947D01*
X153458160Y-60787950D01*
X153276092Y-60863364D01*
X153276079Y-60863371D01*
X153112218Y-60972860D01*
X153112214Y-60972863D01*
X152972863Y-61112214D01*
X152972860Y-61112218D01*
X152863371Y-61276079D01*
X152863364Y-61276092D01*
X152787950Y-61458160D01*
X152787947Y-61458170D01*
X152749500Y-61651456D01*
X152749500Y-61651459D01*
X152749500Y-61848541D01*
X152749500Y-61848543D01*
X152749499Y-61848543D01*
X147830500Y-61848543D01*
X147830500Y-61651456D01*
X147792052Y-61458170D01*
X147792051Y-61458169D01*
X147792051Y-61458165D01*
X147781439Y-61432544D01*
X147716635Y-61276092D01*
X147716628Y-61276079D01*
X147607139Y-61112218D01*
X147607136Y-61112214D01*
X147467785Y-60972863D01*
X147467781Y-60972860D01*
X147303920Y-60863371D01*
X147303907Y-60863364D01*
X147121839Y-60787950D01*
X147121829Y-60787947D01*
X146928543Y-60749500D01*
X146928541Y-60749500D01*
X146731459Y-60749500D01*
X146731457Y-60749500D01*
X146538170Y-60787947D01*
X146538160Y-60787950D01*
X146356092Y-60863364D01*
X146356079Y-60863371D01*
X146192218Y-60972860D01*
X146192214Y-60972863D01*
X146052863Y-61112214D01*
X146052860Y-61112218D01*
X145943371Y-61276079D01*
X145943364Y-61276092D01*
X145867950Y-61458160D01*
X145867947Y-61458170D01*
X145829500Y-61651456D01*
X145829500Y-61651459D01*
X145829500Y-61848541D01*
X145829500Y-61848543D01*
X145829499Y-61848543D01*
X145290500Y-61848543D01*
X145290500Y-61651456D01*
X145252052Y-61458170D01*
X145252051Y-61458169D01*
X145252051Y-61458165D01*
X145241439Y-61432544D01*
X145176635Y-61276092D01*
X145176628Y-61276079D01*
X145067139Y-61112218D01*
X145067136Y-61112214D01*
X144927785Y-60972863D01*
X144927781Y-60972860D01*
X144763920Y-60863371D01*
X144763907Y-60863364D01*
X144581839Y-60787950D01*
X144581829Y-60787947D01*
X144388543Y-60749500D01*
X144388541Y-60749500D01*
X144191459Y-60749500D01*
X144191457Y-60749500D01*
X143998170Y-60787947D01*
X143998160Y-60787950D01*
X143816092Y-60863364D01*
X143816079Y-60863371D01*
X143652218Y-60972860D01*
X143652214Y-60972863D01*
X143512863Y-61112214D01*
X143512860Y-61112218D01*
X143403371Y-61276079D01*
X143403364Y-61276092D01*
X143327950Y-61458160D01*
X143327947Y-61458170D01*
X143289500Y-61651456D01*
X143289500Y-61651459D01*
X143289500Y-61848541D01*
X143289500Y-61848543D01*
X143289499Y-61848543D01*
X142750500Y-61848543D01*
X142750500Y-61651456D01*
X142712052Y-61458170D01*
X142712051Y-61458169D01*
X142712051Y-61458165D01*
X142701439Y-61432544D01*
X142636635Y-61276092D01*
X142636628Y-61276079D01*
X142527139Y-61112218D01*
X142527136Y-61112214D01*
X142387785Y-60972863D01*
X142387781Y-60972860D01*
X142223920Y-60863371D01*
X142223907Y-60863364D01*
X142041839Y-60787950D01*
X142041829Y-60787947D01*
X141848543Y-60749500D01*
X141848541Y-60749500D01*
X141651459Y-60749500D01*
X141651457Y-60749500D01*
X141458170Y-60787947D01*
X141458160Y-60787950D01*
X141276092Y-60863364D01*
X141276079Y-60863371D01*
X141112218Y-60972860D01*
X141112214Y-60972863D01*
X140972863Y-61112214D01*
X140972860Y-61112218D01*
X140863371Y-61276079D01*
X140863364Y-61276092D01*
X140798561Y-61432544D01*
X140754720Y-61486948D01*
X140688426Y-61509013D01*
X140620727Y-61491734D01*
X140573116Y-61440597D01*
X140560000Y-61385092D01*
X140560000Y-60852172D01*
X140559999Y-60852155D01*
X140553598Y-60792627D01*
X140553596Y-60792620D01*
X140507054Y-60667833D01*
X140502070Y-60598142D01*
X140535555Y-60536818D01*
X140596878Y-60503334D01*
X140623236Y-60500500D01*
X157944704Y-60500500D01*
X158011743Y-60520185D01*
X158057498Y-60572989D01*
X158068322Y-60634230D01*
X158068282Y-60634728D01*
X158700591Y-61267037D01*
X158637007Y-61284075D01*
X158522993Y-61349901D01*
X158429901Y-61442993D01*
X158364075Y-61557007D01*
X158347037Y-61620591D01*
X157714728Y-60988282D01*
X157714727Y-60988282D01*
X157675380Y-61042439D01*
X157578904Y-61231782D01*
X157513242Y-61433869D01*
X157513242Y-61433870D01*
X157503942Y-61492589D01*
X157474012Y-61555723D01*
X157414700Y-61592654D01*
X157344838Y-61591656D01*
X157286605Y-61553046D01*
X157259852Y-61497381D01*
X157252052Y-61458172D01*
X157252052Y-61458170D01*
X157252051Y-61458165D01*
X157241439Y-61432544D01*
X157176635Y-61276092D01*
X157176628Y-61276079D01*
X157067139Y-61112218D01*
X157067136Y-61112214D01*
X156927785Y-60972863D01*
X156927781Y-60972860D01*
X156763920Y-60863371D01*
X156763907Y-60863364D01*
X156581839Y-60787950D01*
X156581829Y-60787947D01*
X156388543Y-60749500D01*
X156388541Y-60749500D01*
X156191459Y-60749500D01*
X156191457Y-60749500D01*
X155998170Y-60787947D01*
X155998160Y-60787950D01*
X155816092Y-60863364D01*
X155816079Y-60863371D01*
X155652218Y-60972860D01*
X155652214Y-60972863D01*
X155512863Y-61112214D01*
X155512860Y-61112218D01*
X155403371Y-61276079D01*
X155403364Y-61276092D01*
X155327950Y-61458160D01*
X155327947Y-61458170D01*
X155289500Y-61651456D01*
X155289500Y-61651459D01*
X155289500Y-61848541D01*
X155289500Y-61848543D01*
X155289499Y-61848543D01*
X155327947Y-62041829D01*
X155327950Y-62041839D01*
X155403364Y-62223907D01*
X155403371Y-62223920D01*
X155512860Y-62387781D01*
X155512863Y-62387785D01*
X155652214Y-62527136D01*
X155652218Y-62527139D01*
X155816079Y-62636628D01*
X155816092Y-62636635D01*
X155998160Y-62712049D01*
X155998165Y-62712051D01*
X155998169Y-62712051D01*
X155998170Y-62712052D01*
X156191456Y-62750500D01*
X156191459Y-62750500D01*
X156388543Y-62750500D01*
X156518582Y-62724632D01*
X156581835Y-62712051D01*
X156763914Y-62636632D01*
X156927782Y-62527139D01*
X157067139Y-62387782D01*
X157176632Y-62223914D01*
X157252051Y-62041835D01*
X157259852Y-62002615D01*
X157292236Y-61940707D01*
X157352952Y-61906133D01*
X157422721Y-61909872D01*
X157479394Y-61950738D01*
X157503942Y-62007411D01*
X157513242Y-62066127D01*
X157513242Y-62066130D01*
X157578904Y-62268217D01*
X157675375Y-62457550D01*
X157714728Y-62511716D01*
X158347037Y-61879408D01*
X158364075Y-61942993D01*
X158429901Y-62057007D01*
X158522993Y-62150099D01*
X158637007Y-62215925D01*
X158700591Y-62232962D01*
X158099971Y-62833581D01*
X158178711Y-62950895D01*
X158179920Y-62954729D01*
X158182844Y-62957491D01*
X158190343Y-62987778D01*
X158199727Y-63017529D01*
X158198671Y-63021408D01*
X158199638Y-63025312D01*
X158189573Y-63054844D01*
X158181383Y-63084947D01*
X158178397Y-63087640D01*
X158177100Y-63091447D01*
X158132051Y-63130483D01*
X158122440Y-63135380D01*
X158068282Y-63174727D01*
X158068282Y-63174728D01*
X158700591Y-63807037D01*
X158637007Y-63824075D01*
X158522993Y-63889901D01*
X158429901Y-63982993D01*
X158364075Y-64097007D01*
X158347037Y-64160591D01*
X157714728Y-63528282D01*
X157714727Y-63528282D01*
X157675380Y-63582439D01*
X157578904Y-63771782D01*
X157513242Y-63973869D01*
X157513242Y-63973870D01*
X157503942Y-64032589D01*
X157474012Y-64095723D01*
X157414700Y-64132654D01*
X157344838Y-64131656D01*
X157286605Y-64093046D01*
X157259852Y-64037381D01*
X157252052Y-63998172D01*
X157252052Y-63998170D01*
X157252051Y-63998165D01*
X157241987Y-63973869D01*
X157176635Y-63816092D01*
X157176628Y-63816079D01*
X157067139Y-63652218D01*
X157067136Y-63652214D01*
X156927785Y-63512863D01*
X156927781Y-63512860D01*
X156763920Y-63403371D01*
X156763907Y-63403364D01*
X156581839Y-63327950D01*
X156581829Y-63327947D01*
X156388543Y-63289500D01*
X156388541Y-63289500D01*
X156191459Y-63289500D01*
X156191457Y-63289500D01*
X155998170Y-63327947D01*
X155998160Y-63327950D01*
X155816092Y-63403364D01*
X155816079Y-63403371D01*
X155652218Y-63512860D01*
X155652214Y-63512863D01*
X155512863Y-63652214D01*
X155512860Y-63652218D01*
X155403371Y-63816079D01*
X155403364Y-63816092D01*
X155327950Y-63998160D01*
X155327947Y-63998170D01*
X155289500Y-64191456D01*
X155289500Y-64191459D01*
X155289500Y-64388541D01*
X155289500Y-64388543D01*
X155289499Y-64388543D01*
X155327947Y-64581829D01*
X155327950Y-64581839D01*
X155403364Y-64763907D01*
X155403371Y-64763920D01*
X155512860Y-64927781D01*
X155512863Y-64927785D01*
X155652214Y-65067136D01*
X155652218Y-65067139D01*
X155816079Y-65176628D01*
X155816092Y-65176635D01*
X155998160Y-65252049D01*
X155998165Y-65252051D01*
X155998169Y-65252051D01*
X155998170Y-65252052D01*
X156191456Y-65290500D01*
X156191459Y-65290500D01*
X156388543Y-65290500D01*
X156518582Y-65264632D01*
X156581835Y-65252051D01*
X156763914Y-65176632D01*
X156927782Y-65067139D01*
X157067139Y-64927782D01*
X157176632Y-64763914D01*
X157252051Y-64581835D01*
X157259852Y-64542615D01*
X157292236Y-64480707D01*
X157352952Y-64446133D01*
X157422721Y-64449872D01*
X157479394Y-64490738D01*
X157503942Y-64547411D01*
X157513242Y-64606127D01*
X157513242Y-64606130D01*
X157578904Y-64808217D01*
X157675375Y-64997550D01*
X157714728Y-65051716D01*
X158347037Y-64419408D01*
X158364075Y-64482993D01*
X158429901Y-64597007D01*
X158522993Y-64690099D01*
X158637007Y-64755925D01*
X158700590Y-64772962D01*
X158068282Y-65405269D01*
X158068282Y-65405270D01*
X158122449Y-65444624D01*
X158311782Y-65541095D01*
X158513870Y-65606757D01*
X158723754Y-65640000D01*
X158936246Y-65640000D01*
X159146127Y-65606757D01*
X159146130Y-65606757D01*
X159348217Y-65541095D01*
X159537554Y-65444622D01*
X159591716Y-65405270D01*
X159591717Y-65405270D01*
X158959408Y-64772962D01*
X159022993Y-64755925D01*
X159137007Y-64690099D01*
X159230099Y-64597007D01*
X159295925Y-64482993D01*
X159312962Y-64419408D01*
X159945270Y-65051717D01*
X159945270Y-65051716D01*
X159984622Y-64997554D01*
X160081095Y-64808217D01*
X160146757Y-64606130D01*
X160146757Y-64606127D01*
X160180000Y-64396246D01*
X160180000Y-64183753D01*
X160146757Y-63973872D01*
X160146757Y-63973869D01*
X160081095Y-63771782D01*
X159984624Y-63582449D01*
X159945270Y-63528282D01*
X159945269Y-63528282D01*
X159312962Y-64160590D01*
X159295925Y-64097007D01*
X159230099Y-63982993D01*
X159137007Y-63889901D01*
X159022993Y-63824075D01*
X158959409Y-63807037D01*
X159591716Y-63174728D01*
X159537550Y-63135375D01*
X159527954Y-63130486D01*
X159477157Y-63082512D01*
X159460361Y-63014692D01*
X159482897Y-62948556D01*
X159527954Y-62909514D01*
X159537554Y-62904622D01*
X159591716Y-62865270D01*
X159591717Y-62865270D01*
X159341269Y-62614822D01*
X163189499Y-62614822D01*
X163198231Y-62658717D01*
X163198234Y-62658724D01*
X163230744Y-62707379D01*
X163231496Y-62708504D01*
X163281278Y-62741767D01*
X163281281Y-62741767D01*
X163281282Y-62741768D01*
X163325177Y-62750500D01*
X163325180Y-62750500D01*
X165054822Y-62750500D01*
X165098717Y-62741768D01*
X165098717Y-62741767D01*
X165098722Y-62741767D01*
X165148504Y-62708504D01*
X165181767Y-62658722D01*
X165190500Y-62614820D01*
X165190500Y-61848543D01*
X165729499Y-61848543D01*
X165767947Y-62041829D01*
X165767950Y-62041839D01*
X165843364Y-62223907D01*
X165843371Y-62223920D01*
X165952860Y-62387781D01*
X165952863Y-62387785D01*
X166092214Y-62527136D01*
X166092218Y-62527139D01*
X166256079Y-62636628D01*
X166256092Y-62636635D01*
X166438160Y-62712049D01*
X166438165Y-62712051D01*
X166438169Y-62712051D01*
X166438170Y-62712052D01*
X166631456Y-62750500D01*
X166631459Y-62750500D01*
X166828543Y-62750500D01*
X166958582Y-62724632D01*
X167021835Y-62712051D01*
X167203914Y-62636632D01*
X167367782Y-62527139D01*
X167507139Y-62387782D01*
X167616632Y-62223914D01*
X167692051Y-62041835D01*
X167714448Y-61929240D01*
X167730500Y-61848543D01*
X167730500Y-61651456D01*
X167692052Y-61458170D01*
X167692051Y-61458169D01*
X167692051Y-61458165D01*
X167681439Y-61432544D01*
X167616635Y-61276092D01*
X167616628Y-61276079D01*
X167507139Y-61112218D01*
X167507136Y-61112214D01*
X167367785Y-60972863D01*
X167367781Y-60972860D01*
X167203920Y-60863371D01*
X167203907Y-60863364D01*
X167021839Y-60787950D01*
X167021829Y-60787947D01*
X166828543Y-60749500D01*
X166828541Y-60749500D01*
X166631459Y-60749500D01*
X166631457Y-60749500D01*
X166438170Y-60787947D01*
X166438160Y-60787950D01*
X166256092Y-60863364D01*
X166256079Y-60863371D01*
X166092218Y-60972860D01*
X166092214Y-60972863D01*
X165952863Y-61112214D01*
X165952860Y-61112218D01*
X165843371Y-61276079D01*
X165843364Y-61276092D01*
X165767950Y-61458160D01*
X165767947Y-61458170D01*
X165729500Y-61651456D01*
X165729500Y-61651459D01*
X165729500Y-61848541D01*
X165729500Y-61848543D01*
X165729499Y-61848543D01*
X165190500Y-61848543D01*
X165190500Y-60885180D01*
X165190500Y-60885177D01*
X165181768Y-60841282D01*
X165181767Y-60841281D01*
X165181767Y-60841278D01*
X165148504Y-60791496D01*
X165143197Y-60787950D01*
X165098724Y-60758234D01*
X165098717Y-60758231D01*
X165054822Y-60749500D01*
X165054820Y-60749500D01*
X163325180Y-60749500D01*
X163325178Y-60749500D01*
X163281282Y-60758231D01*
X163281275Y-60758234D01*
X163231496Y-60791495D01*
X163231495Y-60791496D01*
X163198234Y-60841275D01*
X163198231Y-60841282D01*
X163189500Y-60885177D01*
X163189500Y-60885180D01*
X163189500Y-62614820D01*
X163189500Y-62614822D01*
X163189499Y-62614822D01*
X159341269Y-62614822D01*
X158959408Y-62232962D01*
X159022993Y-62215925D01*
X159137007Y-62150099D01*
X159230099Y-62057007D01*
X159295925Y-61942993D01*
X159312962Y-61879408D01*
X159945270Y-62511717D01*
X159945270Y-62511716D01*
X159984622Y-62457554D01*
X160081095Y-62268217D01*
X160146757Y-62066130D01*
X160146757Y-62066127D01*
X160180000Y-61856246D01*
X160180000Y-61643753D01*
X160146757Y-61433872D01*
X160146757Y-61433869D01*
X160081095Y-61231782D01*
X159984623Y-61042447D01*
X159984621Y-61042443D01*
X159945271Y-60988282D01*
X159945269Y-60988282D01*
X159312962Y-61620590D01*
X159295925Y-61557007D01*
X159230099Y-61442993D01*
X159137007Y-61349901D01*
X159022993Y-61284075D01*
X158959409Y-61267037D01*
X159591716Y-60634728D01*
X159591677Y-60634230D01*
X159606041Y-60565853D01*
X159655091Y-60516096D01*
X159715295Y-60500500D01*
X170924704Y-60500500D01*
X170991743Y-60520185D01*
X171037498Y-60572989D01*
X171048322Y-60634230D01*
X171048282Y-60634728D01*
X171680591Y-61267037D01*
X171617007Y-61284075D01*
X171502993Y-61349901D01*
X171409901Y-61442993D01*
X171344075Y-61557007D01*
X171327037Y-61620591D01*
X170694728Y-60988282D01*
X170694727Y-60988282D01*
X170655380Y-61042439D01*
X170558904Y-61231782D01*
X170493242Y-61433869D01*
X170493242Y-61433870D01*
X170483942Y-61492589D01*
X170454012Y-61555723D01*
X170394700Y-61592654D01*
X170324838Y-61591656D01*
X170266605Y-61553046D01*
X170239852Y-61497381D01*
X170232052Y-61458172D01*
X170232052Y-61458170D01*
X170232051Y-61458165D01*
X170221439Y-61432544D01*
X170156635Y-61276092D01*
X170156628Y-61276079D01*
X170047139Y-61112218D01*
X170047136Y-61112214D01*
X169907785Y-60972863D01*
X169907781Y-60972860D01*
X169743920Y-60863371D01*
X169743907Y-60863364D01*
X169561839Y-60787950D01*
X169561829Y-60787947D01*
X169368543Y-60749500D01*
X169368541Y-60749500D01*
X169171459Y-60749500D01*
X169171457Y-60749500D01*
X168978170Y-60787947D01*
X168978160Y-60787950D01*
X168796092Y-60863364D01*
X168796079Y-60863371D01*
X168632218Y-60972860D01*
X168632214Y-60972863D01*
X168492863Y-61112214D01*
X168492860Y-61112218D01*
X168383371Y-61276079D01*
X168383364Y-61276092D01*
X168307950Y-61458160D01*
X168307947Y-61458170D01*
X168269500Y-61651456D01*
X168269500Y-61651459D01*
X168269500Y-61848541D01*
X168269500Y-61848543D01*
X168269499Y-61848543D01*
X168307947Y-62041829D01*
X168307950Y-62041839D01*
X168383364Y-62223907D01*
X168383371Y-62223920D01*
X168492860Y-62387781D01*
X168492863Y-62387785D01*
X168632214Y-62527136D01*
X168632218Y-62527139D01*
X168796079Y-62636628D01*
X168796092Y-62636635D01*
X168978160Y-62712049D01*
X168978165Y-62712051D01*
X168978169Y-62712051D01*
X168978170Y-62712052D01*
X169171456Y-62750500D01*
X169171459Y-62750500D01*
X169368543Y-62750500D01*
X169498582Y-62724632D01*
X169561835Y-62712051D01*
X169743914Y-62636632D01*
X169907782Y-62527139D01*
X170047139Y-62387782D01*
X170156632Y-62223914D01*
X170232051Y-62041835D01*
X170239852Y-62002615D01*
X170272236Y-61940707D01*
X170332952Y-61906133D01*
X170402721Y-61909872D01*
X170459394Y-61950738D01*
X170483942Y-62007411D01*
X170493242Y-62066127D01*
X170493242Y-62066130D01*
X170558904Y-62268217D01*
X170655375Y-62457550D01*
X170694728Y-62511716D01*
X171327037Y-61879408D01*
X171344075Y-61942993D01*
X171409901Y-62057007D01*
X171502993Y-62150099D01*
X171617007Y-62215925D01*
X171680590Y-62232962D01*
X171048282Y-62865269D01*
X171048282Y-62865270D01*
X171102449Y-62904624D01*
X171291782Y-63001095D01*
X171493870Y-63066757D01*
X171703754Y-63100000D01*
X171916246Y-63100000D01*
X172126127Y-63066757D01*
X172126130Y-63066757D01*
X172328217Y-63001095D01*
X172517554Y-62904622D01*
X172571716Y-62865270D01*
X172571717Y-62865270D01*
X171939408Y-62232962D01*
X172002993Y-62215925D01*
X172117007Y-62150099D01*
X172210099Y-62057007D01*
X172275925Y-61942993D01*
X172292962Y-61879408D01*
X172925270Y-62511717D01*
X172925270Y-62511716D01*
X172964622Y-62457554D01*
X173061095Y-62268217D01*
X173126757Y-62066130D01*
X173126757Y-62066127D01*
X173160000Y-61856246D01*
X173160000Y-61643753D01*
X173126757Y-61433872D01*
X173126757Y-61433869D01*
X173061095Y-61231782D01*
X172964624Y-61042449D01*
X172925270Y-60988282D01*
X172925269Y-60988282D01*
X172292962Y-61620590D01*
X172275925Y-61557007D01*
X172210099Y-61442993D01*
X172117007Y-61349901D01*
X172002993Y-61284075D01*
X171939409Y-61267037D01*
X172571716Y-60634728D01*
X172571677Y-60634230D01*
X172586041Y-60565853D01*
X172635091Y-60516096D01*
X172695295Y-60500500D01*
X179434108Y-60500500D01*
X179497294Y-60500500D01*
X179502702Y-60500617D01*
X179886771Y-60517386D01*
X179897506Y-60518326D01*
X180275971Y-60568152D01*
X180286597Y-60570025D01*
X180659284Y-60652648D01*
X180669710Y-60655442D01*
X181033765Y-60770227D01*
X181043911Y-60773920D01*
X181396578Y-60920000D01*
X181406369Y-60924566D01*
X181632820Y-61042449D01*
X181744942Y-61100816D01*
X181754310Y-61106224D01*
X182076244Y-61311318D01*
X182085105Y-61317523D01*
X182387930Y-61549889D01*
X182396217Y-61556843D01*
X182677635Y-61814715D01*
X182685284Y-61822364D01*
X182943156Y-62103782D01*
X182950110Y-62112069D01*
X183182476Y-62414894D01*
X183188681Y-62423755D01*
X183393775Y-62745689D01*
X183399183Y-62755057D01*
X183575430Y-63093623D01*
X183580002Y-63103427D01*
X183726075Y-63456078D01*
X183729775Y-63466244D01*
X183844554Y-63830278D01*
X183847354Y-63840727D01*
X183929971Y-64213389D01*
X183931849Y-64224042D01*
X183981671Y-64602473D01*
X183982614Y-64613249D01*
X183999382Y-64997297D01*
X183999500Y-65002706D01*
X183999500Y-71085606D01*
X183979815Y-71152645D01*
X183927011Y-71198400D01*
X183857853Y-71208344D01*
X183796837Y-71181461D01*
X183793074Y-71178373D01*
X183687308Y-71107702D01*
X183687299Y-71107697D01*
X183569776Y-71059018D01*
X183569777Y-71059018D01*
X183569774Y-71059017D01*
X183569770Y-71059016D01*
X183569766Y-71059015D01*
X183445011Y-71034200D01*
X183445007Y-71034200D01*
X182098595Y-71034200D01*
X182098590Y-71034200D01*
X181973835Y-71059015D01*
X181973825Y-71059018D01*
X181856302Y-71107697D01*
X181856293Y-71107702D01*
X181750527Y-71178373D01*
X181750523Y-71178376D01*
X181660577Y-71268322D01*
X181660574Y-71268326D01*
X181589903Y-71374092D01*
X181589898Y-71374101D01*
X181541219Y-71491624D01*
X181541216Y-71491634D01*
X181516401Y-71616389D01*
X181516401Y-71743610D01*
X181541216Y-71868365D01*
X181541219Y-71868375D01*
X181589898Y-71985898D01*
X181589903Y-71985907D01*
X181660574Y-72091673D01*
X181660577Y-72091677D01*
X181750523Y-72181623D01*
X181750527Y-72181626D01*
X181856293Y-72252297D01*
X181856299Y-72252300D01*
X181856300Y-72252301D01*
X181973828Y-72300983D01*
X182069838Y-72320080D01*
X182098590Y-72325799D01*
X182098594Y-72325800D01*
X182098595Y-72325800D01*
X183445008Y-72325800D01*
X183445009Y-72325799D01*
X183569774Y-72300983D01*
X183687302Y-72252301D01*
X183793075Y-72181626D01*
X183793082Y-72181618D01*
X183796831Y-72178543D01*
X183861139Y-72151227D01*
X183930007Y-72163016D01*
X183981570Y-72210165D01*
X183999500Y-72274393D01*
X183999500Y-79725606D01*
X183979815Y-79792645D01*
X183927011Y-79838400D01*
X183857853Y-79848344D01*
X183796837Y-79821461D01*
X183793074Y-79818373D01*
X183687308Y-79747702D01*
X183687299Y-79747697D01*
X183569776Y-79699018D01*
X183569777Y-79699018D01*
X183569774Y-79699017D01*
X183569770Y-79699016D01*
X183569766Y-79699015D01*
X183445011Y-79674200D01*
X183445007Y-79674200D01*
X182098595Y-79674200D01*
X182098590Y-79674200D01*
X181973835Y-79699015D01*
X181973825Y-79699018D01*
X181856302Y-79747697D01*
X181856293Y-79747702D01*
X181750527Y-79818373D01*
X181750523Y-79818376D01*
X181660577Y-79908322D01*
X181660574Y-79908326D01*
X181589903Y-80014092D01*
X181589898Y-80014101D01*
X181541219Y-80131624D01*
X181541216Y-80131634D01*
X181516401Y-80256389D01*
X181516401Y-80383610D01*
X181541216Y-80508365D01*
X181541219Y-80508375D01*
X181589898Y-80625898D01*
X181589903Y-80625907D01*
X181660574Y-80731673D01*
X181660577Y-80731677D01*
X181750523Y-80821623D01*
X181750527Y-80821626D01*
X181856293Y-80892297D01*
X181856299Y-80892300D01*
X181856300Y-80892301D01*
X181973828Y-80940983D01*
X182098590Y-80965799D01*
X182098594Y-80965800D01*
X182098595Y-80965800D01*
X183445008Y-80965800D01*
X183445009Y-80965799D01*
X183569774Y-80940983D01*
X183687302Y-80892301D01*
X183793075Y-80821626D01*
X183793082Y-80821618D01*
X183796831Y-80818543D01*
X183861139Y-80791227D01*
X183930007Y-80803016D01*
X183981570Y-80850165D01*
X183999500Y-80914393D01*
X183999500Y-90035730D01*
X183979815Y-90102769D01*
X183927011Y-90148524D01*
X183857853Y-90158468D01*
X183794297Y-90129443D01*
X183776234Y-90110042D01*
X183707187Y-90017809D01*
X183592093Y-89931649D01*
X183592086Y-89931645D01*
X183457379Y-89881403D01*
X183457372Y-89881401D01*
X183397844Y-89875000D01*
X182864908Y-89875000D01*
X182797869Y-89855315D01*
X182752114Y-89802511D01*
X182742170Y-89733353D01*
X182771195Y-89669797D01*
X182817456Y-89636439D01*
X182973907Y-89571635D01*
X182973907Y-89571634D01*
X182973914Y-89571632D01*
X183137782Y-89462139D01*
X183277139Y-89322782D01*
X183386632Y-89158914D01*
X183462051Y-88976835D01*
X183490541Y-88833608D01*
X183500500Y-88783543D01*
X183500500Y-88586456D01*
X183462052Y-88393170D01*
X183462051Y-88393169D01*
X183462051Y-88393165D01*
X183421071Y-88294229D01*
X183386635Y-88211092D01*
X183386628Y-88211079D01*
X183277139Y-88047218D01*
X183277136Y-88047214D01*
X183137785Y-87907863D01*
X183137781Y-87907860D01*
X182973920Y-87798371D01*
X182973907Y-87798364D01*
X182791839Y-87722950D01*
X182791829Y-87722947D01*
X182598543Y-87684500D01*
X182598541Y-87684500D01*
X182401459Y-87684500D01*
X182401457Y-87684500D01*
X182208170Y-87722947D01*
X182208160Y-87722950D01*
X182026092Y-87798364D01*
X182026079Y-87798371D01*
X181862218Y-87907860D01*
X181862214Y-87907863D01*
X181722863Y-88047214D01*
X181722860Y-88047218D01*
X181613371Y-88211079D01*
X181613364Y-88211092D01*
X181537950Y-88393160D01*
X181537947Y-88393170D01*
X181499500Y-88586456D01*
X181499500Y-88586459D01*
X181499500Y-88783541D01*
X181499500Y-88783543D01*
X181499499Y-88783543D01*
X181537947Y-88976829D01*
X181537950Y-88976839D01*
X181613364Y-89158907D01*
X181613371Y-89158920D01*
X181722860Y-89322781D01*
X181722863Y-89322785D01*
X181862214Y-89462136D01*
X181862218Y-89462139D01*
X182026079Y-89571628D01*
X182026092Y-89571635D01*
X182182544Y-89636439D01*
X182236948Y-89680280D01*
X182259013Y-89746574D01*
X182241734Y-89814273D01*
X182190597Y-89861884D01*
X182135092Y-89875000D01*
X181602155Y-89875000D01*
X181542627Y-89881401D01*
X181542620Y-89881403D01*
X181407913Y-89931645D01*
X181407906Y-89931649D01*
X181292812Y-90017809D01*
X181292809Y-90017812D01*
X181206649Y-90132906D01*
X181206645Y-90132913D01*
X181156403Y-90267620D01*
X181156401Y-90267627D01*
X181150000Y-90327155D01*
X181150000Y-90975000D01*
X182066988Y-90975000D01*
X182034075Y-91032007D01*
X182000000Y-91159174D01*
X182000000Y-91290826D01*
X182034075Y-91417993D01*
X182066988Y-91475000D01*
X181150000Y-91475000D01*
X181150000Y-92122844D01*
X181156401Y-92182372D01*
X181156403Y-92182379D01*
X181206645Y-92317086D01*
X181206649Y-92317093D01*
X181292809Y-92432187D01*
X181292812Y-92432190D01*
X181407906Y-92518350D01*
X181407913Y-92518354D01*
X181542620Y-92568596D01*
X181542627Y-92568598D01*
X181602155Y-92574999D01*
X181602172Y-92575000D01*
X182250000Y-92575000D01*
X182250000Y-91658012D01*
X182307007Y-91690925D01*
X182434174Y-91725000D01*
X182565826Y-91725000D01*
X182692993Y-91690925D01*
X182750000Y-91658012D01*
X182750000Y-92575000D01*
X183397828Y-92575000D01*
X183397844Y-92574999D01*
X183457372Y-92568598D01*
X183457379Y-92568596D01*
X183592086Y-92518354D01*
X183592093Y-92518350D01*
X183707187Y-92432190D01*
X183707190Y-92432187D01*
X183776234Y-92339958D01*
X183832168Y-92298087D01*
X183901859Y-92293103D01*
X183963182Y-92326589D01*
X183996666Y-92387912D01*
X183999500Y-92414269D01*
X183999500Y-104997293D01*
X183999382Y-105002702D01*
X183982614Y-105386750D01*
X183981671Y-105397526D01*
X183931849Y-105775957D01*
X183929971Y-105786610D01*
X183847354Y-106159272D01*
X183844554Y-106169721D01*
X183729775Y-106533755D01*
X183726075Y-106543921D01*
X183580002Y-106896572D01*
X183575430Y-106906376D01*
X183399183Y-107244942D01*
X183393775Y-107254310D01*
X183188681Y-107576244D01*
X183182476Y-107585105D01*
X182950110Y-107887930D01*
X182943156Y-107896217D01*
X182685284Y-108177635D01*
X182677635Y-108185284D01*
X182396217Y-108443156D01*
X182387930Y-108450110D01*
X182085105Y-108682476D01*
X182076244Y-108688681D01*
X181754310Y-108893775D01*
X181744942Y-108899183D01*
X181406376Y-109075430D01*
X181396572Y-109080002D01*
X181043921Y-109226075D01*
X181033755Y-109229775D01*
X180669721Y-109344554D01*
X180659272Y-109347354D01*
X180286610Y-109429971D01*
X180275957Y-109431849D01*
X179897526Y-109481671D01*
X179886750Y-109482614D01*
X179502703Y-109499382D01*
X179497294Y-109499500D01*
X149519269Y-109499500D01*
X149452230Y-109479815D01*
X149406475Y-109427011D01*
X149396531Y-109357853D01*
X149425556Y-109294297D01*
X149444958Y-109276234D01*
X149537187Y-109207190D01*
X149537190Y-109207187D01*
X149623350Y-109092093D01*
X149623354Y-109092086D01*
X149673596Y-108957379D01*
X149673598Y-108957372D01*
X149679999Y-108897844D01*
X149680000Y-108897827D01*
X149680000Y-108250000D01*
X148763012Y-108250000D01*
X148795925Y-108192993D01*
X148830000Y-108065826D01*
X148830000Y-107934174D01*
X148795925Y-107807007D01*
X148763012Y-107750000D01*
X149680000Y-107750000D01*
X149680000Y-107102172D01*
X149679999Y-107102155D01*
X149673598Y-107042627D01*
X149673596Y-107042620D01*
X149623354Y-106907913D01*
X149623350Y-106907906D01*
X149537190Y-106792812D01*
X149537187Y-106792809D01*
X149422093Y-106706649D01*
X149422086Y-106706645D01*
X149287379Y-106656403D01*
X149287372Y-106656401D01*
X149227844Y-106650000D01*
X148580000Y-106650000D01*
X148580000Y-107566988D01*
X148522993Y-107534075D01*
X148395826Y-107500000D01*
X148264174Y-107500000D01*
X148137007Y-107534075D01*
X148080000Y-107566988D01*
X148080000Y-106650000D01*
X147432155Y-106650000D01*
X147372627Y-106656401D01*
X147372620Y-106656403D01*
X147237913Y-106706645D01*
X147237906Y-106706649D01*
X147122812Y-106792809D01*
X147122809Y-106792812D01*
X147036649Y-106907906D01*
X147036645Y-106907913D01*
X146986403Y-107042620D01*
X146986401Y-107042627D01*
X146980000Y-107102155D01*
X146980000Y-107635092D01*
X146960315Y-107702131D01*
X146907511Y-107747886D01*
X146838353Y-107757830D01*
X146774797Y-107728805D01*
X146741439Y-107682544D01*
X146676635Y-107526092D01*
X146676628Y-107526079D01*
X146567139Y-107362218D01*
X146567136Y-107362214D01*
X146427785Y-107222863D01*
X146427781Y-107222860D01*
X146263920Y-107113371D01*
X146263907Y-107113364D01*
X146081839Y-107037950D01*
X146081829Y-107037947D01*
X145888543Y-106999500D01*
X145888541Y-106999500D01*
X145691459Y-106999500D01*
X145691457Y-106999500D01*
X145498170Y-107037947D01*
X145498160Y-107037950D01*
X145316092Y-107113364D01*
X145316079Y-107113371D01*
X145152218Y-107222860D01*
X145152214Y-107222863D01*
X145012863Y-107362214D01*
X145012860Y-107362218D01*
X144903371Y-107526079D01*
X144903364Y-107526092D01*
X144827950Y-107708160D01*
X144827947Y-107708170D01*
X144789500Y-107901456D01*
X144789500Y-107901459D01*
X144789500Y-108098541D01*
X144789500Y-108098543D01*
X144789499Y-108098543D01*
X144827947Y-108291829D01*
X144827950Y-108291839D01*
X144903364Y-108473907D01*
X144903371Y-108473920D01*
X145012860Y-108637781D01*
X145012863Y-108637785D01*
X145152214Y-108777136D01*
X145152218Y-108777139D01*
X145316079Y-108886628D01*
X145316092Y-108886635D01*
X145498160Y-108962049D01*
X145498165Y-108962051D01*
X145498169Y-108962051D01*
X145498170Y-108962052D01*
X145691456Y-109000500D01*
X145691459Y-109000500D01*
X145888543Y-109000500D01*
X146018582Y-108974632D01*
X146081835Y-108962051D01*
X146263914Y-108886632D01*
X146427782Y-108777139D01*
X146567139Y-108637782D01*
X146676632Y-108473914D01*
X146741439Y-108317455D01*
X146785279Y-108263051D01*
X146851573Y-108240986D01*
X146919273Y-108258265D01*
X146966884Y-108309402D01*
X146980000Y-108364907D01*
X146980000Y-108897844D01*
X146986401Y-108957372D01*
X146986403Y-108957379D01*
X147036645Y-109092086D01*
X147036649Y-109092093D01*
X147122809Y-109207187D01*
X147122812Y-109207190D01*
X147215042Y-109276234D01*
X147256913Y-109332168D01*
X147261897Y-109401859D01*
X147228411Y-109463182D01*
X147167088Y-109496666D01*
X147140731Y-109499500D01*
X135999269Y-109499500D01*
X135932230Y-109479815D01*
X135886475Y-109427011D01*
X135876531Y-109357853D01*
X135905556Y-109294297D01*
X135924958Y-109276234D01*
X136017187Y-109207190D01*
X136017190Y-109207187D01*
X136103350Y-109092093D01*
X136103354Y-109092086D01*
X136153596Y-108957379D01*
X136153598Y-108957372D01*
X136159999Y-108897844D01*
X136160000Y-108897827D01*
X136160000Y-108250000D01*
X135243012Y-108250000D01*
X135275925Y-108192993D01*
X135301233Y-108098543D01*
X139709499Y-108098543D01*
X139747947Y-108291829D01*
X139747950Y-108291839D01*
X139823364Y-108473907D01*
X139823371Y-108473920D01*
X139932860Y-108637781D01*
X139932863Y-108637785D01*
X140072214Y-108777136D01*
X140072218Y-108777139D01*
X140236079Y-108886628D01*
X140236092Y-108886635D01*
X140418160Y-108962049D01*
X140418165Y-108962051D01*
X140418169Y-108962051D01*
X140418170Y-108962052D01*
X140611456Y-109000500D01*
X140611459Y-109000500D01*
X140808543Y-109000500D01*
X140938582Y-108974632D01*
X141001835Y-108962051D01*
X141183914Y-108886632D01*
X141347782Y-108777139D01*
X141487139Y-108637782D01*
X141596632Y-108473914D01*
X141672051Y-108291835D01*
X141710500Y-108098543D01*
X142249499Y-108098543D01*
X142287947Y-108291829D01*
X142287950Y-108291839D01*
X142363364Y-108473907D01*
X142363371Y-108473920D01*
X142472860Y-108637781D01*
X142472863Y-108637785D01*
X142612214Y-108777136D01*
X142612218Y-108777139D01*
X142776079Y-108886628D01*
X142776092Y-108886635D01*
X142958160Y-108962049D01*
X142958165Y-108962051D01*
X142958169Y-108962051D01*
X142958170Y-108962052D01*
X143151456Y-109000500D01*
X143151459Y-109000500D01*
X143348543Y-109000500D01*
X143478582Y-108974632D01*
X143541835Y-108962051D01*
X143723914Y-108886632D01*
X143887782Y-108777139D01*
X144027139Y-108637782D01*
X144136632Y-108473914D01*
X144212051Y-108291835D01*
X144250500Y-108098541D01*
X144250500Y-107901459D01*
X144250500Y-107901456D01*
X144212052Y-107708170D01*
X144212051Y-107708169D01*
X144212051Y-107708165D01*
X144201439Y-107682544D01*
X144136635Y-107526092D01*
X144136628Y-107526079D01*
X144027139Y-107362218D01*
X144027136Y-107362214D01*
X143887785Y-107222863D01*
X143887781Y-107222860D01*
X143723920Y-107113371D01*
X143723907Y-107113364D01*
X143541839Y-107037950D01*
X143541829Y-107037947D01*
X143348543Y-106999500D01*
X143348541Y-106999500D01*
X143151459Y-106999500D01*
X143151457Y-106999500D01*
X142958170Y-107037947D01*
X142958160Y-107037950D01*
X142776092Y-107113364D01*
X142776079Y-107113371D01*
X142612218Y-107222860D01*
X142612214Y-107222863D01*
X142472863Y-107362214D01*
X142472860Y-107362218D01*
X142363371Y-107526079D01*
X142363364Y-107526092D01*
X142287950Y-107708160D01*
X142287947Y-107708170D01*
X142249500Y-107901456D01*
X142249500Y-107901459D01*
X142249500Y-108098541D01*
X142249500Y-108098543D01*
X142249499Y-108098543D01*
X141710500Y-108098543D01*
X141710500Y-108098541D01*
X141710500Y-107901459D01*
X141710500Y-107901456D01*
X141672052Y-107708170D01*
X141672051Y-107708169D01*
X141672051Y-107708165D01*
X141661439Y-107682544D01*
X141596635Y-107526092D01*
X141596628Y-107526079D01*
X141487139Y-107362218D01*
X141487136Y-107362214D01*
X141347785Y-107222863D01*
X141347781Y-107222860D01*
X141183920Y-107113371D01*
X141183907Y-107113364D01*
X141001839Y-107037950D01*
X141001829Y-107037947D01*
X140808543Y-106999500D01*
X140808541Y-106999500D01*
X140611459Y-106999500D01*
X140611457Y-106999500D01*
X140418170Y-107037947D01*
X140418160Y-107037950D01*
X140236092Y-107113364D01*
X140236079Y-107113371D01*
X140072218Y-107222860D01*
X140072214Y-107222863D01*
X139932863Y-107362214D01*
X139932860Y-107362218D01*
X139823371Y-107526079D01*
X139823364Y-107526092D01*
X139747950Y-107708160D01*
X139747947Y-107708170D01*
X139709500Y-107901456D01*
X139709500Y-107901459D01*
X139709500Y-108098541D01*
X139709500Y-108098543D01*
X139709499Y-108098543D01*
X135301233Y-108098543D01*
X135310000Y-108065826D01*
X135310000Y-107934174D01*
X135275925Y-107807007D01*
X135243012Y-107750000D01*
X136160000Y-107750000D01*
X136160000Y-107102172D01*
X136159999Y-107102155D01*
X136153598Y-107042627D01*
X136153596Y-107042620D01*
X136103354Y-106907913D01*
X136103350Y-106907906D01*
X136017190Y-106792812D01*
X136017187Y-106792809D01*
X135902093Y-106706649D01*
X135902086Y-106706645D01*
X135767379Y-106656403D01*
X135767372Y-106656401D01*
X135707844Y-106650000D01*
X135060000Y-106650000D01*
X135060000Y-107566988D01*
X135002993Y-107534075D01*
X134875826Y-107500000D01*
X134744174Y-107500000D01*
X134617007Y-107534075D01*
X134560000Y-107566988D01*
X134560000Y-106650000D01*
X133912155Y-106650000D01*
X133852627Y-106656401D01*
X133852620Y-106656403D01*
X133717913Y-106706645D01*
X133717906Y-106706649D01*
X133602812Y-106792809D01*
X133602809Y-106792812D01*
X133516649Y-106907906D01*
X133516645Y-106907913D01*
X133466403Y-107042620D01*
X133466401Y-107042627D01*
X133460000Y-107102155D01*
X133460000Y-107635092D01*
X133440315Y-107702131D01*
X133387511Y-107747886D01*
X133318353Y-107757830D01*
X133254797Y-107728805D01*
X133221439Y-107682544D01*
X133156635Y-107526092D01*
X133156628Y-107526079D01*
X133047139Y-107362218D01*
X133047136Y-107362214D01*
X132907785Y-107222863D01*
X132907781Y-107222860D01*
X132743920Y-107113371D01*
X132743907Y-107113364D01*
X132561839Y-107037950D01*
X132561829Y-107037947D01*
X132368543Y-106999500D01*
X132368541Y-106999500D01*
X132171459Y-106999500D01*
X132171457Y-106999500D01*
X131978170Y-107037947D01*
X131978160Y-107037950D01*
X131796092Y-107113364D01*
X131796079Y-107113371D01*
X131632218Y-107222860D01*
X131632214Y-107222863D01*
X131492863Y-107362214D01*
X131492860Y-107362218D01*
X131383371Y-107526079D01*
X131383364Y-107526092D01*
X131307950Y-107708160D01*
X131307947Y-107708170D01*
X131269500Y-107901456D01*
X131269500Y-107901459D01*
X131269500Y-108098541D01*
X131269500Y-108098543D01*
X131269499Y-108098543D01*
X131307947Y-108291829D01*
X131307950Y-108291839D01*
X131383364Y-108473907D01*
X131383371Y-108473920D01*
X131492860Y-108637781D01*
X131492863Y-108637785D01*
X131632214Y-108777136D01*
X131632218Y-108777139D01*
X131796079Y-108886628D01*
X131796092Y-108886635D01*
X131978160Y-108962049D01*
X131978165Y-108962051D01*
X131978169Y-108962051D01*
X131978170Y-108962052D01*
X132171456Y-109000500D01*
X132171459Y-109000500D01*
X132368543Y-109000500D01*
X132498582Y-108974632D01*
X132561835Y-108962051D01*
X132743914Y-108886632D01*
X132907782Y-108777139D01*
X133047139Y-108637782D01*
X133156632Y-108473914D01*
X133221439Y-108317455D01*
X133265279Y-108263051D01*
X133331573Y-108240986D01*
X133399273Y-108258265D01*
X133446884Y-108309402D01*
X133460000Y-108364907D01*
X133460000Y-108897844D01*
X133466401Y-108957372D01*
X133466403Y-108957379D01*
X133516645Y-109092086D01*
X133516649Y-109092093D01*
X133602809Y-109207187D01*
X133602812Y-109207190D01*
X133695042Y-109276234D01*
X133736913Y-109332168D01*
X133741897Y-109401859D01*
X133708411Y-109463182D01*
X133647088Y-109496666D01*
X133620731Y-109499500D01*
X119502706Y-109499500D01*
X119497297Y-109499382D01*
X119113249Y-109482614D01*
X119102473Y-109481671D01*
X118724042Y-109431849D01*
X118713389Y-109429971D01*
X118340727Y-109347354D01*
X118330278Y-109344554D01*
X117966244Y-109229775D01*
X117956078Y-109226075D01*
X117603427Y-109080002D01*
X117593623Y-109075430D01*
X117255057Y-108899183D01*
X117245689Y-108893775D01*
X116923755Y-108688681D01*
X116914894Y-108682476D01*
X116612069Y-108450110D01*
X116603782Y-108443156D01*
X116322364Y-108185284D01*
X116314715Y-108177635D01*
X116242241Y-108098543D01*
X126189499Y-108098543D01*
X126227947Y-108291829D01*
X126227950Y-108291839D01*
X126303364Y-108473907D01*
X126303371Y-108473920D01*
X126412860Y-108637781D01*
X126412863Y-108637785D01*
X126552214Y-108777136D01*
X126552218Y-108777139D01*
X126716079Y-108886628D01*
X126716092Y-108886635D01*
X126898160Y-108962049D01*
X126898165Y-108962051D01*
X126898169Y-108962051D01*
X126898170Y-108962052D01*
X127091456Y-109000500D01*
X127091459Y-109000500D01*
X127288543Y-109000500D01*
X127418582Y-108974632D01*
X127481835Y-108962051D01*
X127663914Y-108886632D01*
X127827782Y-108777139D01*
X127967139Y-108637782D01*
X128076632Y-108473914D01*
X128152051Y-108291835D01*
X128190500Y-108098543D01*
X128729499Y-108098543D01*
X128767947Y-108291829D01*
X128767950Y-108291839D01*
X128843364Y-108473907D01*
X128843371Y-108473920D01*
X128952860Y-108637781D01*
X128952863Y-108637785D01*
X129092214Y-108777136D01*
X129092218Y-108777139D01*
X129256079Y-108886628D01*
X129256092Y-108886635D01*
X129438160Y-108962049D01*
X129438165Y-108962051D01*
X129438169Y-108962051D01*
X129438170Y-108962052D01*
X129631456Y-109000500D01*
X129631459Y-109000500D01*
X129828543Y-109000500D01*
X129958582Y-108974632D01*
X130021835Y-108962051D01*
X130203914Y-108886632D01*
X130367782Y-108777139D01*
X130507139Y-108637782D01*
X130616632Y-108473914D01*
X130692051Y-108291835D01*
X130730500Y-108098541D01*
X130730500Y-107901459D01*
X130730500Y-107901456D01*
X130692052Y-107708170D01*
X130692051Y-107708169D01*
X130692051Y-107708165D01*
X130681439Y-107682544D01*
X130616635Y-107526092D01*
X130616628Y-107526079D01*
X130507139Y-107362218D01*
X130507136Y-107362214D01*
X130367785Y-107222863D01*
X130367781Y-107222860D01*
X130203920Y-107113371D01*
X130203907Y-107113364D01*
X130021839Y-107037950D01*
X130021829Y-107037947D01*
X129828543Y-106999500D01*
X129828541Y-106999500D01*
X129631459Y-106999500D01*
X129631457Y-106999500D01*
X129438170Y-107037947D01*
X129438160Y-107037950D01*
X129256092Y-107113364D01*
X129256079Y-107113371D01*
X129092218Y-107222860D01*
X129092214Y-107222863D01*
X128952863Y-107362214D01*
X128952860Y-107362218D01*
X128843371Y-107526079D01*
X128843364Y-107526092D01*
X128767950Y-107708160D01*
X128767947Y-107708170D01*
X128729500Y-107901456D01*
X128729500Y-107901459D01*
X128729500Y-108098541D01*
X128729500Y-108098543D01*
X128729499Y-108098543D01*
X128190500Y-108098543D01*
X128190500Y-108098541D01*
X128190500Y-107901459D01*
X128190500Y-107901456D01*
X128152052Y-107708170D01*
X128152051Y-107708169D01*
X128152051Y-107708165D01*
X128141439Y-107682544D01*
X128076635Y-107526092D01*
X128076628Y-107526079D01*
X127967139Y-107362218D01*
X127967136Y-107362214D01*
X127827785Y-107222863D01*
X127827781Y-107222860D01*
X127663920Y-107113371D01*
X127663907Y-107113364D01*
X127481839Y-107037950D01*
X127481829Y-107037947D01*
X127288543Y-106999500D01*
X127288541Y-106999500D01*
X127091459Y-106999500D01*
X127091457Y-106999500D01*
X126898170Y-107037947D01*
X126898160Y-107037950D01*
X126716092Y-107113364D01*
X126716079Y-107113371D01*
X126552218Y-107222860D01*
X126552214Y-107222863D01*
X126412863Y-107362214D01*
X126412860Y-107362218D01*
X126303371Y-107526079D01*
X126303364Y-107526092D01*
X126227950Y-107708160D01*
X126227947Y-107708170D01*
X126189500Y-107901456D01*
X126189500Y-107901459D01*
X126189500Y-108098541D01*
X126189500Y-108098543D01*
X126189499Y-108098543D01*
X116242241Y-108098543D01*
X116132828Y-107979140D01*
X116056843Y-107896217D01*
X116049889Y-107887930D01*
X115817523Y-107585105D01*
X115811318Y-107576244D01*
X115784453Y-107534075D01*
X115606223Y-107254309D01*
X115600816Y-107244942D01*
X115532321Y-107113364D01*
X115424566Y-106906369D01*
X115419997Y-106896572D01*
X115273920Y-106543911D01*
X115270224Y-106533755D01*
X115155442Y-106169710D01*
X115152648Y-106159284D01*
X115070025Y-105786597D01*
X115068152Y-105775971D01*
X115018326Y-105397506D01*
X115017386Y-105386771D01*
X115000618Y-105002702D01*
X115000500Y-104997293D01*
X115000500Y-103534108D01*
X125399500Y-103534108D01*
X125399500Y-103665891D01*
X125433608Y-103793187D01*
X125466554Y-103850250D01*
X125499500Y-103907314D01*
X125592686Y-104000500D01*
X125706814Y-104066392D01*
X125834108Y-104100500D01*
X125834110Y-104100500D01*
X125965890Y-104100500D01*
X125965892Y-104100500D01*
X126093186Y-104066392D01*
X126207314Y-104000500D01*
X126300500Y-103907314D01*
X126366392Y-103793186D01*
X126400500Y-103665892D01*
X126400500Y-103534108D01*
X126366392Y-103406814D01*
X126300500Y-103292686D01*
X126207314Y-103199500D01*
X126150250Y-103166554D01*
X126093187Y-103133608D01*
X126029539Y-103116554D01*
X125965892Y-103099500D01*
X125834108Y-103099500D01*
X125706812Y-103133608D01*
X125592686Y-103199500D01*
X125592683Y-103199502D01*
X125499502Y-103292683D01*
X125499500Y-103292686D01*
X125433608Y-103406812D01*
X125399500Y-103534108D01*
X115000500Y-103534108D01*
X115000500Y-100034108D01*
X129699500Y-100034108D01*
X129699500Y-100165891D01*
X129733608Y-100293187D01*
X129741766Y-100307316D01*
X129799500Y-100407314D01*
X129892686Y-100500500D01*
X130006814Y-100566392D01*
X130134108Y-100600500D01*
X130134110Y-100600500D01*
X130265890Y-100600500D01*
X130265892Y-100600500D01*
X130393186Y-100566392D01*
X130507314Y-100500500D01*
X130600500Y-100407314D01*
X130666392Y-100293186D01*
X130700500Y-100165892D01*
X130700500Y-100034108D01*
X130673705Y-99934108D01*
X159589500Y-99934108D01*
X159589500Y-100065891D01*
X159623608Y-100193187D01*
X159656554Y-100250250D01*
X159689500Y-100307314D01*
X159782686Y-100400500D01*
X159896814Y-100466392D01*
X160024108Y-100500500D01*
X160024110Y-100500500D01*
X160155890Y-100500500D01*
X160155892Y-100500500D01*
X160283186Y-100466392D01*
X160397314Y-100400500D01*
X160490500Y-100307314D01*
X160556392Y-100193186D01*
X160590500Y-100065892D01*
X160590500Y-99934108D01*
X160556392Y-99806814D01*
X160490500Y-99692686D01*
X160397314Y-99599500D01*
X160340250Y-99566554D01*
X160283187Y-99533608D01*
X160219539Y-99516554D01*
X160155892Y-99499500D01*
X160024108Y-99499500D01*
X159896812Y-99533608D01*
X159782686Y-99599500D01*
X159782683Y-99599502D01*
X159689502Y-99692683D01*
X159689500Y-99692686D01*
X159623608Y-99806812D01*
X159589500Y-99934108D01*
X130673705Y-99934108D01*
X130666392Y-99906814D01*
X130600500Y-99792686D01*
X130507314Y-99699500D01*
X130424410Y-99651635D01*
X130393187Y-99633608D01*
X130323105Y-99614830D01*
X130265892Y-99599500D01*
X130134108Y-99599500D01*
X130006812Y-99633608D01*
X129892686Y-99699500D01*
X129892683Y-99699502D01*
X129799502Y-99792683D01*
X129799500Y-99792686D01*
X129733608Y-99906812D01*
X129699500Y-100034108D01*
X115000500Y-100034108D01*
X115000500Y-99343122D01*
X149174499Y-99343122D01*
X149183231Y-99387017D01*
X149183234Y-99387024D01*
X149216495Y-99436803D01*
X149216496Y-99436804D01*
X149266278Y-99470067D01*
X149266281Y-99470067D01*
X149266282Y-99470068D01*
X149310177Y-99478800D01*
X149310180Y-99478800D01*
X151289822Y-99478800D01*
X151333717Y-99470068D01*
X151333717Y-99470067D01*
X151333722Y-99470067D01*
X151383504Y-99436804D01*
X151416767Y-99387022D01*
X151425500Y-99343120D01*
X151425500Y-98237209D01*
X155325000Y-98237209D01*
X155325000Y-98469390D01*
X155361318Y-98698693D01*
X155433065Y-98919505D01*
X155538465Y-99126364D01*
X155595238Y-99204507D01*
X156198958Y-98600787D01*
X156223978Y-98661190D01*
X156295112Y-98767651D01*
X156385649Y-98858188D01*
X156492110Y-98929322D01*
X156552510Y-98954341D01*
X155948791Y-99558059D01*
X155948791Y-99558060D01*
X156026935Y-99614834D01*
X156233794Y-99720234D01*
X156454606Y-99791981D01*
X156683910Y-99828300D01*
X156916090Y-99828300D01*
X157072620Y-99803508D01*
X157145393Y-99791981D01*
X157366205Y-99720234D01*
X157573071Y-99614830D01*
X157651207Y-99558062D01*
X157651208Y-99558060D01*
X157047488Y-98954341D01*
X157107890Y-98929322D01*
X157214351Y-98858188D01*
X157304888Y-98767651D01*
X157376022Y-98661190D01*
X157401041Y-98600788D01*
X158004760Y-99204508D01*
X158004762Y-99204507D01*
X158061530Y-99126371D01*
X158166934Y-98919505D01*
X158185117Y-98863543D01*
X181499499Y-98863543D01*
X181537947Y-99056829D01*
X181537950Y-99056839D01*
X181613364Y-99238907D01*
X181613371Y-99238920D01*
X181722860Y-99402781D01*
X181722863Y-99402785D01*
X181862214Y-99542136D01*
X181862218Y-99542139D01*
X182026079Y-99651628D01*
X182026092Y-99651635D01*
X182141650Y-99699500D01*
X182208165Y-99727051D01*
X182208169Y-99727051D01*
X182208170Y-99727052D01*
X182401456Y-99765500D01*
X182401459Y-99765500D01*
X182598543Y-99765500D01*
X182728582Y-99739632D01*
X182791835Y-99727051D01*
X182973914Y-99651632D01*
X183137782Y-99542139D01*
X183277139Y-99402782D01*
X183386632Y-99238914D01*
X183462051Y-99056835D01*
X183500500Y-98863541D01*
X183500500Y-98666459D01*
X183500500Y-98666456D01*
X183462052Y-98473170D01*
X183462051Y-98473169D01*
X183462051Y-98473165D01*
X183412402Y-98353300D01*
X183386635Y-98291092D01*
X183386628Y-98291079D01*
X183277139Y-98127218D01*
X183277136Y-98127214D01*
X183137785Y-97987863D01*
X183137781Y-97987860D01*
X182973920Y-97878371D01*
X182973907Y-97878364D01*
X182791839Y-97802950D01*
X182791829Y-97802947D01*
X182598543Y-97764500D01*
X182598541Y-97764500D01*
X182401459Y-97764500D01*
X182401457Y-97764500D01*
X182208170Y-97802947D01*
X182208160Y-97802950D01*
X182026092Y-97878364D01*
X182026079Y-97878371D01*
X181862218Y-97987860D01*
X181862214Y-97987863D01*
X181722863Y-98127214D01*
X181722860Y-98127218D01*
X181613371Y-98291079D01*
X181613364Y-98291092D01*
X181537950Y-98473160D01*
X181537947Y-98473170D01*
X181499500Y-98666456D01*
X181499500Y-98666459D01*
X181499500Y-98863541D01*
X181499500Y-98863543D01*
X181499499Y-98863543D01*
X158185117Y-98863543D01*
X158238681Y-98698693D01*
X158238682Y-98698692D01*
X158247824Y-98640970D01*
X158247824Y-98640969D01*
X158275000Y-98469390D01*
X158275000Y-98237209D01*
X158238681Y-98007906D01*
X158166934Y-97787094D01*
X158061534Y-97580235D01*
X158004760Y-97502091D01*
X158004759Y-97502091D01*
X157401041Y-98105810D01*
X157376022Y-98045410D01*
X157304888Y-97938949D01*
X157214351Y-97848412D01*
X157107890Y-97777278D01*
X157047487Y-97752257D01*
X157651207Y-97148538D01*
X157573064Y-97091765D01*
X157569251Y-97089822D01*
X181499499Y-97089822D01*
X181508231Y-97133717D01*
X181508234Y-97133724D01*
X181541495Y-97183503D01*
X181541496Y-97183504D01*
X181591278Y-97216767D01*
X181591281Y-97216767D01*
X181591282Y-97216768D01*
X181635177Y-97225500D01*
X181635180Y-97225500D01*
X183364822Y-97225500D01*
X183408717Y-97216768D01*
X183408717Y-97216767D01*
X183408722Y-97216767D01*
X183458504Y-97183504D01*
X183491767Y-97133722D01*
X183500500Y-97089820D01*
X183500500Y-95360180D01*
X183500500Y-95360177D01*
X183491768Y-95316282D01*
X183491767Y-95316281D01*
X183491767Y-95316278D01*
X183458504Y-95266496D01*
X183458503Y-95266495D01*
X183408724Y-95233234D01*
X183408717Y-95233231D01*
X183364822Y-95224500D01*
X183364820Y-95224500D01*
X181635180Y-95224500D01*
X181635178Y-95224500D01*
X181591282Y-95233231D01*
X181591275Y-95233234D01*
X181541496Y-95266495D01*
X181541495Y-95266496D01*
X181508234Y-95316275D01*
X181508231Y-95316282D01*
X181499500Y-95360177D01*
X181499500Y-95360180D01*
X181499500Y-97089820D01*
X181499500Y-97089822D01*
X181499499Y-97089822D01*
X157569251Y-97089822D01*
X157366205Y-96986365D01*
X157145393Y-96914618D01*
X156916090Y-96878300D01*
X156683910Y-96878300D01*
X156454606Y-96914618D01*
X156233794Y-96986365D01*
X156026925Y-97091770D01*
X155948791Y-97148537D01*
X155948791Y-97148538D01*
X156552511Y-97752258D01*
X156492110Y-97777278D01*
X156385649Y-97848412D01*
X156295112Y-97938949D01*
X156223978Y-98045410D01*
X156198958Y-98105811D01*
X155595238Y-97502091D01*
X155595237Y-97502091D01*
X155538470Y-97580225D01*
X155433065Y-97787094D01*
X155361318Y-98007906D01*
X155325000Y-98237209D01*
X151425500Y-98237209D01*
X151425500Y-97363480D01*
X151425500Y-97363477D01*
X151416768Y-97319582D01*
X151416767Y-97319579D01*
X151416767Y-97319578D01*
X151383504Y-97269796D01*
X151383503Y-97269795D01*
X151333724Y-97236534D01*
X151333717Y-97236531D01*
X151289822Y-97227800D01*
X151289820Y-97227800D01*
X149310180Y-97227800D01*
X149310178Y-97227800D01*
X149266282Y-97236531D01*
X149266275Y-97236534D01*
X149216496Y-97269795D01*
X149216495Y-97269796D01*
X149183234Y-97319575D01*
X149183231Y-97319582D01*
X149174500Y-97363477D01*
X149174500Y-97363480D01*
X149174500Y-99343120D01*
X149174500Y-99343122D01*
X149174499Y-99343122D01*
X115000500Y-99343122D01*
X115000500Y-95934108D01*
X151499500Y-95934108D01*
X151499500Y-96065891D01*
X151533608Y-96193187D01*
X151566554Y-96250250D01*
X151599500Y-96307314D01*
X151692686Y-96400500D01*
X151806814Y-96466392D01*
X151934108Y-96500500D01*
X151934110Y-96500500D01*
X152065890Y-96500500D01*
X152065892Y-96500500D01*
X152193186Y-96466392D01*
X152307314Y-96400500D01*
X152400500Y-96307314D01*
X152466392Y-96193186D01*
X152500500Y-96065892D01*
X152500500Y-95934108D01*
X152466392Y-95806814D01*
X152400500Y-95692686D01*
X152307314Y-95599500D01*
X152250250Y-95566554D01*
X152193187Y-95533608D01*
X152129539Y-95516554D01*
X152065892Y-95499500D01*
X151934108Y-95499500D01*
X151806812Y-95533608D01*
X151692686Y-95599500D01*
X151692683Y-95599502D01*
X151599502Y-95692683D01*
X151599500Y-95692686D01*
X151533608Y-95806812D01*
X151499500Y-95934108D01*
X115000500Y-95934108D01*
X115000500Y-92534108D01*
X152899500Y-92534108D01*
X152899500Y-92665892D01*
X152916554Y-92729539D01*
X152933608Y-92793187D01*
X152941475Y-92806812D01*
X152999500Y-92907314D01*
X153092686Y-93000500D01*
X153191521Y-93057563D01*
X153205944Y-93065890D01*
X153206814Y-93066392D01*
X153334108Y-93100500D01*
X153334110Y-93100500D01*
X153465890Y-93100500D01*
X153465892Y-93100500D01*
X153593186Y-93066392D01*
X153707314Y-93000500D01*
X153707315Y-93000498D01*
X153714352Y-92996436D01*
X153715410Y-92998269D01*
X153770100Y-92977112D01*
X153838548Y-92991134D01*
X153888550Y-93039936D01*
X153900221Y-93068584D01*
X153933608Y-93193186D01*
X153999500Y-93307314D01*
X154092686Y-93400500D01*
X154206814Y-93466392D01*
X154334108Y-93500500D01*
X154334110Y-93500500D01*
X154465890Y-93500500D01*
X154465892Y-93500500D01*
X154593186Y-93466392D01*
X154707314Y-93400500D01*
X154800500Y-93307314D01*
X154866392Y-93193186D01*
X154900500Y-93065892D01*
X154900500Y-92934108D01*
X154866392Y-92806814D01*
X154800500Y-92692686D01*
X154707314Y-92599500D01*
X154650250Y-92566554D01*
X154593187Y-92533608D01*
X154529539Y-92516554D01*
X154465892Y-92499500D01*
X154334108Y-92499500D01*
X154206812Y-92533608D01*
X154135123Y-92574999D01*
X154092686Y-92599500D01*
X154092684Y-92599501D01*
X154085648Y-92603564D01*
X154084591Y-92601734D01*
X154029865Y-92622889D01*
X153961421Y-92608849D01*
X153911433Y-92560033D01*
X153899778Y-92531416D01*
X153866392Y-92406814D01*
X153800500Y-92292686D01*
X153707314Y-92199500D01*
X153650250Y-92166554D01*
X153593187Y-92133608D01*
X153529539Y-92116554D01*
X153465892Y-92099500D01*
X153334108Y-92099500D01*
X153206812Y-92133608D01*
X153092686Y-92199500D01*
X153092683Y-92199502D01*
X152999502Y-92292683D01*
X152999500Y-92292686D01*
X152933608Y-92406812D01*
X152908773Y-92499500D01*
X152899500Y-92534108D01*
X115000500Y-92534108D01*
X115000500Y-91434108D01*
X158399500Y-91434108D01*
X158399500Y-91565891D01*
X158433608Y-91693187D01*
X158451976Y-91725000D01*
X158499500Y-91807314D01*
X158592686Y-91900500D01*
X158706814Y-91966392D01*
X158834108Y-92000500D01*
X158834110Y-92000500D01*
X158965890Y-92000500D01*
X158965892Y-92000500D01*
X159093186Y-91966392D01*
X159207314Y-91900500D01*
X159300500Y-91807314D01*
X159366392Y-91693186D01*
X159400500Y-91565892D01*
X159400500Y-91434108D01*
X159366392Y-91306814D01*
X159300500Y-91192686D01*
X159207314Y-91099500D01*
X159117229Y-91047489D01*
X159093187Y-91033608D01*
X159029539Y-91016554D01*
X158965892Y-90999500D01*
X158834108Y-90999500D01*
X158706812Y-91033608D01*
X158592686Y-91099500D01*
X158592683Y-91099502D01*
X158499502Y-91192683D01*
X158499500Y-91192686D01*
X158433608Y-91306812D01*
X158399500Y-91434108D01*
X115000500Y-91434108D01*
X115000500Y-89234108D01*
X128099500Y-89234108D01*
X128099500Y-89365892D01*
X128116554Y-89429539D01*
X128133608Y-89493187D01*
X128166554Y-89550250D01*
X128199500Y-89607314D01*
X128292686Y-89700500D01*
X128406814Y-89766392D01*
X128534108Y-89800500D01*
X128534110Y-89800500D01*
X128665890Y-89800500D01*
X128665892Y-89800500D01*
X128793186Y-89766392D01*
X128907314Y-89700500D01*
X129000500Y-89607314D01*
X129066392Y-89493186D01*
X129082222Y-89434108D01*
X137599500Y-89434108D01*
X137599500Y-89565892D01*
X137616554Y-89629539D01*
X137633608Y-89693187D01*
X137656798Y-89733353D01*
X137699500Y-89807314D01*
X137792686Y-89900500D01*
X137906814Y-89966392D01*
X138034108Y-90000500D01*
X138034110Y-90000500D01*
X138165890Y-90000500D01*
X138165892Y-90000500D01*
X138293186Y-89966392D01*
X138407314Y-89900500D01*
X138500500Y-89807314D01*
X138566392Y-89693186D01*
X138600500Y-89565892D01*
X138600500Y-89434108D01*
X138566392Y-89306814D01*
X138500500Y-89192686D01*
X138407314Y-89099500D01*
X138350250Y-89066554D01*
X138294053Y-89034108D01*
X154299500Y-89034108D01*
X154299500Y-89165892D01*
X154316554Y-89229539D01*
X154333608Y-89293187D01*
X154350695Y-89322782D01*
X154399500Y-89407314D01*
X154492686Y-89500500D01*
X154591521Y-89557563D01*
X154605944Y-89565890D01*
X154606814Y-89566392D01*
X154708442Y-89593623D01*
X154768102Y-89629987D01*
X154798631Y-89692834D01*
X154790337Y-89762209D01*
X154745851Y-89816087D01*
X154714314Y-89830490D01*
X154714318Y-89830500D01*
X154714061Y-89830606D01*
X154708447Y-89833170D01*
X154707873Y-89833324D01*
X154706812Y-89833608D01*
X154592686Y-89899500D01*
X154592683Y-89899502D01*
X154499502Y-89992683D01*
X154499500Y-89992686D01*
X154433608Y-90106812D01*
X154399500Y-90234108D01*
X154399500Y-90365891D01*
X154433608Y-90493187D01*
X154466554Y-90550250D01*
X154499500Y-90607314D01*
X154592686Y-90700500D01*
X154706814Y-90766392D01*
X154834108Y-90800500D01*
X154834110Y-90800500D01*
X154965890Y-90800500D01*
X154965892Y-90800500D01*
X155093186Y-90766392D01*
X155207314Y-90700500D01*
X155300500Y-90607314D01*
X155366392Y-90493186D01*
X155400500Y-90365892D01*
X155400500Y-90334108D01*
X166999500Y-90334108D01*
X166999500Y-90465891D01*
X167033608Y-90593187D01*
X167041766Y-90607316D01*
X167099500Y-90707314D01*
X167192686Y-90800500D01*
X167306814Y-90866392D01*
X167434108Y-90900500D01*
X167434110Y-90900500D01*
X167565890Y-90900500D01*
X167565892Y-90900500D01*
X167693186Y-90866392D01*
X167807314Y-90800500D01*
X167900500Y-90707314D01*
X167966392Y-90593186D01*
X168000500Y-90465892D01*
X168000500Y-90334108D01*
X167966392Y-90206814D01*
X167900500Y-90092686D01*
X167807314Y-89999500D01*
X167749968Y-89966391D01*
X167693187Y-89933608D01*
X167629539Y-89916554D01*
X167565892Y-89899500D01*
X167434108Y-89899500D01*
X167306812Y-89933608D01*
X167192686Y-89999500D01*
X167192683Y-89999502D01*
X167099502Y-90092683D01*
X167099500Y-90092686D01*
X167033608Y-90206812D01*
X166999500Y-90334108D01*
X155400500Y-90334108D01*
X155400500Y-90234108D01*
X155366392Y-90106814D01*
X155300500Y-89992686D01*
X155207314Y-89899500D01*
X155093186Y-89833608D01*
X154991556Y-89806376D01*
X154931897Y-89770012D01*
X154901368Y-89707165D01*
X154909663Y-89637789D01*
X154954148Y-89583911D01*
X154985686Y-89569509D01*
X154985682Y-89569500D01*
X154985957Y-89569385D01*
X154991559Y-89566827D01*
X154993186Y-89566392D01*
X155107314Y-89500500D01*
X155200500Y-89407314D01*
X155266392Y-89293186D01*
X155300500Y-89165892D01*
X155300500Y-89034108D01*
X155266392Y-88906814D01*
X155200500Y-88792686D01*
X155107314Y-88699500D01*
X155012296Y-88644641D01*
X154993187Y-88633608D01*
X154929539Y-88616554D01*
X154865892Y-88599500D01*
X154734108Y-88599500D01*
X154606812Y-88633608D01*
X154492686Y-88699500D01*
X154492683Y-88699502D01*
X154399502Y-88792683D01*
X154399500Y-88792686D01*
X154333608Y-88906812D01*
X154314846Y-88976835D01*
X154299500Y-89034108D01*
X138294053Y-89034108D01*
X138293187Y-89033608D01*
X138229539Y-89016554D01*
X138165892Y-88999500D01*
X138034108Y-88999500D01*
X137906812Y-89033608D01*
X137792686Y-89099500D01*
X137792683Y-89099502D01*
X137699502Y-89192683D01*
X137699500Y-89192686D01*
X137633608Y-89306812D01*
X137617778Y-89365892D01*
X137599500Y-89434108D01*
X129082222Y-89434108D01*
X129100500Y-89365892D01*
X129100500Y-89234108D01*
X129066392Y-89106814D01*
X129000500Y-88992686D01*
X128907314Y-88899500D01*
X128839972Y-88860620D01*
X128793187Y-88833608D01*
X128729539Y-88816554D01*
X128665892Y-88799500D01*
X128534108Y-88799500D01*
X128406812Y-88833608D01*
X128292686Y-88899500D01*
X128292683Y-88899502D01*
X128199502Y-88992683D01*
X128199500Y-88992686D01*
X128133608Y-89106812D01*
X128117778Y-89165892D01*
X128099500Y-89234108D01*
X115000500Y-89234108D01*
X115000500Y-86734108D01*
X128399500Y-86734108D01*
X128399500Y-86865892D01*
X128408505Y-86899500D01*
X128433608Y-86993187D01*
X128441475Y-87006812D01*
X128499500Y-87107314D01*
X128592686Y-87200500D01*
X128706814Y-87266392D01*
X128834108Y-87300500D01*
X128834110Y-87300500D01*
X128965890Y-87300500D01*
X128965892Y-87300500D01*
X129093186Y-87266392D01*
X129207314Y-87200500D01*
X129273706Y-87134108D01*
X140199500Y-87134108D01*
X140199500Y-87265892D01*
X140208505Y-87299500D01*
X140233608Y-87393187D01*
X140266554Y-87450250D01*
X140299500Y-87507314D01*
X140392686Y-87600500D01*
X140506814Y-87666392D01*
X140634108Y-87700500D01*
X140634110Y-87700500D01*
X140765890Y-87700500D01*
X140765892Y-87700500D01*
X140893186Y-87666392D01*
X141007314Y-87600500D01*
X141100500Y-87507314D01*
X141166392Y-87393186D01*
X141182222Y-87334108D01*
X154599500Y-87334108D01*
X154599500Y-87465892D01*
X154610918Y-87508506D01*
X154633608Y-87593187D01*
X154641475Y-87606812D01*
X154699500Y-87707314D01*
X154792686Y-87800500D01*
X154891521Y-87857563D01*
X154905944Y-87865890D01*
X154906814Y-87866392D01*
X155034108Y-87900500D01*
X155034110Y-87900500D01*
X155165890Y-87900500D01*
X155165892Y-87900500D01*
X155293186Y-87866392D01*
X155407314Y-87800500D01*
X155487819Y-87719995D01*
X155549142Y-87686510D01*
X155618834Y-87691494D01*
X155674767Y-87733366D01*
X155699184Y-87798830D01*
X155699500Y-87807676D01*
X155699500Y-87865892D01*
X155710746Y-87907863D01*
X155733608Y-87993187D01*
X155764801Y-88047214D01*
X155799500Y-88107314D01*
X155892686Y-88200500D01*
X156006814Y-88266392D01*
X156134108Y-88300500D01*
X156134110Y-88300500D01*
X156265890Y-88300500D01*
X156265892Y-88300500D01*
X156289296Y-88294229D01*
X156862440Y-88294229D01*
X156862440Y-88426012D01*
X156896548Y-88553308D01*
X156929494Y-88610371D01*
X156962440Y-88667435D01*
X157055626Y-88760621D01*
X157169754Y-88826513D01*
X157297048Y-88860621D01*
X157297050Y-88860621D01*
X157428830Y-88860621D01*
X157428832Y-88860621D01*
X157556126Y-88826513D01*
X157670254Y-88760621D01*
X157763440Y-88667435D01*
X157829332Y-88553307D01*
X157863440Y-88426013D01*
X157863440Y-88294229D01*
X157829332Y-88166935D01*
X157829331Y-88166933D01*
X157829331Y-88166932D01*
X157828923Y-88166226D01*
X157828922Y-88166225D01*
X157797821Y-88112357D01*
X164521251Y-88112357D01*
X164521251Y-88244141D01*
X164536352Y-88300499D01*
X164555359Y-88371436D01*
X164586869Y-88426011D01*
X164621251Y-88485563D01*
X164714437Y-88578749D01*
X164828565Y-88644641D01*
X164955859Y-88678749D01*
X164955861Y-88678749D01*
X165087641Y-88678749D01*
X165087643Y-88678749D01*
X165214937Y-88644641D01*
X165329065Y-88578749D01*
X165422251Y-88485563D01*
X165488143Y-88371435D01*
X165522251Y-88244141D01*
X165522251Y-88112357D01*
X165488143Y-87985063D01*
X165422251Y-87870935D01*
X165329065Y-87777749D01*
X165272001Y-87744803D01*
X165214938Y-87711857D01*
X165151290Y-87694803D01*
X165087643Y-87677749D01*
X164955859Y-87677749D01*
X164828563Y-87711857D01*
X164714437Y-87777749D01*
X164714434Y-87777751D01*
X164621253Y-87870932D01*
X164621251Y-87870935D01*
X164555359Y-87985061D01*
X164553182Y-87993186D01*
X164521251Y-88112357D01*
X157797821Y-88112357D01*
X157763440Y-88052807D01*
X157670254Y-87959621D01*
X157580607Y-87907863D01*
X157556127Y-87893729D01*
X157492479Y-87876675D01*
X157428832Y-87859621D01*
X157297048Y-87859621D01*
X157169752Y-87893729D01*
X157055626Y-87959621D01*
X157055623Y-87959623D01*
X156962442Y-88052804D01*
X156962440Y-88052807D01*
X156896548Y-88166933D01*
X156862440Y-88294229D01*
X156289296Y-88294229D01*
X156393186Y-88266392D01*
X156507314Y-88200500D01*
X156600500Y-88107314D01*
X156666392Y-87993186D01*
X156700500Y-87865892D01*
X156700500Y-87734108D01*
X156666392Y-87606814D01*
X156600500Y-87492686D01*
X156507314Y-87399500D01*
X156450250Y-87366554D01*
X156393187Y-87333608D01*
X156329539Y-87316554D01*
X156265892Y-87299500D01*
X156134108Y-87299500D01*
X156006812Y-87333608D01*
X155892686Y-87399500D01*
X155892683Y-87399502D01*
X155812181Y-87480005D01*
X155750858Y-87513490D01*
X155681166Y-87508506D01*
X155625233Y-87466634D01*
X155600816Y-87401170D01*
X155600500Y-87392324D01*
X155600500Y-87334110D01*
X155600500Y-87334108D01*
X155566392Y-87206814D01*
X155500500Y-87092686D01*
X155407314Y-86999500D01*
X155350250Y-86966554D01*
X155293187Y-86933608D01*
X155229539Y-86916554D01*
X155165892Y-86899500D01*
X155034108Y-86899500D01*
X154906812Y-86933608D01*
X154792686Y-86999500D01*
X154792683Y-86999502D01*
X154699502Y-87092683D01*
X154699500Y-87092686D01*
X154633608Y-87206812D01*
X154617644Y-87266392D01*
X154599500Y-87334108D01*
X141182222Y-87334108D01*
X141200500Y-87265892D01*
X141200500Y-87134108D01*
X141166392Y-87006814D01*
X141100500Y-86892686D01*
X141007314Y-86799500D01*
X140950250Y-86766554D01*
X140893187Y-86733608D01*
X140829539Y-86716554D01*
X140765892Y-86699500D01*
X140634108Y-86699500D01*
X140506812Y-86733608D01*
X140392686Y-86799500D01*
X140392683Y-86799502D01*
X140299502Y-86892683D01*
X140299500Y-86892686D01*
X140233608Y-87006812D01*
X140210600Y-87092683D01*
X140199500Y-87134108D01*
X129273706Y-87134108D01*
X129300500Y-87107314D01*
X129313023Y-87085622D01*
X129325520Y-87063980D01*
X129362745Y-86999502D01*
X129366392Y-86993186D01*
X129400500Y-86865892D01*
X129400500Y-86734108D01*
X129366392Y-86606814D01*
X129300500Y-86492686D01*
X129207314Y-86399500D01*
X129150250Y-86366554D01*
X129093187Y-86333608D01*
X129029539Y-86316554D01*
X128965892Y-86299500D01*
X128834108Y-86299500D01*
X128706812Y-86333608D01*
X128592686Y-86399500D01*
X128592683Y-86399502D01*
X128499502Y-86492683D01*
X128499500Y-86492686D01*
X128433608Y-86606812D01*
X128408773Y-86699500D01*
X128399500Y-86734108D01*
X115000500Y-86734108D01*
X115000500Y-84134108D01*
X133473696Y-84134108D01*
X133473696Y-84265891D01*
X133507804Y-84393187D01*
X133540750Y-84450250D01*
X133573696Y-84507314D01*
X133666882Y-84600500D01*
X133781010Y-84666392D01*
X133908304Y-84700500D01*
X133908306Y-84700500D01*
X134040086Y-84700500D01*
X134040088Y-84700500D01*
X134167382Y-84666392D01*
X134281510Y-84600500D01*
X134374696Y-84507314D01*
X134416962Y-84434108D01*
X157999500Y-84434108D01*
X157999500Y-84565891D01*
X158033608Y-84693187D01*
X158066554Y-84750250D01*
X158099500Y-84807314D01*
X158192686Y-84900500D01*
X158306814Y-84966392D01*
X158434108Y-85000500D01*
X158434110Y-85000500D01*
X158565890Y-85000500D01*
X158565892Y-85000500D01*
X158693186Y-84966392D01*
X158807314Y-84900500D01*
X158900500Y-84807314D01*
X158966392Y-84693186D01*
X159000500Y-84565892D01*
X159000500Y-84434108D01*
X158966392Y-84306814D01*
X158900500Y-84192686D01*
X158807314Y-84099500D01*
X158750250Y-84066554D01*
X158693187Y-84033608D01*
X158593188Y-84006814D01*
X158565892Y-83999500D01*
X158434108Y-83999500D01*
X158306812Y-84033608D01*
X158192686Y-84099500D01*
X158192683Y-84099502D01*
X158099502Y-84192683D01*
X158099500Y-84192686D01*
X158033608Y-84306812D01*
X157999500Y-84434108D01*
X134416962Y-84434108D01*
X134440588Y-84393186D01*
X134474696Y-84265892D01*
X134474696Y-84134108D01*
X134440588Y-84006814D01*
X134374696Y-83892686D01*
X134281510Y-83799500D01*
X134224446Y-83766554D01*
X134167383Y-83733608D01*
X134103735Y-83716554D01*
X134040088Y-83699500D01*
X133908304Y-83699500D01*
X133781008Y-83733608D01*
X133666882Y-83799500D01*
X133666879Y-83799502D01*
X133573698Y-83892683D01*
X133573696Y-83892686D01*
X133507804Y-84006812D01*
X133473696Y-84134108D01*
X115000500Y-84134108D01*
X115000500Y-82834108D01*
X136699500Y-82834108D01*
X136699500Y-82965892D01*
X136716554Y-83029539D01*
X136733608Y-83093187D01*
X136766554Y-83150250D01*
X136799500Y-83207314D01*
X136892686Y-83300500D01*
X137006814Y-83366392D01*
X137134108Y-83400500D01*
X137134110Y-83400500D01*
X137265890Y-83400500D01*
X137265892Y-83400500D01*
X137393186Y-83366392D01*
X137507314Y-83300500D01*
X137600500Y-83207314D01*
X137666392Y-83093186D01*
X137700500Y-82965892D01*
X137700500Y-82834108D01*
X137666392Y-82706814D01*
X137600500Y-82592686D01*
X137507314Y-82499500D01*
X137450250Y-82466554D01*
X137393187Y-82433608D01*
X137329539Y-82416554D01*
X137265892Y-82399500D01*
X137134108Y-82399500D01*
X137006812Y-82433608D01*
X136892686Y-82499500D01*
X136892683Y-82499502D01*
X136799502Y-82592683D01*
X136799500Y-82592686D01*
X136733608Y-82706812D01*
X136717778Y-82765892D01*
X136699500Y-82834108D01*
X115000500Y-82834108D01*
X115000500Y-81334108D01*
X154599500Y-81334108D01*
X154599500Y-81465892D01*
X154608773Y-81500499D01*
X154633608Y-81593187D01*
X154656946Y-81633608D01*
X154699500Y-81707314D01*
X154792686Y-81800500D01*
X154891521Y-81857563D01*
X154905944Y-81865890D01*
X154906814Y-81866392D01*
X155034108Y-81900500D01*
X155034110Y-81900500D01*
X155100695Y-81900500D01*
X155167734Y-81920185D01*
X155213489Y-81972989D01*
X155221430Y-82025981D01*
X155224500Y-82025981D01*
X155224500Y-82165891D01*
X155258608Y-82293187D01*
X155267959Y-82309383D01*
X155324500Y-82407314D01*
X155417686Y-82500500D01*
X155531814Y-82566392D01*
X155659108Y-82600500D01*
X155659110Y-82600500D01*
X155790890Y-82600500D01*
X155790892Y-82600500D01*
X155918186Y-82566392D01*
X156014532Y-82510766D01*
X156082429Y-82494294D01*
X156148456Y-82517146D01*
X156191647Y-82572067D01*
X156198421Y-82625981D01*
X156199500Y-82625981D01*
X156199500Y-82765891D01*
X156233608Y-82893187D01*
X156266554Y-82950250D01*
X156299500Y-83007314D01*
X156392686Y-83100500D01*
X156506814Y-83166392D01*
X156634108Y-83200500D01*
X156634110Y-83200500D01*
X156765890Y-83200500D01*
X156765892Y-83200500D01*
X156893186Y-83166392D01*
X157007314Y-83100500D01*
X157100500Y-83007314D01*
X157166392Y-82893186D01*
X157200500Y-82765892D01*
X157200500Y-82634108D01*
X162699500Y-82634108D01*
X162699500Y-82765891D01*
X162733608Y-82893187D01*
X162766554Y-82950250D01*
X162799500Y-83007314D01*
X162892686Y-83100500D01*
X163006814Y-83166392D01*
X163134108Y-83200500D01*
X163134110Y-83200500D01*
X163265890Y-83200500D01*
X163265892Y-83200500D01*
X163393186Y-83166392D01*
X163507314Y-83100500D01*
X163600500Y-83007314D01*
X163666392Y-82893186D01*
X163700500Y-82765892D01*
X163700500Y-82634108D01*
X163666392Y-82506814D01*
X163654663Y-82486500D01*
X163638191Y-82418601D01*
X163661043Y-82352574D01*
X163715964Y-82309383D01*
X163762051Y-82300500D01*
X163865890Y-82300500D01*
X163865892Y-82300500D01*
X163993186Y-82266392D01*
X164107314Y-82200500D01*
X164200500Y-82107314D01*
X164266392Y-81993186D01*
X164300500Y-81865892D01*
X164300500Y-81734108D01*
X164266392Y-81606814D01*
X164200500Y-81492686D01*
X164107314Y-81399500D01*
X164049968Y-81366391D01*
X163993187Y-81333608D01*
X163929539Y-81316554D01*
X163865892Y-81299500D01*
X163734108Y-81299500D01*
X163606812Y-81333608D01*
X163492686Y-81399500D01*
X163492683Y-81399502D01*
X163399502Y-81492683D01*
X163399500Y-81492686D01*
X163333608Y-81606812D01*
X163306680Y-81707313D01*
X163299500Y-81734108D01*
X163299500Y-81865892D01*
X163310465Y-81906814D01*
X163333608Y-81993186D01*
X163345336Y-82013499D01*
X163361809Y-82081399D01*
X163338957Y-82147426D01*
X163284036Y-82190617D01*
X163237949Y-82199500D01*
X163134108Y-82199500D01*
X163006812Y-82233608D01*
X162892686Y-82299500D01*
X162892683Y-82299502D01*
X162799502Y-82392683D01*
X162799500Y-82392686D01*
X162733608Y-82506812D01*
X162699500Y-82634108D01*
X157200500Y-82634108D01*
X157166392Y-82506814D01*
X157100500Y-82392686D01*
X157007314Y-82299500D01*
X156949968Y-82266391D01*
X156893187Y-82233608D01*
X156829539Y-82216554D01*
X156765892Y-82199500D01*
X156634108Y-82199500D01*
X156506814Y-82233608D01*
X156506813Y-82233608D01*
X156506811Y-82233609D01*
X156506810Y-82233609D01*
X156410469Y-82289232D01*
X156342569Y-82305705D01*
X156276542Y-82282852D01*
X156233351Y-82227931D01*
X156226582Y-82174019D01*
X156225500Y-82174019D01*
X156225500Y-82034110D01*
X156225500Y-82034108D01*
X156191392Y-81906814D01*
X156125500Y-81792686D01*
X156032314Y-81699500D01*
X155975250Y-81666554D01*
X155918187Y-81633608D01*
X155818188Y-81606814D01*
X155790892Y-81599500D01*
X155724305Y-81599500D01*
X155657266Y-81579815D01*
X155611511Y-81527011D01*
X155603570Y-81474019D01*
X155600500Y-81474019D01*
X155600500Y-81334110D01*
X155600500Y-81334108D01*
X155566392Y-81206814D01*
X155500500Y-81092686D01*
X155407314Y-80999500D01*
X155305960Y-80940983D01*
X155293188Y-80933609D01*
X155293187Y-80933608D01*
X155293186Y-80933608D01*
X155165892Y-80899500D01*
X155034108Y-80899500D01*
X154906812Y-80933608D01*
X154792686Y-80999500D01*
X154792683Y-80999502D01*
X154699502Y-81092683D01*
X154699500Y-81092686D01*
X154633608Y-81206812D01*
X154633473Y-81207316D01*
X154599500Y-81334108D01*
X115000500Y-81334108D01*
X115000500Y-80834108D01*
X160299500Y-80834108D01*
X160299500Y-80965891D01*
X160333608Y-81093187D01*
X160333610Y-81093190D01*
X160399500Y-81207314D01*
X160492686Y-81300500D01*
X160606814Y-81366392D01*
X160734108Y-81400500D01*
X160734110Y-81400500D01*
X160865890Y-81400500D01*
X160865892Y-81400500D01*
X160993186Y-81366392D01*
X161107314Y-81300500D01*
X161200500Y-81207314D01*
X161266392Y-81093186D01*
X161266826Y-81091563D01*
X161267567Y-81090347D01*
X161269500Y-81085682D01*
X161270227Y-81085983D01*
X161303184Y-81031904D01*
X161366028Y-81001370D01*
X161435405Y-81009658D01*
X161489286Y-81054139D01*
X161506376Y-81091556D01*
X161533608Y-81193186D01*
X161599500Y-81307314D01*
X161692686Y-81400500D01*
X161806814Y-81466392D01*
X161934108Y-81500500D01*
X161934110Y-81500500D01*
X162065890Y-81500500D01*
X162065892Y-81500500D01*
X162193186Y-81466392D01*
X162307314Y-81400500D01*
X162400500Y-81307314D01*
X162466392Y-81193186D01*
X162500500Y-81065892D01*
X162500500Y-80934108D01*
X162466392Y-80806814D01*
X162400500Y-80692686D01*
X162307314Y-80599500D01*
X162250250Y-80566554D01*
X162193187Y-80533608D01*
X162099014Y-80508375D01*
X162065892Y-80499500D01*
X161934108Y-80499500D01*
X161806812Y-80533608D01*
X161692686Y-80599500D01*
X161692683Y-80599502D01*
X161599502Y-80692683D01*
X161599500Y-80692686D01*
X161533608Y-80806812D01*
X161533171Y-80808446D01*
X161532425Y-80809668D01*
X161530500Y-80814318D01*
X161529774Y-80814017D01*
X161496803Y-80868105D01*
X161433955Y-80898632D01*
X161364580Y-80890334D01*
X161310704Y-80845847D01*
X161293623Y-80808444D01*
X161266392Y-80706814D01*
X161200500Y-80592686D01*
X161107314Y-80499500D01*
X161050250Y-80466554D01*
X160993187Y-80433608D01*
X160915413Y-80412769D01*
X160865892Y-80399500D01*
X160734108Y-80399500D01*
X160606812Y-80433608D01*
X160492686Y-80499500D01*
X160492683Y-80499502D01*
X160399502Y-80592683D01*
X160399500Y-80592686D01*
X160333608Y-80706812D01*
X160299500Y-80834108D01*
X115000500Y-80834108D01*
X115000500Y-79634108D01*
X128799500Y-79634108D01*
X128799500Y-79765892D01*
X128808141Y-79798142D01*
X128833608Y-79893187D01*
X128842349Y-79908326D01*
X128899500Y-80007314D01*
X128992686Y-80100500D01*
X129106814Y-80166392D01*
X129234108Y-80200500D01*
X129234110Y-80200500D01*
X129365890Y-80200500D01*
X129365892Y-80200500D01*
X129493186Y-80166392D01*
X129549103Y-80134108D01*
X146599500Y-80134108D01*
X146599500Y-80265891D01*
X146633608Y-80393187D01*
X146644916Y-80412772D01*
X146699500Y-80507314D01*
X146792686Y-80600500D01*
X146906814Y-80666392D01*
X147034108Y-80700500D01*
X147034110Y-80700500D01*
X147165890Y-80700500D01*
X147165892Y-80700500D01*
X147293186Y-80666392D01*
X147407314Y-80600500D01*
X147500500Y-80507314D01*
X147566392Y-80393186D01*
X147600500Y-80265892D01*
X147600500Y-80134108D01*
X147575167Y-80039564D01*
X155004956Y-80039564D01*
X155004956Y-80171347D01*
X155039064Y-80298643D01*
X155072010Y-80355706D01*
X155104956Y-80412770D01*
X155198142Y-80505956D01*
X155312270Y-80571848D01*
X155439564Y-80605956D01*
X155439566Y-80605956D01*
X155571346Y-80605956D01*
X155571348Y-80605956D01*
X155698642Y-80571848D01*
X155812770Y-80505956D01*
X155905956Y-80412770D01*
X155971848Y-80298642D01*
X155989140Y-80234108D01*
X168999500Y-80234108D01*
X168999500Y-80365892D01*
X169006813Y-80393186D01*
X169033608Y-80493187D01*
X169056946Y-80533608D01*
X169099500Y-80607314D01*
X169192686Y-80700500D01*
X169306814Y-80766392D01*
X169434108Y-80800500D01*
X169434110Y-80800500D01*
X169565890Y-80800500D01*
X169565892Y-80800500D01*
X169693186Y-80766392D01*
X169807314Y-80700500D01*
X169900500Y-80607314D01*
X169966392Y-80493186D01*
X170000500Y-80365892D01*
X170000500Y-80256389D01*
X177719600Y-80256389D01*
X177719600Y-80383610D01*
X177744415Y-80508365D01*
X177744418Y-80508375D01*
X177793097Y-80625898D01*
X177793102Y-80625907D01*
X177863773Y-80731673D01*
X177863776Y-80731677D01*
X177953722Y-80821623D01*
X177953726Y-80821626D01*
X178059492Y-80892297D01*
X178059498Y-80892300D01*
X178059499Y-80892301D01*
X178177027Y-80940983D01*
X178301789Y-80965799D01*
X178301793Y-80965800D01*
X178301794Y-80965800D01*
X179241807Y-80965800D01*
X179241808Y-80965799D01*
X179366573Y-80940983D01*
X179484101Y-80892301D01*
X179589874Y-80821626D01*
X179679826Y-80731674D01*
X179750501Y-80625901D01*
X179799183Y-80508373D01*
X179824000Y-80383606D01*
X179824000Y-80256394D01*
X179799183Y-80131627D01*
X179750501Y-80014099D01*
X179750500Y-80014098D01*
X179750497Y-80014092D01*
X179679826Y-79908326D01*
X179679823Y-79908322D01*
X179589877Y-79818376D01*
X179589873Y-79818373D01*
X179484107Y-79747702D01*
X179484098Y-79747697D01*
X179366575Y-79699018D01*
X179366576Y-79699018D01*
X179366573Y-79699017D01*
X179366569Y-79699016D01*
X179366565Y-79699015D01*
X179241810Y-79674200D01*
X179241806Y-79674200D01*
X178301794Y-79674200D01*
X178301789Y-79674200D01*
X178177034Y-79699015D01*
X178177024Y-79699018D01*
X178059501Y-79747697D01*
X178059492Y-79747702D01*
X177953726Y-79818373D01*
X177953722Y-79818376D01*
X177863776Y-79908322D01*
X177863773Y-79908326D01*
X177793102Y-80014092D01*
X177793097Y-80014101D01*
X177744418Y-80131624D01*
X177744415Y-80131634D01*
X177719600Y-80256389D01*
X170000500Y-80256389D01*
X170000500Y-80234108D01*
X169966392Y-80106814D01*
X169900500Y-79992686D01*
X169807314Y-79899500D01*
X169750250Y-79866554D01*
X169693187Y-79833608D01*
X169629539Y-79816554D01*
X169565892Y-79799500D01*
X169434108Y-79799500D01*
X169306812Y-79833608D01*
X169192686Y-79899500D01*
X169192683Y-79899502D01*
X169099502Y-79992683D01*
X169099500Y-79992686D01*
X169033608Y-80106812D01*
X169016316Y-80171348D01*
X168999500Y-80234108D01*
X155989140Y-80234108D01*
X156005956Y-80171348D01*
X156005956Y-80039564D01*
X155971848Y-79912270D01*
X155905956Y-79798142D01*
X155812770Y-79704956D01*
X155755706Y-79672010D01*
X155698643Y-79639064D01*
X155634995Y-79622010D01*
X155571348Y-79604956D01*
X155439564Y-79604956D01*
X155312268Y-79639064D01*
X155198142Y-79704956D01*
X155198139Y-79704958D01*
X155104958Y-79798139D01*
X155104956Y-79798142D01*
X155039064Y-79912268D01*
X155004956Y-80039564D01*
X147575167Y-80039564D01*
X147566392Y-80006814D01*
X147500500Y-79892686D01*
X147407314Y-79799500D01*
X147349100Y-79765890D01*
X147293187Y-79733608D01*
X147229539Y-79716554D01*
X147165892Y-79699500D01*
X147034108Y-79699500D01*
X146906812Y-79733608D01*
X146792686Y-79799500D01*
X146792683Y-79799502D01*
X146699502Y-79892683D01*
X146699500Y-79892686D01*
X146633608Y-80006812D01*
X146599500Y-80134108D01*
X129549103Y-80134108D01*
X129607314Y-80100500D01*
X129700500Y-80007314D01*
X129766392Y-79893186D01*
X129800500Y-79765892D01*
X129800500Y-79634108D01*
X129766392Y-79506814D01*
X129700500Y-79392686D01*
X129607314Y-79299500D01*
X129549968Y-79266391D01*
X129493187Y-79233608D01*
X129429539Y-79216554D01*
X129365892Y-79199500D01*
X129234108Y-79199500D01*
X129106812Y-79233608D01*
X128992686Y-79299500D01*
X128992683Y-79299502D01*
X128899502Y-79392683D01*
X128899500Y-79392686D01*
X128833608Y-79506812D01*
X128807311Y-79604956D01*
X128799500Y-79634108D01*
X115000500Y-79634108D01*
X115000500Y-78734108D01*
X147999500Y-78734108D01*
X147999500Y-78865891D01*
X148033608Y-78993187D01*
X148066554Y-79050250D01*
X148099500Y-79107314D01*
X148192686Y-79200500D01*
X148306814Y-79266392D01*
X148434108Y-79300500D01*
X148434110Y-79300500D01*
X148565890Y-79300500D01*
X148565892Y-79300500D01*
X148693186Y-79266392D01*
X148807314Y-79200500D01*
X148900500Y-79107314D01*
X148966392Y-78993186D01*
X149000500Y-78865892D01*
X149000500Y-78734108D01*
X148966392Y-78606814D01*
X148900500Y-78492686D01*
X148807314Y-78399500D01*
X148750250Y-78366554D01*
X148694053Y-78334108D01*
X160299500Y-78334108D01*
X160299500Y-78465892D01*
X160308505Y-78499500D01*
X160333608Y-78593187D01*
X160350554Y-78622538D01*
X160399500Y-78707314D01*
X160492686Y-78800500D01*
X160591521Y-78857563D01*
X160605944Y-78865890D01*
X160606814Y-78866392D01*
X160734108Y-78900500D01*
X160734110Y-78900500D01*
X160865890Y-78900500D01*
X160865892Y-78900500D01*
X160993186Y-78866392D01*
X161107314Y-78800500D01*
X161107315Y-78800498D01*
X161114352Y-78796436D01*
X161115492Y-78798411D01*
X161169654Y-78777464D01*
X161238101Y-78791494D01*
X161288097Y-78840301D01*
X161303770Y-78908390D01*
X161299765Y-78933117D01*
X161299500Y-78934108D01*
X161299500Y-79065892D01*
X161316554Y-79129539D01*
X161333608Y-79193187D01*
X161356946Y-79233608D01*
X161399500Y-79307314D01*
X161492686Y-79400500D01*
X161606814Y-79466392D01*
X161734108Y-79500500D01*
X161734110Y-79500500D01*
X161865890Y-79500500D01*
X161865892Y-79500500D01*
X161993186Y-79466392D01*
X162107314Y-79400500D01*
X162200500Y-79307314D01*
X162266392Y-79193186D01*
X162300500Y-79065892D01*
X162300500Y-78934108D01*
X162266392Y-78806814D01*
X162200500Y-78692686D01*
X162107314Y-78599500D01*
X162038318Y-78559665D01*
X161993187Y-78533608D01*
X161929539Y-78516554D01*
X161865892Y-78499500D01*
X161734108Y-78499500D01*
X161606812Y-78533608D01*
X161527006Y-78579684D01*
X161492686Y-78599500D01*
X161492684Y-78599501D01*
X161485648Y-78603564D01*
X161484510Y-78601593D01*
X161430307Y-78622538D01*
X161361864Y-78608488D01*
X161311883Y-78559665D01*
X161296232Y-78491571D01*
X161300237Y-78466870D01*
X161300500Y-78465892D01*
X161300500Y-78334108D01*
X161266392Y-78206814D01*
X161200500Y-78092686D01*
X161107314Y-77999500D01*
X161050250Y-77966554D01*
X160993187Y-77933608D01*
X160929539Y-77916554D01*
X160865892Y-77899500D01*
X160734108Y-77899500D01*
X160606812Y-77933608D01*
X160492686Y-77999500D01*
X160492683Y-77999502D01*
X160399502Y-78092683D01*
X160399500Y-78092686D01*
X160333608Y-78206812D01*
X160308773Y-78299500D01*
X160299500Y-78334108D01*
X148694053Y-78334108D01*
X148693187Y-78333608D01*
X148629539Y-78316554D01*
X148565892Y-78299500D01*
X148434108Y-78299500D01*
X148306812Y-78333608D01*
X148192686Y-78399500D01*
X148192683Y-78399502D01*
X148099502Y-78492683D01*
X148099500Y-78492686D01*
X148033608Y-78606812D01*
X147999500Y-78734108D01*
X115000500Y-78734108D01*
X115000500Y-77634108D01*
X150624500Y-77634108D01*
X150624500Y-77765891D01*
X150658608Y-77893187D01*
X150662253Y-77899500D01*
X150724500Y-78007314D01*
X150817686Y-78100500D01*
X150931814Y-78166392D01*
X151059108Y-78200500D01*
X151059110Y-78200500D01*
X151190890Y-78200500D01*
X151190892Y-78200500D01*
X151318186Y-78166392D01*
X151432314Y-78100500D01*
X151525500Y-78007314D01*
X151591392Y-77893186D01*
X151625500Y-77765892D01*
X151625500Y-77706203D01*
X151645185Y-77639164D01*
X151697989Y-77593409D01*
X151767147Y-77583465D01*
X151781577Y-77586424D01*
X151834108Y-77600500D01*
X151834111Y-77600500D01*
X151965890Y-77600500D01*
X151965892Y-77600500D01*
X152093186Y-77566392D01*
X152207314Y-77500500D01*
X152300500Y-77407314D01*
X152366392Y-77293186D01*
X152400500Y-77165892D01*
X152400500Y-77034108D01*
X152366392Y-76906814D01*
X152300500Y-76792686D01*
X152207314Y-76699500D01*
X152150250Y-76666554D01*
X152093187Y-76633608D01*
X152029539Y-76616554D01*
X151965892Y-76599500D01*
X151834108Y-76599500D01*
X151706812Y-76633608D01*
X151592686Y-76699500D01*
X151592683Y-76699502D01*
X151499502Y-76792683D01*
X151499500Y-76792686D01*
X151433608Y-76906812D01*
X151399500Y-77034108D01*
X151399500Y-77093796D01*
X151379815Y-77160835D01*
X151327011Y-77206590D01*
X151257853Y-77216534D01*
X151243408Y-77213571D01*
X151190893Y-77199500D01*
X151190892Y-77199500D01*
X151059108Y-77199500D01*
X150931812Y-77233608D01*
X150817686Y-77299500D01*
X150817683Y-77299502D01*
X150724502Y-77392683D01*
X150724500Y-77392686D01*
X150658608Y-77506812D01*
X150624500Y-77634108D01*
X115000500Y-77634108D01*
X115000500Y-75140691D01*
X130549500Y-75140691D01*
X130549500Y-75259309D01*
X130580201Y-75373886D01*
X130639511Y-75476613D01*
X130723387Y-75560489D01*
X130826114Y-75619799D01*
X130940691Y-75650500D01*
X130940694Y-75650500D01*
X131059306Y-75650500D01*
X131059309Y-75650500D01*
X131111661Y-75636472D01*
X131181507Y-75638135D01*
X131239370Y-75677297D01*
X131266875Y-75741525D01*
X131263527Y-75788339D01*
X131249500Y-75840689D01*
X131249500Y-75840691D01*
X131249500Y-75959309D01*
X131280201Y-76073886D01*
X131339511Y-76176613D01*
X131423387Y-76260489D01*
X131526114Y-76319799D01*
X131640691Y-76350500D01*
X131640694Y-76350500D01*
X131759306Y-76350500D01*
X131759309Y-76350500D01*
X131873886Y-76319799D01*
X131976613Y-76260489D01*
X132060489Y-76176613D01*
X132119799Y-76073886D01*
X132150500Y-75959309D01*
X132150500Y-75940691D01*
X138649500Y-75940691D01*
X138649500Y-76059309D01*
X138680201Y-76173886D01*
X138739511Y-76276613D01*
X138823387Y-76360489D01*
X138926114Y-76419799D01*
X139040691Y-76450500D01*
X139040694Y-76450500D01*
X139159306Y-76450500D01*
X139159309Y-76450500D01*
X139273886Y-76419799D01*
X139376613Y-76360489D01*
X139460489Y-76276613D01*
X139519799Y-76173886D01*
X139550500Y-76059309D01*
X139550500Y-75940691D01*
X139519799Y-75826114D01*
X139460489Y-75723387D01*
X139376613Y-75639511D01*
X139273886Y-75580201D01*
X139159309Y-75549500D01*
X139040691Y-75549500D01*
X138926114Y-75580201D01*
X138926112Y-75580201D01*
X138926112Y-75580202D01*
X138823387Y-75639511D01*
X138823384Y-75639513D01*
X138739513Y-75723384D01*
X138739511Y-75723387D01*
X138680201Y-75826114D01*
X138649500Y-75940691D01*
X132150500Y-75940691D01*
X132150500Y-75840691D01*
X132119799Y-75726114D01*
X132060489Y-75623387D01*
X131976613Y-75539511D01*
X131873886Y-75480201D01*
X131759309Y-75449500D01*
X131640691Y-75449500D01*
X131640689Y-75449500D01*
X131588339Y-75463527D01*
X131518489Y-75461864D01*
X131460627Y-75422700D01*
X131433124Y-75358472D01*
X131436471Y-75311663D01*
X131450500Y-75259309D01*
X131450500Y-75140691D01*
X131419799Y-75026114D01*
X131360489Y-74923387D01*
X131276613Y-74839511D01*
X131173886Y-74780201D01*
X131059309Y-74749500D01*
X130940691Y-74749500D01*
X130826114Y-74780201D01*
X130826112Y-74780201D01*
X130826112Y-74780202D01*
X130723387Y-74839511D01*
X130723384Y-74839513D01*
X130639513Y-74923384D01*
X130639511Y-74923387D01*
X130580201Y-75026114D01*
X130549500Y-75140691D01*
X115000500Y-75140691D01*
X115000500Y-73564528D01*
X150254000Y-73564528D01*
X150254000Y-73732071D01*
X150286682Y-73896374D01*
X150286684Y-73896382D01*
X150350795Y-74051160D01*
X150443873Y-74190462D01*
X150562337Y-74308926D01*
X150654994Y-74370837D01*
X150701637Y-74402003D01*
X150856418Y-74466116D01*
X151020728Y-74498799D01*
X151020732Y-74498800D01*
X151020733Y-74498800D01*
X151188268Y-74498800D01*
X151188269Y-74498799D01*
X151352582Y-74466116D01*
X151507363Y-74402003D01*
X151646662Y-74308926D01*
X151765126Y-74190462D01*
X151858203Y-74051163D01*
X151922316Y-73896382D01*
X151955000Y-73732067D01*
X151955000Y-73564533D01*
X151954999Y-73564528D01*
X152794000Y-73564528D01*
X152794000Y-73732071D01*
X152826682Y-73896374D01*
X152826684Y-73896382D01*
X152890795Y-74051160D01*
X152983873Y-74190462D01*
X153102337Y-74308926D01*
X153194994Y-74370837D01*
X153241637Y-74402003D01*
X153396418Y-74466116D01*
X153560728Y-74498799D01*
X153560732Y-74498800D01*
X153560733Y-74498800D01*
X153728268Y-74498800D01*
X153728269Y-74498799D01*
X153892582Y-74466116D01*
X154047363Y-74402003D01*
X154186662Y-74308926D01*
X154305126Y-74190462D01*
X154398203Y-74051163D01*
X154462316Y-73896382D01*
X154495000Y-73732067D01*
X154495000Y-73564533D01*
X154462316Y-73400218D01*
X154398203Y-73245437D01*
X154367037Y-73198794D01*
X154305126Y-73106137D01*
X154186662Y-72987673D01*
X154047360Y-72894595D01*
X153892582Y-72830484D01*
X153892574Y-72830482D01*
X153728271Y-72797800D01*
X153728267Y-72797800D01*
X153560733Y-72797800D01*
X153560728Y-72797800D01*
X153396425Y-72830482D01*
X153396417Y-72830484D01*
X153241639Y-72894595D01*
X153102337Y-72987673D01*
X152983873Y-73106137D01*
X152890795Y-73245439D01*
X152826684Y-73400217D01*
X152826682Y-73400225D01*
X152794000Y-73564528D01*
X151954999Y-73564528D01*
X151922316Y-73400218D01*
X151858203Y-73245437D01*
X151827037Y-73198794D01*
X151765126Y-73106137D01*
X151646662Y-72987673D01*
X151507360Y-72894595D01*
X151352582Y-72830484D01*
X151352574Y-72830482D01*
X151188271Y-72797800D01*
X151188267Y-72797800D01*
X151020733Y-72797800D01*
X151020728Y-72797800D01*
X150856425Y-72830482D01*
X150856417Y-72830484D01*
X150701639Y-72894595D01*
X150562337Y-72987673D01*
X150443873Y-73106137D01*
X150350795Y-73245439D01*
X150286684Y-73400217D01*
X150286682Y-73400225D01*
X150254000Y-73564528D01*
X115000500Y-73564528D01*
X115000500Y-72440691D01*
X140149500Y-72440691D01*
X140149500Y-72559309D01*
X140180201Y-72673886D01*
X140239511Y-72776613D01*
X140323387Y-72860489D01*
X140426114Y-72919799D01*
X140540691Y-72950500D01*
X140540694Y-72950500D01*
X140659306Y-72950500D01*
X140659309Y-72950500D01*
X140773886Y-72919799D01*
X140876613Y-72860489D01*
X140960489Y-72776613D01*
X141019799Y-72673886D01*
X141050500Y-72559309D01*
X141050500Y-72440691D01*
X141019799Y-72326114D01*
X140960489Y-72223387D01*
X140876613Y-72139511D01*
X140773886Y-72080201D01*
X140659309Y-72049500D01*
X140540691Y-72049500D01*
X140426114Y-72080201D01*
X140426112Y-72080201D01*
X140426112Y-72080202D01*
X140323387Y-72139511D01*
X140323384Y-72139513D01*
X140239513Y-72223384D01*
X140239511Y-72223387D01*
X140194711Y-72300983D01*
X140180201Y-72326114D01*
X140149500Y-72440691D01*
X115000500Y-72440691D01*
X115000500Y-71909178D01*
X160946000Y-71909178D01*
X160946000Y-72090821D01*
X160974415Y-72270225D01*
X161030548Y-72442984D01*
X161113012Y-72604830D01*
X161113014Y-72604834D01*
X161125048Y-72621395D01*
X161125049Y-72621396D01*
X161700000Y-72046445D01*
X161700000Y-72052661D01*
X161727259Y-72154394D01*
X161779920Y-72245606D01*
X161854394Y-72320080D01*
X161945606Y-72372741D01*
X162047339Y-72400000D01*
X162053554Y-72400000D01*
X161478602Y-72974949D01*
X161478603Y-72974950D01*
X161495165Y-72986985D01*
X161495179Y-72986993D01*
X161657012Y-73069450D01*
X161829774Y-73125584D01*
X162009179Y-73154000D01*
X162190821Y-73154000D01*
X162370225Y-73125584D01*
X162542984Y-73069451D01*
X162704831Y-72986986D01*
X162721396Y-72974949D01*
X162146447Y-72400000D01*
X162152661Y-72400000D01*
X162254394Y-72372741D01*
X162345606Y-72320080D01*
X162420080Y-72245606D01*
X162472741Y-72154394D01*
X162500000Y-72052661D01*
X162500000Y-72046446D01*
X163074949Y-72621395D01*
X163086986Y-72604831D01*
X163169451Y-72442984D01*
X163225584Y-72270225D01*
X163254000Y-72090821D01*
X163254000Y-71920759D01*
X166295500Y-71920759D01*
X166295500Y-72079240D01*
X166326414Y-72234656D01*
X166326416Y-72234664D01*
X166387059Y-72381071D01*
X166387064Y-72381080D01*
X166475103Y-72512838D01*
X166475106Y-72512842D01*
X166587157Y-72624893D01*
X166587161Y-72624896D01*
X166718919Y-72712935D01*
X166718925Y-72712938D01*
X166718926Y-72712939D01*
X166865336Y-72773584D01*
X167020759Y-72804499D01*
X167020763Y-72804500D01*
X167020764Y-72804500D01*
X167179237Y-72804500D01*
X167179238Y-72804499D01*
X167334664Y-72773584D01*
X167481074Y-72712939D01*
X167612839Y-72624896D01*
X167724896Y-72512839D01*
X167812939Y-72381074D01*
X167873584Y-72234664D01*
X167904500Y-72079236D01*
X167904500Y-71920764D01*
X167873584Y-71765336D01*
X167838204Y-71679920D01*
X167829023Y-71657754D01*
X167812940Y-71618929D01*
X167812940Y-71618928D01*
X167812939Y-71618926D01*
X167812937Y-71618923D01*
X167812935Y-71618919D01*
X167811244Y-71616389D01*
X177719600Y-71616389D01*
X177719600Y-71743610D01*
X177744415Y-71868365D01*
X177744418Y-71868375D01*
X177793097Y-71985898D01*
X177793102Y-71985907D01*
X177863773Y-72091673D01*
X177863776Y-72091677D01*
X177953722Y-72181623D01*
X177953726Y-72181626D01*
X178059492Y-72252297D01*
X178059498Y-72252300D01*
X178059499Y-72252301D01*
X178177027Y-72300983D01*
X178273037Y-72320080D01*
X178301789Y-72325799D01*
X178301793Y-72325800D01*
X178301794Y-72325800D01*
X179241807Y-72325800D01*
X179241808Y-72325799D01*
X179366573Y-72300983D01*
X179484101Y-72252301D01*
X179589874Y-72181626D01*
X179679826Y-72091674D01*
X179750501Y-71985901D01*
X179799183Y-71868373D01*
X179824000Y-71743606D01*
X179824000Y-71616394D01*
X179799183Y-71491627D01*
X179750501Y-71374099D01*
X179750500Y-71374098D01*
X179750497Y-71374092D01*
X179679826Y-71268326D01*
X179679823Y-71268322D01*
X179589877Y-71178376D01*
X179589873Y-71178373D01*
X179484107Y-71107702D01*
X179484098Y-71107697D01*
X179366575Y-71059018D01*
X179366576Y-71059018D01*
X179366573Y-71059017D01*
X179366569Y-71059016D01*
X179366565Y-71059015D01*
X179241810Y-71034200D01*
X179241806Y-71034200D01*
X178301794Y-71034200D01*
X178301789Y-71034200D01*
X178177034Y-71059015D01*
X178177024Y-71059018D01*
X178059501Y-71107697D01*
X178059492Y-71107702D01*
X177953726Y-71178373D01*
X177953722Y-71178376D01*
X177863776Y-71268322D01*
X177863773Y-71268326D01*
X177793102Y-71374092D01*
X177793097Y-71374101D01*
X177744418Y-71491624D01*
X177744415Y-71491634D01*
X177719600Y-71616389D01*
X167811244Y-71616389D01*
X167724896Y-71487161D01*
X167724893Y-71487157D01*
X167612842Y-71375106D01*
X167612838Y-71375103D01*
X167481080Y-71287064D01*
X167481071Y-71287059D01*
X167334664Y-71226416D01*
X167334656Y-71226414D01*
X167179240Y-71195500D01*
X167179236Y-71195500D01*
X167020764Y-71195500D01*
X167020759Y-71195500D01*
X166865343Y-71226414D01*
X166865335Y-71226416D01*
X166718928Y-71287059D01*
X166718919Y-71287064D01*
X166587161Y-71375103D01*
X166587157Y-71375106D01*
X166475106Y-71487157D01*
X166475103Y-71487161D01*
X166387064Y-71618919D01*
X166387059Y-71618928D01*
X166326416Y-71765335D01*
X166326414Y-71765343D01*
X166295500Y-71920759D01*
X163254000Y-71920759D01*
X163254000Y-71909178D01*
X163225584Y-71729774D01*
X163169450Y-71557012D01*
X163086993Y-71395179D01*
X163086985Y-71395165D01*
X163074950Y-71378603D01*
X163074949Y-71378602D01*
X162500000Y-71953552D01*
X162500000Y-71947339D01*
X162472741Y-71845606D01*
X162420080Y-71754394D01*
X162345606Y-71679920D01*
X162254394Y-71627259D01*
X162152661Y-71600000D01*
X162146447Y-71600000D01*
X162721396Y-71025049D01*
X162721395Y-71025048D01*
X162704834Y-71013014D01*
X162704830Y-71013012D01*
X162542984Y-70930548D01*
X162370225Y-70874415D01*
X162190821Y-70846000D01*
X162009179Y-70846000D01*
X161829774Y-70874415D01*
X161657015Y-70930548D01*
X161495170Y-71013012D01*
X161495161Y-71013018D01*
X161478603Y-71025048D01*
X161478602Y-71025049D01*
X162053554Y-71600000D01*
X162047339Y-71600000D01*
X161945606Y-71627259D01*
X161854394Y-71679920D01*
X161779920Y-71754394D01*
X161727259Y-71845606D01*
X161700000Y-71947339D01*
X161700000Y-71953553D01*
X161125049Y-71378602D01*
X161125048Y-71378603D01*
X161113018Y-71395161D01*
X161113012Y-71395170D01*
X161030548Y-71557015D01*
X160974415Y-71729774D01*
X160946000Y-71909178D01*
X115000500Y-71909178D01*
X115000500Y-67759108D01*
X164199500Y-67759108D01*
X164199500Y-67890891D01*
X164233608Y-68018187D01*
X164266554Y-68075250D01*
X164299500Y-68132314D01*
X164392686Y-68225500D01*
X164506814Y-68291392D01*
X164634108Y-68325500D01*
X164634110Y-68325500D01*
X164765890Y-68325500D01*
X164765892Y-68325500D01*
X164893186Y-68291392D01*
X165007314Y-68225500D01*
X165100500Y-68132314D01*
X165166392Y-68018186D01*
X165200500Y-67890892D01*
X165200500Y-67759108D01*
X165166392Y-67631814D01*
X165100500Y-67517686D01*
X165007314Y-67424500D01*
X164950250Y-67391554D01*
X164893187Y-67358608D01*
X164871645Y-67352836D01*
X164765892Y-67324500D01*
X164634108Y-67324500D01*
X164506812Y-67358608D01*
X164392686Y-67424500D01*
X164392683Y-67424502D01*
X164299502Y-67517683D01*
X164299500Y-67517686D01*
X164233608Y-67631812D01*
X164199500Y-67759108D01*
X115000500Y-67759108D01*
X115000500Y-67234108D01*
X166299500Y-67234108D01*
X166299500Y-67365891D01*
X166333608Y-67493187D01*
X166347751Y-67517683D01*
X166399500Y-67607314D01*
X166492686Y-67700500D01*
X166606814Y-67766392D01*
X166734108Y-67800500D01*
X166734110Y-67800500D01*
X166865890Y-67800500D01*
X166865892Y-67800500D01*
X166993186Y-67766392D01*
X167107314Y-67700500D01*
X167200500Y-67607314D01*
X167266392Y-67493186D01*
X167300500Y-67365892D01*
X167300500Y-67234108D01*
X167266392Y-67106814D01*
X167200500Y-66992686D01*
X167107314Y-66899500D01*
X167050250Y-66866554D01*
X166993187Y-66833608D01*
X166929539Y-66816554D01*
X166865892Y-66799500D01*
X166734108Y-66799500D01*
X166606812Y-66833608D01*
X166492686Y-66899500D01*
X166492683Y-66899502D01*
X166399502Y-66992683D01*
X166399500Y-66992686D01*
X166333608Y-67106812D01*
X166299500Y-67234108D01*
X115000500Y-67234108D01*
X115000500Y-65934108D01*
X139299500Y-65934108D01*
X139299500Y-66065891D01*
X139333608Y-66193187D01*
X139366554Y-66250250D01*
X139399500Y-66307314D01*
X139492686Y-66400500D01*
X139606814Y-66466392D01*
X139734108Y-66500500D01*
X139734110Y-66500500D01*
X139865890Y-66500500D01*
X139865892Y-66500500D01*
X139993186Y-66466392D01*
X140107314Y-66400500D01*
X140200500Y-66307314D01*
X140266392Y-66193186D01*
X140300500Y-66065892D01*
X140300500Y-65934108D01*
X140266392Y-65806814D01*
X140200500Y-65692686D01*
X140107314Y-65599500D01*
X140050250Y-65566554D01*
X139993187Y-65533608D01*
X139929539Y-65516554D01*
X139865892Y-65499500D01*
X139734108Y-65499500D01*
X139606812Y-65533608D01*
X139492686Y-65599500D01*
X139492683Y-65599502D01*
X139399502Y-65692683D01*
X139399500Y-65692686D01*
X139333608Y-65806812D01*
X139299500Y-65934108D01*
X115000500Y-65934108D01*
X115000500Y-65154822D01*
X126459499Y-65154822D01*
X126468231Y-65198717D01*
X126468234Y-65198724D01*
X126498118Y-65243449D01*
X126501496Y-65248504D01*
X126551278Y-65281767D01*
X126551281Y-65281767D01*
X126551282Y-65281768D01*
X126595177Y-65290500D01*
X126595180Y-65290500D01*
X128324822Y-65290500D01*
X128368717Y-65281768D01*
X128368717Y-65281767D01*
X128368722Y-65281767D01*
X128418504Y-65248504D01*
X128451767Y-65198722D01*
X128460500Y-65154820D01*
X128460500Y-63425180D01*
X128460500Y-63425177D01*
X128451768Y-63381282D01*
X128451767Y-63381281D01*
X128451767Y-63381278D01*
X128418504Y-63331496D01*
X128413197Y-63327950D01*
X128368724Y-63298234D01*
X128368717Y-63298231D01*
X128324822Y-63289500D01*
X128324820Y-63289500D01*
X126595180Y-63289500D01*
X126595178Y-63289500D01*
X126551282Y-63298231D01*
X126551275Y-63298234D01*
X126501496Y-63331495D01*
X126501495Y-63331496D01*
X126468234Y-63381275D01*
X126468231Y-63381282D01*
X126459500Y-63425177D01*
X126459500Y-63425180D01*
X126459500Y-65154820D01*
X126459500Y-65154822D01*
X126459499Y-65154822D01*
X115000500Y-65154822D01*
X115000500Y-65002706D01*
X115000618Y-64997297D01*
X115008873Y-64808217D01*
X115017386Y-64613226D01*
X115018326Y-64602495D01*
X115068152Y-64224025D01*
X115070025Y-64213405D01*
X115152649Y-63840709D01*
X115155440Y-63830295D01*
X115270230Y-63466227D01*
X115273924Y-63456079D01*
X115420003Y-63103412D01*
X115424561Y-63093638D01*
X115600822Y-62755045D01*
X115606217Y-62745700D01*
X115811325Y-62423744D01*
X115817515Y-62414905D01*
X116049896Y-62112060D01*
X116056834Y-62103791D01*
X116290726Y-61848543D01*
X126459499Y-61848543D01*
X126497947Y-62041829D01*
X126497950Y-62041839D01*
X126573364Y-62223907D01*
X126573371Y-62223920D01*
X126682860Y-62387781D01*
X126682863Y-62387785D01*
X126822214Y-62527136D01*
X126822218Y-62527139D01*
X126986079Y-62636628D01*
X126986092Y-62636635D01*
X127168160Y-62712049D01*
X127168165Y-62712051D01*
X127168169Y-62712051D01*
X127168170Y-62712052D01*
X127361456Y-62750500D01*
X127361459Y-62750500D01*
X127558543Y-62750500D01*
X127688582Y-62724632D01*
X127751835Y-62712051D01*
X127933914Y-62636632D01*
X128097782Y-62527139D01*
X128237139Y-62387782D01*
X128346632Y-62223914D01*
X128422051Y-62041835D01*
X128444448Y-61929240D01*
X128460500Y-61848543D01*
X128460500Y-61651456D01*
X128422052Y-61458170D01*
X128422051Y-61458169D01*
X128422051Y-61458165D01*
X128411439Y-61432544D01*
X128346635Y-61276092D01*
X128346628Y-61276079D01*
X128237139Y-61112218D01*
X128237136Y-61112214D01*
X128097785Y-60972863D01*
X128097781Y-60972860D01*
X127933920Y-60863371D01*
X127933907Y-60863364D01*
X127751839Y-60787950D01*
X127751829Y-60787947D01*
X127558543Y-60749500D01*
X127558541Y-60749500D01*
X127361459Y-60749500D01*
X127361457Y-60749500D01*
X127168170Y-60787947D01*
X127168160Y-60787950D01*
X126986092Y-60863364D01*
X126986079Y-60863371D01*
X126822218Y-60972860D01*
X126822214Y-60972863D01*
X126682863Y-61112214D01*
X126682860Y-61112218D01*
X126573371Y-61276079D01*
X126573364Y-61276092D01*
X126497950Y-61458160D01*
X126497947Y-61458170D01*
X126459500Y-61651456D01*
X126459500Y-61651459D01*
X126459500Y-61848541D01*
X126459500Y-61848543D01*
X126459499Y-61848543D01*
X116290726Y-61848543D01*
X116314726Y-61822352D01*
X116322352Y-61814726D01*
X116603791Y-61556834D01*
X116612072Y-61549887D01*
X116615849Y-61546989D01*
X116677086Y-61500000D01*
X116914905Y-61317515D01*
X116923744Y-61311325D01*
X117245700Y-61106217D01*
X117255045Y-61100822D01*
X117593638Y-60924561D01*
X117603412Y-60920003D01*
X117956095Y-60773917D01*
X117966227Y-60770230D01*
X118330295Y-60655440D01*
X118340709Y-60652649D01*
X118713405Y-60570025D01*
X118724025Y-60568152D01*
X119102495Y-60518326D01*
X119113226Y-60517386D01*
X119497297Y-60500617D01*
X119502706Y-60500500D01*
X119565892Y-60500500D01*
X131654704Y-60500500D01*
X131721743Y-60520185D01*
G37*
%TD.AperFunction*%
%TD*%
M02*
