%TF.GenerationSoftware,KiCad,Pcbnew,9.0.7+1*%
%TF.CreationDate,Date%
%TF.ProjectId,DumbFCC,44756d62-4643-4432-9e6b-696361645f70,1.1.0*%
%TF.SameCoordinates,Original*%
%TF.FileFunction,Paste,Top*%
%TF.FilePolarity,Positive*%
%FSLAX46Y46*%
G04 Gerber Fmt 4.6, Leading zero omitted, Abs format (unit mm)*
G04 Created by KiCad*
%MOMM*%
%LPD*%
G01*
G04 APERTURE LIST*
G04 Aperture macros list*
%AMRoundRect*
0 Rectangle with rounded corners*
0 $1 Rounding radius*
0 $2 $3 $4 $5 $6 $7 $8 $9 X,Y pos of 4 corners*
0 Add a 4 corners polygon primitive as box body*
4,1,4,$2,$3,$4,$5,$6,$7,$8,$9,$2,$3,0*
0 Add four circle primitives for the rounded corners*
1,1,$1+$1,$2,$3*
1,1,$1+$1,$4,$5*
1,1,$1+$1,$6,$7*
1,1,$1+$1,$8,$9*
0 Add four rect primitives between the rounded corners*
20,1,$1+$1,$2,$3,$4,$5,0*
20,1,$1+$1,$4,$5,$6,$7,0*
20,1,$1+$1,$6,$7,$8,$9,0*
20,1,$1+$1,$8,$9,$2,$3,0*%
G04 Aperture macros list end*
%ADD10RoundRect,0.150000X0.512500X0.150000X-0.512500X0.150000X-0.512500X-0.150000X0.512500X-0.150000X0*%
%ADD11RoundRect,0.250000X-0.159099X0.512652X-0.512652X0.159099X0.159099X-0.512652X0.512652X-0.159099X0*%
%ADD12RoundRect,0.250000X-0.475000X0.250000X-0.475000X-0.250000X0.475000X-0.250000X0.475000X0.250000X0*%
%ADD13RoundRect,0.250000X-0.550000X-0.600000X0.550000X-0.600000X0.550000X0.600000X-0.550000X0.600000X0*%
%ADD14RoundRect,0.250000X-0.250000X-0.475000X0.250000X-0.475000X0.250000X0.475000X-0.250000X0.475000X0*%
%ADD15RoundRect,0.243750X0.456250X-0.243750X0.456250X0.243750X-0.456250X0.243750X-0.456250X-0.243750X0*%
%ADD16RoundRect,0.250000X-0.450000X0.262500X-0.450000X-0.262500X0.450000X-0.262500X0.450000X0.262500X0*%
%ADD17RoundRect,0.250000X0.450000X-0.262500X0.450000X0.262500X-0.450000X0.262500X-0.450000X-0.262500X0*%
%ADD18RoundRect,0.250000X-0.262500X-0.450000X0.262500X-0.450000X0.262500X0.450000X-0.262500X0.450000X0*%
%ADD19RoundRect,0.250000X0.070711X0.565685X-0.565685X-0.070711X-0.070711X-0.565685X0.565685X0.070711X0*%
%ADD20R,0.375000X0.350000*%
%ADD21R,0.350000X0.375000*%
%ADD22R,1.500000X1.100000*%
%ADD23RoundRect,0.243750X-0.456250X0.243750X-0.456250X-0.243750X0.456250X-0.243750X0.456250X0.243750X0*%
%ADD24RoundRect,0.250000X0.475000X-0.250000X0.475000X0.250000X-0.475000X0.250000X-0.475000X-0.250000X0*%
%ADD25RoundRect,0.250000X0.512652X0.159099X0.159099X0.512652X-0.512652X-0.159099X-0.159099X-0.512652X0*%
%ADD26RoundRect,0.150000X0.150000X-0.512500X0.150000X0.512500X-0.150000X0.512500X-0.150000X-0.512500X0*%
%ADD27RoundRect,0.250000X0.250000X0.475000X-0.250000X0.475000X-0.250000X-0.475000X0.250000X-0.475000X0*%
%ADD28RoundRect,0.250000X-0.132583X0.503814X-0.503814X0.132583X0.132583X-0.503814X0.503814X-0.132583X0*%
%ADD29RoundRect,0.250000X0.262500X0.450000X-0.262500X0.450000X-0.262500X-0.450000X0.262500X-0.450000X0*%
%ADD30RoundRect,0.218750X0.218750X0.381250X-0.218750X0.381250X-0.218750X-0.381250X0.218750X-0.381250X0*%
%ADD31R,1.143000X0.609600*%
%ADD32R,1.143000X0.304800*%
%ADD33RoundRect,0.250000X0.159099X-0.512652X0.512652X-0.159099X-0.159099X0.512652X-0.512652X0.159099X0*%
%ADD34R,0.950000X0.550000*%
%ADD35RoundRect,0.075000X-0.441942X-0.548008X0.548008X0.441942X0.441942X0.548008X-0.548008X-0.441942X0*%
%ADD36RoundRect,0.075000X0.441942X-0.548008X0.548008X-0.441942X-0.441942X0.548008X-0.548008X0.441942X0*%
%ADD37RoundRect,0.250000X-0.512652X-0.159099X-0.159099X-0.512652X0.512652X0.159099X0.159099X0.512652X0*%
%ADD38RoundRect,0.087500X-0.225000X-0.087500X0.225000X-0.087500X0.225000X0.087500X-0.225000X0.087500X0*%
%ADD39RoundRect,0.087500X-0.087500X-0.225000X0.087500X-0.225000X0.087500X0.225000X-0.087500X0.225000X0*%
%ADD40RoundRect,0.250000X1.131371X-0.353553X-0.353553X1.131371X-1.131371X0.353553X0.353553X-1.131371X0*%
%ADD41RoundRect,0.250000X-1.050000X-0.550000X1.050000X-0.550000X1.050000X0.550000X-1.050000X0.550000X0*%
%ADD42RoundRect,0.250000X0.132583X-0.503814X0.503814X-0.132583X-0.132583X0.503814X-0.503814X0.132583X0*%
G04 APERTURE END LIST*
D10*
%TO.C,D500*%
X172500000Y-76900000D03*
X172500000Y-75000000D03*
X170225000Y-75950000D03*
%TD*%
D11*
%TO.C,C207*%
X141971751Y-90228249D03*
X140628249Y-91571751D03*
%TD*%
D12*
%TO.C,C306*%
X122200000Y-84050000D03*
X122200000Y-85950000D03*
%TD*%
D13*
%TO.C,D501*%
X173000000Y-85000000D03*
X177000000Y-85000000D03*
%TD*%
D14*
%TO.C,C401*%
X152600000Y-102500000D03*
X154500000Y-102500000D03*
%TD*%
D15*
%TO.C,D403*%
X173850000Y-103937500D03*
X173850000Y-102062500D03*
%TD*%
D16*
%TO.C,R503*%
X176000000Y-79587500D03*
X176000000Y-81412500D03*
%TD*%
D17*
%TO.C,R400*%
X135550000Y-102592500D03*
X135550000Y-100767500D03*
%TD*%
%TO.C,R405*%
X173850000Y-107850000D03*
X173850000Y-106025000D03*
%TD*%
D18*
%TO.C,R501*%
X162387500Y-64500000D03*
X164212500Y-64500000D03*
%TD*%
D19*
%TO.C,Y200*%
X143555635Y-91444365D03*
X142000000Y-93000000D03*
X143202081Y-94202081D03*
X144757716Y-92646446D03*
%TD*%
D15*
%TO.C,D401*%
X167140000Y-104000000D03*
X167140000Y-102125000D03*
%TD*%
D20*
%TO.C,U300*%
X130237500Y-78250000D03*
X130237500Y-78750000D03*
X130237500Y-79250000D03*
X130237500Y-79750000D03*
D21*
X130750000Y-79762500D03*
X131250000Y-79762500D03*
D20*
X131762500Y-79750000D03*
X131762500Y-79250000D03*
X131762500Y-78750000D03*
X131762500Y-78250000D03*
D21*
X131250000Y-78237500D03*
X130750000Y-78237500D03*
%TD*%
D22*
%TO.C,SW400*%
X132950000Y-100770000D03*
X132950000Y-98230000D03*
X124050000Y-100770000D03*
X124050000Y-98230000D03*
%TD*%
D16*
%TO.C,R401*%
X135560000Y-96407500D03*
X135560000Y-98232500D03*
%TD*%
D23*
%TO.C,D100*%
X171800000Y-90762500D03*
X171800000Y-92637500D03*
%TD*%
D11*
%TO.C,C203*%
X158000000Y-92500000D03*
X156656498Y-93843502D03*
%TD*%
D15*
%TO.C,D400*%
X163640000Y-104000000D03*
X163640000Y-102125000D03*
%TD*%
D12*
%TO.C,C305*%
X133800000Y-85850000D03*
X133800000Y-87750000D03*
%TD*%
D18*
%TO.C,R301*%
X124087500Y-91000000D03*
X125912500Y-91000000D03*
%TD*%
D11*
%TO.C,C202*%
X163671751Y-86828249D03*
X162328249Y-88171751D03*
%TD*%
D24*
%TO.C,C300*%
X133300000Y-79950000D03*
X133300000Y-78050000D03*
%TD*%
D17*
%TO.C,R100*%
X171800000Y-96175000D03*
X171800000Y-94350000D03*
%TD*%
D25*
%TO.C,C204*%
X151671751Y-93171751D03*
X150328249Y-91828249D03*
%TD*%
D26*
%TO.C,U100*%
X175700000Y-92675000D03*
X176650000Y-92675000D03*
X177600000Y-92675000D03*
X177600000Y-90400000D03*
X176650000Y-90400000D03*
X175700000Y-90400000D03*
%TD*%
D27*
%TO.C,C304*%
X132050000Y-87500000D03*
X130150000Y-87500000D03*
%TD*%
D28*
%TO.C,R200*%
X147345235Y-90054765D03*
X146054765Y-91345235D03*
%TD*%
D29*
%TO.C,R500*%
X168612500Y-64500000D03*
X166787500Y-64500000D03*
%TD*%
D17*
%TO.C,R406*%
X160090000Y-107912500D03*
X160090000Y-106087500D03*
%TD*%
D30*
%TO.C,FB500*%
X181162500Y-85000000D03*
X179037500Y-85000000D03*
%TD*%
D31*
%TO.C,J506*%
X178196801Y-79200001D03*
X178196801Y-78400000D03*
D32*
X178196801Y-77250000D03*
X178196801Y-76250000D03*
X178196801Y-75750000D03*
X178196801Y-74750000D03*
D31*
X178196801Y-72800001D03*
X178196801Y-73600000D03*
D32*
X178196801Y-74249940D03*
X178196801Y-75249941D03*
X178196801Y-76749940D03*
X178196801Y-77749941D03*
%TD*%
D17*
%TO.C,R403*%
X167100000Y-107912500D03*
X167100000Y-106087500D03*
%TD*%
D33*
%TO.C,C205*%
X145328249Y-83171751D03*
X146671751Y-81828249D03*
%TD*%
D28*
%TO.C,R302*%
X147645235Y-75854765D03*
X146354765Y-77145235D03*
%TD*%
D15*
%TO.C,D402*%
X170500000Y-104000000D03*
X170500000Y-102125000D03*
%TD*%
D29*
%TO.C,R201*%
X153325000Y-71500000D03*
X151500000Y-71500000D03*
%TD*%
D12*
%TO.C,C101*%
X175100000Y-94450000D03*
X175100000Y-96350000D03*
%TD*%
%TO.C,C100*%
X177100000Y-94450000D03*
X177100000Y-96350000D03*
%TD*%
D34*
%TO.C,U302*%
X123997500Y-83247500D03*
X123997500Y-84497500D03*
X123997500Y-85747500D03*
X123997500Y-86997500D03*
X126147500Y-86997500D03*
X126147500Y-85747500D03*
X126147500Y-84497500D03*
X126147500Y-83247500D03*
%TD*%
D11*
%TO.C,C208*%
X146071751Y-94128249D03*
X144728249Y-95471751D03*
%TD*%
D35*
%TO.C,U200*%
X147835519Y-86361181D03*
X148189072Y-86714734D03*
X148542625Y-87068287D03*
X148896179Y-87421841D03*
X149249732Y-87775394D03*
X149603286Y-88128948D03*
X149956839Y-88482501D03*
X150310392Y-88836054D03*
X150663946Y-89189608D03*
X151017499Y-89543161D03*
X151371052Y-89896714D03*
X151724606Y-90250268D03*
X152078159Y-90603821D03*
X152431713Y-90957375D03*
X152785266Y-91310928D03*
X153138819Y-91664481D03*
D36*
X155861181Y-91664481D03*
X156214734Y-91310928D03*
X156568287Y-90957375D03*
X156921841Y-90603821D03*
X157275394Y-90250268D03*
X157628948Y-89896714D03*
X157982501Y-89543161D03*
X158336054Y-89189608D03*
X158689608Y-88836054D03*
X159043161Y-88482501D03*
X159396714Y-88128948D03*
X159750268Y-87775394D03*
X160103821Y-87421841D03*
X160457375Y-87068287D03*
X160810928Y-86714734D03*
X161164481Y-86361181D03*
D35*
X161164481Y-83638819D03*
X160810928Y-83285266D03*
X160457375Y-82931713D03*
X160103821Y-82578159D03*
X159750268Y-82224606D03*
X159396714Y-81871052D03*
X159043161Y-81517499D03*
X158689608Y-81163946D03*
X158336054Y-80810392D03*
X157982501Y-80456839D03*
X157628948Y-80103286D03*
X157275394Y-79749732D03*
X156921841Y-79396179D03*
X156568287Y-79042625D03*
X156214734Y-78689072D03*
X155861181Y-78335519D03*
D36*
X153138819Y-78335519D03*
X152785266Y-78689072D03*
X152431713Y-79042625D03*
X152078159Y-79396179D03*
X151724606Y-79749732D03*
X151371052Y-80103286D03*
X151017499Y-80456839D03*
X150663946Y-80810392D03*
X150310392Y-81163946D03*
X149956839Y-81517499D03*
X149603286Y-81871052D03*
X149249732Y-82224606D03*
X148896179Y-82578159D03*
X148542625Y-82931713D03*
X148189072Y-83285266D03*
X147835519Y-83638819D03*
%TD*%
D14*
%TO.C,C303*%
X129650000Y-81300000D03*
X131550000Y-81300000D03*
%TD*%
D17*
%TO.C,R504*%
X176000000Y-72412500D03*
X176000000Y-70587500D03*
%TD*%
D37*
%TO.C,C201*%
X156328249Y-75828249D03*
X157671751Y-77171751D03*
%TD*%
D15*
%TO.C,D404*%
X160090000Y-104000000D03*
X160090000Y-102125000D03*
%TD*%
D38*
%TO.C,U301*%
X129837500Y-84250000D03*
X129837500Y-84750000D03*
X129837500Y-85250000D03*
X129837500Y-85750000D03*
D39*
X130500000Y-85912500D03*
X131000000Y-85912500D03*
X131500000Y-85912500D03*
D38*
X132162500Y-85750000D03*
X132162500Y-85250000D03*
X132162500Y-84750000D03*
X132162500Y-84250000D03*
D39*
X131500000Y-84087500D03*
X131000000Y-84087500D03*
X130500000Y-84087500D03*
%TD*%
D40*
%TO.C,C200*%
X142914214Y-85540145D03*
X140368630Y-82994561D03*
%TD*%
D41*
%TO.C,C307*%
X133200000Y-71000000D03*
X136800000Y-71000000D03*
%TD*%
D17*
%TO.C,R402*%
X163640000Y-107912500D03*
X163640000Y-106087500D03*
%TD*%
D42*
%TO.C,R303*%
X143854765Y-79645235D03*
X145145235Y-78354765D03*
%TD*%
D17*
%TO.C,R404*%
X170500000Y-107975000D03*
X170500000Y-106150000D03*
%TD*%
D14*
%TO.C,C308*%
X134050000Y-76000000D03*
X135950000Y-76000000D03*
%TD*%
D29*
%TO.C,R300*%
X131412500Y-91000000D03*
X129587500Y-91000000D03*
%TD*%
M02*
