M48
; DRILL file {KiCad 9.0.7+1} date 2026-03-13T17:50:00+0000
; FORMAT={-:-/ absolute / metric / decimal}
; #@! TF.CreationDate,2026-03-13T17:50:00+00:00
; #@! TF.GenerationSoftware,Kicad,Pcbnew,9.0.7+1
; #@! TF.FileFunction,Plated,1,4,PTH
FMAT,2
METRIC
; #@! TA.AperFunction,Plated,PTH,ViaDrill
T1C0.300
; #@! TA.AperFunction,Plated,PTH,ComponentDrill
T2C0.800
; #@! TA.AperFunction,Plated,PTH,ComponentDrill
T3C1.000
; #@! TA.AperFunction,Plated,PTH,ComponentDrill
T4C1.300
; #@! TA.AperFunction,Plated,PTH,ComponentDrill
T5C3.200
%
G90
G05
T1
X118.0Y-78.0
X118.5Y-95.0
X118.5Y-97.0
X119.0Y-77.0
X119.0Y-79.0
X119.5Y-94.0
X119.5Y-96.0
X119.5Y-98.0
X120.0Y-76.0
X120.0Y-78.0
X120.0Y-80.0
X120.5Y-95.0
X120.5Y-97.0
X121.0Y-77.0
X121.0Y-79.0
X122.0Y-78.0
X125.0Y-68.0
X126.0Y-80.2
X126.9Y-89.6
X127.2Y-80.2
X128.8Y-86.5
X128.9Y-85.3
X129.0Y-87.5
X129.3Y-79.25
X130.3Y-75.4
X132.9Y-92.0
X133.4Y-81.4
X137.5Y-64.5
X138.3Y-87.7
X140.3Y-72.5
X140.4Y-76.0
X140.4Y-77.6
X144.0Y-99.0
X145.0Y-98.0
X145.0Y-100.0
X146.0Y-68.5
X146.0Y-99.0
X149.85Y-77.55
X150.0Y-95.0
X150.9Y-77.3
X152.096Y-77.5
X153.8Y-77.4
X154.392Y-90.5
X154.4Y-82.1
X154.5Y-87.8
X155.0Y-91.5
X155.25Y-80.15
X155.7Y-88.9
X155.825Y-90.325
X156.0Y-105.0
X156.3Y-88.1
X156.45Y-81.05
X157.1Y-84.3
X157.1Y-87.6
X157.5Y-82.0
X158.7Y-83.1
X159.0Y-71.5
X159.5Y-83.5
X159.9Y-98.4
X162.0Y-100.0
X163.6Y-82.1
X163.662Y-79.562
X164.4Y-68.3
X164.75Y-79.75
X165.0Y-82.9
X165.0Y-97.0
X165.0Y-100.0
X165.5Y-98.5
X165.9Y-68.2
X169.0Y-80.1
X170.5Y-68.0
X170.7Y-88.8
X172.025Y-77.4
X172.5Y-98.6
X173.0Y-66.5
X174.0Y-67.5
X174.0Y-69.5
X175.0Y-68.5
X176.0Y-69.5
X176.0Y-102.5
X177.0Y-101.5
T2
X151.602Y-74.3
X154.142Y-74.3
X162.9Y-71.981
X167.9Y-71.981
T3
X128.38Y-108.25
X128.46Y-61.735
X128.46Y-64.275
X130.92Y-108.25
X131.0Y-61.735
X131.0Y-64.275
X133.46Y-108.25
X133.54Y-61.735
X133.54Y-64.275
X136.0Y-108.25
X139.88Y-61.75
X141.38Y-108.25
X142.42Y-61.75
X143.92Y-108.25
X144.96Y-61.75
X146.46Y-108.25
X147.5Y-61.75
X149.0Y-108.25
X152.96Y-61.735
X152.96Y-64.275
X155.5Y-61.735
X155.5Y-64.275
X158.04Y-61.735
X158.04Y-64.275
X163.88Y-61.75
X166.42Y-61.75
X168.96Y-61.75
X171.5Y-61.75
X183.0Y-89.735
X183.0Y-92.275
X183.0Y-95.975
X183.0Y-98.515
T4
X149.2Y-97.4
X155.7Y-97.4
T5
X119.5Y-105.0
X120.0Y-65.0
X180.0Y-65.0
X180.0Y-105.5
M30
